<svg width="37" height="36" viewBox="0 0 37 36" fill="none" xmlns="http://www.w3.org/2000/svg">
<rect x="0.5" y="-0.00109863" width="36" height="36" rx="18" fill="white"/>
<path d="M33.6198 16.6381C33.5262 17.0269 33.4542 17.4229 33.3246 17.8045C32.8422 19.2085 31.9134 20.2165 30.567 20.8357C30.3654 20.9293 30.3078 21.0301 30.3078 21.2533C30.351 24.8821 26.7654 27.4237 23.3454 26.1925C23.1726 26.1277 23.0862 26.1277 22.971 26.3077C20.9046 29.7493 16.0374 29.7205 13.9926 26.2573C13.971 26.2141 13.9422 26.1781 13.9278 26.1493C13.4382 26.2573 12.963 26.3941 12.4806 26.4589C9.75176 26.8405 7.07336 24.7741 6.74216 22.0453C6.70616 21.7501 6.72056 21.4549 6.67736 21.1669C6.66296 21.0661 6.59096 20.9293 6.50456 20.8861C4.74056 20.0509 3.70376 18.6829 3.41576 16.7533C3.40856 16.7173 3.38696 16.6813 3.37256 16.6453C3.37256 16.2925 3.37256 15.9397 3.37256 15.5797C3.38696 15.5365 3.41576 15.4933 3.42296 15.4429C3.72536 13.4773 4.79096 12.0949 6.61976 11.3101C6.82136 11.2237 6.82136 11.1229 6.78536 10.9501C6.64856 10.3165 6.64856 9.68291 6.76376 9.04931C7.38296 5.76611 10.7742 3.91571 13.8702 5.18291C14.0574 5.26211 14.151 5.25491 14.2734 5.07491C14.763 4.36211 15.3894 3.79331 16.1814 3.45491C16.7502 3.21011 17.3694 3.07331 17.967 2.89331C18.3198 2.89331 18.6726 2.89331 19.0326 2.89331C19.0614 2.90771 19.083 2.92931 19.1118 2.92931C20.6598 3.13091 21.8766 3.87971 22.791 5.13971C22.8342 5.19731 22.9854 5.21891 23.0718 5.19731C23.547 5.08211 24.0078 4.89491 24.4902 4.83011C27.939 4.34771 30.9126 7.52291 30.2142 10.9285C30.171 11.1589 30.2142 11.2453 30.4302 11.3389C31.791 11.9149 32.7486 12.9013 33.2742 14.2837C33.4326 14.7013 33.5046 15.1477 33.6198 15.5869C33.6198 15.9325 33.6198 16.2853 33.6198 16.6381ZM25.1382 25.5661C27.6222 25.5589 29.5734 23.4493 29.3574 20.9941C29.2998 20.3173 29.2998 20.3101 29.9334 20.0725C31.6398 19.4317 32.7342 17.7685 32.6694 15.9253C32.6118 14.1541 31.3806 12.5629 29.6814 12.0445C29.0982 11.8645 29.019 11.7349 29.1918 11.1517C29.6742 9.50291 29.127 7.74611 27.795 6.65891C26.4702 5.57891 24.627 5.40611 23.115 6.21971C22.6326 6.47891 22.4598 6.42851 22.1862 5.96051C21.3438 4.57091 20.1054 3.82211 18.4854 3.82931C16.8726 3.83651 15.6486 4.58531 14.8134 5.96771C14.547 6.42131 14.367 6.47891 13.9062 6.22691C12.3726 5.39891 10.5366 5.57171 9.19736 6.65891C7.85816 7.74611 7.31816 9.53171 7.82216 11.2093C7.97336 11.7133 7.87976 11.8789 7.37576 12.0301C5.65496 12.5413 4.43096 14.0677 4.33016 15.8317C4.22216 17.6533 5.25896 19.3165 6.95096 20.0293C7.66376 20.3317 7.66376 20.3317 7.63496 21.1093C7.51256 24.3565 10.8246 26.5165 13.7622 25.1125C14.2158 24.8965 14.403 24.9685 14.6262 25.4149C15.4182 27.0205 16.7142 27.8989 18.4926 27.8989C20.2782 27.8989 21.5742 27.0205 22.359 25.4149C22.5822 24.9613 22.7766 24.8893 23.223 25.1125C23.835 25.4149 24.4686 25.5733 25.1382 25.5661Z" fill="black"/>
<path d="M3.37988 30.8725C3.41588 30.7933 3.45188 30.7141 3.48068 30.6349C3.77588 29.7709 4.61828 29.2309 5.49668 29.3461C6.38948 29.4613 7.08788 30.1885 7.15268 31.0741C7.21748 31.9741 6.64868 32.7877 5.78468 33.0397C5.71268 33.0613 5.63348 33.0901 5.56148 33.1117C5.34548 33.1117 5.12948 33.1117 4.91348 33.1117C4.66868 32.9965 4.40948 32.9029 4.18628 32.7589C3.74708 32.4853 3.54548 32.0389 3.37988 31.5781C3.37988 31.3477 3.37988 31.1101 3.37988 30.8725ZM6.21668 31.2397C6.22388 30.7285 5.79908 30.2965 5.28788 30.2893C4.76948 30.2821 4.33748 30.6925 4.33028 31.2109C4.31588 31.7365 4.74788 32.1757 5.27348 32.1757C5.78468 32.1757 6.20948 31.7509 6.21668 31.2397Z" fill="black"/>
<path d="M11.8831 29.3461C11.8759 30.3901 11.0263 31.2325 9.97507 31.2253C8.93827 31.2181 8.09587 30.3613 8.10307 29.3101C8.11027 28.2805 8.95987 27.4453 9.99667 27.4453C11.0407 27.4525 11.8903 28.3021 11.8831 29.3461ZM10.0039 30.2821C10.5223 30.2749 10.9327 29.8501 10.9327 29.3317C10.9327 28.8205 10.5007 28.3957 9.98947 28.3957C9.46387 28.3957 9.03187 28.8349 9.04627 29.3605C9.06067 29.8717 9.49267 30.2893 10.0039 30.2821Z" fill="black"/>
<path d="M25.1381 25.5661C24.4685 25.5733 23.8349 25.4149 23.2301 25.1197C22.7765 24.8965 22.5893 24.9685 22.3661 25.4221C21.5741 27.0277 20.2853 27.9061 18.4997 27.9061C16.7141 27.9061 15.4181 27.0277 14.6333 25.4221C14.4101 24.9685 14.2229 24.8965 13.7693 25.1197C10.8317 26.5309 7.51248 24.3637 7.64208 21.1165C7.67088 20.3389 7.67088 20.3389 6.95808 20.0365C5.26608 19.3237 4.22928 17.6677 4.33728 15.8389C4.43808 14.0749 5.66208 12.5485 7.38288 12.0373C7.88688 11.8861 7.98048 11.7205 7.82928 11.2165C7.32528 9.53894 7.86528 7.75334 9.20448 6.66614C10.5437 5.57894 12.3725 5.41334 13.9133 6.23414C14.3741 6.47894 14.5541 6.42134 14.8205 5.97494C15.6485 4.59254 16.8797 3.84374 18.4925 3.83654C20.1197 3.82934 21.3581 4.57814 22.1933 5.96774C22.4741 6.42854 22.6397 6.48614 23.1221 6.22694C24.6341 5.42054 26.4773 5.59334 27.8021 6.66614C29.1341 7.74614 29.6813 9.51014 29.1989 11.1589C29.0261 11.7421 29.1053 11.8789 29.6885 12.0517C31.3877 12.5701 32.6189 14.1613 32.6765 15.9325C32.7413 17.7757 31.6397 19.4389 29.9405 20.0797C29.3069 20.3173 29.3069 20.3173 29.3645 21.0013C29.5733 23.4493 27.6221 25.5661 25.1381 25.5661ZM18.3629 15.0397C17.9165 14.6941 17.9237 14.6941 17.9309 14.1901C17.9381 13.9525 17.9309 13.7149 17.8877 13.4845C17.4989 11.1085 15.3677 9.09254 12.9629 8.81894C11.0261 8.59574 9.53568 10.0645 9.73008 12.0085C9.88848 13.5781 10.6661 14.8093 11.8541 15.7885C12.7973 16.5661 13.8701 17.0629 15.1229 17.0053C15.5333 16.9837 15.7637 17.1421 15.9725 17.4733C15.8861 17.5453 15.8069 17.6173 15.7277 17.6893C14.7701 18.6469 13.8053 19.6117 12.8477 20.5693C12.4445 20.9653 12.2429 21.4477 12.3221 22.0093C12.4157 22.6789 12.7901 23.1541 13.4309 23.3773C14.0861 23.6005 14.6765 23.4565 15.1661 22.9741C16.1525 21.9949 17.1317 21.0157 18.1109 20.0365C18.1829 19.9645 18.2621 19.8925 18.3701 19.7845C18.4565 19.8925 18.5213 19.9789 18.6005 20.0509C19.5581 21.0157 20.5157 21.9733 21.4805 22.9309C22.2005 23.6437 23.2301 23.6581 23.9069 22.9741C24.5693 22.3045 24.5405 21.2821 23.8421 20.5693C23.3309 20.0509 22.8125 19.5397 22.3013 19.0213C21.7757 18.5029 21.2501 17.9845 20.7101 17.4517C21.2285 16.9837 21.8045 16.7821 22.4597 16.7749C23.4749 16.7605 24.3245 16.3789 25.0373 15.6589C25.7717 14.9173 26.5133 14.1829 27.2477 13.4485C27.3845 13.3117 27.5285 13.1749 27.6581 13.0237C27.8741 12.7789 27.8957 12.4693 27.7301 12.2029C27.5645 11.9437 27.2765 11.8285 26.9597 11.9149C26.6861 11.9941 26.4197 12.0877 26.1461 12.1741C25.8077 12.2821 25.4693 12.3973 25.0733 12.5269C25.3829 11.9005 25.6709 11.3389 25.9445 10.7701C26.1605 10.3093 25.9229 9.81974 25.4405 9.76214C25.2677 9.74054 25.0733 9.81254 24.9077 9.88454C24.3677 10.1365 23.8421 10.4101 23.2517 10.7053C23.4605 10.0717 23.6549 9.51014 23.8349 8.94134C23.9645 8.54534 23.8709 8.24294 23.5829 8.05574C23.2877 7.86854 22.9565 7.91894 22.6541 8.22134C21.7901 9.08534 20.9261 9.94214 20.0621 10.8061C19.5077 11.3605 19.1621 12.0157 19.0469 12.7933C19.0037 13.0957 19.0037 13.3981 18.9677 13.7005C18.9101 14.2117 18.7013 14.6581 18.3629 15.0397Z" fill="url(#paint0_linear_4457_54979)"/>
<path d="M18.3629 15.0397C18.7013 14.6509 18.9173 14.2045 18.9749 13.6933C19.0109 13.3909 19.0109 13.0813 19.0541 12.7861C19.1693 12.0085 19.5221 11.3533 20.0693 10.7989C20.9333 9.93491 21.7973 9.07091 22.6613 8.21411C22.9637 7.91891 23.2949 7.86131 23.5901 8.04851C23.8781 8.23571 23.9717 8.53811 23.8421 8.93411C23.6549 9.50291 23.4677 10.0645 23.2589 10.6981C23.8493 10.4029 24.3749 10.1293 24.9149 9.87731C25.0805 9.79811 25.2749 9.73331 25.4477 9.75491C25.9301 9.80531 26.1677 10.2949 25.9517 10.7629C25.6853 11.3317 25.3973 11.8861 25.0805 12.5197C25.4765 12.3901 25.8149 12.2749 26.1533 12.1669C26.4269 12.0805 26.6933 11.9869 26.9669 11.9077C27.2765 11.8213 27.5717 11.9365 27.7373 12.1957C27.9029 12.4549 27.8813 12.7645 27.6653 13.0165C27.5357 13.1677 27.3917 13.2973 27.2549 13.4413C26.5205 14.1757 25.7789 14.9101 25.0445 15.6517C24.3317 16.3717 23.4821 16.7533 22.4669 16.7677C21.8189 16.7749 21.2357 16.9837 20.7173 17.4445C21.2573 17.9773 21.7829 18.4957 22.3085 19.0141C22.8269 19.5253 23.3381 20.0437 23.8493 20.5621C24.5549 21.2749 24.5837 22.2973 23.9141 22.9669C23.2373 23.6509 22.2077 23.6365 21.4877 22.9237C20.5229 21.9661 19.5653 21.0013 18.6077 20.0437C18.5285 19.9645 18.4709 19.8781 18.3773 19.7773C18.2693 19.8781 18.1901 19.9501 18.1181 20.0293C17.1389 21.0085 16.1597 21.9949 15.1733 22.9669C14.6837 23.4565 14.0861 23.6005 13.4381 23.3701C12.7973 23.1469 12.4229 22.6717 12.3293 22.0021C12.2501 21.4405 12.4589 20.9581 12.8549 20.5621C13.8197 19.6045 14.7773 18.6397 15.7349 17.6821C15.8141 17.6029 15.8933 17.5381 15.9797 17.4661C15.7637 17.1349 15.5333 16.9837 15.1301 16.9981C13.8773 17.0557 12.8045 16.5589 11.8613 15.7813C10.6733 14.8021 9.89568 13.5709 9.73728 12.0013C9.54288 10.0645 11.0333 8.59571 12.9701 8.81171C15.3749 9.08531 17.4989 11.1013 17.8949 13.4773C17.9309 13.7077 17.9381 13.9453 17.9381 14.1829C17.9237 14.6941 17.9165 14.6941 18.3629 15.0397ZM16.9949 14.0893C16.9301 12.1165 15.0941 10.0861 13.1717 9.7837C11.4725 9.5101 10.4069 10.5397 10.7093 12.2317C10.9829 13.7797 11.9477 14.8525 13.2869 15.6085C13.9421 15.9757 14.6621 16.1701 15.4109 16.0333C15.7493 15.9757 15.9653 16.0621 16.1957 16.2925C18.1397 18.2437 20.0909 20.1949 22.0349 22.1389C22.1285 22.2325 22.2149 22.3261 22.3229 22.3909C22.7909 22.6933 23.4029 22.3837 23.4389 21.8365C23.4533 21.5557 23.3093 21.3541 23.1221 21.1669C21.1421 19.1941 19.1693 17.2141 17.1893 15.2413C16.9877 15.0397 16.8653 14.8381 16.9517 14.5357C16.9949 14.3773 16.9877 14.1901 16.9949 14.0893ZM22.5677 9.7693C21.8981 10.4101 21.1853 11.0581 20.5085 11.7421C20.1629 12.1021 19.9829 12.5845 19.9757 13.0885C19.9541 14.0749 19.7093 14.9749 19.0541 15.6877C19.4069 16.0405 19.7453 16.3789 20.0909 16.7245C20.7533 16.1413 21.5453 15.8317 22.4453 15.8173C23.2085 15.8101 23.8349 15.5221 24.3677 14.9821C24.8933 14.4493 25.4261 13.9237 25.9517 13.3981C26.0093 13.3405 26.0597 13.2757 26.1677 13.1533C25.5197 13.3693 24.9509 13.5493 24.3893 13.7437C24.1661 13.8229 23.9645 13.8229 23.7989 13.6357C23.6333 13.4485 23.6621 13.2397 23.7701 13.0309C24.0653 12.4549 24.3533 11.8717 24.6413 11.2885C24.6773 11.2165 24.6989 11.1373 24.7493 11.0149C24.0869 11.3461 23.4677 11.6557 22.8557 11.9653C22.6181 12.0877 22.3805 12.1885 22.1429 11.9797C21.9053 11.7709 21.9917 11.5189 22.0709 11.2741C22.2365 10.7629 22.4093 10.2373 22.5677 9.7693ZM16.6205 18.1429C15.5693 19.1869 14.5109 20.2525 13.4453 21.3109C13.4381 21.3181 13.4309 21.3253 13.4237 21.3325C13.2077 21.5989 13.1933 21.9373 13.3805 22.2037C13.5533 22.4557 13.8917 22.5853 14.1869 22.4701C14.3453 22.4125 14.4965 22.2973 14.6189 22.1749C15.5477 21.2533 16.4693 20.3317 17.3909 19.4101C17.4773 19.3237 17.5925 19.2589 17.6861 19.2013C17.2973 18.8053 16.9661 18.4813 16.6205 18.1429Z" fill="black"/>
<path d="M14.9431 15.6301C15.3823 15.6445 15.5839 15.5221 15.6487 15.2701C15.7279 14.9605 15.4975 14.7229 15.1231 14.6869C14.0575 14.5861 13.1359 14.2693 12.7831 13.1029C12.7039 12.8509 12.4375 12.7573 12.2071 12.8437C11.9695 12.9301 11.8183 13.1605 11.9119 13.4053C12.0271 13.7149 12.1423 14.0389 12.3367 14.3053C13.0063 15.2125 13.9783 15.5293 14.9431 15.6301Z" fill="white"/>
<path d="M14.9427 15.6301C13.9779 15.5293 12.9987 15.2125 12.3363 14.3053C12.1419 14.0389 12.0195 13.7221 11.9115 13.4053C11.8251 13.1605 11.9691 12.9301 12.2067 12.8437C12.4443 12.7573 12.7035 12.8509 12.7827 13.1029C13.1427 14.2693 14.0571 14.5861 15.1227 14.6869C15.4971 14.7229 15.7275 14.9677 15.6483 15.2701C15.5835 15.5221 15.3891 15.6445 14.9427 15.6301Z" fill="black"/>
<defs>
<linearGradient id="paint0_linear_4457_54979" x1="32.6792" y1="3.83649" x2="2.25043" y2="6.83965" gradientUnits="userSpaceOnUse">
<stop stop-color="#DFF9F8"/>
<stop offset="0.46875" stop-color="#D5F4E5"/>
<stop offset="1" stop-color="#AEE5E2"/>
</linearGradient>
</defs>
</svg>
