<svg width="37" height="36" viewBox="0 0 37 36" fill="none" xmlns="http://www.w3.org/2000/svg">
<rect x="0.5" y="-0.000976562" width="36" height="36" rx="18" fill="white"/>
<path d="M27.1545 33.6662C26.4921 33.6662 25.8729 33.6662 25.2105 33.6662C25.2033 33.5582 25.2032 33.8174 25.1889 33.047C25.1889 32.7806 25.0089 32.615 24.7785 32.6006C24.5337 32.5934 24.3537 32.7662 24.3249 33.0398C24.3176 33.119 24.3176 33.5294 24.3176 33.6518C22.244 33.6518 20.192 33.6518 18.0969 33.6518C18.0969 33.551 18.0969 33.875 18.0969 33.1334C18.0969 32.795 17.9169 32.5934 17.6505 32.6006C17.3913 32.6078 17.2257 32.8022 17.2257 33.1262C17.2257 33.9614 17.2257 32.795 17.2257 33.6518C16.5777 33.6518 15.9512 33.6518 15.3248 33.6518C15.3176 33.6374 15.2961 33.623 15.2961 33.6086C15.3105 32.4782 15.2457 33.3494 15.3681 32.2262C15.6057 30.0662 17.4849 28.0646 19.5441 27.6614C19.6017 28.2014 19.8248 28.6622 20.2856 28.979C20.5952 29.1878 20.9337 29.2742 21.3081 29.2598C22.1289 29.2166 22.6329 28.7198 22.8921 27.6542C23.0073 27.6902 23.1297 27.719 23.2449 27.755C25.5128 28.4966 27.0609 30.5414 27.1401 32.9606C27.1761 33.8534 27.1545 32.7446 27.1545 33.6662Z" fill="url(#paint0_linear_4430_27110)"/>
<path d="M33.1303 16.343C33.1231 16.163 33.1087 15.983 33.1015 15.803C33.0799 15.407 33.0583 15.0038 33.0367 14.6006C32.9431 13.0238 32.8207 11.4902 32.3887 9.9854C32.3023 9.683 32.1871 9.3734 32.0143 8.9918C31.7767 8.4662 31.4383 8.1278 30.9775 7.9694L30.9559 7.9622H30.3943L30.3655 7.9766C30.2935 8.0126 30.2143 8.0486 30.1423 8.0846C29.9623 8.1638 29.7823 8.2502 29.6167 8.3726C29.3647 8.5526 29.1847 8.8262 29.0839 9.2006C28.9831 9.179 28.8751 9.1574 28.7743 9.1358C28.4575 9.071 28.1263 8.999 27.8023 8.9558C27.1831 8.8694 26.3191 8.7398 25.4119 8.6102C24.9151 8.5382 24.4111 8.459 23.9215 8.387C23.8855 8.3798 23.8279 8.351 23.7559 8.315C23.5327 7.5014 22.9567 6.8678 22.1503 6.6302C21.4231 6.4142 20.7823 6.4934 20.7103 6.515C19.6519 6.8102 19.0111 7.3286 18.7375 8.1566C18.7231 8.1638 18.7087 8.1638 18.6943 8.1638C18.2119 8.2286 17.8159 8.3078 17.4919 8.3654C17.3767 8.387 17.2759 8.4086 17.1823 8.423C16.7503 8.5022 16.3399 8.603 15.9439 8.7038C15.6343 8.783 15.3175 8.8622 14.9935 8.927C14.6335 8.999 14.2879 9.0638 13.9135 9.1358C13.7911 9.1574 13.6687 9.179 13.5391 9.2078C13.5103 9.1214 13.4743 9.0278 13.4383 8.9414C13.2223 8.4734 12.8263 8.1566 12.2287 7.9766L12.2071 7.9694H11.6599L11.6383 7.9766C11.1919 8.135 10.8607 8.459 10.6015 8.999C10.2127 9.8054 10.0327 10.6694 9.90308 11.483C9.69428 12.7862 9.57188 14.1758 9.52868 15.9902C9.52868 16.0622 9.51428 16.127 9.50708 16.2062C9.49988 16.2422 9.49988 16.2782 9.49268 16.3142V20.1158V20.123C9.49988 20.303 9.51428 20.483 9.52148 20.663C9.54308 21.0518 9.56468 21.455 9.58628 21.851C9.67988 23.435 9.80228 24.983 10.2343 26.4734C10.3423 26.855 10.5079 27.251 10.7095 27.6542C11.0191 28.2662 11.4655 28.547 12.0343 28.4966C12.7399 28.4318 13.2439 28.043 13.5031 27.3734C13.5175 27.3374 13.5247 27.3086 13.5391 27.2726L16.7575 27.8342C16.7935 27.8414 16.8223 27.8486 16.8583 27.8558C15.2527 29.0798 14.2735 30.9878 14.2591 33.1334C14.2591 33.3206 14.2591 33.4286 14.2591 33.4934C14.2591 33.515 14.2591 33.5366 14.2591 33.551V33.5582C14.2591 33.5726 14.2591 33.6086 14.2591 33.6806L14.2519 33.9902C14.2447 34.3286 14.3671 34.5518 14.6335 34.6958L14.6695 34.7174H27.8095L27.8455 34.6886C28.0759 34.5086 28.1839 34.2854 28.1839 34.0046C28.1839 33.6446 28.1839 33.5654 28.1839 33.551C28.1839 33.5438 28.1839 33.5366 28.1839 33.5294C28.1839 33.5078 28.1839 33.4862 28.1839 33.4646L28.1767 33.083C28.1479 31.5854 27.6655 30.1958 26.7727 29.0438C26.4343 28.6118 26.0455 28.223 25.6207 27.8918C25.6999 27.8702 25.7791 27.8486 25.8583 27.8342L29.0911 27.2726C29.0983 27.3014 29.1127 27.3374 29.1199 27.3662C29.3863 28.1294 30.1855 28.619 30.9487 28.4678C31.4023 28.3814 31.6543 28.0646 31.8343 27.7982C32.1799 27.2654 32.3599 26.6822 32.4895 26.1278C32.8135 24.803 32.9431 23.471 33.0367 21.8798C33.0583 21.5558 33.0655 21.2318 33.0799 20.915C33.0871 20.7278 33.0943 20.5406 33.1015 20.3462C33.1015 20.2958 33.1087 20.2526 33.1231 20.195C33.1303 20.1662 33.1303 20.1374 33.1375 20.1158V16.3574L33.1303 16.343ZM30.1351 26.9774C30.1999 26.963 30.2647 26.9414 30.3295 26.927C30.6895 26.8262 30.8623 26.5598 30.7759 26.2574C30.6895 25.9478 30.4231 25.811 30.0631 25.8902C29.8471 25.9406 29.6239 25.991 29.4079 26.0486C28.8967 26.171 28.3711 26.3006 27.8527 26.3942C27.4495 26.4662 26.9455 26.5382 26.4127 26.6174C25.6855 26.7182 24.9367 26.8262 24.3895 26.9486C24.3175 26.963 24.2455 26.9918 24.1735 27.0206C23.8711 26.891 23.5543 26.7758 23.2231 26.6894C23.1943 26.6822 23.1727 26.675 23.1439 26.6678C23.0287 26.6462 23.0215 26.6462 23.0215 26.5598C23.0215 26.4446 23.0431 26.4302 23.2015 26.3798L23.2087 26.3726C24.8647 25.7894 26.0743 24.7166 26.7943 23.1758C26.9959 22.7438 27.1399 22.2758 27.2767 21.8222C27.3343 21.6422 27.3847 21.455 27.4495 21.275C28.6159 21.1094 29.1775 20.5982 29.2135 19.6766C29.2279 19.259 29.1127 18.8918 28.8679 18.575C28.5295 18.143 28.0615 17.9342 27.4207 17.9198C27.6367 15.083 26.5855 12.9518 24.2959 11.591C24.3031 11.483 24.3103 11.3822 24.3175 11.2814C24.3391 10.9718 24.3607 10.6838 24.3319 10.3958C24.3103 10.151 24.1807 9.8774 23.9791 9.6542C23.9143 9.5822 23.8855 9.5318 23.8711 9.4814C23.8783 9.4814 23.8855 9.4814 23.8927 9.4886C26.3623 9.8126 29.2495 10.3526 30.0343 10.5254L30.0631 10.5326C30.1495 10.5542 30.2503 10.5758 30.3511 10.5614C30.6031 10.5326 30.7687 10.367 30.8047 10.1078C30.8407 9.8558 30.7183 9.647 30.4807 9.5534C30.3727 9.5102 30.2647 9.4814 30.1495 9.4454C30.1927 9.3662 30.2215 9.2942 30.2719 9.2294C30.3439 9.1286 30.4591 9.0134 30.5959 9.0134C30.7327 9.0134 30.8407 9.1286 30.9127 9.2294C31.2583 9.7118 31.4023 10.2806 31.5391 10.9142C31.8919 12.527 31.9783 14.1758 32.0359 15.5942C32.1223 17.747 32.1079 19.8494 31.9855 21.8222C31.8991 23.3198 31.7839 24.7814 31.3591 26.1998C31.2583 26.5238 31.1143 26.8334 30.9775 27.0926C30.8623 27.323 30.7615 27.4094 30.6175 27.4022C30.4159 27.3878 30.2647 27.2654 30.1567 27.0134C30.1423 26.999 30.1423 26.9918 30.1351 26.9774ZM27.0103 33.3494C27.0103 33.3926 27.0103 33.443 27.0103 33.5294H25.3399C25.3399 33.4502 25.3327 33.3134 25.3327 33.0542C25.3255 32.723 25.1023 32.4782 24.7855 32.471C24.4687 32.4566 24.2167 32.6942 24.1807 33.0398C24.1735 33.1046 24.1735 33.1766 24.1735 33.2342V33.2846C24.1735 33.3854 24.1735 33.4646 24.1735 33.5222H18.2407V33.1478C18.2407 32.9246 18.1759 32.7446 18.0463 32.6222C17.9383 32.5214 17.8015 32.471 17.6431 32.471C17.2975 32.4782 17.0815 32.7446 17.0743 33.1406C17.0743 33.227 17.0743 33.2918 17.0743 33.335C17.0743 33.335 17.0743 33.3422 17.0743 33.3566C17.0743 33.371 17.0743 33.3782 17.0743 33.3854C17.0743 33.3998 17.0743 33.4142 17.0743 33.4286C17.0743 33.443 17.0743 33.4574 17.0743 33.4574C17.0743 33.479 17.0743 33.5006 17.0743 33.5222H15.4327C15.4399 33.1694 15.4327 33.0398 15.4327 32.975C15.4327 32.9102 15.4327 32.9102 15.4471 32.7806C15.4615 32.687 15.4759 32.5286 15.5047 32.2478C15.6703 30.7286 16.6423 29.2094 17.9815 28.2878C18.5863 27.9278 19.2847 27.3158 19.5439 27.6686C19.9615 28.2446 20.0335 29.0726 21.2287 29.0942C22.8199 29.1158 22.3303 27.4598 22.8991 27.6614C23.5471 27.8846 23.8207 27.9926 24.4399 28.3022C25.9735 29.2526 26.9383 31.0742 27.0031 32.9678C27.0103 33.119 27.0103 33.2126 27.0175 33.2702V33.2774C27.0103 33.299 27.0103 33.3278 27.0103 33.3494ZM12.0847 25.9334C11.9695 25.9982 11.8831 26.1134 11.8471 26.2574C11.7679 26.5598 11.9479 26.819 12.3079 26.9198C12.3655 26.9342 12.4303 26.9558 12.4951 26.9702C12.4303 27.1574 12.3295 27.2798 12.1783 27.359C11.9551 27.4742 11.8759 27.359 11.8471 27.323C11.6887 27.0926 11.5231 26.8478 11.4223 26.5886C11.0623 25.6814 10.9327 24.7094 10.8391 23.8742C10.5583 21.419 10.4935 18.8054 10.6231 15.3998C10.6807 13.8806 10.7815 12.2606 11.1631 10.7054C11.2279 10.4246 11.3359 10.1366 11.4367 9.863C11.4799 9.7406 11.5303 9.611 11.5735 9.4886C11.5807 9.467 11.5951 9.4382 11.6095 9.4238C11.6383 9.3878 11.6599 9.3446 11.6887 9.3086C11.8111 9.1142 11.8903 8.999 12.0631 9.0206C12.2719 9.0494 12.4087 9.1718 12.5095 9.4382C12.4663 9.4526 12.4231 9.467 12.3799 9.4814C11.7895 9.647 11.8183 10.0142 11.8615 10.1654C11.9119 10.3526 12.0847 10.6406 12.6463 10.511C13.0423 10.4174 14.3455 10.187 15.6055 9.971L16.3471 9.8414C16.6423 9.8126 17.0815 9.7406 17.5999 9.6542C17.8951 9.6038 18.2407 9.5462 18.5863 9.4958C18.5719 9.5318 18.5503 9.5678 18.5287 9.5822C18.2551 9.8126 18.1111 10.1006 18.1111 10.4246C18.1111 10.727 18.1183 11.0726 18.1759 11.411C18.2047 11.555 18.1903 11.5838 18.0751 11.6558C16.7863 12.4334 15.8791 13.5134 15.3823 14.867C15.1375 15.5294 15.0223 16.235 15.0367 16.955C15.0439 17.207 15.0367 17.459 15.0367 17.7038C15.0367 17.7758 15.0367 17.8406 15.0367 17.9126C13.8847 18.0422 13.2511 18.6182 13.2367 19.5614C13.2223 20.5334 13.8415 21.1022 15.0799 21.2678C15.0871 21.311 15.1015 21.3614 15.1087 21.4046C15.2239 22.1966 15.4903 22.9382 15.8863 23.6222C16.1959 24.1478 16.5775 24.011 16.7287 23.9318C16.9375 23.8166 17.1319 23.5718 16.9087 23.0606C16.8583 22.9454 16.8007 22.823 16.7503 22.7078C16.5775 22.3478 16.4047 21.9734 16.3543 21.6062C16.2607 20.9438 16.2463 20.2598 16.2319 19.5902C16.2319 19.403 16.2247 19.223 16.2175 19.0358C16.2463 19.0142 16.3039 18.9782 16.3471 18.9566C16.5631 18.8774 16.7863 18.8054 17.0095 18.7406C17.4343 18.6038 17.8735 18.467 18.2767 18.2726C19.3063 17.783 20.0911 16.9694 20.8471 16.1846C20.9623 16.0694 21.0775 15.947 21.1783 15.8462L21.1927 15.8318C21.2791 15.911 21.3655 15.9902 21.4519 16.0694C21.7111 16.307 21.9559 16.5374 22.1935 16.7678C23.4895 18.0422 24.7639 18.7478 26.1895 18.971C26.2111 18.9782 26.2471 19.0142 26.2615 19.0358C26.2615 19.2374 26.2615 19.4462 26.2615 19.6478C26.2687 20.1878 26.2759 20.7494 26.1895 21.275C25.8871 23.0534 24.7423 24.5078 23.1223 25.163C21.4879 25.8254 19.6375 25.5734 18.1759 24.4934C18.0031 24.3638 17.8375 24.299 17.6791 24.3062C17.5639 24.3062 17.3983 24.3494 17.2543 24.5438C17.1535 24.6806 17.1175 24.839 17.1463 24.9902C17.1679 25.1126 17.2543 25.2926 17.4991 25.4366C17.9527 25.7102 18.5575 26.0558 19.1839 26.3294C19.4143 26.4302 19.4647 26.4806 19.4287 26.6246C19.3999 26.6318 19.3639 26.6462 19.3351 26.6534C18.8887 26.7686 18.4639 26.927 18.0607 27.1142C17.8015 26.9414 17.5495 26.819 17.2831 26.7758C17.0455 26.7398 16.8079 26.7038 16.5703 26.6678C15.2599 26.4662 13.9063 26.2502 12.6031 25.8974C12.5239 25.8758 12.4519 25.8686 12.3799 25.8686C12.2575 25.8614 12.1639 25.8902 12.0847 25.9334ZM22.6543 9.3662H19.7743C19.6663 8.7182 19.8967 8.1422 20.3791 7.8398C20.9191 7.5014 21.6679 7.5446 22.1647 7.9262C22.5679 8.243 22.7695 8.855 22.6543 9.3662ZM23.1151 11.2886C23.0359 11.375 22.7839 11.3822 22.4383 11.3822C22.1791 11.3822 21.9199 11.3822 21.6607 11.3822C20.9479 11.3822 20.2135 11.3822 19.4863 11.3894C19.3279 11.3894 19.3135 11.3534 19.2991 11.2526C19.2775 11.0582 19.2631 10.871 19.2487 10.6694C19.2487 10.6334 19.2415 10.5974 19.2415 10.5614H23.1727C23.1727 10.5686 23.1727 10.5758 23.1727 10.583C23.1871 10.943 23.1943 11.2022 23.1151 11.2886ZM19.2487 12.5414C19.2991 12.5486 19.3495 12.5486 19.3999 12.5486C19.7383 12.5486 20.0839 12.5558 20.4223 12.5558C21.2791 12.563 22.1647 12.5774 23.0359 12.527C23.5111 12.4982 23.8423 12.6638 24.1807 12.923C25.5415 13.9382 26.2399 15.299 26.2471 16.9622C26.2471 17.1782 26.2471 17.387 26.2471 17.6246V17.8118C26.1823 17.7974 26.1175 17.7758 26.0527 17.7614C25.8007 17.6894 25.5559 17.6246 25.3255 17.5454C24.5263 17.2502 23.7991 16.7462 22.9639 15.9182C22.6759 15.6302 22.3879 15.335 22.1143 15.047C22.0279 14.9534 21.9343 14.8598 21.8479 14.7662C21.6391 14.5502 21.4303 14.4422 21.2215 14.435H21.2143C21.0055 14.435 20.7895 14.543 20.5663 14.7662C20.4295 14.903 20.2927 15.0398 20.1559 15.1766C19.6663 15.6662 19.1623 16.1702 18.6367 16.631C17.9959 17.1998 17.2111 17.5886 16.3183 17.7758C16.2751 17.783 16.2319 17.7902 16.1959 17.7974C15.9871 15.4142 16.8367 13.7006 18.7951 12.563C18.8455 12.5342 18.9319 12.5342 19.0111 12.527C19.0327 12.527 19.0615 12.527 19.0831 12.527C19.1407 12.527 19.1911 12.5342 19.2487 12.5414ZM15.0007 19.0934V20.0942C14.7775 20.123 14.6191 20.0654 14.4967 19.9142C14.3527 19.7414 14.3311 19.5542 14.4391 19.367C14.5399 19.1798 14.6983 19.0934 14.9431 19.0934C14.9647 19.0934 14.9863 19.0934 15.0007 19.0934ZM21.8119 27.7838C21.7759 28.0862 21.4591 28.2518 21.1711 28.2374C20.8687 28.223 20.6167 27.9926 20.5951 27.719C20.5735 27.4526 20.5807 27.1718 20.5879 26.9054C20.5879 26.8334 20.5879 26.7542 20.5879 26.6822H21.8263C21.8263 26.7614 21.8263 26.8478 21.8335 26.927C21.8335 27.2078 21.8407 27.503 21.8119 27.7838ZM27.4279 20.0942V19.0934C27.6583 19.0646 27.8167 19.1366 27.9463 19.3022C28.0759 19.475 28.0831 19.6622 27.9751 19.8566C27.8527 20.0438 27.6871 20.1158 27.4279 20.0942Z" fill="black"/>
<path d="M18.8962 22.3694C19.5154 22.3622 20.0482 22.1462 20.4802 21.7286C20.761 21.4622 20.7898 21.1022 20.5594 20.8574C20.3218 20.6054 19.9978 20.6126 19.6882 20.879C19.1482 21.3398 18.6082 21.3254 18.0754 20.843C17.773 20.5694 17.449 20.555 17.2042 20.8142C16.9666 21.0662 16.9954 21.4046 17.2762 21.6854C17.7226 22.1318 18.2626 22.3622 18.8962 22.3694Z" fill="#BE3455"/>
<path d="M23.5688 22.3694C24.2024 22.355 24.7424 22.1318 25.1744 21.707C25.4408 21.4478 25.4624 21.1094 25.2392 20.8646C25.0088 20.6198 24.6776 20.6126 24.3896 20.8502C23.8064 21.3398 23.2952 21.3326 22.7336 20.8286C22.4456 20.5694 22.136 20.5622 21.8912 20.7998C21.6464 21.0374 21.6536 21.3758 21.9128 21.6494C22.352 22.1174 22.9064 22.3622 23.5688 22.3694Z" fill="#BE3455"/>
<path d="M19.8319 23.4062C19.4935 23.4926 19.3279 23.7014 19.3495 24.0254C19.3567 24.191 19.4359 24.3422 19.5511 24.443C19.6663 24.5366 19.8175 24.5726 19.9687 24.5438C20.2855 24.4934 20.5879 24.3854 20.8471 24.2414C21.1711 24.0686 21.2719 24.0686 21.5599 24.2414C21.7327 24.3422 21.9127 24.4214 22.0927 24.5006C22.1719 24.5366 22.2511 24.5654 22.3231 24.6014L22.3591 24.6158L22.4023 24.6086C22.9423 24.5294 23.0575 24.2198 23.0791 24.0398C23.1151 23.723 22.9207 23.4926 22.5391 23.399C22.3951 23.363 22.2439 23.2982 22.1071 23.2118C21.5311 22.8446 20.8759 22.8446 20.3071 23.2046C20.1847 23.291 20.0191 23.3558 19.8319 23.4062Z" fill="black"/>
<path d="M23.317 20.7566C23.3242 20.7566 23.3242 20.7566 23.3314 20.7566C23.7274 20.7494 24.0442 20.4254 24.037 20.0294C24.037 19.6262 23.7274 19.3166 23.317 19.3166C22.9138 19.3166 22.597 19.6262 22.5898 20.0222C22.5826 20.2166 22.6618 20.4038 22.8058 20.5406C22.9426 20.6774 23.1298 20.7566 23.317 20.7566Z" fill="black"/>
<path d="M19.1194 20.7566C19.5226 20.7566 19.8394 20.4326 19.8394 20.0366C19.8394 19.6334 19.5298 19.3166 19.1266 19.3166H19.1194C18.7234 19.3166 18.4066 19.619 18.3994 20.015C18.3922 20.2166 18.4714 20.4038 18.6082 20.5478C18.7378 20.6846 18.925 20.7566 19.1194 20.7566Z" fill="black"/>
<path d="M9.95371 9.94942C10.0185 9.66142 9.91771 9.41662 9.63691 9.20061C8.60011 8.42302 8.06011 7.19181 8.18971 5.91021C8.31931 4.62861 9.09691 3.52701 10.2705 2.96541C10.5369 2.83581 10.6953 2.69901 10.7529 2.51901C10.8105 2.34621 10.7817 2.13741 10.6449 1.87101L10.6305 1.84221L10.4001 1.67661L10.3785 1.66941C10.3497 1.66221 10.3209 1.65501 10.2921 1.64781C10.2345 1.63341 10.1841 1.61901 10.1337 1.59741C9.42091 1.33101 8.67211 1.24461 7.90891 1.34541C7.58491 1.38861 7.39771 1.59741 7.43371 1.88541C7.46971 2.16621 7.69291 2.32461 8.02411 2.30301C8.06011 2.30301 8.10331 2.29581 8.13931 2.28861C8.21131 2.28141 8.28331 2.27421 8.35531 2.27421C8.72251 2.25981 9.05371 2.29581 9.37051 2.37501C8.11051 3.21021 7.39771 4.36222 7.24651 5.79501C7.09531 7.23501 7.54891 8.50942 8.59291 9.58222C7.49131 9.59662 6.56971 9.20061 5.84251 8.41581C5.09371 7.60221 4.74811 6.52942 4.88491 5.46382C5.02891 4.38382 5.64811 3.41901 6.59851 2.81421C7.03771 2.53341 6.91531 2.21661 6.83611 2.09421C6.76411 1.97901 6.67051 1.90701 6.55531 1.87821C6.41851 1.84221 6.26011 1.88541 6.08731 1.99341C5.38171 2.43261 4.84171 2.99421 4.48891 3.66382C3.58171 5.35581 3.67531 7.06221 4.74811 8.58861C5.66251 9.87741 6.90091 10.5326 8.44171 10.5326C8.72251 10.5326 9.01771 10.511 9.32011 10.4678C9.67291 10.4174 9.88891 10.2374 9.95371 9.94942Z" fill="black"/>
<path d="M10.22 3.30379C9.8024 3.59179 9.932 4.04539 9.9896 4.23979C10.0688 4.49899 10.0184 4.65019 9.824 4.77979C9.7376 4.83739 9.6728 4.90939 9.608 4.98139L9.5792 5.01019C9.3992 5.21899 9.3416 5.50699 9.4424 5.74459C9.5288 5.96059 9.7232 6.09739 9.9608 6.11179C10.4288 6.14059 10.6736 6.32059 10.8464 6.75259C10.9328 6.97579 11.1272 7.11979 11.3504 7.14139C11.372 7.14139 11.3864 7.14139 11.408 7.14139C11.6456 7.14139 11.8688 7.01179 12.0056 6.78859C12.1064 6.62299 12.1856 6.46459 12.2504 6.30619C12.2792 6.23419 12.3152 6.20539 12.3944 6.20539C12.5024 6.19819 12.6032 6.17659 12.7112 6.16219C12.7688 6.15499 12.8192 6.14779 12.8768 6.13339C13.1504 6.09739 13.352 5.93179 13.4384 5.67259C13.5176 5.42779 13.4528 5.18299 13.2584 4.98859L13.2008 4.93099C13.1144 4.84459 13.0352 4.75819 12.9344 4.67899C12.8408 4.60699 12.8264 4.54939 12.848 4.42699C12.8552 4.39099 12.8624 4.35499 12.8696 4.31899C12.9272 4.05259 12.9992 3.75019 12.8264 3.44779L12.812 3.41899L12.4736 3.17419L12.4088 3.19579C12.344 3.21739 12.2792 3.23179 12.2144 3.24619C12.0488 3.28219 11.8832 3.31819 11.732 3.41179C11.5016 3.54859 11.3504 3.54859 11.1488 3.41179C10.9688 3.27499 10.6088 3.03739 10.22 3.30379ZM11.0264 4.44859C11.3072 4.57099 11.588 4.57099 11.8616 4.44859C11.8328 4.75099 11.9192 5.01739 12.1208 5.24059C11.8184 5.30539 11.5952 5.46379 11.444 5.73019C11.2928 5.47099 11.0624 5.30539 10.7744 5.24059C10.976 5.01739 11.0624 4.75099 11.0264 4.44859Z" fill="black"/>
<path d="M15.7208 4.2758C16.1888 4.3046 16.4336 4.4846 16.6064 4.9166C16.6928 5.1398 16.8872 5.2838 17.1104 5.3054C17.132 5.3054 17.1464 5.3054 17.168 5.3054C17.4056 5.3054 17.6288 5.1758 17.7656 4.9526C17.8664 4.787 17.9456 4.6286 18.0104 4.4702C18.0392 4.3982 18.0752 4.3694 18.1544 4.3694C18.2624 4.3622 18.3632 4.3406 18.464 4.3262C18.5216 4.319 18.572 4.3118 18.6296 4.2974C18.9032 4.2614 19.1048 4.0958 19.1912 3.8366C19.2704 3.5918 19.2056 3.347 19.0112 3.1526L18.9536 3.095C18.8672 3.0086 18.788 2.9222 18.6872 2.843C18.6008 2.771 18.5792 2.7062 18.6008 2.591C18.608 2.555 18.6152 2.519 18.6224 2.483C18.68 2.2166 18.752 1.9142 18.5792 1.6118L18.5648 1.583L18.2264 1.3382L18.1616 1.3598C18.0968 1.3814 18.032 1.3958 17.9672 1.4102C17.8016 1.4462 17.636 1.4822 17.4848 1.5758C17.2544 1.7126 17.1032 1.7126 16.9016 1.5758C16.7072 1.4462 16.3472 1.2086 15.9656 1.475C15.548 1.7702 15.6776 2.2166 15.7352 2.411C15.8144 2.6702 15.764 2.8214 15.5696 2.951C15.4832 3.0086 15.4184 3.0806 15.3536 3.1526L15.3248 3.1814C15.1448 3.3902 15.0872 3.6782 15.188 3.9158C15.296 4.1246 15.4832 4.2614 15.7208 4.2758ZM16.772 2.6126C17.0528 2.735 17.3336 2.735 17.6072 2.6126C17.5784 2.915 17.6648 3.1814 17.8664 3.4046C17.564 3.4694 17.3408 3.6278 17.1896 3.8942C17.0384 3.635 16.808 3.4694 16.52 3.4046C16.7216 3.1814 16.808 2.915 16.772 2.6126Z" fill="black"/>
<defs>
<linearGradient id="paint0_linear_4430_27110" x1="27.1609" y1="27.6542" x2="14.6396" y2="29.7257" gradientUnits="userSpaceOnUse">
<stop stop-color="#DFF9F8"/>
<stop offset="0.46875" stop-color="#D5F4E5"/>
<stop offset="1" stop-color="#AEE5E2"/>
</linearGradient>
</defs>
</svg>
