<svg width="37" height="36" viewBox="0 0 37 36" fill="none" xmlns="http://www.w3.org/2000/svg">
<rect x="0.5" y="-0.00109863" width="36" height="36" rx="18" fill="white"/>
<path d="M30.2741 7.9989L30.5 10.9989H6.5V7.9989H30.2741Z" fill="url(#paint0_linear_4457_54971)"/>
<path d="M16.5 16.9989H20.5L20.2735 18.9989H16.6359L16.5 16.9989Z" fill="url(#paint1_linear_4457_54971)"/>
<path d="M6.87822 11.5308C6.49886 11.4104 6.41455 11.2899 6.41455 10.9106C6.41455 9.94708 6.41455 8.9836 6.41455 8.02012C6.41455 7.4902 6.55305 7.34568 7.07694 7.34568C10.4852 7.34568 13.8996 7.34568 17.3079 7.34568C21.4569 7.34568 25.5998 7.34568 29.7488 7.34568C29.8451 7.34568 29.9355 7.33966 30.0318 7.3517C30.3269 7.37579 30.4955 7.5444 30.4955 7.83947C30.5015 8.89929 30.5015 9.9531 30.4955 11.0129C30.4955 11.308 30.3209 11.4706 30.0318 11.5248C30.0318 12.2956 30.0258 13.0663 30.0318 13.8311C30.0378 14.8428 29.791 15.7821 29.243 16.6372C28.9419 17.1009 28.5685 17.4983 28.147 17.8536C28.0507 17.9319 27.9784 18.0764 27.9603 18.1969C27.7556 20.0877 27.5569 21.9845 27.3582 23.8754C27.2136 25.2604 27.0691 26.6514 26.9246 28.0364C26.8764 28.5241 26.7439 28.6446 26.2562 28.6446C22.053 28.6446 17.8559 28.6446 13.6527 28.6446C12.6591 28.6446 11.6595 28.6446 10.6659 28.6446C10.1541 28.6446 10.0336 28.5302 9.97942 28.0304C9.69038 25.2363 9.39531 22.4362 9.10025 19.6421C9.04605 19.1423 9.00992 18.6425 8.93766 18.1487C8.9196 18.0283 8.81723 17.9018 8.71486 17.8235C7.83568 17.0949 7.24555 16.1796 7.00468 15.0656C6.92038 14.6621 6.89027 14.2406 6.87822 13.8311C6.86618 13.0663 6.87822 12.3076 6.87822 11.5308ZM9.92523 18.5341C10.2444 21.6353 10.5635 24.6763 10.8767 27.7172C15.947 27.7172 20.9751 27.7172 26.0334 27.7172C26.3525 24.6642 26.6657 21.6232 26.9848 18.5341C26.0575 18.9375 25.1181 18.9315 24.1787 18.9255C23.1369 18.9195 22.0952 18.9255 21.0534 18.9255C20.9631 18.9255 20.8728 18.9315 20.7704 18.9375C20.7704 19.0339 20.7704 19.1061 20.7704 19.1724C20.7704 19.7143 20.6439 19.8408 20.108 19.8408C19.4516 19.8408 18.7892 19.8408 18.1329 19.8408C17.6692 19.8408 17.2055 19.8408 16.7479 19.8408C16.3022 19.8408 16.1517 19.6903 16.1517 19.2507C16.1517 19.1483 16.1517 19.0519 16.1517 18.9255C16.0433 18.9255 15.959 18.9255 15.8747 18.9255C14.9474 18.9255 14.026 18.9255 13.0987 18.9255C12.0389 18.9255 10.973 18.9978 9.92523 18.5341ZM9.29896 12.4401C9.39531 12.4401 9.47962 12.4401 9.56392 12.4401C10.3467 12.4401 11.1296 12.4401 11.9184 12.4401C12.2316 12.4401 12.4363 12.6328 12.4363 12.8977C12.4363 13.1567 12.2436 13.3373 11.9425 13.3614C11.8702 13.3674 11.804 13.3674 11.7317 13.3674C11.0392 13.3674 10.3528 13.3674 9.66027 13.3674C9.57596 13.3674 9.49166 13.3734 9.40736 13.3795C9.40736 13.4276 9.40133 13.4517 9.40133 13.4698C9.53381 14.7464 9.66027 16.029 9.80479 17.3056C9.81081 17.3839 9.89512 17.4803 9.96738 17.5224C10.5696 17.8536 11.2259 17.9921 11.9064 17.9921C13.2372 17.9981 14.574 17.9921 15.9048 17.9921C15.9771 17.9921 16.0554 17.9921 16.1397 17.9921C16.1397 17.8657 16.1397 17.7814 16.1397 17.6971C16.1397 17.2213 16.2962 17.0648 16.7719 17.0588C17.1874 17.0588 17.6029 17.0588 18.0184 17.0588C18.7411 17.0588 19.4637 17.0588 20.1803 17.0588C20.5958 17.0588 20.7583 17.2334 20.7644 17.6489C20.7644 17.7573 20.7644 17.8657 20.7644 17.9741C20.8306 17.9801 20.8667 17.9861 20.9089 17.9861C22.3059 17.9861 23.6969 17.9921 25.094 17.9801C25.7383 17.9741 26.3465 17.8295 26.9246 17.5284C27.0511 17.4622 27.1053 17.3899 27.1173 17.2454C27.2438 15.9508 27.3883 14.6561 27.5208 13.3674C27.587 12.7532 27.6472 12.139 27.7074 11.5127C21.5351 11.5127 15.3749 11.5127 9.19659 11.5127C9.23273 11.8319 9.26283 12.1209 9.29896 12.4401ZM29.5561 8.28507C22.1433 8.28507 14.7547 8.28507 7.35996 8.28507C7.35996 9.05586 7.35996 9.8146 7.35996 10.5673C14.7667 10.5673 22.1554 10.5673 29.5561 10.5673C29.5561 9.80255 29.5561 9.04984 29.5561 8.28507ZM28.6468 11.5248C28.4722 13.1988 28.3036 14.8548 28.135 16.5108C28.7251 15.8664 29.0563 15.1198 29.0864 14.2767C29.1225 13.4096 29.1045 12.5364 29.1045 11.6693C29.1045 11.6271 29.0924 11.579 29.0864 11.5308C28.9419 11.5248 28.8094 11.5248 28.6468 11.5248ZM7.82364 11.5187C7.81762 11.597 7.80557 11.6452 7.80557 11.6994C7.80557 12.4461 7.79353 13.1868 7.81159 13.9335C7.81762 14.2707 7.85977 14.6079 7.93203 14.9331C8.06451 15.5232 8.33549 16.0591 8.7811 16.5048C8.60646 14.8428 8.43786 13.1868 8.26323 11.5187C8.11268 11.5187 7.9802 11.5187 7.82364 11.5187ZM17.0851 18.9134C18.0064 18.9134 18.9097 18.9134 19.825 18.9134C19.825 18.6063 19.825 18.3053 19.825 18.0102C18.8976 18.0102 17.9944 18.0102 17.0851 18.0102C17.0851 18.3173 17.0851 18.6124 17.0851 18.9134Z" fill="black"/>
<path d="M13.3696 12.4461C13.6285 12.4461 13.8272 12.6508 13.8212 12.9098C13.8152 13.1687 13.6104 13.3674 13.3575 13.3614C13.1046 13.3554 12.8999 13.1506 12.9059 12.8977C12.9059 12.6388 13.1046 12.4461 13.3696 12.4461Z" fill="black"/>
<path d="M18.422 14.5417C19.9651 14.5417 21.2161 13.2907 21.2161 11.7476C21.2161 10.2044 19.9651 8.95349 18.422 8.95349C16.8789 8.95349 15.6279 10.2044 15.6279 11.7476C15.6279 13.2907 16.8789 14.5417 18.422 14.5417Z" fill="#BE3455"/>
<path d="M18.4219 13.6143C19.4529 13.6143 20.2887 12.7786 20.2887 11.7476C20.2887 10.7166 19.4529 9.88086 18.4219 9.88086C17.3909 9.88086 16.5552 10.7166 16.5552 11.7476C16.5552 12.7786 17.3909 13.6143 18.4219 13.6143Z" fill="white"/>
<path d="M18.4221 12.9158C19.0673 12.9158 19.5903 12.3928 19.5903 11.7476C19.5903 11.1024 19.0673 10.5793 18.4221 10.5793C17.7769 10.5793 17.2539 11.1024 17.2539 11.7476C17.2539 12.3928 17.7769 12.9158 18.4221 12.9158Z" fill="#BE3455"/>
<path d="M14.5683 19.1182L12.9906 19.8468L10.5277 16.5108L5.9873 18.9195C5.9873 18.9195 10.6481 23.8814 10.8589 24.1163C11.0094 24.2788 11.16 24.3632 11.4189 24.2307C11.714 24.0801 12.5088 23.7309 12.5992 23.6887C12.9545 23.5562 13.1773 23.6707 13.5566 23.8935L17.2359 26.4467L17.4166 26.3082L14.5683 19.1182ZM15.1223 23.7851C14.5382 23.3816 13.936 22.9601 13.3459 22.5446C13.2435 22.4723 13.1472 22.4362 13.0508 22.4362C12.9785 22.4362 12.9063 22.4543 12.822 22.4964C12.545 22.6349 12.2559 22.7614 11.9789 22.8878C11.7923 22.9721 11.6056 23.0564 11.4189 23.1468C11.3406 23.1829 11.3286 23.1769 11.2864 23.1287C10.4012 22.1833 9.49798 21.2258 8.62483 20.2985C8.27557 19.9312 7.92631 19.5578 7.57704 19.1905C7.57704 19.1905 7.57704 19.1905 7.57704 19.1845L10.2025 17.7934L12.4607 21.1777L14.0324 20.449L15.4414 24.0139L15.1223 23.7851Z" fill="black"/>
<path d="M7.39648 19.1484C8.34792 18.6425 9.28731 18.1427 10.2448 17.6369C11.0035 18.769 11.7502 19.889 12.5089 21.0271C13.0389 20.7802 13.5627 20.5394 14.1047 20.2925C14.6346 21.6293 15.1525 22.9481 15.6944 24.315C15.5981 24.2548 15.5379 24.2247 15.4837 24.1886C14.749 23.6767 14.0084 23.1709 13.2797 22.653C13.1472 22.5567 13.0389 22.5386 12.8823 22.6169C12.4186 22.8457 11.9429 23.0504 11.4732 23.2672C11.3648 23.3214 11.2926 23.3214 11.2022 23.2191C9.96175 21.9003 8.72729 20.5876 7.49283 19.2748C7.4567 19.2387 7.43261 19.1965 7.39648 19.1484Z" fill="#BE3455"/>
<defs>
<linearGradient id="paint0_linear_4457_54971" x1="30.5" y1="7.9989" x2="12.5537" y2="20.0294" gradientUnits="userSpaceOnUse">
<stop stop-color="#DFF9F8"/>
<stop offset="0.46875" stop-color="#D5F4E5"/>
<stop offset="1" stop-color="#AEE5E2"/>
</linearGradient>
<linearGradient id="paint1_linear_4457_54971" x1="20.5" y1="16.9989" x2="16.2833" y2="17.7056" gradientUnits="userSpaceOnUse">
<stop stop-color="#DFF9F8"/>
<stop offset="0.46875" stop-color="#D5F4E5"/>
<stop offset="1" stop-color="#AEE5E2"/>
</linearGradient>
</defs>
</svg>
