<svg width="37" height="36" viewBox="0 0 37 36" fill="none" xmlns="http://www.w3.org/2000/svg">
<rect x="0.5" y="-0.00109863" width="36" height="36" rx="18" fill="white"/>
<path d="M21.1279 10.5109C21.1279 10.5109 20.1703 11.2957 20.5375 12.4045C20.9119 13.5133 22.1719 15.3997 21.2935 16.0405C20.4151 16.6813 19.2343 16.5013 18.8815 16.0405C18.5287 15.5797 18.4567 14.0821 18.2767 14.6509C18.0967 15.2197 17.6719 17.2933 17.1319 17.7181C16.5991 18.1429 15.2671 19.9861 15.5263 21.3469C15.7783 22.7077 17.2759 25.0909 18.6871 25.2493C20.0983 25.4077 22.6903 25.7029 24.2887 25.1845C25.8871 24.6661 27.2983 23.0461 26.9743 21.3469C26.6503 19.6477 24.7279 17.3581 24.6559 16.6453C24.5839 15.9325 24.4759 12.1165 24.4759 12.1165C24.4759 12.1165 24.0871 13.1893 23.0863 13.1893C22.0855 13.1893 21.5887 12.5485 21.5887 11.8717C21.5887 11.1949 21.8767 9.87727 21.6607 10.0861C21.4447 10.2949 21.1279 10.5109 21.1279 10.5109Z" fill="url(#paint0_linear_4457_54967)"/>
<path d="M22.5822 24.0397C22.5822 24.0397 21.4158 24.7525 20.3718 24.1909C19.3278 23.6293 19.0038 22.5925 19.5582 21.4981C20.1126 20.4037 20.559 20.6629 20.9334 19.8493C21.3078 19.0357 21.4374 18.2221 21.6174 18.2725C21.7974 18.3229 23.367 20.7637 23.367 21.5773C23.3742 22.3909 22.899 23.5789 22.5822 24.0397Z" fill="#B92100"/>
<path d="M32.0292 12.5269C31.4748 9.35889 29.3292 6.80289 26.298 5.67969C23.2812 4.56369 20.0124 5.11089 17.5428 7.14129C16.8588 7.70289 16.1748 7.81089 15.4476 7.47969C14.706 7.14129 14.3388 6.52209 14.346 5.65089C14.346 5.18289 14.346 4.70769 14.346 4.25409C14.346 4.03809 14.346 3.82209 14.346 3.60609C14.346 3.45489 14.3244 3.26049 14.1876 3.12369C14.1228 3.05889 14.0076 2.98689 13.8204 2.99409C13.6404 3.00129 13.3308 3.08769 13.3308 3.59889C13.3308 3.85089 13.3308 4.09569 13.3308 4.34769C13.3308 4.83009 13.3236 5.33409 13.338 5.82369C13.374 7.02609 13.9572 7.91889 15.0372 8.41569C16.1028 8.90529 17.1684 8.76129 18.1044 7.99809C19.638 6.75249 21.4452 6.11169 23.3316 6.14049C25.218 6.16929 27.0036 6.86769 28.4868 8.15649C30.9204 10.2733 31.806 13.8589 30.6396 16.8685C30.2076 17.9773 29.7756 19.0933 29.3508 20.2093L28.782 21.6781C28.1484 23.3125 27.1548 24.7093 25.83 25.8397C24.5844 26.8981 23.0724 27.6613 21.4596 28.0645C19.8468 28.4605 18.1476 28.4893 16.5564 28.1293C14.8572 27.7549 13.3236 26.9773 12.006 25.8253C11.862 25.7029 11.826 25.6309 11.8332 25.4941C11.8476 25.2925 11.8116 25.0981 11.7756 24.9181L11.7612 24.8389C11.7396 24.7021 11.6892 24.5077 11.5164 24.3997C11.4372 24.3493 11.3076 24.2989 11.1204 24.3349C10.7028 24.4285 10.7316 24.8029 10.746 24.9613V24.9901C10.7532 25.0549 10.7604 25.1269 10.7676 25.1917C10.7964 25.4509 10.818 25.7029 10.782 25.9333C10.6452 26.8333 10.134 27.4885 9.27725 27.8701C8.80205 28.0789 8.91725 28.4461 8.96765 28.5541C9.04685 28.7341 9.16205 28.8061 9.24845 28.8421C9.37805 28.8925 9.52925 28.8781 9.68765 28.7989C9.75245 28.7701 9.81725 28.7341 9.88205 28.7053C9.86765 29.0725 9.96845 29.3749 10.1844 29.6413C10.3716 29.8645 10.458 30.1669 10.4652 30.5917C10.4652 31.1317 10.4652 31.7581 10.4652 32.3773C10.4652 32.5141 10.4652 32.7373 10.6164 32.8885C10.7028 32.9749 10.8252 33.0181 10.962 33.0181C10.9692 33.0181 10.9764 33.0181 10.9836 33.0181C11.1708 33.0109 11.4804 32.9245 11.4804 32.3845C11.4804 32.1973 11.4804 32.0029 11.4876 31.8157C11.4948 31.3909 11.502 30.9517 11.4732 30.5197C11.4444 30.0877 11.3868 29.6485 11.1564 29.3245C10.8972 28.9645 10.9044 28.5829 10.9044 28.1365V28.0141C10.9044 27.9637 10.9116 27.9349 10.9116 27.9277C11.1276 27.5893 11.3436 27.2365 11.5596 26.9053L11.6172 26.8117C14.2812 28.9213 17.2692 29.7421 20.4948 29.2597C24.8652 28.6045 27.9684 26.1853 29.7036 22.0597C30.1284 21.0445 30.5244 20.0005 30.906 18.9925C31.122 18.4309 31.338 17.8477 31.5612 17.2789C32.166 15.7669 32.3172 14.1685 32.0292 12.5269Z" fill="black"/>
<path d="M20.1272 16.1341C20.12 16.1341 20.12 16.1341 20.1128 16.1341C19.6808 16.1341 19.3712 15.9037 19.22 15.4573C19.112 15.1333 19.0184 14.7877 18.9392 14.4565C18.8744 14.2045 18.8096 13.9453 18.7304 13.6933C18.6872 13.5493 18.5792 13.4485 18.4928 13.3693C18.464 13.3405 18.4352 13.3189 18.4208 13.2973L18.2408 13.0957L18.0536 13.2829C18.032 13.3045 18.0032 13.3261 17.9672 13.3549C17.8664 13.4341 17.7368 13.5349 17.7008 13.7005C17.6072 14.0677 17.564 14.3917 17.5568 14.6941C17.5424 15.7957 17.2112 16.6885 16.5344 17.4229C16.412 17.5597 16.304 17.7037 16.2104 17.8333C15.2096 19.2517 14.8424 20.6341 15.08 22.0525C15.3824 23.8237 16.9304 25.1917 18.68 25.2349C18.8312 25.2421 19.292 25.2493 19.3208 24.7597C19.328 24.5725 19.2632 24.4501 19.1984 24.3853C19.0616 24.2341 18.86 24.2197 18.716 24.2125C18.0248 24.2053 17.3336 23.8813 16.8224 23.3269C16.2608 22.7221 15.98 21.9301 16.0304 21.0949C16.0952 20.0221 16.4984 19.0501 17.2616 18.1285C17.7224 17.5741 18.1904 16.9117 18.4136 16.1053C18.8168 16.8541 19.6304 17.2573 20.4584 17.0989C21.344 16.9333 21.9632 16.2853 22.0712 15.4141C22.1504 14.7589 21.8984 14.2117 21.6464 13.6789C21.6032 13.5925 21.56 13.4989 21.5168 13.4125C21.3584 13.0741 21.2072 12.7573 21.0992 12.4189C21.0272 12.1957 21.02 11.9725 21.0632 11.7421C21.1208 12.0085 21.1856 12.2677 21.2864 12.5269C21.5672 13.2685 22.2944 13.6789 23.1368 13.5637C23.4752 13.5205 23.7344 13.3765 23.9576 13.1965C23.9648 13.5421 23.9648 13.8661 23.9504 14.1973C23.8712 15.6589 24.2384 16.8973 25.052 17.9917C25.3544 18.3949 25.664 18.8413 26.024 19.3957C26.4056 19.9789 26.5928 20.5405 26.6144 21.1237C26.6432 21.9805 26.3408 22.7797 25.772 23.3629C25.2608 23.8885 24.584 24.1981 23.9072 24.2053C23.828 24.2053 23.5904 24.2053 23.432 24.3781C23.3672 24.4501 23.2952 24.5725 23.3096 24.7669C23.324 24.9613 23.4176 25.0693 23.4968 25.1269C23.5832 25.1917 23.6912 25.2277 23.8208 25.2277C23.8712 25.2277 23.9216 25.2205 23.972 25.2133C24.0728 25.1917 24.1808 25.1773 24.2816 25.1557C24.6128 25.0981 24.9512 25.0405 25.2752 24.9037C26.2832 24.4789 27.032 23.6581 27.3992 22.6069C27.7736 21.5197 27.6728 20.3173 27.1184 19.2949C26.816 18.7333 26.4416 18.2005 26.0816 17.6893C25.9664 17.5237 25.844 17.3509 25.7288 17.1781C25.2104 16.4221 24.9584 15.6661 24.9584 14.8741C24.9584 14.3845 24.9584 13.8877 24.9656 13.3981C24.9656 12.8509 24.9728 12.2893 24.9728 11.7349C24.9728 11.4613 24.944 11.2237 24.8936 11.0149C24.8432 10.8277 24.6272 10.6189 24.4112 10.6117C24.2528 10.6045 24.1016 10.7125 23.9432 10.9285C23.8784 11.0221 23.864 11.1229 23.8568 11.1949C23.8568 11.2165 23.8496 11.2381 23.8496 11.2525C23.8208 11.3461 23.792 11.4325 23.7704 11.5261C23.7128 11.7349 23.6624 11.9293 23.5616 12.0805C23.4248 12.2893 23.216 12.4693 23.0288 12.5341C22.6688 12.6637 22.3448 12.4909 22.1864 12.1021C21.92 11.4325 21.9056 10.8133 22.136 10.2085C22.1936 10.0573 22.1648 9.9061 22.136 9.7837C22.1288 9.7405 22.1216 9.7045 22.1144 9.6685L22.0856 9.4093L21.8264 9.4453C21.7904 9.4525 21.7472 9.4525 21.704 9.4525C21.5744 9.4597 21.4376 9.4669 21.3008 9.5389C21.1424 9.6253 21.0272 9.7693 20.9264 9.8917L20.8832 9.9421C19.904 11.1157 19.7528 12.3397 20.4368 13.5781C20.5376 13.7653 20.6744 14.0173 20.7824 14.2765C20.8832 14.5285 20.984 14.7733 21.0272 15.0181C21.0776 15.2989 21.0128 15.5653 20.8472 15.7741C20.6816 16.0045 20.4152 16.1269 20.1272 16.1341Z" fill="black"/>
<path d="M14.1442 19.5037C15.397 17.6173 15.8218 15.3061 15.3106 13.1605C14.9002 11.4325 14.029 9.97091 12.7186 8.81891C12.2218 8.38691 11.9914 7.85411 11.9986 7.20611C12.0058 6.81731 12.0058 6.42131 11.9986 6.03251C11.9986 5.86691 11.9986 5.69411 11.9986 5.52851V5.03171C11.9986 4.54211 11.9986 4.05971 11.9986 3.57011C11.9986 3.15251 11.7466 3.00131 11.509 2.99411C11.3218 2.98691 11.1994 3.06611 11.1346 3.13091C11.0266 3.23891 10.9762 3.39011 10.9762 3.57731C10.9762 3.62051 10.9762 3.66371 10.9762 3.70691V3.77891C10.9762 4.09571 10.9762 4.41251 10.9834 4.72211C10.9906 5.42051 10.9978 6.14771 10.969 6.85331C10.9258 7.99811 11.3218 8.92691 12.2218 9.76211C14.0578 11.4757 14.8498 13.9669 14.3314 16.4365C13.813 18.9133 12.0922 20.8861 9.71621 21.7213C9.31301 21.8653 8.88101 21.9373 8.42741 22.0093C8.17541 22.0525 7.91621 22.0957 7.66421 22.1533C6.27461 22.4629 5.33861 23.3269 4.96421 24.6445C4.58981 25.9621 4.92101 27.1501 5.94341 28.1581C5.95781 28.1725 5.97221 28.1869 5.99381 28.2013C6.00821 28.2157 6.03701 28.2445 6.05861 28.2589C6.05861 28.3093 6.05861 28.3597 6.06581 28.4173C6.08021 28.6765 6.08741 28.8853 5.93621 29.0725C5.72021 29.3533 5.57621 29.7061 5.55461 30.0229C5.49701 30.8365 5.50421 31.6573 5.50421 32.4493V32.5141C5.50421 32.7445 5.78501 32.9821 5.98661 32.9893C5.98661 32.9893 5.98661 32.9893 5.99381 32.9893C6.15221 32.9893 6.30341 32.8813 6.45461 32.6725C6.53381 32.5573 6.52661 32.4349 6.51941 32.3485C6.51941 32.3341 6.51941 32.3125 6.51941 32.2981C6.51941 31.6933 6.51941 31.0885 6.51941 30.4837C6.51941 30.1165 6.62741 29.8069 6.83621 29.5477C7.03781 29.2957 7.12421 29.0365 7.09541 28.7341C7.08101 28.5829 7.08101 28.4605 7.09541 28.3525C7.14581 27.8989 6.91541 27.6325 6.70661 27.4453C5.96501 26.7901 5.69861 25.9765 5.92181 25.0405C6.14501 24.0757 6.74981 23.4565 7.72901 23.1901C7.93061 23.1325 8.14661 23.1109 8.36981 23.0821C8.50661 23.0677 8.64341 23.0461 8.78741 23.0245C10.9402 22.6717 12.8986 21.3829 14.1442 19.5037Z" fill="black"/>
<path d="M22.2728 23.6005C22.2008 23.6941 22.1072 23.8021 22.0784 23.9533C22.0496 24.1261 22.1072 24.3781 22.2728 24.5077C22.3736 24.5869 22.5104 24.5941 22.604 24.5797C22.6904 24.5725 22.8416 24.5365 22.928 24.4213C23.3528 23.8669 23.8064 23.1973 23.828 22.3621C23.8784 20.5909 23.0216 19.2013 22.2656 18.1933C21.9704 17.7901 21.6248 17.6461 21.2576 17.7541C20.7536 17.9053 20.7248 18.3589 20.7104 18.6613V18.6901C20.66 19.5469 20.3576 20.0869 19.7312 20.4325C19.076 20.7997 18.7448 21.4549 18.7592 22.3189C18.7736 23.2117 19.1408 23.9389 19.8392 24.4789C19.9688 24.5797 20.0912 24.6229 20.2064 24.6229C20.372 24.6229 20.5088 24.5293 20.5952 24.4141C20.7824 24.1765 20.732 23.8957 20.48 23.6869C20.4224 23.6437 20.3576 23.5861 20.3 23.5357C19.94 23.1973 19.7528 22.7437 19.7816 22.2901C19.8176 21.8365 20.0552 21.4333 20.4512 21.1597L20.5232 21.1093C20.5664 21.0805 20.6168 21.0445 20.66 21.0157C21.2 20.6629 21.5312 20.1301 21.6464 19.4461C21.668 19.3237 21.6824 19.2085 21.6968 19.0861C22.1288 19.7341 22.4672 20.4613 22.712 21.2533C22.9712 22.0957 22.8416 22.8517 22.3304 23.5429C22.3088 23.5573 22.2872 23.5789 22.2728 23.6005Z" fill="black"/>
<defs>
<linearGradient id="paint0_linear_4457_54967" x1="27.021" y1="10.0639" x2="14.5761" y2="10.8438" gradientUnits="userSpaceOnUse">
<stop stop-color="#DFF9F8"/>
<stop offset="0.46875" stop-color="#D5F4E5"/>
<stop offset="1" stop-color="#AEE5E2"/>
</linearGradient>
</defs>
</svg>
