<svg width="37" height="36" viewBox="0 0 37 36" fill="none" xmlns="http://www.w3.org/2000/svg">
<rect x="0.5" y="-0.00109863" width="36" height="36" rx="18" fill="white"/>
<path d="M23.1584 8.40131C23.1584 8.40131 17.1752 8.48051 17.3408 14.2189C17.5064 19.9573 22.6112 21.6853 22.6112 21.6853L21.1352 24.1261L22.6256 24.6157L24.2024 24.1261L23.036 21.8077C23.036 21.8077 24.188 21.1453 24.8072 20.6917C25.4264 20.2381 28.3136 16.4437 27.9824 14.0101C27.6512 11.5765 26.6216 9.02051 23.1584 8.40131Z" fill="url(#paint0_linear_4457_54959)"/>
<path d="M32.317 12.3829C31.7698 9.1933 29.6026 6.6013 26.521 5.4493C23.4394 4.2973 20.1058 4.8229 17.593 6.8677C17.413 7.0189 17.1898 7.1845 16.9522 7.2853C16.3474 7.5517 15.685 7.5085 15.1378 7.1629C14.5618 6.8029 14.2234 6.1837 14.2018 5.4709C14.1874 4.9741 14.1874 4.4629 14.1946 3.9661C14.1946 3.7429 14.1946 3.5125 14.1946 3.2893C14.1946 3.1525 14.1946 2.9365 14.0506 2.7925C13.9642 2.7061 13.849 2.6629 13.705 2.6629C13.5898 2.6629 13.237 2.6629 13.237 3.2677C13.237 3.5269 13.237 3.7861 13.237 4.0453C13.237 4.5061 13.237 4.9885 13.2442 5.4565C13.2658 6.7021 13.8562 7.6309 14.9578 8.1349C16.0306 8.6317 17.1178 8.4805 18.0826 7.6957C20.005 6.1477 22.2082 5.5501 24.6274 5.9101C26.9746 6.2629 29.0482 7.6669 30.3154 9.7477C31.5682 11.8069 31.8562 14.2549 31.1002 16.4581C30.3154 18.7621 29.6098 20.5765 28.8682 22.1821C27.1186 25.9837 24.1234 28.1365 19.9546 28.5901C16.9306 28.9213 14.1658 28.0357 11.725 25.9621C11.6314 25.8829 11.6026 25.8253 11.6026 25.7029C11.6026 25.4797 11.5666 25.2637 11.5306 25.0477L11.5162 24.9613C11.4874 24.7813 11.4154 24.6445 11.293 24.5653C11.221 24.5149 11.0986 24.4645 10.9186 24.5077C10.753 24.5437 10.4866 24.6733 10.573 25.1341C10.6018 25.2853 10.6306 25.4293 10.6378 25.5733C10.6954 26.6965 10.1266 27.6253 9.08265 28.1077C8.93865 28.1797 8.54985 28.3597 8.72265 28.7773C8.78025 28.9141 8.86665 29.0005 8.98185 29.0509C9.18345 29.1301 9.39225 29.0293 9.48585 28.9789C9.54345 28.9501 9.60825 28.9213 9.67305 28.8853C9.67305 28.9933 9.67305 29.1013 9.68745 29.2093C9.70185 29.3461 9.74505 29.5405 9.86025 29.6917C10.141 30.0517 10.2778 30.4549 10.2778 30.9301C10.2778 31.2253 10.2778 31.5205 10.2778 31.8229C10.2778 32.1253 10.2778 32.4349 10.2778 32.7373C10.2778 32.8957 10.2922 33.0757 10.4218 33.2053C10.501 33.2845 10.6162 33.3277 10.7458 33.3277C10.753 33.3277 10.753 33.3277 10.7602 33.3277C10.9762 33.3205 11.2354 33.2125 11.2354 32.7301C11.2354 32.5069 11.2354 32.2837 11.2354 32.0533C11.2354 31.6573 11.2354 31.2397 11.2354 30.8365C11.2282 30.2605 11.0914 29.7853 10.8106 29.4037C10.6738 29.2165 10.6234 29.0293 10.6378 28.8061C10.645 28.6981 10.645 28.5973 10.645 28.4965C10.645 28.4173 10.645 28.3381 10.645 28.2661C10.6522 28.1725 10.6738 28.1293 10.6738 28.1221C10.8826 27.7837 11.1058 27.4309 11.3146 27.0997L11.4082 26.9557C14.3818 29.3101 17.7082 30.1165 21.301 29.3533C25.3474 28.4965 28.2346 26.0989 29.8834 22.2253C30.3154 21.2029 30.7114 20.1517 31.1002 19.1293C31.3306 18.5173 31.5682 17.8837 31.813 17.2717C32.4466 15.7309 32.6122 14.0821 32.317 12.3829Z" fill="black"/>
<path d="M25.556 20.6844C26.6144 19.6044 27.392 18.2652 27.9392 16.5732C28.3784 15.2052 28.5152 14.0604 28.364 12.9588C28.04 10.6548 26.312 8.71805 24.0584 8.15645C21.7256 7.57325 19.3208 8.43725 17.924 10.3668C16.9304 11.7348 16.5992 13.3332 16.9304 15.1044C17.3624 17.4012 18.2624 19.2156 19.6736 20.6628C19.9832 20.9796 20.336 21.2388 20.6816 21.4908C20.732 21.5268 20.7824 21.5628 20.8328 21.606C20.1344 21.9012 19.364 22.2756 18.7952 22.9668C18.4784 23.3484 18.3416 23.766 18.392 24.1692C18.4424 24.5796 18.68 24.954 19.0832 25.2492C19.1912 25.3284 19.3064 25.3932 19.4144 25.4652C19.5224 25.53 19.6304 25.5948 19.724 25.6668C19.8752 25.782 20.048 25.9188 20.1632 26.0844C20.1992 26.1276 20.2136 26.1708 20.2064 26.1996C20.1992 26.2356 20.156 26.2716 20.0984 26.3004C20.0552 26.322 20.0048 26.3436 19.9544 26.3652C19.8464 26.4084 19.7168 26.466 19.616 26.5524C19.508 26.646 19.4648 26.7756 19.4288 26.8764C19.4144 26.9124 19.4072 26.9484 19.3928 26.9772L19.292 27.2004L19.5224 27.2724C19.5512 27.2796 19.5872 27.294 19.6232 27.3156C19.7096 27.3516 19.8104 27.402 19.9256 27.402C19.9616 27.402 19.9904 27.3948 20.0264 27.3876C20.2352 27.33 20.4512 27.222 20.6888 27.0564C21.1784 26.7252 21.3224 26.178 21.0416 25.6884C20.8688 25.386 20.6024 25.1484 20.3432 24.9252C20.2064 24.81 20.0624 24.7236 19.9184 24.6372C19.8032 24.5652 19.6952 24.5004 19.6016 24.4284C19.3064 24.198 19.2704 23.946 19.4936 23.6364C19.5728 23.5212 19.6664 23.4204 19.7528 23.3484C20.2136 22.9524 20.7608 22.65 21.4664 22.3908L21.452 22.4124C21.1712 22.8012 20.8976 23.1756 20.6312 23.55C20.5232 23.7012 20.4152 23.8668 20.444 24.054C20.4728 24.2412 20.6312 24.3636 20.7896 24.4716C21.9416 25.2636 23.3168 25.2636 24.4616 24.4644C24.6128 24.3564 24.7712 24.234 24.8 24.054C24.8288 23.8668 24.728 23.7084 24.6056 23.5428C24.3032 23.1252 24.0008 22.7076 23.6912 22.2828L23.4608 21.966C24.332 21.714 24.908 21.354 25.556 20.6844ZM23.6336 23.8596C22.9496 24.2124 22.2944 24.2124 21.596 23.8596L22.6112 22.4556L23.6336 23.8596ZM27.4856 13.9092C27.2408 16.4508 26.276 18.5748 24.62 20.2308C24.5048 20.346 24.368 20.454 24.2384 20.5476C23.1584 21.3468 22.064 21.3468 20.984 20.5404C20.2208 19.9716 19.5944 19.2012 19.0256 18.1356C18.1472 16.494 17.7512 15.0756 17.7656 13.6572C17.7944 11.166 19.796 9.09245 22.316 8.93405C22.4168 8.92685 22.5176 8.92685 22.6184 8.92685C24.9656 8.92685 27.032 10.662 27.392 12.9948C27.4208 13.1748 27.4352 13.362 27.4568 13.5708C27.4712 13.686 27.4784 13.794 27.4856 13.9092Z" fill="black"/>
<path d="M13.9353 19.6189C15.2097 17.7613 15.6849 15.4789 15.2601 13.3477C14.8785 11.4613 13.9713 9.87727 12.5601 8.62447C12.0489 8.17087 11.8041 7.61647 11.8113 6.93967C11.8185 6.54367 11.8185 6.14047 11.8113 5.74447C11.8113 5.57167 11.8113 5.39887 11.8113 5.21887V4.68607C11.8113 4.20367 11.8113 3.72127 11.8113 3.23887C11.8113 2.72767 11.4873 2.66287 11.3433 2.66287C11.1633 2.65567 11.0481 2.73487 10.9905 2.79247C10.8897 2.90047 10.8393 3.05167 10.8465 3.25327C10.8465 3.26047 10.8465 3.27487 10.8465 3.28207V3.30367C10.8465 3.62047 10.8465 3.94447 10.8465 4.26127C10.8465 5.14687 10.8465 6.06847 10.8537 6.96847C10.8537 7.21327 10.8897 7.48687 10.9473 7.76767C11.1057 8.51647 11.6025 9.02767 12.0921 9.48847C14.0001 11.2741 14.8137 13.8589 14.2809 16.4149C13.7409 18.9565 11.9553 20.9941 9.50014 21.8509C9.08974 21.9949 8.65774 22.0669 8.19694 22.1461C7.94494 22.1893 7.67854 22.2325 7.41934 22.2901C6.00814 22.6069 5.06494 23.4781 4.68334 24.8101C4.30174 26.1493 4.64014 27.3445 5.67694 28.3669C5.69134 28.3813 5.70574 28.3957 5.72014 28.4101C5.74174 28.4317 5.77774 28.4677 5.79934 28.4893C5.79934 28.5469 5.79934 28.6045 5.80654 28.6621C5.82094 28.9357 5.82814 29.1589 5.66254 29.3677C5.44654 29.6413 5.30254 30.0013 5.28094 30.3181C5.22334 31.1461 5.22334 31.9957 5.23054 32.8093V32.8669C5.23054 33.0757 5.49694 33.3061 5.69134 33.3061C5.83534 33.3061 5.97934 33.2053 6.12334 32.9965C6.19534 32.8957 6.18814 32.7805 6.18094 32.6941C6.18094 32.6797 6.18094 32.6581 6.18094 32.6437C6.18094 32.2261 6.18094 31.8085 6.18094 31.3837V30.7789C6.18094 30.3973 6.28894 30.0733 6.50494 29.8213C6.72094 29.5621 6.80734 29.2885 6.77854 28.9645C6.76414 28.8205 6.76414 28.6981 6.77854 28.5973C6.82894 28.1581 6.61294 27.8989 6.38974 27.7045C5.61934 27.0205 5.34574 26.1781 5.56894 25.1989C5.80654 24.1909 6.43294 23.5501 7.44814 23.2765C7.66414 23.2189 7.88734 23.1901 8.11774 23.1685C8.26174 23.1541 8.41294 23.1325 8.56414 23.1109C10.7097 22.7437 12.6681 21.4693 13.9353 19.6189Z" fill="black"/>
<path d="M22.4675 10.0933C22.4171 10.0861 22.2947 10.0645 22.1939 10.1293C22.0067 10.2445 21.8195 10.3669 21.8411 10.5613C21.8627 10.7557 22.0283 10.8925 22.1363 10.9861C22.2299 11.0653 22.3451 11.0581 22.4243 11.0581C22.4387 11.0581 22.4531 11.0581 22.4675 11.0581C24.1667 11.1445 25.5491 12.5485 25.6211 14.2549C25.6283 14.3917 25.6355 14.6005 25.7795 14.7373C25.8587 14.8093 25.9667 14.8453 26.0963 14.8453C26.1107 14.8453 26.1179 14.8453 26.1323 14.8453C26.5931 14.8237 26.5859 14.3773 26.5859 14.2333C26.5499 12.0589 24.6635 10.1653 22.4675 10.0933Z" fill="black"/>
<defs>
<linearGradient id="paint0_linear_4457_54959" x1="28.0087" y1="8.4013" x2="16.4783" y2="9.0372" gradientUnits="userSpaceOnUse">
<stop stop-color="#DFF9F8"/>
<stop offset="0.46875" stop-color="#D5F4E5"/>
<stop offset="1" stop-color="#AEE5E2"/>
</linearGradient>
</defs>
</svg>
