<svg width="37" height="36" viewBox="0 0 37 36" fill="none" xmlns="http://www.w3.org/2000/svg">
<rect x="0.5" y="-0.000976562" width="36" height="36" rx="18" fill="white"/>
<path d="M27.0396 17.387L22.8348 18.9134L20.9268 19.1654L14.3388 18.5822L9.7596 17.387L8.6724 20.3894L8.3916 23.363L11.4372 23.9678L15.1524 25.559L17.3484 27.5462L18.8028 27.791L20.0772 27.0494L23.1228 24.7094L28.3356 23.327L28.062 21.743L27.7668 19.8782L27.6228 17.9126L27.0396 17.387Z" fill="url(#paint0_linear_4430_27122)"/>
<path d="M29.0986 21.6782C29.077 21.3974 28.9978 21.1886 28.8538 21.0662C28.7458 20.9726 28.609 20.9294 28.4578 20.9438C28.1986 20.9654 27.8962 21.1166 27.9178 21.7574C27.9322 22.0526 27.925 22.355 27.925 22.6358C27.925 22.715 27.925 22.7942 27.925 22.8662C27.6514 22.9238 27.3778 22.9814 27.1114 23.0318C26.4274 23.1686 25.7794 23.2982 25.1242 23.4854C22.8562 24.1262 21.1138 25.1486 19.789 26.6246C19.429 27.0206 19.0978 27.1718 18.5434 27.1718C17.9602 27.1718 17.6002 27.0206 17.2186 26.603C15.577 24.8174 13.4242 23.7086 10.4362 23.1182C10.105 23.0534 9.76659 23.003 9.43539 22.9598C9.32019 22.9454 9.20499 22.9238 9.08979 22.9094C9.03219 21.1814 9.36339 19.5686 10.0978 17.9846C10.1626 17.999 10.2202 18.0134 10.2778 18.035C13.5034 19.151 16.801 19.6046 20.0842 19.3814L20.2282 19.3742C20.4658 19.3598 20.7106 19.3454 20.9482 19.3166C21.2938 19.2734 21.5242 19.007 21.4954 18.683C21.4738 18.359 21.2218 18.1502 20.869 18.1502H20.8618C20.689 18.1502 20.5234 18.1646 20.3794 18.179C17.8306 18.3878 15.2962 18.1862 12.8482 17.567C12.3154 17.4302 11.7898 17.279 11.2426 17.1134C11.0482 17.0558 10.8466 16.9982 10.6522 16.9406L10.6594 16.9334C10.7098 16.8326 10.7602 16.7534 10.8034 16.667C11.653 15.1334 12.1426 13.6646 12.3082 12.167C12.373 11.5478 11.9842 11.4326 11.8186 11.4182C11.653 11.3966 11.5018 11.4326 11.3866 11.5262C11.2498 11.6342 11.1706 11.7998 11.1418 12.023C10.969 13.463 10.4578 14.9102 9.59379 16.4438C7.61379 19.943 7.36899 23.5862 8.85219 27.2654C9.37779 28.5614 9.98979 29.8502 10.5802 31.0958C10.8394 31.6358 11.0986 32.1902 11.3506 32.7374C11.5162 33.0974 11.8258 33.2774 12.265 33.2774C16.8514 33.2702 20.941 33.2774 24.7786 33.2774C25.2322 33.2774 25.549 33.0758 25.7434 32.6582C26.0818 31.9166 26.4274 31.1822 26.7658 30.4406C27.1834 29.5478 27.6082 28.619 28.0258 27.7046C28.8754 25.8254 29.2354 23.8022 29.0986 21.6782ZM27.8386 24.119C27.7594 24.9038 27.601 25.5662 27.349 26.1494C26.8738 27.2798 26.3626 28.4174 25.8658 29.5118C25.7218 29.8286 25.585 30.1382 25.441 30.455C25.1962 31.0094 24.9658 31.499 24.7426 31.9454C24.7138 32.003 24.6346 32.0678 24.6058 32.0678C22.9714 32.075 21.3154 32.075 19.7098 32.075H19.1194V28.3454C19.7098 28.3598 20.1058 28.0502 20.509 27.5822C21.5026 26.423 22.849 25.5374 24.6418 24.8678C25.6138 24.5078 26.6578 24.263 27.8386 24.119ZM17.9026 28.331V32.0822H16.7578C15.3682 32.0822 13.9354 32.0822 12.5242 32.075C12.445 32.075 12.3442 32.0318 12.3226 32.0102C12.1858 31.7078 12.0418 31.3982 11.905 31.0958C11.1562 29.4542 10.3786 27.7622 9.66579 26.0774C9.47859 25.6382 9.37779 25.1558 9.26259 24.6446C9.22659 24.4646 9.18339 24.2846 9.14019 24.1046C9.26259 24.1262 9.38499 24.1406 9.50019 24.1622C9.86739 24.2198 10.213 24.2774 10.5514 24.3494C12.8266 24.8462 14.6194 25.7318 16.0378 27.071C16.3042 27.323 16.513 27.5462 16.6858 27.7694C16.9954 28.1726 17.377 28.3598 17.845 28.3382C17.8594 28.3238 17.881 28.331 17.9026 28.331Z" fill="black"/>
<path d="M9.73035 4.16784C9.75195 4.22544 9.76635 4.28304 9.78795 4.34064C9.92475 4.81584 10.076 5.29104 10.2272 5.75184C10.6952 7.19184 11.1775 8.68224 11.2207 10.2446C11.2279 10.5614 11.4583 10.7702 11.7967 10.7702C12.1063 10.7702 12.3223 10.5758 12.3727 10.2518C12.3943 10.1222 12.38 9.99264 12.3656 9.87744V9.86304C12.308 9.37344 12.2504 8.89104 12.1856 8.38704L12.1424 8.05584C14.1944 8.58864 16.3328 8.85504 18.5 8.85504C20.7031 8.85504 22.7983 8.58864 24.8935 8.04864C24.2527 11.0798 24.7351 13.9814 26.3767 16.8974C26.3623 16.9046 26.3479 16.9118 26.3335 16.9118C25.1599 17.2214 23.8927 17.5526 22.6039 17.891C22.2224 17.9918 22.0207 18.2726 22.0855 18.6038C22.1575 18.9422 22.4743 19.1222 22.8487 19.043C22.9783 19.0214 23.1008 18.9926 23.2304 18.971C23.6048 18.899 23.9863 18.827 24.3607 18.7262C24.9871 18.5606 25.5992 18.3806 26.2472 18.1934C26.4776 18.1286 26.7079 18.0566 26.9455 17.9918C26.9743 18.0638 27.0031 18.143 27.0319 18.215C27.1327 18.4742 27.2407 18.7478 27.3415 19.0142C27.3991 19.1726 27.4495 19.3382 27.4928 19.4966C27.5287 19.6334 27.572 19.7702 27.6152 19.907C27.7087 20.1806 27.9176 20.339 28.1623 20.339C28.2199 20.339 28.2775 20.3318 28.3424 20.3102C28.6592 20.2166 28.8031 19.9718 28.7527 19.6262C28.7455 19.5686 28.7311 19.511 28.7167 19.4606L28.7024 19.4102C28.3784 18.1502 27.7808 17.0054 27.2479 16.0334C25.8223 13.4414 25.4335 10.763 26.1031 8.07744C26.3263 7.17744 26.6143 6.27744 26.8951 5.40624C27.0319 4.97424 27.1759 4.52784 27.3127 4.08144C27.4423 3.64944 27.4207 3.31104 27.2479 3.07344C27.0751 2.84304 26.7583 2.72064 26.2975 2.72064C21.0991 2.72064 15.9079 2.72064 10.7096 2.72064H10.6447C10.5871 2.72064 10.5223 2.72064 10.4647 2.72064C10.1767 2.73504 9.93195 2.86464 9.77355 3.08064C9.61515 3.29664 9.56475 3.56304 9.62955 3.84384C9.66555 3.96624 9.70155 4.06704 9.73035 4.16784ZM25.2895 6.58704C25.2679 6.65184 25.1816 6.73824 25.124 6.75984C22.7551 7.45824 20.2207 7.76064 17.5927 7.66704C15.6343 7.59504 13.7264 7.29984 11.9336 6.78144C11.804 6.74544 11.7536 6.70224 11.7176 6.57984C11.5376 5.97504 11.3432 5.35584 11.156 4.76544C11.0768 4.50624 10.9976 4.24704 10.9112 3.99504C10.904 3.98064 10.9039 3.95904 10.8967 3.94464H26.1248C26.1175 3.95904 26.1175 3.97344 26.1103 3.98784L25.9592 4.48464C25.7432 5.16144 25.5199 5.88144 25.2895 6.58704Z" fill="black"/>
<path d="M19.0978 15.2126C19.0618 14.8742 18.817 14.651 18.5002 14.6726C18.169 14.687 17.953 14.8958 17.9386 15.2126C17.917 15.5654 17.917 15.9182 17.9386 16.2638C17.9602 16.5806 18.1762 16.7822 18.5074 16.7966C18.5146 16.7966 18.5218 16.7966 18.529 16.7966C18.8386 16.7966 19.069 16.5806 19.0978 16.2494C19.1122 16.127 19.105 16.0046 19.105 15.8822C19.105 15.8318 19.105 15.7814 19.105 15.731C19.105 15.6806 19.105 15.6302 19.105 15.5798C19.105 15.4574 19.105 15.335 19.0978 15.2126Z" fill="black"/>
<path d="M10.7168 3.78625C15.9224 3.78625 21.1064 3.78625 26.3048 3.78625C26.2832 3.87265 26.2688 3.94465 26.2472 4.01665C25.9736 4.88785 25.7072 5.75905 25.4192 6.63025C25.3832 6.73825 25.268 6.86066 25.16 6.89666C22.6832 7.62386 20.156 7.90465 17.5784 7.81105C15.6416 7.73905 13.7408 7.45825 11.8832 6.91825C11.7104 6.86785 11.624 6.79585 11.5736 6.62305C11.3144 5.75905 11.0408 4.89505 10.7672 4.03105C10.7528 3.95185 10.7384 3.87985 10.7168 3.78625Z" fill="url(#paint1_linear_4430_27122)"/>
<path d="M20.2568 22.2974C19.7816 21.0302 18.8744 19.8638 18.5144 19.8638C18.3344 19.8638 18.0464 20.1086 17.7368 20.4974L20.2568 22.2974Z" fill="#0077FF"/>
<path d="M16.9665 21.7142C16.1529 23.3414 15.8721 25.4582 18.5145 25.4582C19.7745 25.4582 20.3433 24.9542 20.5089 24.2486L16.9665 21.7142Z" fill="#0077FF"/>
<path d="M21.1064 25.0766C20.9624 25.0766 20.8184 25.0334 20.6888 24.9398L15.7064 21.383C15.3824 21.1526 15.3104 20.699 15.5408 20.375C15.7712 20.051 16.2248 19.979 16.5416 20.2094L21.524 23.7662C21.848 23.9966 21.92 24.4502 21.6896 24.7742C21.5528 24.9686 21.3296 25.0766 21.1064 25.0766Z" fill="#0077FF"/>
<path d="M12.5887 23.0463L12.6967 22.8879L10.3927 19.8495C10.1911 19.5327 10.0831 19.3527 10.1839 19.0431C10.2199 18.9639 10.4863 18.2799 10.6015 18.0207C10.7023 17.7975 10.6303 17.6679 10.4863 17.5455C10.2775 17.3727 5.89275 13.5927 5.89275 13.5927L4.00635 17.5383L6.92955 19.5111L6.36795 20.8791L12.5887 23.0463ZM10.5727 21.4479L7.49115 20.3751L8.05275 19.0143L5.09355 17.2143L6.18795 14.9391C6.19515 14.9391 6.19515 14.9391 6.19515 14.9391C6.51915 15.2199 6.85035 15.5079 7.17435 15.7887C7.99515 16.4943 8.83755 17.2287 9.67275 17.9487C9.71595 17.9847 9.72315 17.9919 9.69435 18.0639C9.62235 18.2223 9.55755 18.3879 9.49275 18.5463C9.39195 18.7839 9.29835 19.0359 9.19035 19.2735C9.15435 19.3455 9.14715 19.4103 9.14715 19.4679C9.14715 19.5471 9.18315 19.6335 9.24795 19.7126C9.62235 20.2023 10.0039 20.6991 10.3639 21.1815L10.5727 21.4479Z" fill="black"/>
<path d="M6.25987 14.867C7.41907 15.8678 8.57827 16.8686 9.74467 17.8766C9.83827 17.9486 9.83827 18.0134 9.79507 18.107C9.62947 18.5174 9.47107 18.9278 9.29107 19.331C9.23347 19.4678 9.24787 19.5614 9.33427 19.6694C9.80227 20.267 10.2559 20.879 10.7167 21.4838C10.7527 21.527 10.7743 21.5774 10.8319 21.6566C9.65107 21.2462 8.51347 20.8502 7.35427 20.447C7.54147 19.979 7.72867 19.5254 7.92307 19.0646C6.92947 18.4598 5.95027 17.8694 4.96387 17.2646C5.35987 16.4294 5.74867 15.6158 6.14467 14.7878C6.18787 14.8166 6.22387 14.831 6.25987 14.867Z" fill="#BE3455"/>
<path d="M30.9922 21.8078L30.625 20.375L33.8002 18.8342L32.4898 14.6654C32.4898 14.6654 27.6154 17.7902 27.385 17.9342C27.2266 18.035 27.133 18.1502 27.205 18.3878C27.2842 18.6614 27.457 19.3742 27.4786 19.4606C27.5362 19.7774 27.4066 19.9502 27.1618 20.231L24.4546 22.9094L24.541 23.0822L30.9922 21.8078ZM27.0034 21.5486C27.4282 21.1238 27.8746 20.6846 28.3138 20.2526C28.393 20.1806 28.4362 20.1014 28.4506 20.0222C28.465 19.9646 28.4578 19.8998 28.4362 19.8206C28.3642 19.5686 28.2994 19.3094 28.2418 19.0574C28.1986 18.8918 28.1554 18.719 28.1122 18.5462C28.0906 18.4742 28.0978 18.467 28.1482 18.4382C29.077 17.8478 30.0202 17.2358 30.9274 16.6526C31.2874 16.415 31.6546 16.1846 32.0146 15.947C32.0146 15.947 32.0146 15.947 32.0218 15.947L32.7778 18.359L29.6026 19.727L29.9698 21.1526L26.773 21.779L27.0034 21.5486Z" fill="black"/>
<path d="M32.0795 15.8102C32.3531 16.6814 32.6267 17.5454 32.9003 18.4238C31.8347 18.8846 30.7835 19.331 29.7107 19.7918C29.8331 20.2742 29.9555 20.7494 30.0779 21.239C28.8755 21.4766 27.6947 21.707 26.4707 21.9446C26.5355 21.8726 26.5715 21.8294 26.6075 21.7862C27.1475 21.2534 27.6875 20.7134 28.2347 20.1806C28.3355 20.087 28.3643 19.9934 28.3283 19.8566C28.2059 19.4318 28.1123 19.007 28.0043 18.575C27.9755 18.4742 27.9899 18.4166 28.0835 18.359C29.3795 17.5238 30.6683 16.6958 31.9571 15.8678C32.0003 15.8462 32.0363 15.8318 32.0795 15.8102Z" fill="#BE3455"/>
<defs>
<linearGradient id="paint0_linear_4430_27122" x1="28.3356" y1="17.387" x2="7.26409" y2="20.7718" gradientUnits="userSpaceOnUse">
<stop stop-color="#DFF9F8"/>
<stop offset="0.46875" stop-color="#D5F4E5"/>
<stop offset="1" stop-color="#AEE5E2"/>
</linearGradient>
<linearGradient id="paint1_linear_4430_27122" x1="26.3048" y1="3.78625" x2="11.0079" y2="8.72928" gradientUnits="userSpaceOnUse">
<stop stop-color="#DFF9F8"/>
<stop offset="0.46875" stop-color="#D5F4E5"/>
<stop offset="1" stop-color="#AEE5E2"/>
</linearGradient>
</defs>
</svg>
