<svg width="37" height="36" viewBox="0 0 37 36" fill="none" xmlns="http://www.w3.org/2000/svg">
<rect x="0.5" y="-0.000976562" width="36" height="36" rx="18" fill="white"/>
<path d="M27.0396 17.387L22.8348 18.9134L20.9268 19.1654L14.3388 18.5822L9.7596 17.387L8.6724 20.3894L8.3916 23.363L11.4372 23.9678L15.1524 25.559L17.3484 27.5462L18.8028 27.791L20.0772 27.0494L23.1228 24.7094L28.3356 23.327L28.062 21.743L27.7668 19.8782L27.6228 17.9126L27.0396 17.387Z" fill="url(#paint0_linear_4430_27118)"/>
<path d="M29.0986 21.6782C29.077 21.3974 28.9978 21.1886 28.8538 21.0662C28.7458 20.9726 28.609 20.9294 28.4578 20.9438C28.1986 20.9654 27.8962 21.1166 27.9178 21.7574C27.9322 22.0526 27.925 22.355 27.925 22.6358C27.925 22.715 27.925 22.7942 27.925 22.8662C27.6514 22.9238 27.3778 22.9814 27.1114 23.0318C26.4274 23.1686 25.7794 23.2982 25.1242 23.4854C22.8562 24.1262 21.1138 25.1486 19.789 26.6246C19.429 27.0206 19.0978 27.1718 18.5434 27.1718C17.9602 27.1718 17.6002 27.0206 17.2186 26.603C15.577 24.8174 13.4242 23.7086 10.4362 23.1182C10.105 23.0534 9.76659 23.003 9.43539 22.9598C9.32019 22.9454 9.20499 22.9238 9.08979 22.9094C9.03219 21.1814 9.36339 19.5686 10.0978 17.9846C10.1626 17.999 10.2202 18.0134 10.2778 18.035C13.5034 19.151 16.801 19.6046 20.0842 19.3814L20.2282 19.3742C20.4658 19.3598 20.7106 19.3454 20.9482 19.3166C21.2938 19.2734 21.5242 19.007 21.4954 18.683C21.4738 18.359 21.2218 18.1502 20.869 18.1502H20.8618C20.689 18.1502 20.5234 18.1646 20.3794 18.179C17.8306 18.3878 15.2962 18.1862 12.8482 17.567C12.3154 17.4302 11.7898 17.279 11.2426 17.1134C11.0482 17.0558 10.8466 16.9982 10.6522 16.9406L10.6594 16.9334C10.7098 16.8326 10.7602 16.7534 10.8034 16.667C11.653 15.1334 12.1426 13.6646 12.3082 12.167C12.373 11.5478 11.9842 11.4326 11.8186 11.4182C11.653 11.3966 11.5018 11.4326 11.3866 11.5262C11.2498 11.6342 11.1706 11.7998 11.1418 12.023C10.969 13.463 10.4578 14.9102 9.59379 16.4438C7.61379 19.943 7.36899 23.5862 8.85219 27.2654C9.37779 28.5614 9.98979 29.8502 10.5802 31.0958C10.8394 31.6358 11.0986 32.1902 11.3506 32.7374C11.5162 33.0974 11.8258 33.2774 12.265 33.2774C16.8514 33.2702 20.941 33.2774 24.7786 33.2774C25.2322 33.2774 25.549 33.0758 25.7434 32.6582C26.0818 31.9166 26.4274 31.1822 26.7658 30.4406C27.1834 29.5478 27.6082 28.619 28.0258 27.7046C28.8754 25.8254 29.2354 23.8022 29.0986 21.6782ZM27.8386 24.119C27.7594 24.9038 27.601 25.5662 27.349 26.1494C26.8738 27.2798 26.3626 28.4174 25.8658 29.5118C25.7218 29.8286 25.585 30.1382 25.441 30.455C25.1962 31.0094 24.9658 31.499 24.7426 31.9454C24.7138 32.003 24.6346 32.0678 24.6058 32.0678C22.9714 32.075 21.3154 32.075 19.7098 32.075H19.1194V28.3454C19.7098 28.3598 20.1058 28.0502 20.509 27.5822C21.5026 26.423 22.849 25.5374 24.6418 24.8678C25.6138 24.5078 26.6578 24.263 27.8386 24.119ZM17.9026 28.331V32.0822H16.7578C15.3682 32.0822 13.9354 32.0822 12.5242 32.075C12.445 32.075 12.3442 32.0318 12.3226 32.0102C12.1858 31.7078 12.0418 31.3982 11.905 31.0958C11.1562 29.4542 10.3786 27.7622 9.66579 26.0774C9.47859 25.6382 9.37779 25.1558 9.26259 24.6446C9.22659 24.4646 9.18339 24.2846 9.14019 24.1046C9.26259 24.1262 9.38499 24.1406 9.50019 24.1622C9.86739 24.2198 10.213 24.2774 10.5514 24.3494C12.8266 24.8462 14.6194 25.7318 16.0378 27.071C16.3042 27.323 16.513 27.5462 16.6858 27.7694C16.9954 28.1726 17.377 28.3598 17.845 28.3382C17.8594 28.3238 17.881 28.331 17.9026 28.331Z" fill="black"/>
<path d="M9.73035 4.16784C9.75195 4.22544 9.76635 4.28304 9.78795 4.34064C9.92475 4.81584 10.076 5.29104 10.2272 5.75184C10.6952 7.19184 11.1775 8.68224 11.2207 10.2446C11.2279 10.5614 11.4583 10.7702 11.7967 10.7702C12.1063 10.7702 12.3223 10.5758 12.3727 10.2518C12.3943 10.1222 12.38 9.99264 12.3656 9.87744V9.86304C12.308 9.37344 12.2504 8.89104 12.1856 8.38704L12.1424 8.05584C14.1944 8.58864 16.3328 8.85504 18.5 8.85504C20.7031 8.85504 22.7983 8.58864 24.8935 8.04864C24.2527 11.0798 24.7351 13.9814 26.3767 16.8974C26.3623 16.9046 26.3479 16.9118 26.3335 16.9118C25.1599 17.2214 23.8927 17.5526 22.6039 17.891C22.2224 17.9918 22.0207 18.2726 22.0855 18.6038C22.1575 18.9422 22.4743 19.1222 22.8487 19.043C22.9783 19.0214 23.1008 18.9926 23.2304 18.971C23.6048 18.899 23.9863 18.827 24.3607 18.7262C24.9871 18.5606 25.5992 18.3806 26.2472 18.1934C26.4776 18.1286 26.7079 18.0566 26.9455 17.9918C26.9743 18.0638 27.0031 18.143 27.0319 18.215C27.1327 18.4742 27.2407 18.7478 27.3415 19.0142C27.3991 19.1726 27.4495 19.3382 27.4928 19.4966C27.5287 19.6334 27.572 19.7702 27.6152 19.907C27.7087 20.1806 27.9176 20.339 28.1623 20.339C28.2199 20.339 28.2775 20.3318 28.3424 20.3102C28.6592 20.2166 28.8031 19.9718 28.7527 19.6262C28.7455 19.5686 28.7311 19.511 28.7167 19.4606L28.7024 19.4102C28.3784 18.1502 27.7808 17.0054 27.2479 16.0334C25.8223 13.4414 25.4335 10.763 26.1031 8.07744C26.3263 7.17744 26.6143 6.27744 26.8951 5.40624C27.0319 4.97424 27.1759 4.52784 27.3127 4.08144C27.4423 3.64944 27.4207 3.31104 27.2479 3.07344C27.0751 2.84304 26.7583 2.72064 26.2975 2.72064C21.0991 2.72064 15.9079 2.72064 10.7096 2.72064H10.6447C10.5871 2.72064 10.5223 2.72064 10.4647 2.72064C10.1767 2.73504 9.93195 2.86464 9.77355 3.08064C9.61515 3.29664 9.56475 3.56304 9.62955 3.84384C9.66555 3.96624 9.70155 4.06704 9.73035 4.16784ZM25.2895 6.58704C25.2679 6.65184 25.1816 6.73824 25.124 6.75984C22.7551 7.45824 20.2207 7.76064 17.5927 7.66704C15.6343 7.59504 13.7264 7.29984 11.9336 6.78144C11.804 6.74544 11.7536 6.70224 11.7176 6.57984C11.5376 5.97504 11.3432 5.35584 11.156 4.76544C11.0768 4.50624 10.9976 4.24704 10.9112 3.99504C10.904 3.98064 10.9039 3.95904 10.8967 3.94464H26.1248C26.1175 3.95904 26.1175 3.97344 26.1103 3.98784L25.9592 4.48464C25.7432 5.16144 25.5199 5.88144 25.2895 6.58704Z" fill="black"/>
<path d="M19.0978 15.2126C19.0618 14.8742 18.817 14.651 18.5002 14.6726C18.169 14.687 17.953 14.8958 17.9386 15.2126C17.917 15.5654 17.917 15.9182 17.9386 16.2638C17.9602 16.5806 18.1762 16.7822 18.5074 16.7966C18.5146 16.7966 18.5218 16.7966 18.529 16.7966C18.8386 16.7966 19.069 16.5806 19.0978 16.2494C19.1122 16.127 19.105 16.0046 19.105 15.8822C19.105 15.8318 19.105 15.7814 19.105 15.731C19.105 15.6806 19.105 15.6302 19.105 15.5798C19.105 15.4574 19.105 15.335 19.0978 15.2126Z" fill="black"/>
<path d="M10.7168 3.78625C15.9224 3.78625 21.1064 3.78625 26.3048 3.78625C26.2832 3.87265 26.2688 3.94465 26.2472 4.01665C25.9736 4.88785 25.7072 5.75905 25.4192 6.63025C25.3832 6.73825 25.268 6.86066 25.16 6.89666C22.6832 7.62386 20.156 7.90465 17.5784 7.81105C15.6416 7.73905 13.7408 7.45825 11.8832 6.91825C11.7104 6.86785 11.624 6.79585 11.5736 6.62305C11.3144 5.75905 11.0408 4.89505 10.7672 4.03105C10.7528 3.95185 10.7384 3.87985 10.7168 3.78625Z" fill="url(#paint1_linear_4430_27118)"/>
<path d="M15.9439 24.623C15.7927 24.623 15.6415 24.5726 15.5119 24.479L11.1271 21.1526C10.8103 20.915 10.7455 20.4614 10.9903 20.1446C11.2279 19.8278 11.6815 19.763 11.9983 20.0078L16.3831 23.3342C16.6999 23.5718 16.7647 24.0254 16.5199 24.3422C16.3759 24.5222 16.1599 24.623 15.9439 24.623Z" fill="#BE3455"/>
<path d="M21.0847 24.623C20.8687 24.623 20.6527 24.5222 20.5087 24.335C20.2711 24.0182 20.3287 23.5646 20.6455 23.327L25.0303 20.0006C25.3471 19.763 25.8007 19.8206 26.0383 20.1374C26.2759 20.4542 26.2183 20.9078 25.9015 21.1454L21.5167 24.4718C21.3871 24.5726 21.2359 24.623 21.0847 24.623Z" fill="#BE3455"/>
<path d="M18.5144 24.6086C18.1184 24.6086 17.7944 24.2846 17.7944 23.8886V20.5766C17.7944 20.1806 18.1184 19.8566 18.5144 19.8566C18.9104 19.8566 19.2344 20.1806 19.2344 20.5766V23.8886C19.2344 24.2846 18.9104 24.6086 18.5144 24.6086Z" fill="#BE3455"/>
<path d="M7.46222 23.795L7.62062 23.6798L6.41822 20.0654C6.32462 19.7054 6.28862 19.4966 6.48302 19.2374C6.54062 19.1726 7.01582 18.611 7.21022 18.4022C7.38302 18.2222 7.34702 18.0782 7.25342 17.9198C7.10942 17.6894 4.17902 12.6998 4.17902 12.6998L1.11182 15.8246L3.24302 18.6326L2.27102 19.7486L7.46222 23.795ZM6.05822 21.635L3.48782 19.6334L4.45982 18.5246L2.24222 15.8678L4.00622 14.0606C4.01342 14.0606 4.01342 14.0606 4.01342 14.0606C4.22942 14.435 4.45262 14.8094 4.66862 15.1838C5.21582 16.1198 5.78462 17.0846 6.33902 18.035C6.36782 18.0782 6.36782 18.0926 6.32462 18.1502C6.20942 18.2798 6.09422 18.4166 5.97902 18.5462C5.80622 18.7406 5.63342 18.9494 5.46062 19.1438C5.40302 19.2014 5.37422 19.259 5.35982 19.3166C5.33822 19.3958 5.34542 19.4822 5.37422 19.583C5.56862 20.1662 5.77022 20.7566 5.96462 21.3326L6.05822 21.635Z" fill="black"/>
<path d="M4.09974 14.0102C4.87734 15.335 5.64774 16.6526 6.43254 17.9846C6.49734 18.0854 6.47574 18.143 6.40374 18.215C6.11574 18.5462 5.83494 18.8846 5.53254 19.2086C5.43174 19.3166 5.41734 19.4102 5.46774 19.5398C5.71254 20.2598 5.95014 20.987 6.19494 21.707C6.20934 21.7574 6.22374 21.815 6.24534 21.9086C5.25894 21.1382 4.30854 20.4038 3.34374 19.6478C3.67494 19.2662 3.99894 18.8918 4.32294 18.5246C3.57414 17.6318 2.83974 16.7534 2.09814 15.8678C2.73894 15.2054 3.37254 14.5574 4.01334 13.9022C4.04934 13.9454 4.07814 13.9742 4.09974 14.0102Z" fill="#BE3455"/>
<path d="M34.7504 19.3455L33.7424 18.2655L35.78 15.3855L32.6264 12.3615C32.6264 12.3615 29.8616 17.4447 29.7248 17.6823C29.6312 17.8479 29.6024 17.9919 29.7824 18.1647C29.984 18.3663 30.4736 18.9135 30.5312 18.9711C30.7328 19.2231 30.6968 19.4318 30.6176 19.7991L29.5376 23.4495L29.696 23.5575L34.7504 19.3455ZM31.1288 21.0375C31.3016 20.4615 31.4816 19.8567 31.6544 19.2735C31.6832 19.1727 31.6904 19.0863 31.6616 19.0071C31.64 18.9495 31.6112 18.8919 31.5536 18.8415C31.3664 18.6543 31.1864 18.4527 31.0136 18.2655C30.8984 18.1358 30.776 18.0062 30.6536 17.8838C30.6032 17.8334 30.6032 17.8191 30.632 17.7687C31.1576 16.8039 31.6904 15.8175 32.2088 14.8671C32.4104 14.4855 32.6192 14.1039 32.828 13.7223C32.828 13.7223 32.828 13.7223 32.8352 13.7223L34.6568 15.4718L32.5256 18.2007L33.5336 19.2735L31.028 21.3615L31.1288 21.0375Z" fill="black"/>
<path d="M32.8134 13.5566C33.4758 14.1902 34.131 14.8166 34.7934 15.4574C34.0806 16.3718 33.375 17.2718 32.655 18.1862C32.9934 18.5462 33.3318 18.9062 33.6702 19.2806C32.7342 20.0654 31.8054 20.8358 30.8478 21.635C30.8694 21.5414 30.8766 21.4838 30.891 21.4334C31.107 20.7062 31.323 19.9718 31.5462 19.2446C31.5894 19.115 31.575 19.0214 31.467 18.9134C31.1574 18.5966 30.8694 18.2726 30.567 17.9486C30.495 17.8766 30.4734 17.819 30.531 17.7182C31.2654 16.3646 31.9998 15.0182 32.727 13.6718C32.7558 13.6358 32.7846 13.5998 32.8134 13.5566Z" fill="#BE3455"/>
<defs>
<linearGradient id="paint0_linear_4430_27118" x1="28.3356" y1="17.387" x2="7.26409" y2="20.7718" gradientUnits="userSpaceOnUse">
<stop stop-color="#DFF9F8"/>
<stop offset="0.46875" stop-color="#D5F4E5"/>
<stop offset="1" stop-color="#AEE5E2"/>
</linearGradient>
<linearGradient id="paint1_linear_4430_27118" x1="26.3048" y1="3.78625" x2="11.0079" y2="8.72928" gradientUnits="userSpaceOnUse">
<stop stop-color="#DFF9F8"/>
<stop offset="0.46875" stop-color="#D5F4E5"/>
<stop offset="1" stop-color="#AEE5E2"/>
</linearGradient>
</defs>
</svg>
