<svg width="37" height="36" viewBox="0 0 37 36" fill="none" xmlns="http://www.w3.org/2000/svg">
<rect x="0.5" y="-0.00109863" width="36" height="36" rx="18" fill="white"/>
<path d="M18.9966 5.83807C18.9966 5.83807 15.4758 6.19807 15.4038 7.44367C15.3318 8.68927 13.3086 8.61007 13.0854 8.52367C12.855 8.43727 10.695 8.24287 9.6438 9.89167C8.5926 11.5405 8.4486 13.9309 8.5638 14.3557C8.679 14.7805 6.3462 17.2285 6.9438 19.0069C7.5414 20.7853 8.6502 22.2037 9.8166 22.5421C10.983 22.8805 11.7318 22.6573 11.7822 23.1973C11.8326 23.7373 11.4726 26.4085 14.0142 27.6325C16.5558 28.8565 19.1406 27.6613 19.623 26.9773C20.1054 26.2933 20.6454 25.6957 21.1566 26.2069C21.6678 26.7181 23.7126 28.5397 25.6494 27.5173C27.5862 26.4949 28.7742 24.9109 28.8606 24.1549C28.947 23.3989 29.4006 23.0389 30.279 22.7221C31.1574 22.4053 33.0942 20.3245 33.0366 18.8485C32.979 17.3725 32.6118 15.6733 31.3014 14.9461C29.991 14.2189 28.8534 14.1613 29.2278 13.5349C29.6022 12.9085 30.3942 9.40927 28.5726 8.13487C26.751 6.86047 24.7638 6.42127 23.8422 6.84607C22.9134 7.27087 22.431 7.61647 21.891 7.01887C21.351 6.42127 19.5942 5.90287 18.9966 5.83807Z" fill="url(#paint0_linear_4457_54963)"/>
<path d="M29.9699 13.4917C30.8555 13.7869 31.6043 14.2621 32.2307 14.9317C34.8731 17.7757 33.5699 22.4413 29.8259 23.4853C29.6387 23.5357 29.5667 23.6077 29.5379 23.8093C29.2283 25.8109 28.1411 27.2437 26.2619 27.9781C24.3539 28.7197 22.5755 28.3741 20.9843 27.0853C20.8835 27.0061 20.7971 26.9197 20.6963 26.8333C19.1195 28.7341 17.1539 29.5333 14.7851 28.7413C12.3371 27.9349 11.2283 26.0629 11.1635 23.5213C10.3859 23.4421 9.65873 23.2189 8.98193 22.8373C6.02273 21.1741 5.46833 17.0053 7.89473 14.6437C8.09633 14.4493 8.15393 14.2909 8.08193 14.0101C7.34753 11.0797 9.39953 8.04851 12.3947 7.66691C12.9707 7.59491 13.5683 7.66691 14.1515 7.71011C14.3675 7.72451 14.4827 7.68851 14.6051 7.50131C16.4267 4.75091 20.1419 4.31891 22.5539 6.56531C22.7051 6.70931 22.8203 6.70211 22.9931 6.62291C26.0459 5.23331 29.4587 6.87491 30.2723 10.1293C30.5315 11.1517 30.4523 12.1597 30.0851 13.1461C30.0563 13.2613 30.0203 13.3621 29.9699 13.4917ZM29.2283 11.3749C29.2067 11.1517 29.2067 10.9213 29.1635 10.6981C28.6595 7.88291 25.6571 6.47891 23.1731 7.89731C22.5827 8.23571 22.4243 8.21411 21.9851 7.71011C20.4731 5.97491 17.7659 5.86691 16.1531 7.51571C15.8219 7.85411 15.5843 8.28611 15.3179 8.68931C15.0875 9.04211 14.8859 9.14291 14.4755 9.02771C14.3819 8.99891 14.2883 8.97011 14.1947 8.94851C12.6827 8.58131 11.3507 8.92691 10.2707 10.0429C9.16913 11.1877 8.88833 12.5701 9.34913 14.0893C9.54353 14.7301 9.52193 14.8021 9.01793 15.2485C7.81553 16.3069 7.33313 17.6317 7.67873 19.2013C8.09633 21.0949 9.71633 22.3405 11.6603 22.3261C12.3227 22.3189 12.5171 22.5781 12.4451 23.2477C12.4019 23.6797 12.4091 24.1333 12.4739 24.5653C12.7331 26.2141 14.0795 27.4885 15.8147 27.7909C17.3627 28.0573 19.1195 27.2365 19.8539 25.8253C20.2931 24.9829 20.7899 25.0477 21.3011 25.6957C22.1723 26.7973 23.3747 27.2797 24.7787 27.1213C26.8523 26.8909 28.2851 25.3069 28.3715 23.2117C28.3931 22.7005 28.5515 22.5133 29.0339 22.4341C30.9923 22.1029 32.3819 20.4829 32.4179 18.5029C32.4467 16.5949 31.0643 14.9245 29.1491 14.5357C28.4435 14.3917 28.2707 14.0389 28.6307 13.4269C29.0051 12.7933 29.2067 12.1165 29.2283 11.3749Z" fill="black"/>
<path d="M10.0762 26.7613C10.0042 26.9485 9.86015 27.3085 9.73055 27.6757C9.69455 27.7765 9.66575 27.8989 9.68735 27.9997C9.96095 29.1733 9.36335 30.3397 8.27615 30.7213C7.11695 31.1317 5.95055 30.6493 5.39615 29.5477C5.34575 29.4469 5.21615 29.3461 5.10095 29.3101C3.99215 29.0005 3.25775 27.9709 3.38735 26.8765C3.53135 25.6957 4.45295 24.8173 5.62655 24.8245C5.99375 24.8245 6.25295 24.7453 6.55535 24.5437C7.34735 24.0253 8.19695 24.0181 8.99615 24.5149C9.75215 24.9757 10.0906 25.6813 10.0762 26.7613ZM8.94575 26.4733C8.87375 25.9909 8.60015 25.6021 8.17535 25.4437C7.75055 25.2853 7.27535 25.3933 6.98015 25.7749C6.72095 26.1133 6.43295 26.2429 6.00815 26.0917C5.56895 25.9333 5.17295 26.0341 4.85615 26.3869C4.56095 26.7181 4.50335 27.1069 4.67615 27.5173C4.85615 27.9421 5.20175 28.1581 5.66975 28.1725C6.13775 28.1869 6.29615 28.3093 6.41135 28.7701C6.59135 29.4613 7.18895 29.8213 7.81535 29.6053C8.44175 29.3965 8.71535 28.7485 8.42735 28.0933C8.26895 27.7405 8.32655 27.4669 8.57855 27.1789C8.74415 26.9773 8.82335 26.7109 8.94575 26.4733Z" fill="black"/>
<path d="M24.3392 26.3725C23.7632 26.3653 23.2088 26.2501 22.6976 25.9765C22.3448 25.7893 22.2152 25.4581 22.3664 25.1485C22.5176 24.8389 22.8632 24.7309 23.2232 24.9037C23.9576 25.2565 24.6776 25.2637 25.3904 24.8533C25.5488 24.7597 25.6856 24.6301 25.844 24.5221C26.1464 24.3133 26.4776 24.3493 26.6864 24.6157C26.888 24.8749 26.852 25.1917 26.5856 25.4581C26.0384 25.9981 25.1816 26.3509 24.3392 26.3725Z" fill="black"/>
<path d="M27.6296 23.3341C27.6368 23.7661 27.3704 24.0829 27.0032 24.0829C26.6792 24.0829 26.42 23.8093 26.4128 23.4709C26.4056 23.0173 26.6432 22.7221 27.0176 22.7149C27.3776 22.7077 27.6224 22.9669 27.6296 23.3341Z" fill="black"/>
<path d="M18.997 14.0173C20.687 14.0173 22.057 12.6473 22.057 10.9573C22.057 9.26729 20.687 7.89728 18.997 7.89728C17.307 7.89728 15.937 9.26729 15.937 10.9573C15.937 12.6473 17.307 14.0173 18.997 14.0173Z" fill="#BE3455"/>
<path d="M18.9971 12.9949C20.1224 12.9949 21.0347 12.0826 21.0347 10.9573C21.0347 9.83194 20.1224 8.91968 18.9971 8.91968C17.8717 8.91968 16.9595 9.83194 16.9595 10.9573C16.9595 12.0826 17.8717 12.9949 18.9971 12.9949Z" fill="white"/>
<path d="M18.9971 12.2317C19.7009 12.2317 20.2715 11.6611 20.2715 10.9573C20.2715 10.2534 19.7009 9.68286 18.9971 9.68286C18.2932 9.68286 17.7227 10.2534 17.7227 10.9573C17.7227 11.6611 18.2932 12.2317 18.9971 12.2317Z" fill="#BE3455"/>
<path d="M25.1166 21.0589C26.8066 21.0589 28.1766 19.6889 28.1766 17.9989C28.1766 16.3089 26.8066 14.9389 25.1166 14.9389C23.4266 14.9389 22.0566 16.3089 22.0566 17.9989C22.0566 19.6889 23.4266 21.0589 25.1166 21.0589Z" fill="#BE3455"/>
<path d="M25.1167 20.0365C26.242 20.0365 27.1543 19.1242 27.1543 17.9989C27.1543 16.8736 26.242 15.9613 25.1167 15.9613C23.9914 15.9613 23.0791 16.8736 23.0791 17.9989C23.0791 19.1242 23.9914 20.0365 25.1167 20.0365Z" fill="white"/>
<path d="M25.1167 19.2733C25.8205 19.2733 26.3911 18.7027 26.3911 17.9989C26.3911 17.2951 25.8205 16.7245 25.1167 16.7245C24.4129 16.7245 23.8423 17.2951 23.8423 17.9989C23.8423 18.7027 24.4129 19.2733 25.1167 19.2733Z" fill="#BE3455"/>
<path d="M14.0073 22.3405C15.8524 22.3405 17.3481 20.8447 17.3481 18.9997C17.3481 17.1546 15.8524 15.6589 14.0073 15.6589C12.1622 15.6589 10.6665 17.1546 10.6665 18.9997C10.6665 20.8447 12.1622 22.3405 14.0073 22.3405Z" fill="#BE3455"/>
<path d="M14.0074 21.2317C15.2401 21.2317 16.2394 20.2324 16.2394 18.9997C16.2394 17.767 15.2401 16.7677 14.0074 16.7677C12.7747 16.7677 11.7754 17.767 11.7754 18.9997C11.7754 20.2324 12.7747 21.2317 14.0074 21.2317Z" fill="white"/>
<path d="M14.0072 20.3964C14.7786 20.3964 15.404 19.7711 15.404 18.9996C15.404 18.2282 14.7786 17.6028 14.0072 17.6028C13.2357 17.6028 12.6104 18.2282 12.6104 18.9996C12.6104 19.7711 13.2357 20.3964 14.0072 20.3964Z" fill="#BE3455"/>
<defs>
<linearGradient id="paint0_linear_4457_54963" x1="33.0379" y1="5.83807" x2="4.92272" y2="8.60237" gradientUnits="userSpaceOnUse">
<stop stop-color="#DFF9F8"/>
<stop offset="0.46875" stop-color="#D5F4E5"/>
<stop offset="1" stop-color="#AEE5E2"/>
</linearGradient>
</defs>
</svg>
