<svg width="37" height="36" viewBox="0 0 37 36" fill="none" xmlns="http://www.w3.org/2000/svg">
<rect x="0.5" y="-0.000976562" width="36" height="36" rx="18" fill="white"/>
<path d="M8.07586 24.1124C8.07586 24.1124 11.7625 25.8857 13.1159 26.0657C14.4692 26.2457 19.5025 26.9524 23.3892 26.0657C27.2759 25.179 29.7892 24.339 29.7892 24.339C29.7892 24.339 30.6625 28.6724 30.7692 30.0124C30.8692 31.3524 30.3492 31.4057 30.3492 31.4057H7.26253C7.26253 31.4057 7.00253 29.5657 7.26253 27.9857C7.52253 26.4057 8.07586 24.1124 8.07586 24.1124Z" fill="url(#paint0_linear_4430_27082)"/>
<path d="M28.2293 5.09235H9.71596C9.71596 5.09235 8.89596 6.80568 9.39596 9.16568C9.89596 11.5257 10.7293 11.7923 11.6693 12.299C12.6093 12.8057 16.3893 10.5257 18.9826 10.7523C21.576 10.979 25.2093 12.1723 26.1626 12.3723C27.116 12.5723 28.5226 10.3457 28.5226 10.3457L28.9626 5.57901C28.9626 5.57901 28.596 5.09235 28.2293 5.09235Z" fill="url(#paint1_linear_4430_27082)"/>
<path d="M31.2291 10.3057L26.1625 12.3723L26.3225 15.2523L23.6958 20.0457L29.8025 16.059L29.4358 14.0323L31.2291 10.3057Z" fill="#BE3455"/>
<path d="M14.096 19.7723L11.6627 15.4057L11.6694 12.299L6.93604 10.3057L8.72937 13.7323L8.10937 16.219L14.096 19.7723Z" fill="#BE3455"/>
<path d="M30.9359 31.999C22.9493 31.999 14.9693 31.999 6.98261 31.999C6.67594 31.8457 6.56927 31.599 6.59594 31.259C6.68261 30.1324 6.70261 28.999 6.84261 27.879C7.15594 25.399 7.81594 22.999 8.64261 20.639C8.94261 19.7724 9.14261 18.8724 9.40261 17.9924C9.45594 17.8124 9.38927 17.7324 9.24927 17.6457C8.78927 17.3524 8.33594 17.0457 7.88261 16.7457C7.53594 16.5124 7.46927 16.3257 7.60927 15.9324C7.79594 15.399 7.98261 14.8657 8.18261 14.339C8.24261 14.179 8.22927 14.059 8.13594 13.9124C7.29594 12.6657 6.46927 11.4057 5.64261 10.1524C5.45594 9.87236 5.45594 9.62569 5.62261 9.42569C5.80261 9.21236 6.04927 9.17236 6.36261 9.31236C6.84927 9.53236 7.33594 9.75902 7.82261 9.98569C8.18927 10.1524 8.55594 10.319 8.95594 10.5057C8.94261 10.399 8.93594 10.339 8.92261 10.279C8.59594 8.45236 8.40927 6.61902 8.61594 4.75902C8.64927 4.44569 8.72261 4.17902 9.00261 3.99902C10.6426 3.99902 12.2826 3.99902 13.9226 3.99902C14.2626 4.21902 14.3693 4.43902 14.2826 4.70569C14.1959 4.97902 13.9893 5.09236 13.5759 5.09236C12.3826 5.09236 11.1893 5.09236 9.99594 5.09236C9.89594 5.09236 9.80261 5.09236 9.70927 5.09236C9.68927 5.13902 9.67594 5.16569 9.66927 5.19236C9.66261 5.27236 9.65594 5.35902 9.64927 5.43902C9.51594 7.29236 9.79594 9.10569 10.1493 10.919C10.1626 11.0057 10.2559 11.1057 10.3359 11.1457C10.7693 11.359 11.2093 11.5457 11.6426 11.759C11.8226 11.8457 11.9893 11.859 12.1893 11.8057C13.5426 11.4124 14.8959 11.019 16.2559 10.639C17.9759 10.1524 19.7093 10.1324 21.4359 10.579C22.5626 10.8657 23.6759 11.219 24.7959 11.539C25.1893 11.6524 25.5893 11.8724 25.9759 11.8457C26.3693 11.8124 26.7426 11.539 27.1226 11.3657C27.1359 11.359 27.1559 11.3457 27.1693 11.3457C27.6026 11.2324 27.7826 10.9657 27.8559 10.5057C28.1293 8.81902 28.3826 7.13902 28.2559 5.42569C28.2493 5.31902 28.2359 5.21902 28.2293 5.10569C28.0826 5.10569 27.9759 5.10569 27.8693 5.10569C24.9693 5.10569 22.0759 5.10569 19.1759 5.10569C19.0759 5.10569 18.9759 5.11236 18.8759 5.09902C18.6493 5.05902 18.4959 4.92569 18.4359 4.69902C18.3759 4.47236 18.4493 4.28569 18.6226 4.13902C18.6759 4.09236 18.7359 4.05902 18.7959 4.01236C22.1693 4.01236 25.5426 4.01236 28.9159 4.01236C29.1959 4.18569 29.2759 4.45236 29.3026 4.77236C29.4626 6.31236 29.3826 7.84569 29.1426 9.37236C29.0826 9.74569 29.0293 10.1124 28.9693 10.5124C29.0893 10.459 29.1759 10.4257 29.2559 10.3924C30.0426 10.0324 30.8226 9.66569 31.6093 9.31236C31.8893 9.18569 32.1359 9.23236 32.3026 9.43902C32.4759 9.65902 32.4626 9.89236 32.3159 10.1257C32.2893 10.1724 32.2559 10.219 32.2293 10.2657C31.4226 11.4857 30.6159 12.7124 29.8026 13.9324C29.7026 14.079 29.6893 14.199 29.7493 14.359C29.9493 14.8924 30.1426 15.4324 30.3359 15.979C30.4626 16.3324 30.3893 16.539 30.0759 16.7524C29.6159 17.059 29.1559 17.3724 28.6826 17.6724C28.5426 17.759 28.4959 17.8457 28.5293 18.019C28.7359 19.199 29.1693 20.3124 29.5493 21.439C30.6226 24.6324 31.3026 27.899 31.3359 31.2857C31.3293 31.599 31.2426 31.8457 30.9359 31.999ZM27.4359 18.4657C26.7959 18.8857 26.1359 19.3257 25.4759 19.759C24.7293 20.2524 23.9893 20.7457 23.2426 21.2324C22.8559 21.4857 22.3759 21.2724 22.3693 20.839C22.3693 20.679 22.4493 20.5057 22.5359 20.3657C23.5626 18.699 24.5959 17.039 25.6226 15.3724C25.6959 15.2524 25.7359 15.0857 25.7293 14.939C25.6893 14.319 25.6159 13.7057 25.5626 13.0857C25.5493 12.9057 25.4626 12.8457 25.3026 12.799C24.0426 12.4457 22.7759 12.0924 21.5226 11.719C20.0026 11.2724 18.4626 11.2057 16.9359 11.579C15.4826 11.939 14.0493 12.3924 12.6026 12.799C12.4426 12.8457 12.3626 12.9124 12.3493 13.0924C12.3026 13.6857 12.2226 14.2724 12.1893 14.859C12.1759 15.0457 12.2293 15.259 12.3226 15.4124C13.3359 17.0657 14.3626 18.7124 15.3826 20.3657C15.4693 20.5057 15.5493 20.6857 15.5426 20.8457C15.5293 21.2724 15.0493 21.4724 14.6626 21.2257C13.8026 20.6657 12.9426 20.0924 12.0893 19.5257C11.5426 19.1657 10.9959 18.8057 10.4826 18.459C9.89594 20.2924 9.30927 22.119 8.72927 23.9324C14.9226 26.8257 23.3426 26.699 29.1893 23.9257C28.6093 22.1257 28.0226 20.299 27.4359 18.4657ZM7.69594 30.8857C15.2226 30.8857 22.7226 30.8857 30.2293 30.8857C30.1693 28.9057 29.9026 26.9724 29.4559 25.0857C22.4493 27.879 15.4693 27.879 8.46927 25.0857C8.02261 26.9857 7.74927 28.9124 7.69594 30.8857ZM7.64261 11.1057C7.63594 11.119 7.62261 11.139 7.61594 11.1524C8.14927 11.959 8.66927 12.7657 9.21594 13.559C9.40261 13.8324 9.44261 14.0924 9.32261 14.4057C9.11594 14.9257 8.94261 15.459 8.74927 15.999C10.2159 16.9724 11.6693 17.9324 13.1226 18.8924C13.1159 18.7857 13.0759 18.7057 13.0293 18.6324C12.4226 17.659 11.8159 16.6857 11.2226 15.7057C11.1293 15.5524 11.0626 15.3457 11.0759 15.1724C11.1226 14.4657 11.1893 13.759 11.2759 13.0524C11.3026 12.8457 11.2559 12.7524 11.0626 12.6657C10.1626 12.2657 9.27594 11.8524 8.38261 11.439C8.12927 11.3324 7.88261 11.219 7.64261 11.1057ZM29.1826 15.999C28.9826 15.4457 28.8026 14.9057 28.5959 14.3724C28.4893 14.0924 28.5159 13.8524 28.6893 13.599C29.1959 12.8524 29.6893 12.099 30.1826 11.3457C30.2293 11.279 30.2693 11.2057 30.3559 11.0724C29.1026 11.6457 27.9226 12.1924 26.7493 12.739C26.6959 12.7657 26.6493 12.879 26.6559 12.9524C26.7159 13.659 26.8026 14.3657 26.8426 15.0724C26.8559 15.2857 26.8093 15.5324 26.7026 15.7124C26.1159 16.699 25.5026 17.6657 24.8959 18.639C24.8493 18.7124 24.8159 18.7857 24.7759 18.859C24.7893 18.8657 24.7959 18.879 24.8093 18.8857C26.2626 17.9324 27.7159 16.9724 29.1826 15.999Z" fill="black"/>
<path d="M16.3891 3.99902C16.4358 4.03236 16.4758 4.05902 16.5225 4.09236C16.7358 4.24569 16.8291 4.45236 16.7491 4.70569C16.6758 4.94569 16.4958 5.08569 16.2425 5.08569C15.9758 5.09236 15.7891 4.95236 15.7091 4.70569C15.6291 4.45236 15.7225 4.24569 15.9291 4.09236C15.9691 4.05902 16.0158 4.03236 16.0625 3.99902C16.1691 3.99902 16.2825 3.99902 16.3891 3.99902Z" fill="black"/>
<path d="M18.416 22.1857C18.416 22.0324 18.4094 21.879 18.416 21.7257C18.436 21.4257 18.6627 21.219 18.9494 21.219C19.2494 21.2124 19.4827 21.4257 19.496 21.739C19.5094 22.0457 19.5094 22.359 19.496 22.6657C19.4827 22.959 19.2427 23.179 18.9627 23.179C18.6827 23.1857 18.4427 22.9657 18.416 22.679C18.4094 22.5124 18.416 22.3457 18.416 22.1857Z" fill="black"/>
<path d="M18.896 30.6523C21.1051 30.6523 22.896 28.8615 22.896 26.6523C22.896 24.4432 21.1051 22.6523 18.896 22.6523C16.6869 22.6523 14.896 24.4432 14.896 26.6523C14.896 28.8615 16.6869 30.6523 18.896 30.6523Z" fill="#BE3455"/>
<path d="M18.8962 29.319C20.3689 29.319 21.5628 28.1251 21.5628 26.6523C21.5628 25.1796 20.3689 23.9857 18.8962 23.9857C17.4234 23.9857 16.2295 25.1796 16.2295 26.6523C16.2295 28.1251 17.4234 29.319 18.8962 29.319Z" fill="white"/>
<path d="M18.8962 28.319C19.8166 28.319 20.5628 27.5728 20.5628 26.6523C20.5628 25.7318 19.8166 24.9857 18.8962 24.9857C17.9757 24.9857 17.2295 25.7318 17.2295 26.6523C17.2295 27.5728 17.9757 28.319 18.8962 28.319Z" fill="#BE3455"/>
<defs>
<linearGradient id="paint0_linear_4430_27082" x1="30.782" y1="24.1124" x2="6.92561" y2="30.5905" gradientUnits="userSpaceOnUse">
<stop stop-color="#DFF9F8"/>
<stop offset="0.46875" stop-color="#D5F4E5"/>
<stop offset="1" stop-color="#AEE5E2"/>
</linearGradient>
<linearGradient id="paint1_linear_4430_27082" x1="28.9626" y1="5.09235" x2="8.62623" y2="9.70225" gradientUnits="userSpaceOnUse">
<stop stop-color="#DFF9F8"/>
<stop offset="0.46875" stop-color="#D5F4E5"/>
<stop offset="1" stop-color="#AEE5E2"/>
</linearGradient>
</defs>
</svg>
