<svg width="37" height="36" viewBox="0 0 37 36" fill="none" xmlns="http://www.w3.org/2000/svg">
<rect x="0.5" y="-0.00109863" width="36" height="36" rx="18" fill="white"/>
<path d="M11.689 15.5077C11.689 15.1549 11.689 14.8453 11.689 14.5285C11.689 12.4765 11.7034 10.4173 11.6818 8.3653C11.6746 7.5229 12.0058 6.8893 12.6466 6.3925C13.4746 5.7445 14.4394 5.3701 15.4546 5.2045C16.4698 5.0317 17.5066 4.9021 18.5434 4.8877C21.4522 4.8445 24.3682 4.8733 27.277 4.8733C27.7954 4.8733 27.9322 5.0101 27.9322 5.5429C27.9322 8.4661 27.9322 11.3821 27.9322 14.3053C27.9322 14.8237 27.781 14.9749 27.2698 14.9749C26.6362 14.9749 26.0026 14.9749 25.3474 14.9749C25.3474 15.1621 25.3474 15.3205 25.3474 15.5221C25.8514 15.5221 26.341 15.5005 26.8306 15.5293C28.3498 15.6013 29.833 15.8533 31.201 16.5661C31.5538 16.7533 31.885 16.9909 32.1874 17.2501C32.6698 17.6749 32.9074 18.2149 32.9002 18.8773C32.8858 21.8149 32.8858 24.7597 32.9002 27.7045C32.9074 28.4533 32.6266 29.0293 32.0794 29.4973C31.2802 30.1885 30.3226 30.5485 29.3074 30.7717C26.7946 31.3261 24.2962 31.2901 21.8338 30.4621C21.1426 30.2317 20.5018 29.8933 19.969 29.3821C19.5082 28.9429 19.2706 28.4245 19.2778 27.7693C19.2922 25.4725 19.285 23.1757 19.285 20.8789C19.285 20.7565 19.285 20.6413 19.285 20.5045C18.7666 20.5045 18.277 20.5045 17.737 20.5045C17.737 20.6125 17.737 20.7277 17.737 20.8429C17.737 23.1325 17.7226 25.4149 17.7442 27.7045C17.7514 28.4533 17.4634 29.0293 16.9162 29.4973C16.081 30.2101 15.0802 30.5773 14.029 30.8005C11.7394 31.2901 9.4498 31.2613 7.1818 30.6277C6.4546 30.4261 5.7562 30.1309 5.1442 29.6701C4.4602 29.1589 4.093 28.5109 4.1002 27.6109C4.129 24.7525 4.129 21.8869 4.1002 19.0285C4.093 18.1069 4.4674 17.4445 5.1874 16.9333C6.1666 16.2349 7.297 15.8749 8.4634 15.7165C9.4066 15.5869 10.3642 15.5725 11.3218 15.5077C11.4298 15.5005 11.5378 15.5077 11.689 15.5077ZM8.0458 29.8933C10.0114 30.2965 11.9482 30.3109 13.885 29.8645C14.7562 29.6629 15.5842 29.3749 16.2898 28.7989C16.6354 28.5181 16.8154 28.1653 16.8082 27.6973C16.7938 25.3789 16.801 23.0677 16.801 20.7493C16.801 20.6413 16.801 20.5405 16.801 20.4181C14.0362 22.0813 11.0842 22.1029 8.053 21.6565C8.017 21.7213 8.0026 21.8365 7.9378 21.8797C7.801 21.9661 7.6354 22.0813 7.4986 22.0669C7.3618 22.0453 7.1386 21.8725 7.1458 21.7717C7.153 21.3757 6.8794 21.3181 6.6058 21.2173C6.3178 21.1093 6.0298 20.9797 5.7562 20.8357C5.5186 20.7133 5.3026 20.5621 5.0434 20.4109C5.0362 20.4973 5.029 20.5405 5.029 20.5909C5.029 23.0101 5.029 25.4221 5.029 27.8413C5.029 28.2013 5.1946 28.4821 5.4394 28.7125C5.9002 29.1517 6.4618 29.4037 7.081 29.6197C7.1458 29.3173 7.3114 29.1085 7.621 29.1589C8.0386 29.2093 8.0458 29.5549 8.0458 29.8933ZM26.9314 30.2029C27.6082 30.1021 28.2778 30.0301 28.933 29.8861C29.8258 29.6989 30.6826 29.4109 31.4098 28.8349C31.7842 28.5397 31.9858 28.1725 31.9786 27.6685C31.9642 25.3645 31.9714 23.0533 31.9714 20.7493C31.9714 20.6413 31.9714 20.5405 31.9714 20.3749C30.4162 21.4693 28.681 21.7573 26.917 21.8941C26.8162 22.3621 26.6794 22.5349 26.413 22.5205C26.0386 22.5061 25.9594 22.2181 25.9234 21.9085C23.9074 21.8293 21.9634 21.5629 20.2066 20.3821C20.2066 20.5405 20.2066 20.6485 20.2066 20.7565C20.2066 23.0101 20.2282 25.2709 20.1922 27.5245C20.185 28.2085 20.4514 28.6549 20.9914 29.0005C21.1858 29.1229 21.3874 29.2453 21.5962 29.3389C22.6474 29.8285 23.7706 30.0445 24.9226 30.1381C25.261 30.1669 25.5922 30.1741 25.9234 30.1885C25.9882 29.7565 26.1178 29.5837 26.3914 29.5693C26.6578 29.5693 26.7946 29.7061 26.9314 30.2029ZM17.9962 11.2741C16.117 11.1661 14.2666 10.8925 12.625 9.7549C12.625 9.9277 12.625 10.0429 12.625 10.1653C12.625 12.4045 12.6538 14.6365 12.6106 16.8757C12.5962 17.6029 12.8914 18.0709 13.4602 18.4165C14.857 19.2661 16.4122 19.4749 18.0034 19.5613C18.0394 19.2517 18.1114 18.9925 18.457 18.9565C18.7378 18.9349 18.8602 19.0717 19.0114 19.5541C19.9474 19.5181 20.869 19.4101 21.7762 19.1581C22.4962 18.9565 23.1946 18.6973 23.7922 18.2293C24.1738 17.9269 24.3826 17.5597 24.3754 17.0413C24.3538 14.7373 24.3682 12.4261 24.3682 10.1221C24.3682 10.0141 24.3682 9.9133 24.3682 9.7549C22.7122 10.9141 20.8618 11.1661 18.9826 11.2813C18.9106 11.7349 18.781 11.8933 18.493 11.8933C18.2266 11.8933 18.097 11.7421 17.9962 11.2741ZM18.493 10.3453C18.5002 10.3741 18.5002 10.4029 18.5074 10.4245C19.501 10.2877 20.5018 10.1869 21.4882 9.9997C22.3594 9.8341 23.1946 9.5173 23.8858 8.9341C24.5482 8.3725 24.5626 7.7533 23.8786 7.2205C23.4826 6.9109 23.0218 6.6373 22.5466 6.4717C20.0266 5.5861 17.4778 5.5861 14.9218 6.2989C14.2378 6.4933 13.597 6.7741 13.057 7.2565C12.4666 7.7893 12.4666 8.3869 13.0786 8.8981C13.3522 9.1285 13.669 9.3229 13.9858 9.4813C15.4186 10.1581 16.945 10.3237 18.493 10.3453ZM11.6818 16.4581C11.6026 16.4437 11.5666 16.4365 11.5306 16.4365C10.3858 16.3933 9.2554 16.4581 8.1394 16.7173C7.2034 16.9333 6.289 17.2141 5.533 17.8477C4.8778 18.3949 4.849 19.0357 5.533 19.5397C6.0226 19.9069 6.5914 20.2165 7.1674 20.4109C9.4138 21.1525 11.6962 21.1525 13.9858 20.6197C14.4178 20.5189 14.8354 20.3605 15.2818 20.2165C14.4682 19.8925 13.7122 19.5901 12.913 19.2733C12.3586 19.8421 11.5666 19.9357 10.7602 19.9141C10.1914 19.8997 9.637 19.8061 9.1546 19.4605C8.5714 19.0357 8.557 18.3589 9.1546 17.9557C9.421 17.7757 9.745 17.6389 10.0618 17.5885C10.5946 17.5093 11.1346 17.5165 11.6674 17.4805C11.6818 17.1637 11.6818 16.8253 11.6818 16.4581ZM25.3258 17.5093C25.7578 17.5093 26.1682 17.4877 26.5786 17.5165C27.0826 17.5525 27.5722 17.6821 27.9682 18.0421C28.393 18.4309 28.393 18.9781 27.961 19.3597C27.8458 19.4677 27.709 19.5685 27.5578 19.6189C26.3194 20.0725 25.1242 20.0653 24.0658 19.2661C23.2954 19.5757 22.5394 19.8781 21.7618 20.1877C21.8842 20.2381 22.021 20.3029 22.1578 20.3461C24.7066 21.1669 27.2626 21.1813 29.8186 20.4181C30.4378 20.2309 31.021 19.9573 31.5106 19.5181C32.1226 18.9709 32.1298 18.3733 31.489 17.8621C31.165 17.6029 30.7906 17.3797 30.409 17.2069C29.0914 16.6237 27.6874 16.4437 26.2618 16.4221C25.9522 16.4149 25.6498 16.4221 25.3258 16.4221C25.3258 16.8253 25.3258 17.1637 25.3258 17.5093ZM26.9674 14.0173C26.9674 11.2741 26.9674 8.5525 26.9674 5.8093C25.8154 5.8093 24.6706 5.8093 23.4754 5.8093C23.7418 5.9821 23.9722 6.1117 24.1954 6.2629C24.9586 6.7957 25.3546 7.4869 25.333 8.4589C25.2898 10.1869 25.3186 11.9221 25.3186 13.6573C25.3186 13.7725 25.3186 13.8877 25.3186 14.0173C25.8874 14.0173 26.4202 14.0173 26.9674 14.0173ZM9.6946 18.6757C10.3426 19.0861 11.6458 19.0717 12.1066 18.6685C11.3074 18.3301 10.5298 18.3301 9.6946 18.6757ZM24.865 18.6757C25.5274 19.0861 26.8306 19.0645 27.277 18.6541C26.4706 18.3373 25.693 18.3229 24.865 18.6757Z" fill="black"/>
<path d="M8.04573 29.8933C8.03853 29.5477 8.03853 29.2093 7.62813 29.1445C7.31853 29.1013 7.15293 29.3029 7.08813 29.6053C6.46893 29.3893 5.90733 29.1373 5.44653 28.6981C5.19453 28.4605 5.03613 28.1869 5.03613 27.8269C5.03613 25.4077 5.03613 22.9957 5.03613 20.5765C5.03613 20.5261 5.04333 20.4829 5.05053 20.3965C5.30253 20.5549 5.52573 20.7061 5.76333 20.8213C6.03693 20.9653 6.32493 21.0949 6.61293 21.2029C6.88653 21.3037 7.16013 21.3613 7.15293 21.7573C7.15293 21.8581 7.36893 22.0309 7.50573 22.0525C7.64253 22.0741 7.80813 21.9517 7.94493 21.8653C8.00973 21.8221 8.02413 21.7141 8.06013 21.6421C11.0913 22.0957 14.0433 22.0669 16.8081 20.4037C16.8081 20.5261 16.8081 20.6341 16.8081 20.7349C16.8081 23.0533 16.8009 25.3645 16.8153 27.6829C16.8153 28.1509 16.6425 28.4965 16.2969 28.7845C15.5913 29.3605 14.7633 29.6485 13.8921 29.8501C11.9553 30.3109 10.0185 30.3037 8.04573 29.8933ZM8.03853 24.1261C8.03853 23.9533 8.05293 23.7805 8.03853 23.6149C8.01693 23.3413 7.81533 23.1397 7.57053 23.1613C7.30413 23.1757 7.13133 23.3269 7.11693 23.6005C7.10253 23.9533 7.09533 24.3061 7.11693 24.6589C7.13133 24.9253 7.32573 25.0909 7.57773 25.0837C7.85133 25.0765 8.00253 24.9109 8.03133 24.6517C8.05293 24.4717 8.03853 24.2989 8.03853 24.1261ZM8.03853 27.1357C8.03853 26.9557 8.05293 26.7685 8.03133 26.5957C8.00253 26.3365 7.85853 26.1709 7.58493 26.1565C7.32573 26.1421 7.12413 26.3149 7.10973 26.6029C7.09533 26.9413 7.09533 27.2869 7.10973 27.6325C7.12413 27.8989 7.28973 28.0573 7.55613 28.0789C7.80093 28.1005 8.00973 27.8989 8.03133 27.6325C8.04573 27.4597 8.03853 27.3013 8.03853 27.1357Z" fill="url(#paint0_linear_4457_55083)"/>
<path d="M26.9315 30.2029C26.7947 29.7061 26.6651 29.5621 26.3843 29.5765C26.1179 29.5909 25.9811 29.7565 25.9163 30.1957C25.5851 30.1813 25.2467 30.1669 24.9155 30.1453C23.7635 30.0517 22.6403 29.8357 21.5891 29.3461C21.3803 29.2525 21.1787 29.1301 20.9843 29.0077C20.4443 28.6621 20.1707 28.2157 20.1851 27.5317C20.2211 25.2781 20.1995 23.0173 20.1995 20.7637C20.1995 20.6557 20.1995 20.5477 20.1995 20.3893C21.9563 21.5701 23.9003 21.8365 25.9163 21.9157C25.9523 22.2253 26.0315 22.5061 26.4059 22.5277C26.6723 22.5421 26.8091 22.3693 26.9099 21.9013C28.6739 21.7645 30.4091 21.4765 31.9643 20.3821C31.9643 20.5477 31.9643 20.6485 31.9643 20.7565C31.9643 23.0605 31.9571 25.3717 31.9715 27.6757C31.9715 28.1797 31.7771 28.5469 31.4027 28.8421C30.6755 29.4181 29.8115 29.7061 28.9259 29.8933C28.2707 30.0301 27.6011 30.1021 26.9315 30.2029ZM26.8667 27.5533C26.8667 27.3733 26.8811 27.1861 26.8667 27.0133C26.8451 26.7541 26.6507 26.5741 26.4059 26.5813C26.1467 26.5957 25.9739 26.7397 25.9523 26.9845C25.9235 27.3517 25.9235 27.7333 25.9523 28.1005C25.9739 28.3525 26.1539 28.5037 26.4059 28.4965C26.6579 28.4965 26.8235 28.3525 26.8523 28.0933C26.8811 27.9205 26.8667 27.7405 26.8667 27.5533ZM25.9451 24.5365C25.9451 24.6877 25.9379 24.8389 25.9451 24.9901C25.9451 25.0117 25.9451 25.0333 25.9451 25.0477C25.9739 25.3285 26.1539 25.5085 26.4131 25.5013C26.6867 25.4941 26.8523 25.3429 26.8667 25.0765C26.8883 24.7237 26.8883 24.3709 26.8667 24.0181C26.8523 23.7517 26.6651 23.5933 26.4131 23.5933C26.1683 23.5933 25.9811 23.7661 25.9523 24.0253C25.9307 24.1981 25.9451 24.3709 25.9451 24.5365Z" fill="url(#paint1_linear_4457_55083)"/>
<path d="M17.9962 11.2741C18.097 11.7421 18.2266 11.8933 18.5074 11.8933C18.7882 11.8933 18.925 11.7277 18.997 11.2813C20.8762 11.1661 22.7266 10.9141 24.3826 9.75488C24.3826 9.91328 24.3826 10.0141 24.3826 10.1221C24.3826 12.4261 24.3682 14.7373 24.3898 17.0413C24.397 17.5597 24.1882 17.9269 23.8066 18.2293C23.209 18.6973 22.5106 18.9565 21.7906 19.1581C20.8834 19.4101 19.9618 19.5253 19.0258 19.5541C18.8746 19.0717 18.745 18.9349 18.4714 18.9565C18.1186 18.9853 18.0538 19.2517 18.0178 19.5613C16.4194 19.4749 14.8642 19.2661 13.4746 18.4165C12.9058 18.0709 12.6106 17.6029 12.625 16.8757C12.6682 14.6437 12.6394 12.4045 12.6394 10.1653C12.6394 10.0429 12.6394 9.92768 12.6394 9.75488C14.2666 10.8925 16.1098 11.1661 17.9962 11.2741ZM18.9754 16.9117C18.9754 16.8037 18.9754 16.6885 18.9754 16.5805C18.9682 16.1845 18.8026 15.9613 18.5146 15.9541C18.2194 15.9469 18.0394 16.1773 18.0394 16.5589C18.0394 16.8037 18.0394 17.0413 18.0394 17.2861C18.0466 17.6677 18.205 17.8693 18.5002 17.8765C18.8026 17.8837 18.9754 17.6677 18.9754 17.2717C18.9754 17.1565 18.9754 17.0341 18.9754 16.9117ZM18.9682 13.9381C18.9682 13.7653 18.9826 13.5925 18.9682 13.4269C18.9394 13.1389 18.7594 12.9733 18.5002 12.9733C18.241 12.9733 18.0538 13.1461 18.0394 13.4341C18.025 13.7653 18.025 14.0965 18.0394 14.4277C18.0538 14.7085 18.2626 14.8885 18.5074 14.8885C18.7522 14.8813 18.9466 14.7013 18.9682 14.4205C18.9826 14.2621 18.9682 14.0965 18.9682 13.9381Z" fill="url(#paint2_linear_4457_55083)"/>
<path d="M18.4931 10.3453C16.9451 10.3309 15.4187 10.1581 14.0003 9.48131C13.6763 9.33011 13.3667 9.12851 13.0931 8.89811C12.4811 8.38691 12.4811 7.78931 13.0715 7.25651C13.6043 6.77411 14.2523 6.48611 14.9363 6.29891C17.4923 5.57891 20.0411 5.58611 22.5611 6.47171C23.0363 6.63731 23.4899 6.91091 23.8931 7.22051C24.5771 7.75331 24.5627 8.37971 23.9003 8.93411C23.2019 9.52451 22.3739 9.83411 21.5027 9.99971C20.5163 10.1869 19.5155 10.2877 18.5219 10.4245C18.5003 10.4029 18.4931 10.3741 18.4931 10.3453ZM18.5075 6.77411C17.9819 6.90371 17.4779 6.99731 17.0027 7.17011C16.6139 7.31411 16.3187 7.60211 16.3115 8.07011C16.3115 8.53811 16.6067 8.81891 16.9955 8.98451C18.0035 9.41651 19.0331 9.41651 20.0411 8.97011C20.4011 8.80451 20.6819 8.53811 20.6891 8.09891C20.6963 7.64531 20.4299 7.34291 20.0483 7.19891C19.5515 7.01171 19.0331 6.91091 18.5075 6.77411Z" fill="url(#paint3_linear_4457_55083)"/>
<path d="M11.6816 16.4581C11.6816 16.8253 11.6816 17.1637 11.6816 17.4733C11.1488 17.5021 10.6016 17.4949 10.076 17.5813C9.75918 17.6317 9.43518 17.7685 9.16878 17.9485C8.57118 18.3517 8.58558 19.0285 9.16878 19.4533C9.64398 19.7989 10.2056 19.8925 10.7744 19.9069C11.5808 19.9213 12.3656 19.8277 12.9272 19.2661C13.7192 19.5829 14.4824 19.8853 15.296 20.2093C14.8496 20.3461 14.432 20.5117 14 20.6125C11.7104 21.1453 9.42078 21.1453 7.18158 20.4037C6.59838 20.2093 6.03678 19.8997 5.54718 19.5325C4.86318 19.0285 4.89198 18.3877 5.54718 17.8405C6.30318 17.2069 7.21758 16.9261 8.15358 16.7101C9.26958 16.4581 10.4 16.3861 11.5448 16.4293C11.5664 16.4365 11.6024 16.4509 11.6816 16.4581Z" fill="url(#paint4_linear_4457_55083)"/>
<path d="M25.3257 17.5093C25.3257 17.1637 25.3257 16.8181 25.3257 16.4221C25.6497 16.4221 25.9593 16.4149 26.2617 16.4221C27.6873 16.4437 29.0913 16.6237 30.4089 17.2069C30.7905 17.3797 31.1649 17.5957 31.4889 17.8621C32.1225 18.3805 32.1153 18.9781 31.5105 19.5181C31.0209 19.9573 30.4377 20.2309 29.8185 20.4181C27.2625 21.1813 24.7065 21.1669 22.1577 20.3461C22.0209 20.3029 21.8841 20.2381 21.7617 20.1877C22.5393 19.8781 23.3025 19.5685 24.0657 19.2661C25.1241 20.0653 26.3193 20.0725 27.5577 19.6189C27.7017 19.5685 27.8385 19.4605 27.9609 19.3597C28.3929 18.9781 28.3929 18.4309 27.9681 18.0421C27.5793 17.6893 27.0897 17.5597 26.5785 17.5165C26.1681 17.4877 25.7577 17.5093 25.3257 17.5093Z" fill="url(#paint5_linear_4457_55083)"/>
<path d="M26.9676 14.0173C26.4204 14.0173 25.8948 14.0173 25.3188 14.0173C25.3188 13.8949 25.3188 13.7725 25.3188 13.6573C25.3188 11.9221 25.29 10.1941 25.3332 8.45887C25.3548 7.48687 24.9588 6.79567 24.1956 6.26287C23.9796 6.11167 23.7492 5.97487 23.4756 5.80927C24.6708 5.80927 25.8156 5.80927 26.9676 5.80927C26.9676 8.55247 26.9676 11.2741 26.9676 14.0173Z" fill="url(#paint6_linear_4457_55083)"/>
<path d="M9.69482 18.6757C10.53 18.3301 11.3076 18.3301 12.1068 18.6685C11.646 19.0717 10.3428 19.0861 9.69482 18.6757Z" fill="url(#paint7_linear_4457_55083)"/>
<path d="M24.8652 18.6757C25.6932 18.3229 26.4708 18.3301 27.2772 18.6541C26.8308 19.0645 25.5204 19.0861 24.8652 18.6757Z" fill="url(#paint8_linear_4457_55083)"/>
<path d="M8.03839 24.1261C8.03839 24.2989 8.05279 24.4717 8.03119 24.6373C8.00239 24.8965 7.85119 25.0621 7.57759 25.0693C7.32559 25.0765 7.13119 24.9181 7.11679 24.6445C7.09519 24.2917 7.09519 23.9389 7.11679 23.5861C7.13119 23.3125 7.30399 23.1685 7.57039 23.1469C7.81519 23.1325 8.01679 23.3341 8.03839 23.6005C8.04559 23.7805 8.03839 23.9533 8.03839 24.1261Z" fill="black"/>
<path d="M8.03875 27.1357C8.03875 27.2941 8.05315 27.4597 8.03875 27.6181C8.01715 27.8917 7.80835 28.0861 7.56355 28.0645C7.29715 28.0429 7.13155 27.8917 7.11715 27.6181C7.10275 27.2797 7.09555 26.9341 7.11715 26.5885C7.13155 26.3077 7.32595 26.1349 7.59235 26.1421C7.86595 26.1565 8.00995 26.3221 8.03875 26.5813C8.05315 26.7757 8.03875 26.9557 8.03875 27.1357Z" fill="black"/>
<path d="M26.8668 27.5533C26.8668 27.7333 26.8812 27.9205 26.8596 28.0933C26.8308 28.3525 26.6652 28.4965 26.4132 28.4965C26.1612 28.4965 25.974 28.3453 25.9596 28.1005C25.9308 27.7333 25.9308 27.3517 25.9596 26.9845C25.974 26.7397 26.154 26.5885 26.4132 26.5813C26.6508 26.5741 26.8452 26.7469 26.874 27.0133C26.8812 27.1933 26.8668 27.3733 26.8668 27.5533Z" fill="black"/>
<path d="M25.9452 24.5365C25.9452 24.3637 25.9308 24.1909 25.9452 24.0253C25.9668 23.7661 26.1612 23.6005 26.406 23.5933C26.658 23.5933 26.8452 23.7517 26.8596 24.0181C26.8812 24.3709 26.8812 24.7237 26.8596 25.0765C26.8452 25.3429 26.6796 25.4941 26.406 25.5013C26.1468 25.5085 25.9668 25.3285 25.938 25.0477C25.938 25.0261 25.938 25.0045 25.938 24.9901C25.9452 24.8389 25.9452 24.6877 25.9452 24.5365Z" fill="black"/>
<path d="M18.9756 16.9117C18.9756 17.0341 18.9756 17.1565 18.9756 17.2717C18.9684 17.6677 18.8028 17.8765 18.5004 17.8765C18.2052 17.8693 18.0468 17.6677 18.0396 17.2861C18.0396 17.0413 18.0396 16.8037 18.0396 16.5589C18.0468 16.1701 18.2268 15.9469 18.5148 15.9541C18.8028 15.9613 18.9756 16.1845 18.9756 16.5805C18.9756 16.6885 18.9756 16.8037 18.9756 16.9117Z" fill="black"/>
<path d="M18.9684 13.9381C18.9684 14.0965 18.9828 14.2621 18.9684 14.4205C18.9468 14.7013 18.7596 14.8885 18.5076 14.8885C18.2628 14.8957 18.054 14.7085 18.0396 14.4277C18.0252 14.0965 18.0252 13.7653 18.0396 13.4341C18.054 13.1461 18.2412 12.9733 18.5004 12.9733C18.7596 12.9733 18.9468 13.1389 18.9684 13.4269C18.9828 13.5925 18.9684 13.7653 18.9684 13.9381Z" fill="black"/>
<path d="M18.5074 6.77411C19.0258 6.91091 19.5514 7.01171 20.041 7.19171C20.4226 7.33571 20.6962 7.63091 20.6818 8.09171C20.6746 8.53091 20.3938 8.79731 20.0338 8.96291C19.0258 9.41651 18.0034 9.40931 16.9882 8.97731C16.6066 8.81171 16.3042 8.53811 16.3042 8.06291C16.3042 7.59491 16.5994 7.30691 16.9954 7.16291C17.4778 6.99731 17.989 6.90371 18.5074 6.77411ZM19.717 8.09171C19.0762 7.67411 17.6866 7.69571 17.3194 8.12771C18.1258 8.41571 18.9034 8.45171 19.717 8.09171Z" fill="black"/>
<path d="M19.7169 8.09168C18.9033 8.45168 18.1257 8.41568 17.3193 8.12768C17.6937 7.69568 19.0761 7.67408 19.7169 8.09168Z" fill="url(#paint9_linear_4457_55083)"/>
<defs>
<linearGradient id="paint0_linear_4457_55083" x1="16.8153" y1="20.3965" x2="4.17724" y2="21.6691" gradientUnits="userSpaceOnUse">
<stop stop-color="#DFF9F8"/>
<stop offset="0.46875" stop-color="#D5F4E5"/>
<stop offset="1" stop-color="#AEE5E2"/>
</linearGradient>
<linearGradient id="paint1_linear_4457_55083" x1="31.9715" y1="20.3821" x2="19.3248" y2="21.654" gradientUnits="userSpaceOnUse">
<stop stop-color="#DFF9F8"/>
<stop offset="0.46875" stop-color="#D5F4E5"/>
<stop offset="1" stop-color="#AEE5E2"/>
</linearGradient>
<linearGradient id="paint2_linear_4457_55083" x1="24.39" y1="9.75488" x2="11.7662" y2="11.024" gradientUnits="userSpaceOnUse">
<stop stop-color="#DFF9F8"/>
<stop offset="0.46875" stop-color="#D5F4E5"/>
<stop offset="1" stop-color="#AEE5E2"/>
</linearGradient>
<linearGradient id="paint3_linear_4457_55083" x1="24.4016" y1="5.78131" x2="12.1958" y2="8.37401" gradientUnits="userSpaceOnUse">
<stop stop-color="#DFF9F8"/>
<stop offset="0.46875" stop-color="#D5F4E5"/>
<stop offset="1" stop-color="#AEE5E2"/>
</linearGradient>
<linearGradient id="paint4_linear_4457_55083" x1="15.296" y1="16.4175" x2="4.56479" y2="18.4339" gradientUnits="userSpaceOnUse">
<stop stop-color="#DFF9F8"/>
<stop offset="0.46875" stop-color="#D5F4E5"/>
<stop offset="1" stop-color="#AEE5E2"/>
</linearGradient>
<linearGradient id="paint5_linear_4457_55083" x1="31.9641" y1="16.4189" x2="21.2826" y2="18.4225" gradientUnits="userSpaceOnUse">
<stop stop-color="#DFF9F8"/>
<stop offset="0.46875" stop-color="#D5F4E5"/>
<stop offset="1" stop-color="#AEE5E2"/>
</linearGradient>
<linearGradient id="paint6_linear_4457_55083" x1="26.9676" y1="5.80926" x2="23.1878" y2="5.94401" gradientUnits="userSpaceOnUse">
<stop stop-color="#DFF9F8"/>
<stop offset="0.46875" stop-color="#D5F4E5"/>
<stop offset="1" stop-color="#AEE5E2"/>
</linearGradient>
<linearGradient id="paint7_linear_4457_55083" x1="12.1068" y1="18.4156" x2="9.79241" y2="19.2484" gradientUnits="userSpaceOnUse">
<stop stop-color="#DFF9F8"/>
<stop offset="0.46875" stop-color="#D5F4E5"/>
<stop offset="1" stop-color="#AEE5E2"/>
</linearGradient>
<linearGradient id="paint8_linear_4457_55083" x1="27.2772" y1="18.4111" x2="24.9626" y2="19.2437" gradientUnits="userSpaceOnUse">
<stop stop-color="#DFF9F8"/>
<stop offset="0.46875" stop-color="#D5F4E5"/>
<stop offset="1" stop-color="#AEE5E2"/>
</linearGradient>
<linearGradient id="paint9_linear_4457_55083" x1="19.7169" y1="7.79071" x2="17.4129" y2="8.61442" gradientUnits="userSpaceOnUse">
<stop stop-color="#DFF9F8"/>
<stop offset="0.46875" stop-color="#D5F4E5"/>
<stop offset="1" stop-color="#AEE5E2"/>
</linearGradient>
</defs>
</svg>
