<svg width="37" height="36" viewBox="0 0 37 36" fill="none" xmlns="http://www.w3.org/2000/svg">
<rect x="0.5" y="-0.000976562" width="36" height="36" rx="18" fill="white"/>
<path d="M17.9994 3.01152C19.0052 3.29265 19.4925 4.0236 19.7486 4.97945C19.9173 5.61044 20.1172 6.22893 20.3234 6.92864C20.3921 6.79744 20.4358 6.72247 20.4733 6.64126C20.767 6.07274 21.173 5.61044 21.7478 5.31056C22.7474 4.79203 23.7969 5.14188 24.203 6.19769C24.3967 6.70998 24.4654 7.27224 24.5529 7.82201C24.6778 8.60294 24.7653 9.39011 24.8652 10.171C24.8715 10.2273 24.8902 10.2835 24.9027 10.3272C25.2026 10.2398 25.4837 10.1273 25.7711 10.0711C26.5958 9.91489 27.333 10.2897 27.5891 11.0832C27.7703 11.6392 27.8328 12.2452 27.8765 12.8324C28.0139 14.7816 28.1576 16.7246 28.2139 18.68C28.2638 20.5105 28.2701 22.3535 28.1576 24.1777C28.1014 25.1273 27.7328 26.0519 27.5079 26.989C27.4142 27.3764 27.333 27.7637 27.2393 28.1885C27.7453 28.326 27.764 28.7071 27.764 29.1194C27.7515 30.1565 27.764 31.1873 27.7578 32.2243C27.7578 32.7991 27.5579 32.999 26.9831 32.999C23.1784 32.999 19.3675 32.999 15.5629 32.999C15.0006 32.999 14.8069 32.8054 14.8069 32.2431C14.8069 31.1498 14.8132 30.0565 14.8007 28.9632C14.8007 28.6071 14.8819 28.3197 15.2755 28.2073C15.2193 27.72 15.0256 27.3076 14.6757 26.9953C14.3259 26.6829 13.9573 26.3955 13.57 26.1331C12.4079 25.3522 11.552 24.3401 11.0897 23.0032C10.8398 22.2972 10.44 21.6787 9.97145 21.0915C9.27799 20.2168 9.34671 19.5796 10.1964 18.8487C10.2213 18.8299 10.2401 18.8112 10.2151 18.8299C10.0589 18.4051 9.859 18.024 9.77778 17.6179C9.64659 16.9994 9.92772 16.5059 10.4837 16.2185C11.9081 15.4876 13.2763 14.6567 14.5321 13.6571C15.1006 13.2073 15.7253 12.8387 16.475 12.7637C16.7124 12.7387 16.956 12.7575 17.2309 12.7575C17.1622 12.5263 17.0997 12.3014 17.031 12.0702C16.4875 10.2523 15.9315 8.43426 15.3942 6.61002C15.0193 5.34804 15.3817 4.12355 16.3563 3.44884C16.6374 3.25517 16.981 3.14896 17.2934 2.99902C17.5308 3.01152 17.762 3.01152 17.9994 3.01152ZM26.046 28.201C26.1772 27.6138 26.2959 27.0765 26.4271 26.533C26.6208 25.7208 26.9519 24.9149 26.9956 24.0902C27.0956 22.3222 27.1018 20.5417 27.0518 18.7675C26.9956 16.7808 26.8332 14.7941 26.7145 12.8074C26.6895 12.4076 26.652 12.0078 26.5645 11.6204C26.4833 11.2581 26.2584 11.1581 25.9023 11.2331C25.3151 11.3518 25.0777 11.7141 25.1589 12.3451C25.3838 14.0194 25.6087 15.6875 25.8398 17.3618C25.8961 17.7679 25.6837 18.074 25.3338 18.1177C25.0027 18.1615 24.734 17.9178 24.6778 17.5242C24.6153 17.0432 24.5466 16.5559 24.4842 16.0748C24.1593 13.6383 23.8344 11.2019 23.5033 8.76537C23.4158 8.12814 23.3471 7.48465 23.2097 6.85991C23.066 6.21019 22.6349 6.07274 22.1039 6.47882C21.4729 6.96612 21.223 7.63459 21.3105 8.41552C21.4042 9.26516 21.5291 10.1148 21.6416 10.9707C21.779 11.9953 22.0352 12.9636 22.7224 13.7945C23.1535 14.3131 23.3471 14.9628 23.3909 15.6375C23.4159 16.0061 23.2097 16.2622 22.8848 16.306C22.5725 16.3435 22.2726 16.1248 22.2413 15.7687C22.1789 15.119 21.8665 14.6004 21.5041 14.0757C21.248 13.7133 21.0293 13.3072 20.8919 12.8949C20.5608 11.9078 20.2859 10.902 19.986 9.9024C19.4987 8.27807 19.0177 6.65375 18.5241 5.02943C18.3992 4.62335 18.1993 4.2485 17.7182 4.20477C17.2372 4.16104 16.9061 4.43592 16.6624 4.81702C16.3625 5.28557 16.3625 5.78536 16.5187 6.31014C17.2184 8.62168 17.9056 10.9395 18.6116 13.251C18.6491 13.3759 18.7865 13.4884 18.9052 13.5571C19.2801 13.7945 19.6924 13.9757 20.0485 14.2381C20.3546 14.463 20.3609 14.8378 20.136 15.0877C19.9173 15.3314 19.5737 15.3251 19.2676 15.1002C19.0489 14.9378 18.8115 14.8128 18.5679 14.6879C18.2992 14.5505 18.0056 14.4567 17.7557 14.2881C17.0747 13.8258 16.4063 13.8258 15.7378 14.2693C15.3317 14.538 14.9631 14.8691 14.5508 15.1252C13.4263 15.8312 12.2955 16.5184 11.1585 17.1931C10.946 17.3181 10.8898 17.443 10.971 17.6617C11.1085 18.0365 11.3771 18.2489 11.7707 18.3051C12.2642 18.3801 12.7515 18.3239 13.2014 18.1115C13.6699 17.8928 14.1072 17.6242 14.5695 17.3868C14.9256 17.2056 15.2755 17.0119 15.6503 16.8745C16.1564 16.6933 16.6874 16.6996 17.131 17.0307C17.8494 17.5742 18.5116 18.1864 18.9552 18.9861C19.2863 19.5859 19.3425 20.2293 18.9177 20.7854C18.5054 21.3226 18.0181 21.8099 17.5058 22.2535C17.0747 22.6283 16.525 22.6908 15.9877 22.4722C15.5504 22.291 15.1193 22.0786 14.707 21.8412C14.1385 21.5101 13.7386 20.9978 13.37 20.4667C13.0264 19.9794 12.5766 19.6671 11.9894 19.5609C11.5645 19.4797 11.1772 19.5671 10.8461 19.8545C10.7024 19.9794 10.6587 20.0982 10.8024 20.2668C11.5021 21.0727 11.9831 22.0036 12.358 22.9969C12.6141 23.6779 13.0452 24.2464 13.6137 24.69C14.076 25.0523 14.557 25.3834 15.0256 25.7395C15.7128 26.2518 16.2001 26.9016 16.3938 27.7512C16.425 27.9011 16.4562 28.0511 16.4875 28.2073C17.1934 28.2073 17.8744 28.2073 18.5616 28.2073C18.9677 28.2073 19.2238 28.4447 19.2301 28.7883C19.2301 29.1381 18.9802 29.3755 18.5741 29.3755C17.8244 29.3818 17.0685 29.3755 16.3188 29.3755C16.2126 29.3755 16.1126 29.3755 16.0002 29.3755C16.0002 30.2127 16.0002 31.0061 16.0002 31.812C19.5362 31.812 23.0535 31.812 26.577 31.812C26.577 30.9999 26.577 30.2002 26.577 29.3755C26.4521 29.3755 26.3521 29.3755 26.2459 29.3755C25.4775 29.3755 24.7028 29.3818 23.9344 29.3693C23.6345 29.3693 23.4221 29.1944 23.3534 28.9257C23.2909 28.6696 23.3784 28.4509 23.597 28.3197C23.722 28.2448 23.8907 28.2135 24.0406 28.2073C24.7091 28.1948 25.3838 28.201 26.046 28.201ZM13.8136 19.1485C14.0385 19.4297 14.2759 19.6983 14.4821 19.9919C14.9194 20.6229 15.5316 21.0228 16.2251 21.3164C16.5125 21.4413 16.7624 21.4101 16.981 21.1977C17.2559 20.9353 17.5183 20.6604 17.7745 20.3793C18.0993 20.0169 18.1306 19.7545 17.8244 19.3672C17.5183 18.9799 17.1685 18.6238 16.8186 18.2739C16.4063 17.8616 16.2313 17.8303 15.7066 18.1052C15.0568 18.4363 14.4383 18.7987 13.8136 19.1485Z" fill="black"/>
<path d="M21.2918 29.3693C20.967 29.3755 20.6921 29.1069 20.6983 28.782C20.7046 28.4759 20.967 28.2073 21.2794 28.2073C21.6042 28.201 21.8729 28.4759 21.8666 28.8008C21.8604 29.1131 21.6105 29.363 21.2918 29.3693Z" fill="black"/>
<path d="M26.5768 29.3693H16V31.8057H26.5768V29.3693Z" fill="url(#paint0_linear_4430_27078)"/>
<defs>
<linearGradient id="paint0_linear_4430_27078" x1="26.5768" y1="29.3693" x2="16.4533" y2="33.0518" gradientUnits="userSpaceOnUse">
<stop stop-color="#DFF9F8"/>
<stop offset="0.46875" stop-color="#D5F4E5"/>
<stop offset="1" stop-color="#AEE5E2"/>
</linearGradient>
</defs>
</svg>
