<svg width="37" height="36" viewBox="0 0 37 36" fill="none" xmlns="http://www.w3.org/2000/svg">
<rect x="0.5" y="-0.000976562" width="36" height="36" rx="18" fill="white"/>
<path d="M32.6553 28.8134C32.6625 27.035 32.6625 25.199 32.6193 23.3846C32.5905 22.1102 32.4321 20.8286 32.2881 19.583C32.2521 19.3094 32.2233 19.0358 32.1945 18.7622C31.9785 16.883 31.7337 14.9822 31.4961 13.139L31.3953 12.3542C31.3521 12.0086 31.3089 11.6558 31.2657 11.3102C31.1289 10.1798 30.9849 9.02065 30.7833 7.87585C30.4809 6.12625 29.4441 4.90225 27.7809 4.34785C26.5929 3.95905 25.3761 3.59905 24.1953 3.25345C23.6769 3.10225 23.1441 2.94385 22.6185 2.78545C22.6113 2.77825 22.6113 2.77825 22.6041 2.77105L22.5609 2.73505H15.5121L14.2593 3.11665C13.2441 3.42625 12.2361 3.73585 11.2209 4.04545C11.1417 4.06705 11.0625 4.09585 10.9833 4.11745C10.3641 4.30465 9.73047 4.49185 9.16887 4.88785C8.01687 5.70145 7.36887 6.82465 7.18167 8.32225C7.05927 9.32305 6.92247 10.3454 6.78567 11.3318C6.60567 12.6422 6.42567 14.003 6.26727 15.3422C6.20247 15.8894 6.13767 16.4366 6.07287 16.9766C5.81367 19.151 5.54007 21.3974 5.42487 23.6222C5.32407 25.595 5.34567 27.6038 5.36727 29.5478C5.37447 30.4046 5.38887 31.2902 5.38887 32.1542C5.38887 32.6654 5.65527 33.0254 6.20247 33.2486L6.23127 33.263H31.7985L31.8201 33.2558C32.3889 33.0398 32.6553 32.6222 32.6481 31.9526C32.6481 30.9014 32.6481 29.843 32.6553 28.8134ZM14.7993 5.81665C14.9865 7.88305 16.7289 9.51745 18.8673 9.61825C20.8833 9.71905 22.7697 8.24305 23.1729 6.26305C23.2449 5.91745 23.2593 5.57185 23.2809 5.21905C23.2953 4.94545 23.2881 4.67185 23.2881 4.38385C23.2881 4.31905 23.2881 4.25425 23.2881 4.18945L23.5905 4.28305C24.2169 4.47745 24.8073 4.65745 25.4049 4.85185C25.4193 4.88065 25.4409 4.93825 25.4409 4.98145C25.4481 5.32705 25.4481 5.67265 25.4553 6.01105C25.4553 6.54385 25.4625 7.09825 25.4841 7.63825C25.5921 10.0286 26.1897 12.3038 27.2625 14.399C27.7377 15.3206 27.7809 16.235 27.4065 17.1278C26.8521 18.4454 25.8873 19.1294 24.5409 19.151C22.8705 19.1798 21.1641 19.1798 19.5225 19.1726C18.9033 19.1726 18.2913 19.1654 17.6721 19.1654C17.6217 19.1654 17.5713 19.1654 17.5137 19.1654C17.1537 19.1654 16.7937 19.1654 16.4337 19.1654C15.5049 19.1726 14.5401 19.1726 13.5897 19.151C12.0057 19.1222 10.7745 18.0854 10.4577 16.523C10.3137 15.8102 10.4073 15.1334 10.7313 14.4926C11.5593 12.8942 12.1209 11.159 12.4017 9.33745C12.6177 7.95505 12.6105 6.56545 12.6033 5.21905C12.6033 5.03185 12.6033 4.89505 12.6321 4.85185C12.6609 4.80865 12.7977 4.76545 12.9777 4.71505C13.4169 4.57825 13.8633 4.44865 14.3313 4.30465L14.7921 4.16785C14.7921 4.30465 14.7849 4.44145 14.7849 4.57105C14.7705 5.01025 14.7633 5.41345 14.7993 5.81665ZM10.3569 29.3318C10.4577 29.1662 10.5513 29.0078 10.6449 28.8494C11.6889 27.1934 12.3153 25.7534 12.6249 24.3134C12.9417 22.8374 13.0065 21.707 12.8409 20.627C12.8265 20.5118 12.7977 20.4038 12.7761 20.3102C16.5345 20.3606 20.6241 20.3606 25.2609 20.3174C25.2537 20.3606 25.2465 20.411 25.2393 20.4542C25.1961 20.699 25.1457 20.9798 25.1385 21.2606C25.0593 23.4422 25.5705 25.5662 26.6577 27.5678C26.8449 27.9134 27.0537 28.259 27.2553 28.5902C27.3489 28.7486 27.4497 28.907 27.5433 29.0726C27.6009 29.1662 27.6513 29.2598 27.7161 29.3606H10.3353C10.3425 29.3534 10.3497 29.3462 10.3569 29.3318ZM11.0337 19.5038C11.0409 19.511 11.0409 19.511 11.0481 19.5182C11.1561 19.6334 11.2569 19.7486 11.3361 19.871C11.8329 20.7134 11.7969 21.6494 11.7177 22.5422C11.5521 24.3638 10.9761 26.0702 9.99687 27.611L11.0337 19.5038ZM26.2833 21.6998C26.2761 20.9726 26.4057 20.3966 26.6865 19.8998C26.7585 19.7702 26.8665 19.6478 26.9745 19.5254C26.9817 19.5182 26.9889 19.511 26.9961 19.5038L28.0473 27.6902C26.8809 25.7174 26.2977 23.7518 26.2833 21.6998ZM9.50727 31.8086C9.59367 31.4702 9.68007 31.1462 9.74487 30.815C9.78807 30.599 9.85287 30.5486 10.0977 30.5486C13.2585 30.5558 16.4697 30.5558 19.5801 30.5558H21.9705C22.4529 30.5558 22.9425 30.5558 23.4249 30.5558C24.9153 30.5558 26.4561 30.5558 27.9681 30.5486C28.1985 30.5486 28.2417 30.599 28.2777 30.7862C28.3497 31.1246 28.4361 31.4558 28.5297 31.8086C28.5513 31.895 28.5729 31.9814 28.5945 32.0678H9.44247C9.46407 31.9814 9.48567 31.895 9.50727 31.8086ZM11.4009 7.34305C11.3217 9.63985 10.7385 11.8862 9.67287 14.0246C8.97447 15.4142 9.04647 16.847 9.88167 18.2798C9.93927 18.3734 9.96807 18.503 9.95367 18.5966C9.72327 20.4614 9.47847 22.355 9.24087 24.191L9.08967 25.3862C8.80887 27.5894 8.52087 29.7926 8.24007 31.9958C8.24007 32.0246 8.23287 32.0534 8.22567 32.0822H6.56967C6.56967 32.0606 6.56247 32.039 6.56247 32.0246C6.56247 31.1966 6.56247 30.3542 6.55527 29.5406C6.54807 27.5318 6.54087 25.451 6.59127 23.4062C6.62007 22.175 6.77127 20.915 6.92247 19.6982C6.95847 19.4102 6.99447 19.1222 7.02327 18.8342C7.24647 16.919 7.49127 14.975 7.73607 13.0958L7.82247 12.455C7.85847 12.167 7.89447 11.8718 7.93047 11.5838C8.07447 10.4246 8.22567 9.22225 8.42007 8.04865C8.62167 6.84625 9.32007 5.98945 10.5153 5.49985C10.7385 5.40625 10.9761 5.34145 11.2281 5.26945C11.2857 5.25505 11.3433 5.23345 11.4081 5.21905C11.4081 5.40625 11.4081 5.59345 11.4153 5.78065C11.4153 6.31345 11.4225 6.82465 11.4009 7.34305ZM28.6017 22.7654C28.4289 21.4118 28.2489 20.015 28.0833 18.6398C28.0689 18.5246 28.1049 18.359 28.1769 18.2366C28.9905 16.8038 29.0553 15.3926 28.3713 14.039C27.1545 11.6342 26.5641 8.99185 26.6145 6.19105C26.6217 5.93185 26.6145 5.67265 26.6145 5.42785C26.6145 5.36305 26.6145 5.30545 26.6145 5.24065C28.2921 5.54305 29.3793 6.55825 29.6097 8.05585C29.8905 9.86305 30.1209 11.7062 30.3513 13.4918C30.4017 13.9094 30.4593 14.327 30.5097 14.7446L30.5529 15.0902C30.7761 16.8254 31.0065 18.6254 31.1865 20.3894C31.3017 21.5054 31.4385 22.9814 31.4601 24.4358C31.4889 26.1782 31.4817 27.9494 31.4745 29.663C31.4745 30.3902 31.4673 31.1174 31.4673 31.8446V32.075H29.8041L29.7609 31.7294C29.7105 31.3694 29.6673 31.0166 29.6169 30.6566C29.3073 28.259 28.9977 25.8614 28.6881 23.4566L28.6017 22.7654ZM15.9297 3.93745V3.93025H22.1001C22.1001 4.08865 22.1001 4.23985 22.1073 4.39105C22.1289 5.37025 22.1433 6.29905 21.5457 7.12705C20.7897 8.18545 19.4865 8.66785 18.2337 8.34385C16.9881 8.01985 16.0665 6.94705 15.9585 5.66545C15.9225 5.26945 15.9225 4.85905 15.9297 4.46305C15.9297 4.29025 15.9369 4.11025 15.9297 3.93745Z" fill="black"/>
<path d="M14.936 3.98785C14.936 4.62865 14.8928 5.21905 14.9432 5.80225C15.1232 7.81825 16.808 9.37345 18.8744 9.47425C20.8184 9.56785 22.6472 8.15665 23.036 6.23425C23.1008 5.89585 23.1224 5.55025 23.1368 5.21185C23.1512 4.82305 23.144 4.42705 23.144 3.99505C23.9432 4.23985 24.7136 4.47025 25.4768 4.71505C25.5344 4.73665 25.5848 4.88065 25.5848 4.97425C25.6064 5.85985 25.592 6.74545 25.628 7.63105C25.7288 9.99265 26.312 12.2319 27.392 14.3343C27.8672 15.2631 27.9464 16.2207 27.5432 17.1855C26.9888 18.5031 25.988 19.2735 24.548 19.3023C22.208 19.3455 19.8608 19.3167 17.5208 19.3167C16.2104 19.3167 14.9 19.3311 13.5968 19.3095C11.9408 19.2735 10.6592 18.1935 10.3208 16.5663C10.1696 15.8319 10.2632 15.1119 10.6088 14.4423C11.444 12.8295 11.984 11.1231 12.2648 9.33025C12.4736 7.96945 12.4736 6.60145 12.4664 5.23345C12.4664 4.73665 12.4664 4.73665 12.9416 4.58545C13.568 4.40545 14.2088 4.21105 14.936 3.98785Z" fill="url(#paint0_linear_4430_27094)"/>
<path d="M9.25537 32.2119C9.37777 31.7151 9.51457 31.2543 9.60817 30.7863C9.66577 30.4911 9.79537 30.4047 10.105 30.4047C14.065 30.4191 18.0178 30.4119 21.9778 30.4119C23.9794 30.4119 25.9738 30.4191 27.9754 30.4047C28.2634 30.4047 28.3714 30.4911 28.429 30.7575C28.5298 31.2399 28.6666 31.7079 28.789 32.2119C22.2658 32.2119 15.7858 32.2119 9.25537 32.2119Z" fill="url(#paint1_linear_4430_27094)"/>
<path d="M19.458 27.3086C19.458 27.467 19.4724 27.6254 19.458 27.7766C19.4364 28.0286 19.2852 28.1726 19.0332 28.1726C18.7812 28.1726 18.6156 28.043 18.6012 27.791C18.5796 27.4598 18.5796 27.1286 18.6012 26.7974C18.6156 26.5598 18.7812 26.4302 19.0188 26.4302C19.2564 26.4302 19.4148 26.5526 19.4508 26.7902C19.4652 26.9558 19.4508 27.1358 19.458 27.3086C19.4508 27.3086 19.4508 27.3086 19.458 27.3086Z" fill="black"/>
<path d="M19.0186 28.3167C18.6874 28.3167 18.4642 28.1151 18.4498 27.7983C18.4282 27.4527 18.4282 27.1143 18.4498 26.7831C18.4714 26.4807 18.6874 26.2863 19.0114 26.2791H19.0186C19.3282 26.2791 19.5442 26.4663 19.5802 26.7615C19.5946 26.8911 19.5946 27.0207 19.5874 27.1503C19.5874 27.1719 19.5874 27.1863 19.5874 27.2079L19.5946 27.3087C19.5946 27.3591 19.5946 27.4023 19.5946 27.4527C19.5946 27.5607 19.6018 27.6759 19.5874 27.7911C19.5514 28.1151 19.3426 28.3167 19.0186 28.3167ZM19.0258 26.5671H19.0186C18.8458 26.5671 18.7522 26.6463 18.745 26.7975C18.7234 27.1143 18.7234 27.4455 18.745 27.7767C18.7522 27.9423 18.8458 28.0287 19.0258 28.0287H19.033C19.2058 28.0287 19.2994 27.9423 19.321 27.7623C19.3282 27.6615 19.3282 27.5607 19.3282 27.4599V27.4527L19.321 27.3087C19.321 27.2511 19.321 27.1935 19.321 27.1431C19.3282 27.0207 19.3282 26.9127 19.3138 26.8047C19.2778 26.6463 19.1914 26.5671 19.0258 26.5671Z" fill="black"/>
<path d="M22.9567 18.6398C25.3426 18.6398 27.2767 16.7057 27.2767 14.3198C27.2767 11.9339 25.3426 9.99982 22.9567 9.99982C20.5708 9.99982 18.6367 11.9339 18.6367 14.3198C18.6367 16.7057 20.5708 18.6398 22.9567 18.6398Z" fill="#BE3455"/>
<path d="M22.9567 17.1998C24.5472 17.1998 25.8367 15.9104 25.8367 14.3198C25.8367 12.7292 24.5472 11.4398 22.9567 11.4398C21.3661 11.4398 20.0767 12.7292 20.0767 14.3198C20.0767 15.9104 21.3661 17.1998 22.9567 17.1998Z" fill="white"/>
<path d="M22.9567 16.1198C23.9509 16.1198 24.7567 15.3139 24.7567 14.3198C24.7567 13.3257 23.9509 12.5198 22.9567 12.5198C21.9626 12.5198 21.1567 13.3257 21.1567 14.3198C21.1567 15.3139 21.9626 16.1198 22.9567 16.1198Z" fill="#BE3455"/>
<path d="M12.4158 7.60222L10.5294 8.47342L7.58456 4.48462L2.15576 7.36462C2.15576 7.36462 7.72856 13.2974 7.98056 13.5782C8.16056 13.7726 8.34056 13.8734 8.65016 13.715C9.00296 13.535 9.95336 13.1174 10.0614 13.067C10.4862 12.9086 10.7526 13.0454 11.2062 13.3118L15.6054 16.3646L15.8214 16.199L12.4158 7.60222ZM13.0782 13.1822C12.3798 12.6998 11.6598 12.1958 10.9542 11.699C10.8318 11.6126 10.7166 11.5694 10.6014 11.5694C10.515 11.5694 10.4286 11.591 10.3278 11.6414C9.99656 11.807 9.65096 11.9582 9.31976 12.1094C9.09656 12.2102 8.87336 12.311 8.65016 12.419C8.55656 12.4622 8.54216 12.455 8.49176 12.3974C7.43336 11.267 6.35336 10.1222 5.30936 9.01342C4.89176 8.57422 4.47416 8.12782 4.05656 7.68862C4.05656 7.68862 4.05656 7.68862 4.05656 7.68142L7.19576 6.01822L9.89576 10.0646L11.775 9.19342L13.4598 13.4558L13.0782 13.1822Z" fill="black"/>
<path d="M3.84033 7.63819C4.97793 7.03339 6.10113 6.43579 7.24593 5.83099C8.15313 7.18459 9.04593 8.52379 9.95313 9.88459C10.5867 9.58939 11.2131 9.30139 11.8611 9.00619C12.4947 10.6046 13.1139 12.1814 13.7619 13.8158C13.6467 13.7438 13.5747 13.7078 13.5099 13.6646C12.6315 13.0526 11.7459 12.4478 10.8747 11.8286C10.7163 11.7134 10.5867 11.6918 10.3995 11.7854C9.84513 12.059 9.27633 12.3038 8.71473 12.563C8.58513 12.6278 8.49873 12.6278 8.39073 12.5054C6.90753 10.9286 5.43153 9.35899 3.95553 7.78939C3.91233 7.74619 3.88353 7.69579 3.84033 7.63819Z" fill="#BE3455"/>
<defs>
<linearGradient id="paint0_linear_4430_27094" x1="27.8027" y1="3.98785" x2="8.95354" y2="5.79525" gradientUnits="userSpaceOnUse">
<stop stop-color="#DFF9F8"/>
<stop offset="0.46875" stop-color="#D5F4E5"/>
<stop offset="1" stop-color="#AEE5E2"/>
</linearGradient>
<linearGradient id="paint1_linear_4430_27094" x1="28.789" y1="30.4047" x2="17.159" y2="40.9382" gradientUnits="userSpaceOnUse">
<stop stop-color="#DFF9F8"/>
<stop offset="0.46875" stop-color="#D5F4E5"/>
<stop offset="1" stop-color="#AEE5E2"/>
</linearGradient>
</defs>
</svg>
