<svg width="37" height="36" viewBox="0 0 37 36" fill="none" xmlns="http://www.w3.org/2000/svg">
<rect x="0.5" y="-0.000976562" width="36" height="36" rx="18" fill="white"/>
<path d="M18.9177 30.0231C18.9177 25.2711 18.9177 20.5407 18.9177 15.8031C18.6225 15.8031 18.3489 15.8031 18.0753 15.8031C18.0753 20.5551 18.0753 25.2783 18.0753 30.0231C18.3705 30.0231 18.6369 30.0231 18.9177 30.0231ZM15.2457 9.44547C15.2457 9.56787 15.2457 9.66867 15.2457 9.76227C15.2313 10.6119 15.2745 11.4759 15.1737 12.3183C15.0441 13.4415 14.4393 14.2263 13.2801 14.4855C13.2441 14.4927 13.2081 14.5143 13.1577 14.5431C13.2081 14.8167 13.2585 15.0831 13.3161 15.3711C13.4313 15.3495 13.5249 15.3423 13.6185 15.3135C14.7777 15.0111 15.5337 14.2767 15.9009 13.1391C16.2033 12.1959 16.2249 11.2239 16.1673 10.2519C16.1529 9.96387 16.1241 9.67587 16.0953 9.35907C15.8001 9.38787 15.5337 9.41667 15.2457 9.44547ZM23.8425 14.5287C23.7633 14.4999 23.7129 14.4711 23.6553 14.4639C22.7697 14.2623 22.1721 13.7223 21.9489 12.8511C21.7977 12.2463 21.7473 11.6127 21.6969 10.9935C21.6609 10.4895 21.6897 9.97827 21.6897 9.43107C21.4665 9.40947 21.1857 9.38787 20.8977 9.35907C20.7969 10.3527 20.7537 11.3031 20.8905 12.2535C20.9841 12.8943 21.1569 13.5063 21.5241 14.0391C22.0353 14.7951 22.7697 15.1983 23.6697 15.3639C23.7417 15.0759 23.7921 14.8023 23.8425 14.5287ZM24.0657 9.07107C24.1737 8.78307 24.2745 8.52387 24.3825 8.25027C24.0873 8.13507 23.8353 8.03427 23.5617 7.93347C23.4465 8.22867 23.3529 8.48067 23.2449 8.75427C23.5257 8.85507 23.7777 8.95587 24.0657 9.07107ZM24.9009 9.38787C25.1889 9.49587 25.4409 9.59667 25.7217 9.70467C25.8297 9.42387 25.9305 9.16467 26.0385 8.88387C25.7433 8.76867 25.4841 8.66787 25.2177 8.56707C25.1025 8.86227 25.0089 9.10707 24.9009 9.38787Z" fill="white"/>
<path d="M10.5 32.499L11.1505 29.499H25.8971L26.5 32.499H10.5Z" fill="url(#paint0_linear_4430_27086)"/>
<path d="M26 29.499H11.5" stroke="black"/>
<path d="M33.368 19.5758C33.332 19.5542 33.3032 19.5398 33.2744 19.5182C33.2168 19.4822 33.1664 19.4534 33.1088 19.4246C32.9216 19.3238 32.7416 19.2302 32.5544 19.1294C32.0144 18.8414 31.4456 18.539 30.8912 18.2582C30.704 18.1646 30.6536 18.0782 30.6536 17.8694C30.6608 16.7894 30.6608 15.695 30.6536 14.6294C30.6536 13.4774 30.6536 12.2822 30.6608 11.1086C30.668 9.98545 30.2432 9.10705 29.4008 8.48785C28.832 8.07025 28.2344 7.73185 27.6368 7.48705C26.0384 6.82465 24.3968 6.19825 22.8056 5.58625L22.5032 5.47105C22.3016 5.39185 22.2512 5.31985 22.2584 5.10385C22.2728 4.57105 22.2656 4.03825 22.2584 3.51985C22.2584 3.31105 22.2512 3.10225 22.2512 2.88625V2.74225H14.756V2.88625C14.756 3.10225 14.7488 3.31105 14.7488 3.52705C14.7416 4.05265 14.7344 4.59985 14.7488 5.13985C14.756 5.34145 14.7056 5.40625 14.504 5.47825C14.1296 5.60785 13.7696 5.75185 13.388 5.90305C13.2296 5.96785 13.0784 6.02545 12.92 6.09025L12.7832 6.14065L13.208 7.23505L13.9568 6.93985C14.432 6.75265 14.8928 6.57265 15.3464 6.39265C15.872 6.18385 15.908 6.13345 15.908 5.55745V3.92305H21.0776C21.0776 4.06705 21.0776 4.21105 21.0776 4.34785C21.0776 4.83025 21.0848 5.29105 21.0704 5.75905C21.0632 6.04705 21.1712 6.21265 21.452 6.32065C22.784 6.83185 24.2312 7.39345 25.8728 8.03425C26.0096 8.09185 26.1464 8.14225 26.2904 8.19265C27.0392 8.48065 27.8096 8.77585 28.4864 9.24385C29.1704 9.71905 29.4872 10.3238 29.48 11.1446C29.4656 12.599 29.4728 14.075 29.4728 15.5006C29.4728 16.127 29.4728 16.7534 29.4728 17.3798C29.4728 17.4158 29.4728 17.4518 29.4728 17.495L28.0832 16.7606L26.8016 18.6758C27.0248 17.1278 27.2336 15.3638 27.2696 13.5638V13.4198L26.1104 13.3694L26.1032 13.5134C26.024 15.9254 25.7 18.2942 25.1312 20.7494L23.2448 19.8782L19.868 28.4822L20.0768 28.655L24.4832 25.6022C24.4904 25.6958 24.5048 25.7822 24.512 25.8758C24.548 26.2358 24.584 26.5814 24.656 26.9198C24.7856 27.5102 24.9224 28.1078 25.0592 28.6838C25.196 29.2742 25.34 29.879 25.4696 30.4838C25.556 30.8726 25.6064 31.2686 25.6568 31.6862C25.6712 31.823 25.6928 31.967 25.7144 32.111H19.7096L19.652 33.263H28.7816L28.8032 33.1478C28.8176 33.0686 28.832 32.9822 28.8464 32.903C28.8824 32.7302 28.9112 32.543 28.94 32.363L29.3144 29.9942C29.6672 27.755 30.0344 25.4366 30.4016 23.1542C30.4232 23.039 30.4808 22.9094 30.56 22.823C31.1936 22.1318 31.8488 21.4406 32.4824 20.771C32.684 20.5622 32.8856 20.3462 33.08 20.1374C33.1448 20.0654 33.2096 20.0006 33.2816 19.9214L33.512 19.6694L33.368 19.5758ZM26.6936 24.5438C26.2256 24.335 25.7864 24.1334 25.34 23.9246C25.1168 23.8166 24.944 23.831 24.7424 23.975C24.0872 24.443 23.4104 24.911 22.7624 25.3574L22.2152 25.739L23.9 21.4694L25.7792 22.3406L28.4792 18.2942L31.6256 19.9646L27.1328 24.7382C26.9888 24.6734 26.8448 24.6086 26.6936 24.5438ZM26.888 32.075C26.8808 31.9958 26.8736 31.9166 26.8664 31.8374C26.8448 31.571 26.8232 31.2902 26.7656 31.0238C26.6432 30.4622 26.5136 29.8934 26.3912 29.339C26.24 28.6982 26.0888 28.0286 25.952 27.3734C25.8512 26.8766 25.772 26.3582 25.7 25.8614C25.6712 25.6886 25.6496 25.5158 25.6208 25.343C25.7288 25.3934 25.8296 25.4366 25.9376 25.487C26.2976 25.6454 26.6648 25.811 27.0248 25.991C27.2984 26.1278 27.5 26.0918 27.716 25.847C27.9824 25.5518 28.2632 25.2566 28.5296 24.9686C28.688 24.803 28.8464 24.6302 29.0048 24.4574L27.8024 32.0678H26.888V32.075Z" fill="black"/>
<path d="M11.2859 32.0823C11.3075 31.9383 11.3219 31.8015 11.3435 31.6647C11.4011 31.2471 11.4515 30.8439 11.5379 30.4551C11.6603 29.8647 11.8043 29.2743 11.9411 28.6983C12.0779 28.1151 12.2219 27.5175 12.3443 26.9199C12.4163 26.5743 12.4523 26.2287 12.4955 25.8687C12.5027 25.7823 12.5171 25.6887 12.5243 25.6023L16.9235 28.6551L17.1395 28.4895L13.7411 19.8855L11.8547 20.7567C11.2859 18.2943 10.9691 15.9255 10.8827 13.5135L10.8755 13.3623L9.71628 13.4343V13.5711C9.75228 15.3279 9.95388 17.0487 10.1843 18.6687L8.90988 16.7607L7.52028 17.4879V17.3223C7.52028 16.7319 7.52028 16.1415 7.52748 15.5439C7.53468 14.1399 7.54188 12.6927 7.51308 11.2671C7.49148 10.2735 7.89468 9.56788 8.74428 9.09988C9.31308 8.78308 9.93228 8.52388 10.5299 8.26468L10.5443 8.25748C10.9907 8.07028 11.4371 7.89748 11.9123 7.71748C12.1139 7.63828 12.3227 7.55908 12.5243 7.47988L12.6611 7.42948L12.2147 6.31348L12.0779 6.37108C11.7107 6.52228 11.3435 6.67348 10.9835 6.81748C10.1555 7.14868 9.37068 7.46548 8.59308 7.83988C7.01628 8.59588 6.27468 9.79108 6.33948 11.4903C6.38988 12.8439 6.37548 14.2263 6.36828 15.5583C6.36108 16.2999 6.35388 17.0775 6.36108 17.8335C6.36108 18.0639 6.30348 18.1647 6.10188 18.2655C5.51148 18.5607 4.94988 18.8631 4.34508 19.1871C4.11468 19.3095 3.88428 19.4319 3.65388 19.5543L3.48828 19.6407L3.61068 19.7775C3.63948 19.8135 3.66828 19.8423 3.69708 19.8711C3.74748 19.9287 3.79788 19.9863 3.84828 20.0367C4.07868 20.2815 4.30188 20.5191 4.53228 20.7639C5.15868 21.4263 5.79948 22.1103 6.43308 22.7943C6.52668 22.8951 6.59148 23.0031 6.60588 23.0895C6.86508 24.7167 7.12428 26.3727 7.37628 27.9711C7.52028 28.8783 7.66428 29.7855 7.80828 30.6927C7.89468 31.2543 7.99548 31.8159 8.08188 32.3631C8.12508 32.6223 8.16828 32.8743 8.21148 33.1335L8.23308 33.2559H17.3699L17.2979 32.0751H11.2859V32.0823ZM10.6451 24.3999C10.4219 24.5007 10.1987 24.6015 9.97548 24.7095C9.88188 24.7527 9.86748 24.7455 9.81708 24.6879C8.75868 23.5575 7.67868 22.4127 6.63468 21.3039C6.21708 20.8647 5.79948 20.4183 5.38188 19.9791C5.38188 19.9791 5.38188 19.9791 5.38188 19.9719L8.52828 18.3015L11.2283 22.3479L13.1075 21.4767L14.7923 25.7391L14.4035 25.4727C13.7051 24.9903 12.9851 24.4863 12.2795 23.9895C12.1571 23.9031 12.0419 23.8599 11.9267 23.8599C11.8403 23.8599 11.7539 23.8815 11.6531 23.9319C11.3219 24.0903 10.9763 24.2487 10.6451 24.3999ZM8.52828 25.0263C8.78028 25.2999 9.04668 25.5807 9.29868 25.8615C9.47868 26.0559 9.65868 26.1567 9.96828 25.9983C10.3211 25.8183 10.6955 25.6527 11.0555 25.4943C11.1635 25.4439 11.2715 25.4007 11.3795 25.3503C11.3507 25.5231 11.3291 25.6959 11.3003 25.8615C11.2283 26.3583 11.1563 26.8695 11.0483 27.3663C10.9115 28.0215 10.7603 28.6839 10.6163 29.3247C10.4939 29.8719 10.3643 30.4335 10.2419 30.9879C10.1843 31.2543 10.1627 31.5207 10.1339 31.8087C10.1267 31.8951 10.1195 31.9815 10.1123 32.0679H9.19068L7.98828 24.4647C8.17548 24.6519 8.35548 24.8463 8.52828 25.0263Z" fill="black"/>
<path d="M17.946 32.0966L17.874 33.263H19.1268L19.062 32.0966H17.946Z" fill="black"/>
<path d="M19.062 15.6591H17.9316V30.1671H19.062V15.6591Z" fill="black"/>
<path d="M13.2515 14.3414C13.2083 14.3486 13.1723 14.3702 13.1435 14.3846C13.1291 14.3918 13.1147 14.399 13.1003 14.4062L12.9995 14.4566L13.2083 15.5294L13.3451 15.5006C13.3811 15.4934 13.4171 15.4862 13.4459 15.4862C13.5179 15.4718 13.5827 15.4646 13.6547 15.443C14.8571 15.1262 15.6563 14.363 16.0379 13.175C16.3763 12.1238 16.3619 11.051 16.3115 10.2302C16.2971 10.0286 16.2827 9.83422 16.2683 9.62542C16.2611 9.53182 16.2539 9.43102 16.2467 9.33022L16.2323 9.18622L15.1091 9.29422V9.54622C15.1091 9.61822 15.1091 9.68302 15.1091 9.74782C15.1019 10.007 15.1019 10.2806 15.1019 10.5326C15.1019 11.1086 15.1019 11.7134 15.0371 12.2894C14.9075 13.4198 14.3027 14.111 13.2515 14.3414Z" fill="black"/>
<path d="M21.8411 9.43102V9.30142L20.7755 9.20782L20.7611 9.35182C20.6747 10.2086 20.6027 11.231 20.7539 12.2822C20.8691 13.0454 21.0779 13.6358 21.4163 14.1326C21.9275 14.8814 22.6547 15.335 23.6555 15.515L23.7995 15.5438L24.0083 14.4422L23.8931 14.399C23.8715 14.3918 23.8499 14.3774 23.8283 14.3702C23.7851 14.3486 23.7419 14.3342 23.6915 14.3198C22.8347 14.1182 22.2947 13.6142 22.0931 12.815C21.9419 12.2318 21.8987 11.5982 21.8483 10.9934V10.979C21.8195 10.6406 21.8267 10.295 21.8339 9.93502C21.8411 9.76942 21.8411 9.60382 21.8411 9.43102Z" fill="black"/>
<path d="M24.5768 8.16387L23.4824 7.73907L23.0576 8.82627L24.152 9.25828L24.5768 8.16387Z" fill="black"/>
<path d="M26.2259 8.80468L25.1387 8.37988L24.7139 9.47428L25.8011 9.89908L26.2259 8.80468Z" fill="black"/>
<path d="M27.169 24.9183C26.5282 24.6231 25.8946 24.3495 25.2754 24.0543C25.0954 23.9679 24.9802 23.9895 24.8218 24.0975C23.9722 24.7023 23.1154 25.2927 22.2586 25.8903C22.165 25.9551 22.0714 26.0199 21.9058 26.1279C22.5538 24.4791 23.1802 22.9023 23.821 21.2895C24.4546 21.5847 25.0738 21.8727 25.729 22.1751C26.629 20.8215 27.529 19.4751 28.4362 18.1215C29.581 18.7263 30.7042 19.3239 31.8634 19.9431C30.2938 21.5991 28.7386 23.2479 27.169 24.9183Z" fill="#BE3455"/>
<path d="M5.15869 19.9215C6.29629 19.3167 7.41949 18.7191 8.56429 18.1143C9.47149 19.4679 10.3643 20.8071 11.2715 22.1679C11.9051 21.8727 12.5315 21.5847 13.1795 21.2895C13.8131 22.8879 14.4323 24.4647 15.0803 26.0991C14.9651 26.0271 14.8931 25.9911 14.8283 25.9479C13.9499 25.3359 13.0643 24.7311 12.1931 24.1119C12.0347 23.9967 11.9051 23.9751 11.7179 24.0687C11.1635 24.3423 10.5947 24.5871 10.0331 24.8463C9.90349 24.9111 9.81709 24.9111 9.70909 24.7887C8.23309 23.2191 6.75709 21.6495 5.28109 20.0799C5.23789 20.0295 5.20909 19.9791 5.15869 19.9215Z" fill="#BE3455"/>
<path d="M18.277 34.415C20.6629 34.415 22.597 32.4809 22.597 30.095C22.597 27.7092 20.6629 25.775 18.277 25.775C15.8912 25.775 13.957 27.7092 13.957 30.095C13.957 32.4809 15.8912 34.415 18.277 34.415Z" fill="#BE3455"/>
<path d="M18.277 32.975C19.8676 32.975 21.157 31.6856 21.157 30.095C21.157 28.5044 19.8676 27.215 18.277 27.215C16.6864 27.215 15.397 28.5044 15.397 30.095C15.397 31.6856 16.6864 32.975 18.277 32.975Z" fill="white"/>
<path d="M18.2771 31.895C19.2712 31.895 20.0771 31.0892 20.0771 30.095C20.0771 29.1009 19.2712 28.295 18.2771 28.295C17.2829 28.295 16.4771 29.1009 16.4771 30.095C16.4771 31.0892 17.2829 31.895 18.2771 31.895Z" fill="#BE3455"/>
<defs>
<linearGradient id="paint0_linear_4430_27086" x1="26.5" y1="29.499" x2="12.0461" y2="35.9586" gradientUnits="userSpaceOnUse">
<stop stop-color="#DFF9F8"/>
<stop offset="0.46875" stop-color="#D5F4E5"/>
<stop offset="1" stop-color="#AEE5E2"/>
</linearGradient>
</defs>
</svg>
