<svg width="37" height="36" viewBox="0 0 37 36" fill="none" xmlns="http://www.w3.org/2000/svg">
<rect x="0.5" y="-0.000976562" width="36" height="36" rx="18" fill="white"/>
<path d="M17.4272 32.1902C17.636 32.039 17.6936 31.8374 17.6936 31.5854C17.6864 29.3894 17.6864 27.1862 17.6864 24.9902C17.6864 24.8894 17.6864 24.7814 17.6864 24.6662C17.9672 24.6662 18.2264 24.6662 18.5072 24.6662C18.5144 24.7238 18.5288 24.7886 18.5288 24.8606C18.5288 25.3214 18.536 25.7822 18.5288 26.2502C18.5216 26.5958 18.644 26.8694 18.9392 27.0422C19.0688 27.1214 19.0616 27.2006 19.0328 27.323C18.6728 28.943 19.616 30.4766 21.2216 30.8582C21.4808 30.923 21.7544 30.9374 22.028 30.9374C23.3456 30.9446 24.6632 30.9446 25.9808 30.9446C25.9952 30.9446 26.0168 30.9518 26.0744 30.959C26.0744 31.1678 26.0888 31.3838 26.0744 31.5926C26.0528 31.8518 26.1248 32.0534 26.3408 32.1974C23.36 32.1902 20.3936 32.1902 17.4272 32.1902Z" fill="url(#paint0_linear_4430_27102)"/>
<path d="M21.4592 11.447C21.4592 11.1158 21.4664 10.7846 21.4592 10.4534C21.452 10.1654 21.2864 9.98541 21.0416 9.98541C20.7968 9.98541 20.624 10.1654 20.624 10.4534C20.6168 11.1158 20.6168 11.7782 20.624 12.4406C20.624 12.7286 20.7968 12.9086 21.0416 12.9086C21.2864 12.9086 21.452 12.7286 21.4592 12.4406C21.4592 12.1094 21.4592 11.7782 21.4592 11.447ZM20.1992 12.2894C20.1992 12.2318 20.1992 12.167 20.1992 12.1094C20.1848 11.843 20.0192 11.663 19.7816 11.663C19.544 11.663 19.3784 11.8358 19.364 12.1022C19.3568 12.1958 19.364 12.2966 19.364 12.3902C19.364 12.7214 19.5224 12.9158 19.7816 12.9158C20.0408 12.9158 20.1992 12.7286 20.2064 12.3974C20.1992 12.3614 20.1992 12.3254 20.1992 12.2894Z" fill="white"/>
<path d="M19.3352 16.2638C19.076 16.2638 18.8096 16.2566 18.5504 16.2638C18.284 16.271 18.1112 16.4366 18.104 16.6742C18.104 16.9118 18.2768 17.0846 18.5432 17.0918C18.8312 17.099 19.1192 17.1062 19.4072 17.0918C19.8464 17.0702 20.2064 16.6958 20.1992 16.2782C20.1992 16.0622 20.0912 15.911 19.8824 15.8534C19.6736 15.803 19.508 15.8894 19.4072 16.0838C19.3784 16.1486 19.364 16.199 19.3352 16.2638ZM24.4184 16.2638C24.404 16.2278 24.3968 16.2062 24.3824 16.1846C24.2672 15.911 24.0728 15.7958 23.8424 15.8678C23.612 15.947 23.504 16.1702 23.5688 16.4438C23.6552 16.8254 23.9792 17.0918 24.3752 17.099C24.6344 17.1062 24.8936 17.1062 25.16 17.099C25.4624 17.0918 25.6496 16.9262 25.6424 16.6742C25.6352 16.4222 25.448 16.2638 25.1456 16.2638C24.9008 16.2638 24.6632 16.2638 24.4184 16.2638ZM21.8624 20.4542C22.0136 20.4542 22.1576 20.4614 22.3088 20.4542C22.5536 20.4398 22.7192 20.2526 22.7192 20.0294C22.712 19.8134 22.5536 19.6334 22.316 19.6262C22.028 19.6118 21.74 19.6118 21.452 19.6262C21.2072 19.6334 21.0416 19.8206 21.0416 20.051C21.0488 20.267 21.2072 20.4398 21.4448 20.4542C21.5816 20.4614 21.7184 20.4542 21.8624 20.4542Z" fill="white"/>
<path d="M33.6632 23.8382C33.4976 22.3406 32.612 21.239 31.2872 20.8934C31.0784 20.8358 30.8624 20.807 30.6536 20.807C30.272 20.7998 29.8976 20.591 29.6744 20.2598C29.4728 19.9574 29.4368 19.6118 29.5664 19.2806C29.696 18.9566 29.84 18.6902 29.9984 18.4742C30.6608 17.567 31.0208 16.7174 31.1288 15.7958C31.2008 15.1982 31.1144 14.5934 30.8768 13.9454C30.8336 13.8302 30.7904 13.715 30.7472 13.5998C30.4952 12.9302 30.236 12.239 30.0488 11.5334C29.9552 11.1734 29.9264 10.7846 29.9048 10.403C29.8904 10.187 29.876 9.96382 29.8472 9.74782C29.6312 7.97662 28.1696 6.43582 26.456 6.16222C25.8584 6.06862 25.3544 6.12622 24.9008 6.34942C24.8504 6.37102 24.7712 6.37102 24.7424 6.34942C23.684 5.61502 22.46 5.42782 21.3944 5.33422C21.344 5.32702 21.2864 5.31982 21.2288 5.30542C21.2 5.29822 21.1712 5.29102 21.1496 5.29102H19.616H19.6016C19.4792 5.31262 19.364 5.34142 19.2416 5.36302C18.9824 5.41342 18.716 5.46382 18.4568 5.53582C17.5568 5.78782 16.5416 6.11902 15.9008 6.88222C15.5336 7.31422 15.584 7.99822 15.6992 8.48782C15.9512 9.62542 15.7208 10.6406 15.5192 11.5406C15.4544 11.8214 15.3968 12.0878 15.3536 12.3542C15.26 12.9158 15.4112 13.4774 15.5552 14.0318C15.6488 14.3846 15.7352 14.723 15.7568 15.0398C15.8 15.8318 14.8568 16.055 14.6696 16.091C14.3024 16.163 13.8416 15.9398 13.4672 15.767C13.1432 15.6158 12.8912 15.4934 12.7256 15.551C12.668 15.5726 12.6248 15.6086 12.596 15.6734C11.9768 17.1998 11.5376 19.4174 12.1712 21.0662C12.8048 22.7366 13.8704 23.8598 15.4256 24.479C15.0944 24.9398 15.1016 25.4654 15.1088 25.9766C15.1088 26.0486 15.1088 26.1206 15.1088 26.1926V27.251C15.1088 28.6694 15.1088 30.1382 15.1016 31.5854C15.1016 31.8086 15.1376 32.0678 15.3968 32.255L15.4184 32.2694H15.7784L15.8 32.255C16.0664 32.0678 16.0952 31.8158 16.0952 31.5854C16.088 29.7854 16.088 27.9494 16.088 26.1782V25.5662C16.088 25.0838 16.3256 24.803 16.7792 24.7382V26.4806C16.7792 28.151 16.7792 29.8862 16.772 31.5854C16.772 31.8086 16.808 32.0678 17.0672 32.255L17.0888 32.2694H17.4488L17.4704 32.255C17.7368 32.0678 17.7656 31.8158 17.7656 31.5854C17.7584 29.8934 17.7584 28.1726 17.7584 26.5022V24.7382H18.4424C18.4496 24.7814 18.4496 24.8174 18.4496 24.8606V25.1414C18.4496 25.5014 18.4568 25.883 18.4496 26.2502C18.4424 26.639 18.5936 26.927 18.896 27.107C18.9824 27.1574 18.9824 27.1934 18.9608 27.3086C18.5864 28.9862 19.5512 30.5414 21.2 30.9302C21.4952 31.0022 21.812 31.0094 22.0208 31.0094C22.9712 31.0166 23.936 31.0166 24.872 31.0166C25.2392 31.0166 25.6064 31.0166 25.9736 31.0166C25.9808 31.0166 25.988 31.0166 25.9952 31.0166C25.9952 31.0598 25.9952 31.103 25.9952 31.1462C25.9952 31.2902 26.0024 31.4414 25.988 31.5854C25.9664 31.8806 26.06 32.1038 26.2832 32.255L26.3048 32.2694H26.6648L26.6864 32.255C26.9096 32.0966 27.0104 31.8806 26.9816 31.5854C26.9672 31.4486 26.9744 31.3046 26.9744 31.1606C26.9744 31.1174 26.9744 31.0742 26.9744 31.031H27.6728C27.6728 31.0742 27.6728 31.1102 27.6728 31.1534C27.6728 31.2974 27.68 31.4486 27.6656 31.5926C27.644 31.8878 27.7376 32.111 27.9608 32.2622L27.9824 32.2766H28.3424L28.364 32.2622C28.5872 32.1038 28.688 31.8878 28.6592 31.5926C28.6448 31.4558 28.652 31.3118 28.652 31.1678C28.652 31.1174 28.652 31.0742 28.652 31.0238H30.3512C30.38 31.0238 30.4088 31.0238 30.4448 31.0238C30.5168 31.0238 30.596 31.0238 30.6752 31.0238C30.9632 31.0094 31.1648 30.8078 31.172 30.5486C31.1792 30.275 30.9848 30.0806 30.6752 30.0446C30.5816 30.0302 30.488 30.023 30.3944 30.0158C30.1064 29.987 29.804 29.9582 29.5304 29.879C29.1992 29.7854 28.868 29.627 28.6016 29.4254C28.3712 29.2598 28.2488 29.0654 28.2416 28.871C28.2416 28.6694 28.364 28.4606 28.6088 28.2662C29.0768 27.899 29.6528 27.719 30.4304 27.6758C31.4456 27.6254 32.3312 27.215 32.9288 26.5238C33.512 25.8038 33.7784 24.8606 33.6632 23.8382ZM27.2552 28.7702C27.2408 29.2022 27.4208 29.6342 27.788 30.023H26.9456H25.0376C24.7136 30.023 24.3968 30.023 24.0728 30.023C23.3312 30.023 22.568 30.0302 21.8192 30.0158C20.804 30.0014 19.9832 29.2454 19.8608 28.2158C19.7456 27.2438 20.3936 26.3006 21.344 26.0558C21.6032 25.991 21.8912 25.9838 22.172 25.9766H22.208C23.0648 25.9622 23.6192 25.4078 23.6264 24.5582C23.6264 24.1334 23.6264 23.7086 23.6264 23.2838V22.7654L23.6984 22.7366C23.7848 22.7006 23.864 22.6718 23.9432 22.6358C25.9808 21.815 27.3632 19.7918 27.3848 17.5958C27.392 17.1062 27.392 16.6022 27.3848 16.1198C27.3848 15.911 27.3848 15.7022 27.3848 15.5006C27.392 15.5006 27.3992 15.4934 27.3992 15.4934C27.4424 15.479 27.4784 15.4646 27.5216 15.443C27.7304 15.3422 27.824 15.1622 27.7952 14.939C27.7592 14.6942 27.5936 14.5358 27.3632 14.5214C26.9888 14.507 26.6864 14.3198 26.3768 13.9238C25.916 13.3334 25.6136 12.599 25.4552 11.6846C25.3904 11.2814 25.3544 10.8638 25.3256 10.4606C25.3112 10.3094 25.304 10.1582 25.2896 10.007C25.2608 9.69022 25.0736 9.49582 24.8 9.49582C24.512 9.48862 24.3104 9.70462 24.3032 10.007C24.2816 11.5118 23.144 12.8078 21.524 13.1534C21.2864 13.2038 21.0344 13.2182 20.7824 13.2326C20.6456 13.2398 20.5016 13.247 20.3576 13.2686C20.0264 13.3046 19.7024 13.3406 19.364 13.3838C19.2416 13.3982 19.1192 13.4126 18.9896 13.427V13.3622C18.9896 13.2398 18.9896 13.1174 18.9896 12.9878C18.9824 12.6494 18.7952 12.4262 18.5 12.4262H18.4928C18.2048 12.4334 18.0176 12.6422 18.0104 12.9734C18.0104 13.067 18.0176 13.1606 18.0248 13.2542C18.0392 13.4486 18.0608 13.6358 17.9888 13.7654C17.924 13.8878 17.7656 13.967 17.6072 14.0534C17.5208 14.0966 17.4272 14.147 17.348 14.2046C17.0096 14.4422 16.7288 14.7014 16.5128 14.9894C16.5056 14.7158 16.448 14.4638 16.3904 14.1974C16.304 13.8158 16.2176 13.4198 16.2536 12.923C16.2968 12.275 16.376 11.7998 16.4552 11.339C16.5272 10.8998 16.6064 10.4462 16.6496 9.83422C16.6784 9.41662 16.6424 9.08542 16.6136 8.79742C16.5776 8.40862 16.5488 8.12782 16.7 7.85422C17.7152 6.48622 18.1904 6.40702 19.832 6.29902C21.1568 6.21262 22.2656 6.34942 23.2376 6.70942C23.6048 6.84622 23.9504 7.06942 24.2816 7.28542L24.4184 7.37902C24.5768 7.47982 24.8432 7.65982 25.0952 7.42942C25.5704 6.99742 26.1248 7.07662 26.6072 7.21342C27.86 7.55902 28.868 8.87662 28.904 10.2086C28.9328 11.3894 29.1992 12.5558 29.7248 13.7798L29.7392 13.8158C29.8832 14.1542 30.0344 14.5142 30.1136 14.8742C30.2648 15.6014 30.1208 16.3574 29.66 17.1854C29.5448 17.3942 29.4008 17.5958 29.2712 17.7902C29.2208 17.8622 29.1704 17.9342 29.12 18.0062C28.7024 18.6254 28.3136 19.3742 28.6088 20.303C28.8752 21.1238 29.6312 21.7214 30.4952 21.7862C31.7624 21.8798 32.576 22.7006 32.6768 23.9606C32.7344 24.7454 32.5688 25.3718 32.1512 25.8758C31.7192 26.4014 31.1864 26.6606 30.5312 26.675C29.6744 26.6894 28.9472 26.8766 28.3208 27.251C28.1624 27.3446 28.0112 27.4526 27.8888 27.5606C27.4928 27.9206 27.2696 28.3382 27.2552 28.7702ZM16.34 17.171C16.3544 18.6182 16.7144 19.8278 17.4128 20.7854C18.1112 21.7358 19.1624 22.4558 20.5448 22.9166C20.5592 23.291 20.5664 23.5214 20.4584 23.6294C20.3648 23.723 20.156 23.759 19.724 23.7446C19.2776 23.7302 18.8384 23.7302 18.3992 23.7302C17.9672 23.7302 17.5424 23.7374 17.1248 23.7446C15.7352 23.7806 14.6048 23.2046 13.7768 22.0238C12.488 20.2022 12.2936 18.611 13.1432 16.7174C13.1864 16.7246 13.2584 16.7462 13.3304 16.7606C13.8416 16.8902 15.044 17.1854 15.8144 16.6814C15.8576 16.6526 15.9008 16.6238 15.9368 16.5878C15.9296 16.8974 16.0376 17.0414 16.34 17.171ZM17.3408 16.4366C17.3408 16.3934 17.3408 16.343 17.3408 16.2926C17.348 16.2062 17.348 16.1198 17.3336 16.0334C17.2328 15.4646 17.5928 15.227 18.0104 14.9462C18.0176 14.939 18.0248 14.939 18.0248 14.9318C18.0248 14.9822 18.032 15.0326 18.0392 15.0758C18.0968 15.3422 18.2768 15.4934 18.5288 15.4862C18.788 15.479 18.9608 15.3278 19.004 15.0542C19.0256 14.9246 19.0256 14.8022 19.004 14.6942C18.9896 14.6006 18.9968 14.5358 19.0328 14.4926C19.0688 14.4422 19.1408 14.4134 19.2416 14.399C19.3856 14.3846 19.5296 14.3558 19.6664 14.3342C19.9544 14.291 20.2568 14.2406 20.552 14.2406C22.2224 14.219 23.5616 13.5566 24.5408 12.2678C24.584 12.3902 24.6272 12.5054 24.6632 12.6206C24.7856 12.9734 24.908 13.3118 25.052 13.643C25.3616 14.3414 25.772 14.8526 26.312 15.1982C26.3552 15.227 26.3984 15.299 26.3984 15.3422C26.3984 15.6014 26.3984 15.8678 26.3984 16.127C26.4056 16.7894 26.4056 17.4734 26.3408 18.1358C26.1464 20.1014 24.4832 21.7646 22.4744 22.0094C21.2864 22.1534 20.12 21.8654 19.184 21.1886C18.248 20.5118 17.6216 19.4966 17.4056 18.3302C17.3264 17.9054 17.3264 17.4662 17.3264 17.0342C17.348 16.8398 17.348 16.6382 17.3408 16.4366ZM19.4432 24.7166H19.5944C19.7528 24.7166 19.9112 24.7166 20.0696 24.7166C20.9768 24.7166 21.524 24.1766 21.5312 23.2694C21.5312 23.2046 21.5312 23.147 21.5312 23.0822V23.0534H22.2224V23.0894C22.2224 23.1686 22.2224 23.2478 22.2224 23.3342C22.2152 23.7014 22.3304 24.0182 22.5608 24.2702C22.6976 24.4214 22.676 24.587 22.5968 24.8102C22.5464 24.947 22.4168 25.0118 22.2152 25.0046C21.4016 24.9686 20.7536 25.1342 20.2352 25.5086C20.0048 25.6742 19.8032 25.8686 19.6016 26.063C19.5512 26.1134 19.5008 26.1638 19.4504 26.207V24.7166H19.4432Z" fill="black"/>
<path d="M21.5315 10.4534C21.5243 10.1294 21.3299 9.91339 21.0419 9.91339C20.7539 9.91339 20.5523 10.1294 20.5523 10.4534C20.5451 11.1158 20.5451 11.7854 20.5523 12.4406C20.5523 12.7646 20.7539 12.9806 21.0419 12.9806C21.3299 12.9806 21.5243 12.7646 21.5315 12.4406C21.5387 12.2102 21.5315 11.9726 21.5315 11.7494C21.5315 11.6486 21.5315 11.5478 21.5315 11.447C21.5315 11.3462 21.5315 11.2454 21.5315 11.1446C21.5315 10.9214 21.5315 10.6838 21.5315 10.4534Z" fill="black"/>
<path d="M20.2715 12.1022C20.2571 11.7998 20.0627 11.591 19.7819 11.591C19.5083 11.591 19.3067 11.7926 19.2923 12.1022C19.2851 12.1814 19.2923 12.2606 19.2923 12.3398V12.3902C19.2995 12.7646 19.4795 12.9806 19.7819 12.9878C19.7819 12.9878 19.7819 12.9878 19.7891 12.9878C20.0843 12.9878 20.2715 12.7646 20.2787 12.3974C20.2787 12.3614 20.2787 12.3326 20.2787 12.2966V12.2894C20.2787 12.2678 20.2787 12.2462 20.2787 12.2318C20.2715 12.1886 20.2715 12.1454 20.2715 12.1022Z" fill="black"/>
<path d="M18.5432 17.171C18.68 17.1782 18.8384 17.1782 18.9968 17.1782C19.1336 17.1782 19.2704 17.1782 19.4072 17.171C19.8824 17.1494 20.2784 16.7462 20.2712 16.2854C20.264 16.0262 20.1344 15.8534 19.8968 15.7958C19.6592 15.7382 19.4576 15.8318 19.3424 16.0622C19.3208 16.0982 19.3064 16.1414 19.292 16.1846C19.292 16.1918 19.2848 16.1918 19.2848 16.199C19.22 16.199 19.1552 16.199 19.0976 16.199C18.9176 16.199 18.7304 16.199 18.5504 16.199C18.248 16.2062 18.0392 16.4006 18.0392 16.6814C18.032 16.9622 18.2408 17.1638 18.5432 17.171Z" fill="black"/>
<path d="M24.3755 17.171C24.4979 17.1782 24.6203 17.1782 24.7427 17.1782C24.8795 17.1782 25.0235 17.1782 25.1603 17.171C25.3403 17.171 25.4915 17.1134 25.5923 17.0054C25.6787 16.919 25.7219 16.8038 25.7219 16.667C25.7147 16.3718 25.4987 16.1918 25.1531 16.1846C24.9875 16.1846 24.8147 16.1846 24.6491 16.1846H24.4763C24.4691 16.1702 24.4691 16.163 24.4619 16.1486C24.3323 15.839 24.0947 15.7022 23.8355 15.7886C23.5763 15.875 23.4467 16.1414 23.5187 16.4438C23.5979 16.8758 23.9507 17.1638 24.3755 17.171Z" fill="black"/>
<path d="M21.4375 20.5262C21.5383 20.5334 21.6319 20.5334 21.7327 20.5334C21.7759 20.5334 21.8192 20.5334 21.8624 20.5334C21.9056 20.5334 21.9488 20.5334 21.9992 20.5334C22.0496 20.5334 22.0928 20.5334 22.1432 20.5334C22.2008 20.5334 22.2583 20.5334 22.3159 20.5262C22.5967 20.5046 22.7984 20.2958 22.7912 20.0294C22.784 19.763 22.5896 19.5686 22.3232 19.5542C22.0352 19.5398 21.7471 19.5398 21.4519 19.5542C21.1711 19.5686 20.9695 19.7774 20.9767 20.051C20.9767 20.3102 21.1639 20.5046 21.4375 20.5262Z" fill="black"/>
<path d="M12.8985 15.407C12.9561 15.4574 13.1865 15.551 14.1297 15.8534C14.2593 15.8966 14.3961 15.9182 14.5257 15.9182C14.8065 15.9182 15.0873 15.8318 15.2673 15.6806C15.4329 15.5438 15.5121 15.3566 15.4833 15.1622C15.4689 15.0758 15.4401 14.9894 15.3969 14.8598C15.3105 14.5862 15.1377 14.075 14.9001 12.9086C14.8137 12.491 14.9433 12.0806 15.1017 11.555C15.3249 10.8134 15.6057 9.899 15.3825 8.5598C15.0585 6.6014 13.6905 5.507 13.4169 5.3054L13.4097 5.2982C12.4377 4.427 11.2425 3.9014 9.9393 3.7718C8.6433 3.6494 7.3617 3.9374 6.2457 4.607C6.0081 4.751 5.8785 4.8878 5.8425 5.039C5.8137 5.147 5.8425 5.255 5.9073 5.3702C6.1089 5.6942 6.4257 5.5718 6.7137 5.4134C8.5569 4.3838 10.3497 4.4054 12.0489 5.4638C13.7769 6.5438 14.5977 8.1494 14.4825 10.2446C14.4465 10.8998 14.2665 11.5262 13.9569 12.1166C13.7553 12.4982 13.7337 12.8654 13.8993 13.2542C14.0937 13.715 14.2737 14.1902 14.4393 14.6582L14.4969 14.8166C14.5113 14.8598 14.5113 14.9102 14.5041 14.9678C14.5041 14.975 14.5041 14.9822 14.5041 14.9822C14.4969 14.9822 14.4897 14.9822 14.4897 14.9822C14.4321 14.9822 14.3817 14.9894 14.3385 14.9678L14.1297 14.8886C13.6905 14.7302 13.2369 14.5646 12.8049 14.3774C12.4161 14.2118 12.0489 14.2262 11.6457 14.4206C10.3569 15.0614 8.9097 15.1406 7.5777 14.651C6.2601 14.1686 5.2161 13.1822 4.6545 11.879C3.9201 10.1798 4.0713 8.5094 5.1153 6.9182C5.1441 6.875 5.1729 6.8318 5.2089 6.7886C5.2305 6.7598 5.2449 6.7382 5.2665 6.7094C5.4681 6.4286 5.4465 6.155 5.2161 5.9894C4.9929 5.8238 4.7193 5.8886 4.5105 6.1622C3.9849 6.8534 3.6249 7.6238 3.4377 8.4446C3.3945 8.6318 3.3585 8.8262 3.3297 9.0062C3.3153 9.0926 3.3009 9.179 3.2793 9.2654V10.3814V10.403C3.2865 10.4246 3.2937 10.439 3.2937 10.4606C3.3081 10.4966 3.3153 10.5326 3.3225 10.5686C3.5601 12.5126 4.6833 14.183 6.4113 15.1406C8.1249 16.091 10.1193 16.163 11.8761 15.3422C12.3081 15.1262 12.5673 15.2486 12.8985 15.407Z" fill="black"/>
<path d="M6.97266 8.0486V9.0926C6.97266 10.4102 6.97266 11.7278 6.97266 13.0454C6.97266 13.6934 7.33266 14.0534 7.97346 14.0606C8.39826 14.0606 8.83026 14.0606 9.26226 14.0606C9.73746 14.0606 10.2055 14.0606 10.6663 14.0606H10.7959C11.5159 14.0606 11.8543 13.7222 11.8543 13.0022C11.8543 11.3462 11.8543 9.6902 11.8543 8.0342C11.8543 7.3502 11.6023 7.0478 10.9399 6.9326C10.9399 6.875 10.9399 6.8246 10.9399 6.767C10.9399 6.6086 10.9399 6.4502 10.9399 6.299C10.9327 5.7086 10.5799 5.3486 9.98946 5.3414C9.62226 5.3342 9.24786 5.3342 8.83746 5.3414C8.25426 5.3486 7.89426 5.7014 7.87986 6.2918C7.87986 6.4502 7.87986 6.6158 7.87986 6.7742C7.87986 6.8246 7.87986 6.875 7.87986 6.9254C7.20306 7.055 6.97266 7.343 6.97266 8.0486ZM8.83026 6.9254V6.2918H10.0039V6.9254H8.83026ZM7.92306 11.1662V7.8902H10.9111V11.1662H7.92306ZM7.91586 13.1174V12.1238H10.9111V13.1174H7.91586Z" fill="black"/>
<path d="M7.84424 12.0518C8.89544 12.0518 9.93224 12.0518 10.9834 12.0518C10.9834 12.4262 10.9834 12.8006 10.9834 13.1894C9.93944 13.1894 8.89544 13.1894 7.84424 13.1894C7.84424 12.8078 7.84424 12.4478 7.84424 12.0518Z" fill="#BE3455"/>
<defs>
<linearGradient id="paint0_linear_4430_27102" x1="26.3408" y1="24.6662" x2="16.7744" y2="25.615" gradientUnits="userSpaceOnUse">
<stop stop-color="#DFF9F8"/>
<stop offset="0.46875" stop-color="#D5F4E5"/>
<stop offset="1" stop-color="#AEE5E2"/>
</linearGradient>
</defs>
</svg>
