<svg width="37" height="36" viewBox="0 0 37 36" fill="none" xmlns="http://www.w3.org/2000/svg">
<rect x="0.5" y="-0.00109863" width="36" height="36" rx="18" fill="white"/>
<path d="M27.5 11.9989L27.494 14.9989L10.5 14.9759V11.9989H27.5Z" fill="url(#paint0_linear_4457_54975)"/>
<path d="M16.508 22.9312C16.6179 22.3017 16.807 21.9736 18.0702 22.0004C19.3334 22.0272 21.0787 22.0272 21.2861 22.3017C21.4936 22.5763 21.7011 23.6141 21.1275 23.815C20.5539 24.0159 17.4966 24.0695 17.1488 23.8887C16.807 23.7079 16.4409 23.3329 16.508 22.9312Z" fill="url(#paint1_linear_4457_54975)"/>
<path d="M9.59242 13.5441C9.61063 13.3559 9.61063 13.2042 9.64705 13.0646C9.76239 12.5728 10.1995 12.2268 10.7155 12.2208C11.2132 12.2147 11.711 12.2208 12.2088 12.2208C12.2088 12.1843 12.2209 12.154 12.2088 12.1358C11.4561 10.867 10.5151 9.80471 9.04607 9.33121C8.48759 9.14909 7.97767 8.86985 7.56487 8.45099C6.88498 7.77109 6.76964 6.79374 7.2917 5.99244C7.7045 5.35504 8.3419 5.18507 9.05214 5.27612C9.81095 5.37325 10.4119 5.76783 10.9219 6.32632C11.0918 6.50843 11.0858 6.73304 10.9279 6.87873C10.764 7.02442 10.5576 7.01835 10.3755 6.83017C10.0052 6.44773 9.59242 6.1442 9.05214 6.03493C8.53008 5.93174 8.08694 6.0835 7.88661 6.43559C7.61951 6.91515 7.662 7.44936 8.01409 7.84394C8.32976 8.2021 8.73648 8.43885 9.17962 8.57847C10.9704 9.14302 12.1117 10.4118 12.9858 11.9962C13.0769 12.1661 13.1801 12.2208 13.3683 12.2208C15.8754 12.2147 18.3825 12.2147 20.8835 12.2147C20.9564 12.2147 21.0292 12.2147 21.1446 12.2147C21.1021 12.1661 21.0838 12.1418 21.0596 12.1236C19.6148 11.2252 18.6557 9.92004 17.9515 8.39635C17.6965 7.84394 17.393 7.30367 17.0713 6.78767C16.9316 6.56307 16.701 6.38702 16.4824 6.22919C16.2396 6.05315 15.9604 6.00458 15.6872 6.18063C15.414 6.35667 15.323 6.64198 15.3776 6.94551C15.4383 7.24296 15.5597 7.52827 15.6629 7.81359C15.8086 8.20817 15.9968 8.59061 16.1 8.99733C16.2335 9.50725 15.9786 9.92612 15.4869 10.1264C14.9405 10.345 14.4124 10.2661 13.8964 10.0354C13.2711 9.75614 12.7551 9.33121 12.2695 8.86378C11.9903 8.59668 11.7171 8.31137 11.45 8.03212C11.2254 7.80145 11.2072 7.59505 11.3832 7.42508C11.5593 7.2551 11.7717 7.30974 12.0085 7.52827C12.5366 8.03212 13.0526 8.54812 13.6232 8.99733C13.9146 9.22801 14.3153 9.33121 14.6673 9.48904C14.7098 9.50725 14.7645 9.50725 14.813 9.50725C15.3412 9.51332 15.4808 9.32514 15.2926 8.83343C15.1166 8.38421 14.9102 7.95321 14.7341 7.50399C14.5702 7.07906 14.5581 6.64805 14.7341 6.21705C15.0255 5.48859 15.76 5.15471 16.5067 5.41574C17.0288 5.59786 17.4355 5.94995 17.7269 6.39916C18.0486 6.89694 18.3339 7.42508 18.5828 7.96535C19.1049 9.11267 19.7544 10.1629 20.7378 10.9702C21.7334 11.7837 22.8504 12.2572 24.1616 12.2147C24.9993 12.1904 25.837 12.2086 26.6748 12.2086C27.47 12.2086 27.901 12.6214 27.9374 13.4227C27.9374 13.447 27.9435 13.4713 27.9556 13.5381C28.077 13.5381 28.2045 13.5381 28.3381 13.5381C29.0908 13.5563 29.5704 14.0723 29.4915 14.8129C29.2669 16.8647 28.6902 18.789 27.385 20.4402C27.1786 20.7012 26.9297 20.9198 26.7173 21.1747C26.6262 21.284 26.5291 21.4358 26.5169 21.5754C26.3045 24.0036 26.0981 26.4318 25.8977 28.866C25.8006 30.0437 25.0539 30.7418 23.8763 30.7418C21.6666 30.7418 19.463 30.7418 17.2534 30.7418C17.1684 30.7418 17.0834 30.754 17.0045 30.7357C16.8042 30.6932 16.6827 30.5658 16.6888 30.3472C16.701 30.1469 16.8224 30.0316 17.0166 30.0012C17.0895 29.9891 17.1684 29.9951 17.2412 29.9951C19.4387 29.9951 21.6363 29.9951 23.8398 29.9951C24.6715 29.9951 25.0843 29.6006 25.1511 28.7689C25.321 26.6685 25.5092 24.5681 25.6853 22.4738C25.6974 22.316 25.7035 22.1581 25.7156 21.9821C25.6489 22.0064 25.6003 22.0185 25.5639 22.0428C24.4226 22.7166 23.1721 23.0019 21.8548 23.0262C21.6848 23.0262 21.5998 23.0748 21.5209 23.2387C21.272 23.7425 20.835 23.955 20.2825 23.955C19.2688 23.955 18.255 23.955 17.2473 23.955C17.1866 23.955 17.132 23.9489 17.0713 23.9489C16.5674 23.9064 16.1971 23.6515 15.9846 23.1962C15.9239 23.0687 15.8572 23.0323 15.7236 23.0323C14.4245 23.0141 13.1922 22.7409 12.051 22.0974C12.0145 22.0792 11.9781 22.0671 11.9174 22.0428C11.9842 22.8684 12.051 23.6636 12.1177 24.4649C12.2452 25.9279 12.3727 27.3909 12.4941 28.8539C12.5548 29.5823 12.9858 30.0012 13.7203 30.0073C14.3031 30.0073 14.8798 30.0073 15.4626 30.0073C15.754 30.0073 15.9239 30.1469 15.93 30.3776C15.93 30.6083 15.76 30.754 15.4747 30.754C14.8495 30.754 14.2303 30.76 13.605 30.754C12.6155 30.7418 11.8385 30.0134 11.7535 29.0239C11.5471 26.62 11.3468 24.216 11.1465 21.8061C11.1282 21.5754 11.0615 21.3993 10.8733 21.2294C9.59242 20.0638 8.85789 18.5705 8.42081 16.9254C8.24477 16.2455 8.12943 15.5474 8.02623 14.8493C7.91696 14.139 8.41474 13.5805 9.13106 13.5502C9.29496 13.5381 9.43458 13.5441 9.59242 13.5441ZM26.2741 15.6202C25.6488 15.6202 25.06 15.6202 24.4712 15.6202C24.1312 15.6202 23.7913 15.6263 23.4513 15.6142C23.2328 15.6081 23.1175 15.4806 23.0932 15.2742C23.0689 15.086 23.2207 14.91 23.4271 14.8796C23.4999 14.8675 23.5788 14.8736 23.6517 14.8736C24.6533 14.8736 25.661 14.8736 26.6626 14.8736C27.0936 14.8736 27.1968 14.7643 27.1968 14.3272C27.1968 14.0723 27.1968 13.8112 27.1968 13.5563C27.1968 13.0706 27.0997 12.9735 26.6141 12.9735C22.0673 12.9735 17.5205 12.9735 12.9737 12.9735C12.2513 12.9735 11.5289 12.9735 10.8065 12.9735C10.4969 12.9735 10.3694 13.101 10.3634 13.4106C10.3573 13.708 10.3634 14.0055 10.3634 14.309C10.3634 14.7886 10.4484 14.8796 10.9219 14.8796C14.5217 14.8796 18.1275 14.8796 21.7273 14.8796C21.8184 14.8796 21.9094 14.8736 22.0005 14.8857C22.213 14.9161 22.3465 15.0739 22.3283 15.2803C22.3101 15.4928 22.1826 15.6081 21.9701 15.6263C21.8791 15.6324 21.788 15.6324 21.697 15.6324C18.3582 15.6324 15.0255 15.6324 11.6867 15.6324C11.5896 15.6324 11.4925 15.6324 11.3893 15.6324C11.3893 15.6991 11.3893 15.7356 11.3893 15.7659C11.535 17.4657 11.6746 19.1715 11.8264 20.8712C11.8385 20.9744 11.9113 21.108 12.0024 21.1687C13.1376 21.9639 14.4124 22.2735 15.7782 22.2856C15.845 22.2856 15.9421 22.2006 15.9786 22.1339C16.2275 21.6543 16.6099 21.3872 17.1502 21.3811C18.2307 21.3751 19.3052 21.3751 20.3857 21.3811C20.926 21.3872 21.3145 21.6482 21.5513 22.1339C21.6059 22.2492 21.6605 22.2978 21.788 22.2917C23.1357 22.2613 24.3923 21.9517 25.5274 21.1869C25.752 21.0351 25.837 20.8591 25.8552 20.598C25.922 19.6692 26.007 18.7465 26.0859 17.8238C26.1527 17.0954 26.2134 16.379 26.2741 15.6202ZM11.0251 20.2338C10.8915 18.698 10.764 17.1561 10.6305 15.6324C9.90201 15.4745 9.58635 15.0193 9.60456 14.2969C9.45887 14.2969 9.33746 14.2908 9.21605 14.2969C8.89431 14.309 8.73648 14.479 8.79718 14.8007C8.94895 15.5777 9.07643 16.3669 9.28889 17.1318C9.61063 18.2852 10.163 19.3414 11.0251 20.2338ZM26.6444 20.161C27.2332 19.5175 27.7796 18.5523 28.1377 17.5385C28.4534 16.634 28.6598 15.7113 28.7569 14.7582C28.7812 14.5458 28.7205 14.3636 28.4898 14.3211C28.3199 14.2908 28.1378 14.3151 27.9617 14.3151C27.8949 15.0253 27.6946 15.3713 27.2211 15.5413C27.0511 15.602 27.0147 15.687 27.0026 15.8448C26.9297 16.7615 26.8508 17.6781 26.7719 18.5948C26.7294 19.0925 26.693 19.5903 26.6444 20.161ZM18.7649 22.1217C18.2611 22.1217 17.7511 22.1217 17.2473 22.1217C16.8649 22.1217 16.6342 22.3281 16.6281 22.6499C16.622 22.9777 16.8527 23.1962 17.2352 23.1962C18.2611 23.2023 19.2931 23.2023 20.319 23.1962C20.6893 23.1962 20.9321 22.9716 20.926 22.6499C20.9199 22.3342 20.6771 22.1217 20.3068 22.1217C19.7908 22.1157 19.2809 22.1217 18.7649 22.1217Z" fill="black"/>
<path d="M24.1311 8.96699C24.1068 9.64688 23.7668 10.3571 23.2812 11.0067C23.2084 11.1038 22.9777 11.1766 22.8745 11.1342C22.0914 10.8003 21.4054 10.3268 20.9866 9.55583C20.6223 8.882 20.7195 8.12926 21.2112 7.58899C21.6725 7.08514 22.4131 6.9091 23.0566 7.15799C23.7365 7.42509 24.1432 8.05035 24.1311 8.96699ZM22.8684 10.3146C23.178 9.77437 23.433 9.2523 23.3723 8.63311C23.3358 8.23246 23.0687 7.92894 22.6742 7.82574C22.316 7.72861 21.9275 7.86216 21.7089 8.17176C21.4479 8.54206 21.4722 8.91843 21.7029 9.28873C21.976 9.73794 22.3888 10.0354 22.8684 10.3146Z" fill="black"/>
<path d="M18.844 21.2657C20.3997 21.2657 21.6608 20.0047 21.6608 18.449C21.6608 16.8934 20.3997 15.6323 18.844 15.6323C17.2884 15.6323 16.0273 16.8934 16.0273 18.449C16.0273 20.0047 17.2884 21.2657 18.844 21.2657Z" fill="#BE3455"/>
<path d="M18.8443 20.3309C19.8836 20.3309 20.7261 19.4884 20.7261 18.4491C20.7261 17.4097 19.8836 16.5672 18.8443 16.5672C17.8049 16.5672 16.9624 17.4097 16.9624 18.4491C16.9624 19.4884 17.8049 20.3309 18.8443 20.3309Z" fill="white"/>
<path d="M18.8442 19.6267C19.4946 19.6267 20.0219 19.0994 20.0219 18.449C20.0219 17.7986 19.4946 17.2714 18.8442 17.2714C18.1938 17.2714 17.6665 17.7986 17.6665 18.449C17.6665 19.0994 18.1938 19.6267 18.8442 19.6267Z" fill="#BE3455"/>
<path d="M12.7979 19.2503L11.2074 19.9849L8.72461 16.6218L4.14746 19.05C4.14746 19.05 8.84602 24.0521 9.05848 24.2888C9.21025 24.4528 9.36201 24.5377 9.62304 24.4042C9.92049 24.2524 10.7218 23.9003 10.8129 23.8578C11.171 23.7243 11.3956 23.8396 11.7781 24.0642L15.4871 26.6381L15.6692 26.4985L12.7979 19.2503ZM13.3564 23.955C12.7676 23.5483 12.1605 23.1233 11.5656 22.7045C11.4624 22.6316 11.3653 22.5952 11.2681 22.5952C11.1953 22.5952 11.1224 22.6134 11.0375 22.6559C10.7582 22.7955 10.4668 22.923 10.1876 23.0505C9.99941 23.1355 9.81122 23.2204 9.62304 23.3115C9.54412 23.3479 9.53198 23.3419 9.48949 23.2933C8.59713 22.3402 7.68655 21.375 6.80633 20.4402C6.45425 20.0699 6.10216 19.6935 5.75007 19.3232C5.75007 19.3232 5.75007 19.3232 5.75007 19.3171L8.3968 17.9148L10.6732 21.3265L12.2576 20.5919L13.6781 24.1857L13.3564 23.955Z" fill="black"/>
<path d="M5.56787 19.2807C6.52701 18.7708 7.474 18.2669 8.43921 17.757C9.20409 18.8983 9.95683 20.0274 10.7217 21.1747C11.2559 20.9258 11.784 20.683 12.3304 20.4341C12.8646 21.7818 13.3867 23.1112 13.933 24.4892C13.8359 24.4285 13.7752 24.3981 13.7205 24.3617C12.9799 23.8457 12.2333 23.3358 11.4987 22.8137C11.3652 22.7166 11.2559 22.6984 11.0981 22.7773C10.6307 23.008 10.1511 23.2144 9.67759 23.4329C9.56832 23.4876 9.49548 23.4876 9.40442 23.3844C8.1539 22.0549 6.90945 20.7316 5.665 19.4082C5.62858 19.3718 5.60429 19.3293 5.56787 19.2807Z" fill="#BE3455"/>
<defs>
<linearGradient id="paint0_linear_4457_54975" x1="27.5" y1="11.9989" x2="12.4654" y2="19.1379" gradientUnits="userSpaceOnUse">
<stop stop-color="#DFF9F8"/>
<stop offset="0.46875" stop-color="#D5F4E5"/>
<stop offset="1" stop-color="#AEE5E2"/>
</linearGradient>
<linearGradient id="paint1_linear_4457_54975" x1="21.5" y1="21.9989" x2="16.3088" y2="23.0864" gradientUnits="userSpaceOnUse">
<stop stop-color="#DFF9F8"/>
<stop offset="0.46875" stop-color="#D5F4E5"/>
<stop offset="1" stop-color="#AEE5E2"/>
</linearGradient>
</defs>
</svg>
