<svg width="37" height="36" viewBox="0 0 37 36" fill="none" xmlns="http://www.w3.org/2000/svg">
<g clip-path="url(#clip0_4457_55079)">
<rect x="0.5" y="-0.00109863" width="36" height="36" rx="18" fill="white"/>
<path d="M20.9842 10.4605C22.1794 9.6973 23.425 9.1429 24.7354 8.7325C27.2122 7.9477 29.7394 7.6453 32.3314 7.8757C32.6986 7.9117 32.9002 8.1205 32.9002 8.5093C32.9074 9.2941 32.9002 10.0861 32.9002 10.8709C32.9002 14.8597 32.9002 18.8557 32.9002 22.8445C32.9002 23.4709 32.6842 23.6509 32.0578 23.6077C28.1122 23.3413 24.4258 24.1549 21.0922 26.3437C19.393 27.4669 17.6146 28.4173 15.613 28.8637C12.517 29.5549 9.493 29.3173 6.5554 28.1077C5.9218 27.8485 5.3458 27.4741 4.8634 26.9773C4.3666 26.4661 4.1074 25.8685 4.1074 25.1341C4.1146 20.4181 4.1218 15.7093 4.1002 10.9933C4.093 10.0141 4.4818 9.2797 5.209 8.6893C6.0442 8.0125 7.0234 7.6021 8.053 7.3357C11.221 6.5077 14.389 6.5221 17.5282 7.4941C18.0178 7.6453 18.493 7.8541 18.9466 8.0917C19.9186 8.6029 20.7466 9.2653 20.9842 10.4605ZM31.7626 8.9341C31.309 8.9341 30.8842 8.9125 30.4666 8.9413C29.6746 8.9917 28.8754 9.0205 28.0906 9.1285C25.7074 9.4669 23.4754 10.2157 21.4306 11.5045C20.7394 11.9437 20.149 12.5053 19.4938 12.9805C19.2634 13.1461 18.9034 13.2253 18.781 13.4485C18.6514 13.6717 18.7522 14.0101 18.7378 14.3053C18.7234 14.6293 18.4858 14.8597 18.1834 14.8597C17.8666 14.8597 17.6362 14.6293 17.6146 14.2837C17.6074 14.1613 17.6146 14.0317 17.6146 13.8805C17.3698 13.9525 17.1754 14.0173 16.981 14.0677C14.5258 14.7157 12.0418 14.7949 9.5434 14.3773C8.0242 14.1253 6.5698 13.6861 5.3026 12.7645C5.2954 12.7573 5.2738 12.7717 5.245 12.7789C5.245 12.8797 5.245 12.9805 5.245 13.0813C5.245 17.0701 5.2522 21.0661 5.2378 25.0549C5.2378 25.5877 5.4034 26.0341 5.821 26.3221C6.3322 26.6749 6.8722 27.0061 7.441 27.2509C8.4994 27.7045 9.6226 27.8917 10.7674 28.0213C12.9202 28.2661 15.001 28.0213 17.0386 27.2653C17.449 27.1141 17.7298 26.9413 17.6146 26.4517C17.6074 26.4157 17.6146 26.3797 17.6218 26.3365C17.665 26.0917 17.8738 25.8901 18.1186 25.8685C18.3778 25.8469 18.5722 25.9621 18.6874 26.1997C18.7234 26.2717 18.7378 26.3509 18.7738 26.4445C18.8674 26.3941 18.9538 26.3581 19.033 26.3077C19.8106 25.8253 20.5738 25.3141 21.3658 24.8533C24.4258 23.0749 27.7522 22.3549 31.273 22.4269C31.4386 22.4269 31.6042 22.4269 31.777 22.4269C31.7626 17.9341 31.7626 13.4629 31.7626 8.9341ZM12.3658 13.5061C13.993 13.4917 15.4258 13.3477 16.8154 12.9373C17.7154 12.6709 18.5938 12.3325 19.3066 11.6917C20.0266 11.0437 20.0266 10.3525 19.3138 9.6973C19.2418 9.6325 19.177 9.5605 19.0978 9.5173C18.565 9.2293 18.0538 8.8765 17.485 8.6821C14.5546 7.6741 11.5666 7.6453 8.5714 8.3653C7.5634 8.6101 6.5986 8.9701 5.7994 9.6613C5.0362 10.3309 5.0362 11.0365 5.7922 11.7133C6.2746 12.1453 6.8434 12.4333 7.441 12.6565C9.0898 13.2901 10.8034 13.4845 12.3658 13.5061Z" fill="black"/>
<path d="M31.7626 8.9341C31.7626 13.4629 31.7626 17.9413 31.7626 22.4341C31.5898 22.4341 31.4242 22.4341 31.2586 22.4341C27.7378 22.3621 24.4186 23.0821 21.3514 24.8605C20.5594 25.3213 19.7962 25.8325 19.0186 26.3149C18.9394 26.3653 18.853 26.4013 18.7594 26.4517C18.7306 26.3653 18.709 26.2861 18.673 26.2069C18.5578 25.9693 18.3706 25.8541 18.1042 25.8757C17.8594 25.8973 17.6506 26.0917 17.6074 26.3437C17.6002 26.3797 17.593 26.4229 17.6002 26.4589C17.7082 26.9485 17.4346 27.1213 17.0242 27.2725C14.9938 28.0285 12.9058 28.2733 10.753 28.0285C9.61536 27.8989 8.48496 27.7117 7.42656 27.2581C6.85776 27.0133 6.31776 26.6821 5.80656 26.3293C5.38896 26.0413 5.21616 25.5949 5.22336 25.0621C5.23776 21.0733 5.23056 17.0773 5.23056 13.0885C5.23056 12.9877 5.23056 12.8797 5.23056 12.7861C5.25936 12.7789 5.28096 12.7645 5.28816 12.7717C6.55536 13.6933 8.00976 14.1325 9.52896 14.3845C12.0274 14.7949 14.5114 14.7229 16.9666 14.0749C17.161 14.0245 17.3626 13.9597 17.6002 13.8877C17.6002 14.0389 17.593 14.1613 17.6002 14.2909C17.6146 14.6293 17.8522 14.8669 18.169 14.8669C18.4714 14.8669 18.709 14.6365 18.7234 14.3125C18.7378 14.0245 18.637 13.6789 18.7666 13.4557C18.889 13.2397 19.249 13.1605 19.4794 12.9877C20.1346 12.5125 20.725 11.9509 21.4162 11.5117C23.4682 10.2229 25.7002 9.4669 28.0762 9.1357C28.861 9.0277 29.6602 8.9917 30.4522 8.9485C30.8842 8.9125 31.3018 8.9341 31.7626 8.9341ZM10.177 26.8333C10.573 26.8477 10.825 26.6461 10.861 26.3437C10.897 26.0197 10.6882 25.7749 10.321 25.7101C9.21936 25.5229 8.13936 25.2853 7.21056 24.6013C6.98736 24.4357 6.67776 24.5077 6.49776 24.7093C6.31776 24.9181 6.31056 25.2133 6.49056 25.4293C6.57696 25.5301 6.67776 25.6165 6.78576 25.6885C7.84416 26.3581 9.03216 26.6389 10.177 26.8333ZM18.7306 16.8757C18.7306 16.6885 18.7378 16.5013 18.7306 16.3141C18.7162 15.9757 18.4714 15.7453 18.1546 15.7525C17.8522 15.7597 17.6146 15.9901 17.6074 16.3141C17.6002 16.6885 17.6002 17.0629 17.6074 17.4373C17.6146 17.7613 17.8522 17.9917 18.1546 17.9989C18.4642 18.0061 18.7162 17.7685 18.7306 17.4373C18.7378 17.2501 18.7306 17.0629 18.7306 16.8757ZM18.7306 20.2597C18.7306 20.0941 18.7306 19.9213 18.7306 19.7557C18.7234 19.3813 18.493 19.1293 18.1618 19.1293C17.8378 19.1365 17.6146 19.3813 17.6074 19.7413C17.6002 20.0869 17.6002 20.4325 17.6074 20.7781C17.6146 21.1309 17.8522 21.3829 18.1762 21.3757C18.4858 21.3685 18.7162 21.1309 18.7306 20.7925C18.7378 20.6125 18.7306 20.4325 18.7306 20.2597ZM17.6074 23.6077C17.6074 23.8021 17.6002 24.0037 17.6074 24.1981C17.6218 24.5149 17.8594 24.7525 18.1618 24.7525C18.4642 24.7525 18.7162 24.5293 18.7234 24.2053C18.7378 23.8237 18.7378 23.4421 18.7234 23.0605C18.7162 22.7365 18.4714 22.5133 18.169 22.5061C17.8594 22.5061 17.6146 22.7437 17.6074 23.0749C17.6002 23.2477 17.6074 23.4277 17.6074 23.6077ZM12.5386 25.8757C12.2362 25.8829 11.9914 26.1277 11.9842 26.4301C11.9842 26.7397 12.2434 26.9989 12.553 26.9989C12.8626 26.9917 13.1146 26.7253 13.1074 26.4157C13.093 26.1133 12.8338 25.8685 12.5386 25.8757Z" fill="url(#paint0_linear_4457_55079)"/>
<path d="M12.3656 13.5061C10.796 13.4845 9.08964 13.2901 7.44804 12.6637C6.85044 12.4333 6.28164 12.1525 5.79924 11.7205C5.05044 11.0437 5.04324 10.3309 5.80644 9.66848C6.60564 8.97008 7.57044 8.61008 8.57844 8.37248C11.5736 7.65248 14.5544 7.67408 17.492 8.68928C18.0608 8.88368 18.572 9.24368 19.1048 9.52448C19.184 9.56768 19.2488 9.63968 19.3208 9.70448C20.0264 10.3669 20.0264 11.0509 19.3136 11.6989C18.6008 12.3397 17.7296 12.6781 16.8224 12.9445C15.4256 13.3477 13.9928 13.4917 12.3656 13.5061ZM12.8696 12.3901C13.1864 12.3541 13.82 12.3325 14.4248 12.1885C14.9432 12.0661 15.476 11.8789 15.9224 11.6053C16.6928 11.1301 16.6712 10.2805 15.9224 9.76928C15.656 9.58928 15.3464 9.44528 15.044 9.35168C13.6544 8.93408 12.236 8.91248 10.8176 9.15728C10.184 9.26528 9.57204 9.43088 9.06084 9.84848C8.45604 10.3381 8.44884 11.0653 9.06804 11.5405C9.31284 11.7277 9.60804 11.8789 9.90324 11.9869C10.7528 12.3037 11.6528 12.3685 12.8696 12.3901Z" fill="url(#paint1_linear_4457_55079)"/>
<path d="M10.1769 26.8333C9.03209 26.6461 7.84409 26.3653 6.79289 25.6885C6.68489 25.6165 6.58409 25.5301 6.49769 25.4293C6.31049 25.2133 6.31769 24.9181 6.50489 24.7093C6.68489 24.5005 6.99449 24.4357 7.21769 24.6013C8.14649 25.2781 9.22649 25.5157 10.3281 25.7101C10.6881 25.7749 10.9041 26.0197 10.8681 26.3437C10.8249 26.6461 10.5729 26.8405 10.1769 26.8333Z" fill="black"/>
<path d="M18.7307 16.8757C18.7307 17.0629 18.7379 17.2501 18.7307 17.4373C18.7163 17.7685 18.4643 18.0061 18.1547 17.9989C17.8523 17.9917 17.6219 17.7541 17.6075 17.4373C17.6003 17.0629 17.6003 16.6885 17.6075 16.3141C17.6147 15.9901 17.8523 15.7597 18.1547 15.7525C18.4643 15.7453 18.7091 15.9829 18.7307 16.3141C18.7379 16.5013 18.7307 16.6885 18.7307 16.8757Z" fill="black"/>
<path d="M18.7307 20.2597C18.7307 20.4397 18.7379 20.6125 18.7307 20.7925C18.7163 21.1309 18.4859 21.3757 18.1763 21.3757C17.8523 21.3829 17.6147 21.1309 17.6075 20.7781C17.6003 20.4325 17.6003 20.0869 17.6075 19.7413C17.6147 19.3813 17.8379 19.1365 18.1619 19.1293C18.4931 19.1221 18.7235 19.3741 18.7307 19.7557C18.7307 19.9213 18.7307 20.0869 18.7307 20.2597Z" fill="black"/>
<path d="M17.6072 23.6077C17.6072 23.4277 17.6 23.2549 17.6072 23.0749C17.6216 22.7365 17.8592 22.4989 18.1688 22.5061C18.4712 22.5061 18.716 22.7365 18.7232 23.0605C18.7376 23.4421 18.7376 23.8237 18.7232 24.2053C18.7088 24.5221 18.464 24.7525 18.1616 24.7525C17.8592 24.7525 17.6216 24.5221 17.6072 24.1981C17.6 23.9965 17.6072 23.8021 17.6072 23.6077Z" fill="black"/>
<path d="M12.5388 25.8757C12.8412 25.8685 13.0932 26.1133 13.1076 26.4157C13.122 26.7253 12.8628 26.9917 12.5532 26.9989C12.2436 27.0061 11.9844 26.7469 11.9844 26.4301C11.9844 26.1277 12.2364 25.8757 12.5388 25.8757Z" fill="black"/>
<path d="M12.8699 12.3901C11.6531 12.3757 10.7603 12.3037 9.90353 11.9869C9.60833 11.8789 9.31313 11.7277 9.06833 11.5405C8.44913 11.0653 8.44913 10.3381 9.06113 9.84847C9.57233 9.43807 10.1915 9.27247 10.8179 9.15727C12.2363 8.91247 13.6547 8.92687 15.0443 9.35167C15.3539 9.44527 15.6563 9.58927 15.9227 9.76927C16.6715 10.2805 16.6931 11.1301 15.9227 11.6053C15.4691 11.8861 14.9435 12.0733 14.4251 12.1885C13.8203 12.3253 13.1867 12.3469 12.8699 12.3901ZM15.2603 10.7053C14.2379 9.91327 10.5659 9.98527 9.84593 10.7125C10.8755 11.4325 14.1371 11.4325 15.2603 10.7053Z" fill="black"/>
<path d="M15.2601 10.7053C14.1297 11.4397 10.8681 11.4325 9.8457 10.7125C10.5729 9.98531 14.2377 9.9061 15.2601 10.7053Z" fill="url(#paint2_linear_4457_55079)"/>
</g>
<defs>
<linearGradient id="paint0_linear_4457_55079" x1="31.7626" y1="8.92767" x2="3.38035" y2="12.2164" gradientUnits="userSpaceOnUse">
<stop stop-color="#DFF9F8"/>
<stop offset="0.46875" stop-color="#D5F4E5"/>
<stop offset="1" stop-color="#AEE5E2"/>
</linearGradient>
<linearGradient id="paint1_linear_4457_55079" x1="19.8491" y1="7.87396" x2="4.72619" y2="11.162" gradientUnits="userSpaceOnUse">
<stop stop-color="#DFF9F8"/>
<stop offset="0.46875" stop-color="#D5F4E5"/>
<stop offset="1" stop-color="#AEE5E2"/>
</linearGradient>
<linearGradient id="paint2_linear_4457_55079" x1="15.2601" y1="10.136" x2="10.2214" y2="12.1803" gradientUnits="userSpaceOnUse">
<stop stop-color="#DFF9F8"/>
<stop offset="0.46875" stop-color="#D5F4E5"/>
<stop offset="1" stop-color="#AEE5E2"/>
</linearGradient>
<clipPath id="clip0_4457_55079">
<rect x="0.5" y="-0.00109863" width="36" height="36" rx="18" fill="white"/>
</clipPath>
</defs>
</svg>
