<svg width="37" height="36" viewBox="0 0 37 36" fill="none" xmlns="http://www.w3.org/2000/svg">
<rect x="0.5" y="-0.000976562" width="36" height="36" rx="18" fill="white"/>
<path d="M17.1248 21.3686C16.6712 21.5054 16.2248 21.6134 15.8072 21.7862C15.692 21.8294 15.6128 22.067 15.6056 22.2182C15.5984 22.4198 15.7568 22.5782 15.9656 22.5638C16.232 22.5422 16.5056 22.4846 16.7504 22.391C17.0024 22.2902 17.2256 22.2614 17.4776 22.391C17.9672 22.6502 18.4712 22.6502 18.9608 22.391C19.2056 22.2614 19.4288 22.283 19.688 22.391C19.904 22.4846 20.1488 22.5494 20.3864 22.571C20.6384 22.5998 20.8184 22.463 20.8472 22.1894C20.876 21.9374 20.7248 21.7574 20.444 21.707C20.3216 21.6854 20.192 21.6638 20.084 21.6134C19.58 21.3542 19.076 21.347 18.572 21.6134C18.3344 21.7358 18.1112 21.7214 17.8736 21.6134C17.636 21.5054 17.3768 21.4478 17.1248 21.3686ZM30.6536 8.67502C30.6608 8.20702 30.3008 8.01982 29.9408 8.22862C29.0696 8.72542 28.1984 9.22942 27.3344 9.73342C27.068 9.89182 26.9888 10.1222 27.1112 10.3454C27.248 10.583 27.5 10.6478 27.7664 10.4966C28.6448 9.99262 29.5232 9.48862 30.3944 8.97742C30.524 8.89822 30.6032 8.73982 30.6536 8.67502ZM9.5144 10.5974C9.6224 10.4822 9.7736 10.3742 9.8456 10.2302C9.9464 9.99982 9.824 9.81982 9.6224 9.69742C8.7728 9.20782 7.9232 8.71102 7.0664 8.22142C6.7928 8.06302 6.5336 8.12782 6.4112 8.35822C6.2888 8.59582 6.368 8.82622 6.6488 8.98462C7.484 9.46702 8.3192 9.94942 9.1544 10.4318C9.2336 10.4894 9.3416 10.5254 9.5144 10.5974Z" fill="white"/>
<path d="M26.3263 29.5622C25.7647 29.3246 25.1959 29.0942 24.6343 28.8566C23.8855 28.547 23.1151 28.223 22.3591 27.9062C21.8551 27.6974 21.6247 27.3518 21.6319 26.8118C21.6391 26.243 21.6463 25.6886 21.6247 25.1342C21.6247 25.0334 21.6319 24.9758 21.6535 24.9542C21.6679 24.9398 21.7111 24.9182 21.8263 24.9182C22.9639 24.9326 24.1231 24.9254 25.2391 24.9254H25.5487C25.7431 24.9254 25.9879 24.9254 26.2111 24.875C27.3559 24.6302 28.0759 23.7086 28.0759 22.463C28.0831 20.2382 28.0831 17.8694 28.0687 15.515C28.0687 14.9678 28.0255 14.4206 27.9463 13.895C27.6727 12.0662 26.8879 10.4318 25.6207 9.02061C25.5271 8.91981 25.5271 8.89101 25.6135 8.78301C25.9807 8.30781 26.4127 7.75341 26.8015 7.17741C26.9095 7.02621 27.0175 6.70221 26.9239 6.50781C26.8231 6.30621 26.5063 6.20541 26.3263 6.19101C26.0527 6.16221 25.7719 6.16941 25.5055 6.17661C25.3831 6.17661 25.2607 6.18381 25.1455 6.18381C25.1095 6.18381 25.0663 6.18381 25.0231 6.17661L25.1239 5.75901C25.2751 5.09661 25.4263 4.44141 25.5775 3.79341C25.6423 3.49821 25.6711 3.13821 25.2895 2.97981C24.8719 2.80701 24.6415 3.11661 24.5191 3.28941C24.2239 3.68541 23.9359 4.07421 23.6407 4.46301C23.1799 5.07501 22.7047 5.70861 22.2439 6.34221C22.1215 6.50781 22.0567 6.52221 21.8551 6.45021C20.1199 5.78781 18.3199 5.65101 16.5199 6.04701C15.9583 6.16941 15.4255 6.34941 14.8567 6.53661C14.6335 6.60861 14.4031 6.68781 14.1727 6.75981C14.1511 6.73101 14.1295 6.68781 14.1079 6.65181C13.8055 6.13341 13.5103 5.61501 13.2079 5.09661L12.6823 4.18941C12.5095 3.89421 12.3439 3.72861 12.1711 3.68541C12.0487 3.64941 11.9191 3.67821 11.7823 3.75741C11.3647 4.00221 11.5303 4.41981 11.7247 4.75821L13.0711 7.09101C13.1215 7.17741 13.1647 7.26381 13.2151 7.35021L13.2295 7.37901C13.2007 7.40061 13.1719 7.42221 13.1431 7.43661C13.0207 7.52301 12.9055 7.60221 12.7903 7.68861C12.4951 7.91181 12.4303 8.22861 12.6247 8.48781C12.8191 8.74701 13.1287 8.79021 13.4311 8.59581C13.5391 8.53101 13.6399 8.45901 13.7479 8.38701C13.7623 8.37981 13.7767 8.36541 13.7911 8.35821L13.8991 8.53821C14.0215 8.74701 14.1295 8.94141 14.2447 9.13581C14.5615 9.67581 14.9071 9.58941 15.0871 9.48861C15.2239 9.41661 15.3031 9.30861 15.3391 9.17901C15.3823 9.01341 15.3463 8.81901 15.2167 8.58861C15.1015 8.38701 14.9791 8.17821 14.8639 7.97661L14.7703 7.81101C16.6135 6.80301 19.4503 6.65901 21.3655 7.47261C21.3223 7.53741 21.2791 7.59501 21.2287 7.65261C21.1135 7.78941 20.8831 8.08461 21.0415 8.41581C21.1999 8.73981 21.5527 8.73261 21.7615 8.73261C22.0711 8.73261 22.3951 8.73261 22.6975 8.73261C22.7839 8.73261 22.8703 8.73261 22.9639 8.73261L22.8631 9.17181C22.7047 9.87741 22.5463 10.5758 22.3807 11.2814C22.3159 11.5622 22.4239 11.7926 22.6759 11.9222C22.9279 12.0518 23.1799 11.9942 23.3671 11.7566C23.4247 11.6774 23.4823 11.6054 23.5399 11.5262C23.5687 11.483 23.5975 11.447 23.6335 11.4038L24.8287 9.81261C24.8359 9.81981 24.8431 9.82701 24.8503 9.83421C26.1607 11.339 26.8519 13.0022 26.9095 14.7734C26.9743 16.7966 26.9599 18.863 26.9527 20.8574C26.9527 21.4262 26.9455 21.995 26.9455 22.5638C26.9455 23.2982 26.4415 23.8022 25.6855 23.8094C25.0735 23.8166 24.4543 23.8166 23.8567 23.8094C23.7127 23.8094 23.5687 23.8094 23.4319 23.8094C24.2383 23.2406 24.6991 22.535 24.8359 21.671C24.9007 21.2678 24.9007 20.8574 24.8935 20.4614C24.8935 20.3534 24.8935 20.2454 24.8935 20.1374C24.8935 19.9574 24.8359 19.799 24.7207 19.691C24.6199 19.5902 24.4831 19.5398 24.3319 19.5398C24.0295 19.547 23.8063 19.7846 23.7919 20.123C23.7847 20.375 23.7847 20.627 23.7847 20.8718V21.0014C23.7919 21.8726 23.4319 22.5134 22.6831 22.9598C22.3375 23.1686 21.9919 23.3774 21.6391 23.5862C20.9983 23.975 20.3287 24.3782 19.6735 24.7742C18.6727 25.3718 17.6575 25.3718 16.6639 24.7742C15.7711 24.2414 14.8279 23.6726 13.6111 22.931C12.9127 22.5062 12.5527 21.8798 12.5527 21.0662C12.5527 20.8574 12.5527 20.6414 12.5527 20.4326C12.5527 19.9934 12.5527 19.547 12.5455 19.1006C12.5383 18.9134 12.5815 18.8558 12.7543 18.791C14.1151 18.2798 14.9215 17.3006 15.1519 15.8966C15.1951 15.6374 15.2455 15.371 15.3031 15.1118C15.3247 15.0038 15.3463 14.8886 15.3679 14.7806C15.5119 14.0534 15.9367 13.5854 16.6639 13.3478C17.1103 13.2038 17.5639 13.0094 18.0535 12.7646C18.8599 12.3542 19.5151 11.7782 20.0119 11.051C20.0191 11.0654 20.0191 11.0726 20.0263 11.087C20.7895 12.9518 21.9847 14.147 23.6839 14.7302C23.7847 14.7662 23.7847 14.7878 23.7847 14.9246V15.4358C23.7847 16.1774 23.7847 16.9478 23.7919 17.7038C23.7919 18.0638 24.0151 18.3014 24.3463 18.3014C24.6703 18.3014 24.8935 18.0566 24.8935 17.7038C24.9007 16.6454 24.9007 15.5654 24.8935 14.5286V14.363C24.8935 14.0462 24.7279 13.8518 24.3967 13.7582L24.3679 13.751C24.0583 13.6646 23.7343 13.5854 23.4607 13.4342C22.2007 12.7574 21.3511 11.6918 20.9263 10.2518C20.7895 9.78381 20.5591 9.56781 20.1703 9.52461C19.7743 9.48141 19.4791 9.66141 19.2703 10.079C18.9535 10.7198 18.4999 11.2094 17.9239 11.5334C17.4271 11.8142 16.8511 12.0734 16.1095 12.3614C15.1735 12.7214 14.6047 13.319 14.3743 14.1902C14.2519 14.6438 14.1727 15.1046 14.0935 15.5582V15.5726C13.9207 16.5302 13.5175 17.1422 12.8263 17.5166C12.5671 17.6534 12.2719 17.783 11.9335 17.8982C11.5879 18.0134 11.4295 18.2366 11.4367 18.5966C11.4439 19.1366 11.4439 19.6838 11.4439 20.2094C11.4439 20.4902 11.4439 20.771 11.4439 21.059C11.4439 22.1822 11.9407 23.111 12.9055 23.8094C12.7975 23.8094 12.6967 23.8094 12.5959 23.8094C12.1135 23.8094 11.6599 23.8166 11.2063 23.8022C10.4791 23.7878 9.9895 23.2838 9.9895 22.5494C9.9895 22.031 9.9895 21.5126 9.9823 20.9942C9.9751 19.0862 9.9679 17.1062 10.0039 15.1694C10.0183 14.435 10.1767 13.679 10.3351 13.031C10.5439 12.1598 10.9759 11.2814 11.6527 10.3598C11.7175 10.2662 11.8687 10.0358 11.8327 9.82701C11.8039 9.64701 11.6167 9.45981 11.4655 9.39501C11.2999 9.32301 11.0551 9.30861 10.8031 9.63981C9.5287 11.3534 8.8807 13.283 8.8807 15.3782C8.8735 17.9126 8.8735 20.2382 8.8807 22.499C8.8807 22.787 8.9167 23.0462 8.9887 23.2838C9.2767 24.2342 10.1335 24.8894 11.1271 24.911C11.8975 24.9254 12.6751 24.9254 13.4311 24.9254C13.8127 24.9254 14.2015 24.9254 14.5831 24.9254C14.8567 24.9254 14.8567 24.9254 14.8639 25.1918C14.8639 25.3862 14.8639 25.5806 14.8639 25.7678C14.8639 26.1134 14.8639 26.4806 14.8639 26.8334C14.8711 27.323 14.6551 27.6542 14.2015 27.8486C13.8487 27.9998 13.4959 28.151 13.1359 28.295C12.1783 28.6982 11.1847 29.123 10.2055 29.519C8.9239 30.0374 7.9159 30.9086 7.2103 32.1038C6.9439 32.5574 6.9799 32.7662 7.3975 33.0974L7.4263 33.1262H7.8151L7.8511 33.083C7.8799 33.047 7.9087 33.0182 7.9375 32.9822C8.0095 32.903 8.0815 32.8238 8.1319 32.7302C8.6575 31.7942 9.4351 31.103 10.4287 30.6638C11.3791 30.2462 12.3583 29.8358 13.3015 29.4398C13.6759 29.2814 14.0575 29.123 14.4319 28.9646C15.5479 28.4966 15.9583 27.8774 15.9583 26.675V25.6886C17.4415 26.5814 18.9247 26.5526 20.4871 25.6094C20.4871 25.6526 20.4943 25.6886 20.4943 25.7246C20.4943 25.8758 20.4943 26.027 20.4943 26.1782C20.4943 26.4158 20.4943 26.6534 20.4943 26.891C20.5159 27.8558 20.9695 28.5326 21.8551 28.907L22.6327 29.2382C23.7199 29.6918 24.8431 30.167 25.9447 30.6494C26.9959 31.1102 27.7951 31.823 28.3063 32.7662C28.3567 32.8598 28.4287 32.9318 28.5007 33.0038C28.5295 33.0326 28.5583 33.0614 28.5871 33.0902L28.6231 33.1262H28.9471L28.9759 33.1046C29.4367 32.8022 29.4871 32.579 29.2135 32.111C28.5655 30.9446 27.5863 30.0878 26.3263 29.5622ZM24.2023 8.38701C24.2527 8.14941 24.2239 7.96221 24.1159 7.83261C24.0079 7.69581 23.8279 7.63101 23.5903 7.62381C23.4463 7.62381 23.3023 7.62381 23.1583 7.62381C23.0431 7.62381 22.9351 7.62381 22.8199 7.62381C22.7695 7.62381 22.7191 7.62381 22.6615 7.62381L23.9431 5.91741C23.9071 6.09741 23.8639 6.27741 23.8279 6.45741C23.7631 6.74541 23.7847 6.94701 23.8927 7.08381C24.0007 7.22061 24.1951 7.28541 24.4975 7.29261C24.7279 7.29261 24.9511 7.29261 25.2031 7.29261H25.3471L24.0655 8.99901C24.1159 8.79741 24.1591 8.59581 24.2023 8.38701Z" fill="black"/>
<path d="M17.9243 4.86623C17.9315 5.22623 18.1403 5.46383 18.4715 5.46383C18.4787 5.46383 18.4787 5.46383 18.4859 5.46383C18.6371 5.46383 18.7667 5.41343 18.8603 5.31983C18.9755 5.21183 19.0331 5.04623 19.0331 4.85183C19.0331 4.68623 19.0331 4.51343 19.0331 4.34783C19.0331 4.09583 19.0259 3.82943 19.0403 3.57023C19.0547 3.26063 18.9323 3.03743 18.6803 2.88623L18.6515 2.87183H18.2555L18.2195 2.92943C18.1907 2.97983 18.1547 3.02303 18.1187 3.07343C18.0323 3.19583 17.9387 3.32543 17.9243 3.47663C17.8883 3.85103 17.9027 4.23263 17.9099 4.60703C17.9243 4.70063 17.9243 4.78703 17.9243 4.86623Z" fill="black"/>
<path d="M20.3935 21.5774C20.2999 21.563 20.2063 21.5414 20.1343 21.5054C19.5871 21.2246 19.0471 21.2246 18.5143 21.5054C18.3271 21.6062 18.1399 21.6062 17.9167 21.5054C17.7439 21.4334 17.5639 21.3758 17.3911 21.3254C17.3119 21.3038 17.2399 21.2822 17.1607 21.2534L17.1247 21.239L17.0887 21.2462C16.9663 21.2822 16.8367 21.3182 16.7143 21.3542C16.3831 21.4478 16.0663 21.5414 15.7567 21.671C15.5767 21.743 15.4903 22.0598 15.4831 22.211C15.4759 22.3406 15.5263 22.4702 15.6199 22.5566C15.7135 22.643 15.8359 22.6862 15.9727 22.679C16.2823 22.6502 16.5559 22.5926 16.7935 22.4918C17.0527 22.3838 17.2255 22.3838 17.4199 22.4846C17.6863 22.6214 17.9527 22.6934 18.2191 22.6934C18.4855 22.6934 18.7519 22.6214 19.0183 22.4846C19.2199 22.3838 19.3999 22.3838 19.6375 22.4918C19.8535 22.5854 20.1127 22.6574 20.3647 22.6862C20.6815 22.7222 20.9191 22.535 20.9551 22.2038C20.9911 21.8942 20.8039 21.6566 20.4583 21.5918C20.4439 21.5846 20.4151 21.5846 20.3935 21.5774Z" fill="black"/>
<path d="M30.4955 8.099C30.3155 7.991 30.0923 8.0054 29.8835 8.1278C28.9619 8.6534 28.0475 9.1862 27.2771 9.6326C26.9531 9.8198 26.8523 10.1222 27.0107 10.403C27.1187 10.5902 27.2915 10.691 27.4859 10.691C27.5939 10.691 27.7091 10.6622 27.8243 10.5974C28.6595 10.1222 29.5595 9.6038 30.4595 9.071C30.5747 8.999 30.6539 8.891 30.7043 8.8118C30.7187 8.7902 30.7331 8.7686 30.7475 8.7542L30.7763 8.7254V8.6822C30.7763 8.4158 30.6755 8.207 30.4955 8.099Z" fill="black"/>
<path d="M9.30566 10.6406C9.34886 10.6622 9.40646 10.6766 9.46406 10.7054L9.53606 10.7342L9.59366 10.6766C9.62246 10.6478 9.65846 10.6118 9.69446 10.583C9.78806 10.4966 9.88886 10.403 9.94646 10.2806C10.0617 10.0214 9.96086 9.76224 9.67286 9.59664L9.27686 9.36624C8.57126 8.95584 7.83686 8.53104 7.11686 8.12064C6.94406 8.01984 6.77126 7.99104 6.62006 8.04144C6.48326 8.07744 6.37526 8.17104 6.30326 8.30784C6.14486 8.60304 6.25286 8.89824 6.58406 9.09264C7.34006 9.53184 8.16086 10.007 9.08966 10.5398C9.15446 10.5758 9.21926 10.6046 9.30566 10.6406Z" fill="black"/>
<path d="M24.1376 5.55743C24.0728 5.86703 24.0008 6.17663 23.936 6.47903C23.828 6.97583 23.9792 7.17023 24.4976 7.17023C24.836 7.17023 25.1744 7.17023 25.5848 7.17023C25.0016 7.95502 24.4544 8.68223 23.9144 9.40223C23.9 9.39503 23.8856 9.38783 23.864 9.38063C23.936 9.04223 24.0152 8.70382 24.0872 8.35823C24.1736 7.96222 24.0008 7.73903 23.5904 7.73903C23.2232 7.73183 22.856 7.73903 22.4312 7.73903C23.0072 6.96863 23.5472 6.24863 24.0872 5.52863C24.1016 5.53583 24.1232 5.54303 24.1376 5.55743Z" fill="#BE3455"/>
<path d="M16.2682 13.4415C18.6541 13.4415 20.5882 11.5073 20.5882 9.12145C20.5882 6.73558 18.6541 4.80145 16.2682 4.80145C13.8824 4.80145 11.9482 6.73558 11.9482 9.12145C11.9482 11.5073 13.8824 13.4415 16.2682 13.4415Z" fill="#BE3455"/>
<path d="M16.2682 12.0015C17.8588 12.0015 19.1482 10.712 19.1482 9.12146C19.1482 7.53088 17.8588 6.24146 16.2682 6.24146C14.6776 6.24146 13.3882 7.53088 13.3882 9.12146C13.3882 10.712 14.6776 12.0015 16.2682 12.0015Z" fill="white"/>
<path d="M16.2683 10.9215C17.2624 10.9215 18.0683 10.1156 18.0683 9.12147C18.0683 8.12736 17.2624 7.32147 16.2683 7.32147C15.2741 7.32147 14.4683 8.12736 14.4683 9.12147C14.4683 10.1156 15.2741 10.9215 16.2683 10.9215Z" fill="#BE3455"/>
</svg>
