<svg width="37" height="36" viewBox="0 0 37 36" fill="none" xmlns="http://www.w3.org/2000/svg">
<g clip-path="url(#clip0_4430_27098)">
<rect x="0.5" y="-0.000976562" width="36" height="36" rx="18" fill="white"/>
<path d="M16.7142 6.8894C16.7142 6.8894 14.331 8.7902 13.6542 10.5182C12.9774 12.2462 12.423 15.3206 12.423 15.479C12.423 15.6446 9.11097 16.019 8.34777 16.379C7.57737 16.7462 6.64857 17.5454 6.64857 17.5454L3.68937 20.8574C3.68937 20.8574 2.48697 18.7622 2.75337 16.6598C3.01977 14.5574 3.76857 12.6062 3.68937 11.7782C3.61737 10.9502 4.45257 7.1414 5.30217 5.9534C6.15177 4.7654 10.299 3.3254 11.3286 3.2462C12.3582 3.1742 14.8782 3.5486 15.6702 4.4846C16.4622 5.4278 16.7142 6.8894 16.7142 6.8894Z" fill="url(#paint0_linear_4430_27098)"/>
<path d="M24.5266 17.3942C24.505 16.8542 24.1738 15.5654 23.3314 15.5654C22.489 15.5654 22.093 16.811 22.201 17.3942C22.309 17.9774 22.5322 18.8126 23.3602 18.7262C24.181 18.647 24.541 17.7182 24.5266 17.3942Z" fill="#BE3455"/>
<path d="M6.90799 24.2054C7.15999 24.2054 7.37599 24.4142 7.38319 24.659C7.39039 24.9254 7.18159 25.1414 6.90799 25.1414C6.65599 25.1414 6.43999 24.9398 6.43279 24.695C6.42559 24.4358 6.64879 24.2054 6.90799 24.2054Z" fill="#BE3455"/>
<path d="M10.4578 18.935C10.1914 18.935 9.96819 18.7118 9.98259 18.4526C9.98979 18.215 10.213 17.9918 10.4578 17.9918C10.7098 17.9918 10.9186 18.1934 10.9258 18.4454C10.933 18.719 10.7242 18.935 10.4578 18.935Z" fill="#BE3455"/>
<path d="M14.1369 25.6382C13.8705 25.6454 13.6473 25.4294 13.6545 25.163C13.6617 24.9182 13.8705 24.7022 14.1225 24.695C14.3817 24.6878 14.5977 24.911 14.5977 25.1774C14.5977 25.4438 14.4033 25.6382 14.1369 25.6382Z" fill="#BE3455"/>
<path d="M10.5802 25.1414C10.3138 25.1486 10.0906 24.9326 10.0978 24.6734C10.105 24.4286 10.3138 24.2126 10.5586 24.2054C10.8178 24.1982 11.041 24.4214 11.041 24.6806C11.041 24.9326 10.8394 25.1342 10.5802 25.1414Z" fill="#BE3455"/>
<path d="M7.96617 26.8118C8.22537 26.8046 8.43417 26.9918 8.44857 27.2438C8.46297 27.5102 8.26137 27.7334 7.99497 27.7406C7.72857 27.7478 7.50537 27.539 7.50537 27.2726C7.50537 27.0278 7.71417 26.819 7.96617 26.8118Z" fill="#BE3455"/>
<path d="M34.8224 14.6726C34.7864 14.4782 34.7576 14.291 34.7288 14.0966C34.664 13.6862 34.5992 13.2542 34.5056 12.8438C34.0232 10.691 32.8928 8.73262 31.244 7.16302C29.5952 5.59342 27.5792 4.56382 25.4048 4.18942C22.4384 3.67102 19.652 4.22542 17.1176 5.83102C17.1104 5.83822 17.1032 5.83822 17.096 5.84542C16.3976 4.26862 15.1088 3.30382 13.1576 2.90782C11.4152 2.55502 9.52881 2.78542 7.84401 3.57022C6.00081 4.41262 4.60401 5.81662 3.79761 7.63102C3.15681 9.07822 2.91921 10.7054 3.07041 12.6134C3.07761 12.7142 3.08481 12.8294 3.04881 12.9158C2.59521 13.9814 2.31441 15.0758 2.22081 16.1486C2.22081 16.1558 2.21361 16.1702 2.20641 16.1774C2.19921 16.1918 2.19201 16.2062 2.18481 16.2206L2.17041 16.2494V17.9486L2.17761 17.9702C2.18481 17.9918 2.19201 18.0062 2.19921 18.0278C2.20641 18.0494 2.22081 18.071 2.22081 18.0854C2.31441 19.1726 2.58801 20.2526 3.06321 21.3902C3.10641 21.491 3.11361 21.6206 3.11361 21.743C3.12081 21.9878 3.12801 22.247 3.12801 22.4918C3.13521 22.9958 3.13521 23.5214 3.21441 24.0254C3.52401 26.0342 4.27281 27.7982 5.44641 29.267C6.55521 30.6566 8.06721 31.8302 9.95361 32.7446C10.6736 33.0974 11.4152 33.2702 12.1568 33.2702C12.8264 33.2702 13.496 33.1262 14.1512 32.8382C17.0672 31.5422 19.1408 29.5118 20.3288 26.7974C20.408 26.6174 20.4296 26.603 20.624 26.6534C23.6552 27.359 26.5424 26.9198 29.2208 25.3574C29.4872 25.2062 29.7536 25.0262 30.0272 24.8246C30.3152 24.6086 30.3872 24.2414 30.1856 23.9534C29.9984 23.6942 29.6528 23.6294 29.3504 23.8022C29.3 23.831 29.2496 23.867 29.2064 23.8958C29.192 23.9102 29.1704 23.9174 29.156 23.9318C26.9528 25.4222 24.512 25.991 21.8984 25.631C19.2272 25.2638 16.844 23.8598 15.188 21.6854C13.5248 19.511 12.812 16.8398 13.1648 14.1758C13.5392 11.339 15.0152 8.86222 17.3048 7.19902C19.6088 5.52862 22.4312 4.89502 25.2536 5.42062C28.2848 5.98222 30.8768 7.88302 32.36 10.6334C33.8432 13.391 34.0016 16.6022 32.7992 19.4462C32.3384 20.5406 31.6904 21.5486 30.8768 22.4486C30.5168 22.8446 30.6248 23.1542 30.776 23.3414C30.8912 23.4854 31.0424 23.5646 31.208 23.5718C31.4024 23.579 31.604 23.4782 31.7768 23.291C33.2024 21.743 34.1384 19.9286 34.5704 17.9126C34.6496 17.5526 34.7 17.1782 34.7576 16.8182C34.7792 16.6526 34.808 16.487 34.8296 16.3214V14.7158L34.8224 14.6726ZM9.41361 6.94702C7.39761 7.71022 5.69841 8.95582 4.33761 10.6622C4.58241 7.93342 5.87121 5.96062 8.17521 4.78702C9.26961 4.23262 10.3712 3.95902 11.48 3.95902C12.2432 3.95902 12.9992 4.08862 13.7552 4.35502C14.7416 4.69342 15.4472 5.29102 15.8576 6.12622C15.8792 6.16222 15.8936 6.19822 15.908 6.24142C13.7912 5.85982 11.66 6.09742 9.41361 6.94702ZM4.35921 21.527C4.35921 21.4622 4.39521 21.3758 4.43121 21.2894L4.44561 21.2534C5.05041 19.8494 5.95761 18.6974 7.13121 17.8262L7.16001 17.8046C7.19601 17.7758 7.23201 17.7542 7.26801 17.7254C7.54881 17.4806 7.60641 17.135 7.41201 16.8614C7.28961 16.6958 7.11681 16.6094 6.92961 16.6094C6.79281 16.6094 6.64881 16.6598 6.51201 16.7534C5.69841 17.3366 5.00001 18.035 4.43121 18.827C4.34481 18.9422 4.26561 19.0646 4.18641 19.1798C4.05681 19.367 3.92721 19.5614 3.77601 19.7486C3.75441 19.6478 3.73281 19.547 3.71121 19.4462C3.61761 19.0286 3.52401 18.5894 3.47361 18.1646C3.20001 15.983 3.74001 13.7654 5.00001 11.9006C6.31761 9.94942 8.28321 8.53822 10.6808 7.81822C12.0056 7.42222 13.3808 7.24942 14.7848 7.31422C14.9144 7.32142 15.0512 7.33582 15.2024 7.35742C15.1808 7.37902 15.1664 7.40062 15.1448 7.42222C14.36 8.22142 13.7192 9.09262 13.2368 10.0142C13.1576 10.1654 13.0928 10.2014 12.9128 10.187C11.444 10.0502 10.1984 10.2014 9.08961 10.6478C8.87361 10.7342 8.64321 10.8494 8.36961 11.015C8.18241 11.1302 8.05281 11.2814 8.00961 11.4542C7.97361 11.6054 8.00241 11.7638 8.08881 11.9006C8.28321 12.2174 8.63601 12.275 9.00321 12.0662C10.2128 11.3678 11.5448 11.339 12.5888 11.4038C12.1712 12.5342 11.9192 13.7222 11.8544 14.9318C11.7248 14.9462 11.5952 14.9606 11.4728 14.975C11.0984 15.0182 10.7096 15.0542 10.3352 15.1334C9.79521 15.2414 9.29121 15.3998 8.67921 15.5942C8.46321 15.659 8.30481 15.7886 8.22561 15.9614C8.15361 16.1126 8.15361 16.2782 8.21841 16.4366C8.35521 16.775 8.69361 16.8974 9.09681 16.7462C10.004 16.4078 10.904 16.2278 11.84 16.1918C12.092 18.5606 12.8408 20.6054 14.0648 22.2758C15.2888 23.939 17.024 25.271 19.2272 26.2358C19.2128 26.2718 19.1984 26.3078 19.1768 26.3438C19.1048 26.5166 19.0256 26.6966 18.9392 26.8694C17.7224 29.1302 15.8936 30.7646 13.5176 31.7438C12.4736 32.1758 11.3648 32.0894 10.22 31.499C7.25361 29.951 5.43201 27.8054 4.65441 24.9326C4.35201 23.831 4.34481 22.6934 4.35921 21.527Z" fill="black"/>
<path d="M29.6888 9.0926C27.9752 7.3934 25.7288 6.4646 23.3528 6.4646C23.3456 6.4646 23.3384 6.4646 23.3384 6.4646C20.912 6.4718 18.644 7.4078 16.9448 9.1142C15.2456 10.8206 14.3096 13.0886 14.3096 15.515C14.3096 17.9126 15.2528 20.1734 16.9736 21.8726C18.6872 23.5718 20.9552 24.5078 23.3672 24.5078H23.3744C25.7792 24.5078 28.04 23.5574 29.7392 21.8366C31.4384 20.1158 32.3672 17.8334 32.3672 15.407C32.3528 13.031 31.4096 10.7918 29.6888 9.0926ZM15.8432 16.7822C16.1384 16.7822 16.4336 16.7822 16.736 16.7822C17.4056 16.7822 18.0968 16.775 18.7808 16.7894C18.8024 16.7894 18.824 16.7894 18.8456 16.7894C19.7024 16.7894 20.4008 16.4438 20.9192 15.767C21.0704 15.5726 21.2216 15.371 21.3584 15.1694C21.5528 14.903 21.7472 14.6366 21.956 14.3774C22.4024 13.823 22.9424 13.6214 23.6048 13.7582C23.9504 13.8302 24.26 14.0318 24.512 14.3486C24.836 14.7518 25.1384 15.1766 25.3904 15.5366C26.0168 16.4294 26.8304 16.8398 27.8744 16.7966C28.5512 16.7678 29.2424 16.775 29.9048 16.7822C30.2072 16.7822 30.5024 16.7894 30.8048 16.7894H30.9848C30.6536 19.4246 28.2056 23.0822 23.6336 23.2622C19.2416 23.435 16.1744 20.1302 15.6776 16.7894H15.8432V16.7822ZM27.6872 15.551C27.212 15.5582 26.8448 15.3854 26.5712 15.0326C26.4128 14.8238 26.2544 14.6078 26.1032 14.399C25.9664 14.2118 25.8296 14.0246 25.6928 13.8374C25.1168 13.0742 24.5048 12.6566 23.7704 12.5342C22.712 12.3542 21.8192 12.671 21.1136 13.4846C20.7392 13.9166 20.4008 14.3918 20.156 14.759C19.7528 15.3494 19.2704 15.5942 18.5792 15.5654C18.1616 15.5438 17.744 15.5366 17.3264 15.5366C17.0168 15.5366 16.7 15.5366 16.376 15.5438C16.1024 15.5438 15.8216 15.551 15.5408 15.551C15.5912 12.8942 16.6208 10.799 18.6152 9.3158C19.94 8.3294 21.3296 7.775 22.748 7.667C24.1664 7.559 25.6208 7.8974 27.068 8.675C29.6456 10.0718 31.0208 12.383 31.1432 15.551H30.9128C30.6032 15.551 30.2864 15.551 29.9768 15.551C29.2208 15.5438 28.4504 15.5366 27.6872 15.551Z" fill="black"/>
<path d="M10.2848 28.5326C10.4216 28.6262 10.6016 28.6622 10.796 28.6262C11.7176 28.4462 12.6464 28.4462 13.5536 28.6334C13.604 28.6406 13.6472 28.6478 13.6904 28.6478C13.9136 28.6478 14.0936 28.5326 14.2088 28.3238C14.3024 28.151 14.3168 27.9494 14.2304 27.7766C14.144 27.5966 13.9712 27.467 13.748 27.4238C13.3808 27.359 13.0136 27.3086 12.6464 27.2654C12.488 27.2438 12.3368 27.2294 12.1784 27.2078H12.1568H12.1352C11.9768 27.2294 11.8256 27.251 11.6672 27.2654C11.3072 27.3086 10.9328 27.359 10.5656 27.4166C10.1984 27.4742 9.97522 27.7766 10.0256 28.115C10.0616 28.295 10.148 28.439 10.2848 28.5326Z" fill="black"/>
<path d="M8.33349 22.355C8.34789 22.355 8.35509 22.355 8.35509 22.355C8.88069 22.355 9.44229 22.1318 9.76629 21.8006C10.0255 21.527 10.0543 21.1886 9.83109 20.9294C9.60789 20.6702 9.26949 20.6486 8.95989 20.8646C8.48469 21.203 8.29749 21.203 7.82949 20.8646C7.52709 20.6486 7.18149 20.6702 6.95829 20.9222C6.72789 21.1886 6.75669 21.527 7.02309 21.7934C7.36869 22.139 7.82229 22.3262 8.33349 22.355Z" fill="black"/>
<path d="M20.9478 10.763C20.8758 10.6982 20.8038 10.6622 20.7102 10.619C20.667 10.5974 20.6238 10.5758 20.5734 10.547L20.4942 10.5038L20.4222 10.5614C20.3862 10.5902 20.343 10.6118 20.2998 10.6406C20.1774 10.7126 20.0406 10.7918 19.9902 10.9358C19.911 11.1302 19.947 11.4182 20.0622 11.5838C20.2062 11.7998 20.4078 11.9798 20.595 12.1526C20.631 12.1814 20.6598 12.2102 20.6958 12.2462C20.8398 12.3758 20.9982 12.4406 21.1494 12.4406C21.3006 12.4406 21.4446 12.383 21.567 12.2606C21.819 12.0158 21.819 11.6558 21.567 11.3822C21.3798 11.1806 21.1782 10.979 20.9478 10.763Z" fill="black"/>
<path d="M26.3911 10.6478C26.3551 10.6262 26.3263 10.6046 26.3047 10.5902L26.2471 10.547L26.1823 10.5614C26.1391 10.5686 26.1103 10.5758 26.0815 10.583C26.0167 10.5974 25.9519 10.6046 25.9015 10.655C25.8295 10.727 25.7575 10.799 25.6783 10.8638C25.4407 11.087 25.2031 11.3174 24.9943 11.5766C24.9223 11.6702 24.8935 11.7782 24.9079 11.8934C24.9295 12.0446 25.0231 12.1958 25.1671 12.3038C25.2823 12.3902 25.4119 12.4334 25.5343 12.4334C25.6639 12.4334 25.7863 12.383 25.8943 12.2894C26.1679 12.0446 26.4127 11.8214 26.6143 11.5478C26.7367 11.3822 26.7367 11.0942 26.6719 10.9142C26.6287 10.7918 26.4991 10.7126 26.3911 10.6478Z" fill="black"/>
<path d="M23.9431 9.98542C23.8999 9.64702 23.6839 9.44542 23.3527 9.42382C23.0143 9.40942 22.7407 9.65422 22.7263 9.99982C22.7047 10.3886 22.7047 10.691 22.7335 10.9646C22.7623 11.2958 22.9999 11.5118 23.3383 11.5118H23.3455C23.6767 11.5118 23.9071 11.303 23.9503 10.9646C23.9647 10.8494 23.9647 10.727 23.9575 10.619C23.9575 10.5686 23.9575 10.5254 23.9575 10.475C23.9575 10.4318 23.9575 10.3814 23.9575 10.3382C23.9575 10.2158 23.9575 10.1006 23.9431 9.98542Z" fill="black"/>
<path d="M21.9993 18.719C22.3521 19.1222 22.8201 19.3454 23.3241 19.3526H23.3313C23.8281 19.3526 24.2961 19.1366 24.6489 18.7406C25.4697 17.8334 25.4625 16.2998 24.6417 15.3926C24.2817 14.9966 23.8065 14.7878 23.3097 14.7878C22.8057 14.795 22.3377 15.0182 21.9921 15.4286C21.6177 15.8678 21.4233 16.4006 21.3945 17.063V17.0702V17.0774C21.4161 17.7398 21.6105 18.2798 21.9993 18.719ZM23.6913 16.1774C23.9001 16.379 24.0369 16.739 24.0297 17.0774C24.0297 17.4734 23.8569 17.7326 23.6697 17.9486C23.5833 18.0494 23.4753 18.107 23.3529 18.1142C23.2233 18.1214 23.0793 18.0638 22.9641 17.9486C22.7553 17.747 22.6329 17.423 22.6329 17.0702C22.6329 16.7174 22.7553 16.3862 22.9641 16.1774C23.0721 16.0694 23.2017 16.019 23.3241 16.019C23.4537 16.019 23.5833 16.0766 23.6913 16.1774Z" fill="black"/>
</g>
<defs>
<linearGradient id="paint0_linear_4430_27098" x1="16.7142" y1="3.23755" x2="1.60872" y2="4.24322" gradientUnits="userSpaceOnUse">
<stop stop-color="#DFF9F8"/>
<stop offset="0.46875" stop-color="#D5F4E5"/>
<stop offset="1" stop-color="#AEE5E2"/>
</linearGradient>
<clipPath id="clip0_4430_27098">
<rect x="0.5" y="-0.000976562" width="36" height="36" rx="18" fill="white"/>
</clipPath>
</defs>
</svg>
