<svg width="24" height="24" viewBox="0 0 24 24" fill="none" xmlns="http://www.w3.org/2000/svg">
<g id="activity/run">
<path id="Vector" d="M14.7459 4.46512C14.1205 4.46512 13.5853 4.24633 13.1403 3.80874C12.6945 3.37191 12.4717 2.84651 12.4717 2.23256C12.4717 1.6186 12.6945 1.09284 13.1403 0.655256C13.5853 0.218418 14.1205 0 14.7459 0C15.3713 0 15.9069 0.218418 16.3526 0.655256C16.7976 1.09284 17.0201 1.6186 17.0201 2.23256C17.0201 2.84651 16.7976 3.37191 16.3526 3.80874C15.9069 4.24633 15.3713 4.46512 14.7459 4.46512ZM15.3144 24C14.9923 24 14.7224 23.8928 14.5048 23.6785C14.2865 23.4649 14.1773 23.2 14.1773 22.8837V17.3023L11.7894 15.0698L11.1356 17.8605C10.9839 18.4558 10.6523 18.9165 10.1406 19.2424C9.62889 19.5676 9.06981 19.6651 8.46335 19.5349L3.94333 18.6419C3.62115 18.586 3.37023 18.4279 3.19056 18.1674C3.01014 17.907 2.95783 17.6186 3.03364 17.3023C3.0905 16.986 3.25159 16.7393 3.51691 16.5622C3.78224 16.3859 4.07599 16.3349 4.39818 16.4093L8.7192 17.3023L10.5386 8.26046L8.49178 9.04186V11.7209C8.49178 12.0372 8.38299 12.3021 8.16542 12.5157C7.9471 12.73 7.67685 12.8372 7.35466 12.8372C7.03248 12.8372 6.76223 12.73 6.5439 12.5157C6.32634 12.3021 6.21755 12.0372 6.21755 11.7209V9.06977C6.21755 8.62326 6.34074 8.20912 6.58711 7.82735C6.83349 7.44633 7.16515 7.17209 7.58209 7.00465L10.7091 5.69302C11.3725 5.41395 11.8607 5.23237 12.1737 5.14828C12.4861 5.06493 12.7749 5.02326 13.0402 5.02326C13.4382 5.02326 13.8078 5.12558 14.1489 5.33023C14.49 5.53488 14.7648 5.80465 14.9733 6.13953L16.1104 7.92558C16.5274 8.57675 17.0724 9.13488 17.7456 9.6C18.418 10.0651 19.1806 10.3721 20.0335 10.5209C20.3177 10.5581 20.5501 10.6791 20.7305 10.8837C20.9102 11.0884 21 11.3209 21 11.5814C21 11.9349 20.8723 12.2326 20.6168 12.4744C20.3606 12.7163 20.0619 12.8093 19.7207 12.7535C18.7163 12.6047 17.7877 12.2928 16.9348 11.818C16.082 11.344 15.3523 10.7535 14.7459 10.0465L14.0636 13.3953L15.7409 14.9581C15.9683 15.1814 16.1438 15.4277 16.2673 15.6971C16.3902 15.9673 16.4516 16.2605 16.4516 16.5767V22.8837C16.4516 23.2 16.3428 23.4649 16.1252 23.6785C15.9069 23.8928 15.6366 24 15.3144 24Z" fill="#D8B2D1"/>
</g>
</svg>
