<svg width="18" height="18" viewBox="0 0 18 18" fill="none" xmlns="http://www.w3.org/2000/svg">
<g id="Add" clip-path="url(#clip0_5575_22995)">
<path id="shape" fill-rule="evenodd" clip-rule="evenodd" d="M7.44444 7.44444V3.55556C7.44444 2.69645 8.14089 2 9 2C9.85911 2 10.5556 2.69645 10.5556 3.55556V7.44444H14.4444C15.3036 7.44444 16 8.14089 16 9C16 9.85911 15.3036 10.5556 14.4444 10.5556H10.5556V14.4444C10.5556 15.3036 9.85911 16 9 16C8.14089 16 7.44444 15.3036 7.44444 14.4444V10.5556H3.55556C2.69645 10.5556 2 9.85911 2 9C2 8.14089 2.69645 7.44444 3.55556 7.44444H7.44444Z" fill="white"/>
</g>
<defs>
<clipPath id="clip0_5575_22995">
<rect width="18" height="18" fill="white"/>
</clipPath>
</defs>
</svg>
