<svg width="24" height="26" viewBox="0 0 24 26" fill="none" xmlns="http://www.w3.org/2000/svg">
<path fill-rule="evenodd" clip-rule="evenodd" d="M6.24582 12.841C6.24582 9.15073 9.23737 6.15918 12.9276 6.15918C16.6179 6.15918 19.6095 9.15073 19.6095 12.841V14.0928C19.6095 14.5137 19.7766 14.9173 20.0742 15.2148L20.7961 15.9367C21.2474 16.3881 21.4434 17.0351 21.3182 17.6611L20.8709 19.8972C20.6925 20.7896 19.9089 21.4319 18.9989 21.4319H16.7458C16.7458 23.5406 15.0364 25.2501 12.9277 25.2501C10.8189 25.2501 9.10948 23.5406 9.10948 21.4319H6.85635C5.94633 21.4319 5.16281 20.7896 4.98434 19.8972L4.5371 17.6611C4.41192 17.0351 4.60784 16.3881 5.05919 15.9367L5.78108 15.2148C6.07865 14.9173 6.24582 14.5137 6.24582 14.0928V12.841ZM8.15491 14.0928V12.841C8.15491 10.2051 10.2917 8.06827 12.9276 8.06827C15.5635 8.06827 17.7004 10.2051 17.7004 12.841V14.0928C17.7004 15.02 18.0687 15.9092 18.7243 16.5648L19.4462 17.2867L18.9989 19.5228L6.85635 19.5228L6.40912 17.2867L7.13101 16.5648C7.7866 15.9092 8.15491 15.02 8.15491 14.0928ZM11.0186 21.4319C11.0186 22.4863 11.8733 23.341 12.9277 23.341C13.982 23.341 14.8368 22.4863 14.8368 21.4319H11.0186Z" fill="white"/>
</svg>
