<svg width="25" height="25" viewBox="0 0 25 25" fill="none" xmlns="http://www.w3.org/2000/svg">
<path fill-rule="evenodd" clip-rule="evenodd" d="M6.24582 12.341C6.24582 8.65073 9.23737 5.65918 12.9276 5.65918C16.6179 5.65918 19.6095 8.65073 19.6095 12.341V13.5928C19.6095 14.0137 19.7766 14.4173 20.0742 14.7148L20.7961 15.4367C21.2474 15.8881 21.4434 16.5351 21.3182 17.1611L20.8709 19.3972C20.6925 20.2896 19.9089 20.9319 18.9989 20.9319H16.7458C16.7458 23.0406 15.0364 24.7501 12.9277 24.7501C10.8189 24.7501 9.10948 23.0406 9.10948 20.9319H6.85635C5.94633 20.9319 5.16281 20.2896 4.98434 19.3972L4.5371 17.1611C4.41192 16.5351 4.60784 15.8881 5.05919 15.4367L5.78108 14.7148C6.07865 14.4173 6.24582 14.0137 6.24582 13.5928V12.341ZM8.15491 13.5928V12.341C8.15491 9.70509 10.2917 7.56827 12.9276 7.56827C15.5635 7.56827 17.7004 9.70509 17.7004 12.341V13.5928C17.7004 14.52 18.0687 15.4092 18.7243 16.0648L19.4462 16.7867L18.9989 19.0228L6.85635 19.0228L6.40912 16.7867L7.13101 16.0648C7.7866 15.4092 8.15491 14.52 8.15491 13.5928ZM11.0186 20.9319C11.0186 21.9863 11.8733 22.841 12.9277 22.841C13.982 22.841 14.8368 21.9863 14.8368 20.9319H11.0186Z" fill="white"/>
<circle cx="17.8635" cy="10.4318" r="6.68182" fill="#BE3455"/>
<path d="M18.3466 6.5L18.2614 12.7727H17.2727L17.1875 6.5H18.3466ZM17.767 15.2955C17.5568 15.2955 17.3764 15.2202 17.2259 15.0696C17.0753 14.919 17 14.7386 17 14.5284C17 14.3182 17.0753 14.1378 17.2259 13.9872C17.3764 13.8366 17.5568 13.7614 17.767 13.7614C17.9773 13.7614 18.1577 13.8366 18.3082 13.9872C18.4588 14.1378 18.5341 14.3182 18.5341 14.5284C18.5341 14.6676 18.4986 14.7955 18.4276 14.9119C18.3594 15.0284 18.267 15.1222 18.1506 15.1932C18.0369 15.2614 17.9091 15.2955 17.767 15.2955Z" fill="white"/>
</svg>
