<svg width="24" height="24" viewBox="0 0 24 24" fill="none" xmlns="http://www.w3.org/2000/svg">
<path d="M20.9969 11.8437C20.9969 11.09 20.6976 10.3672 20.1647 9.83433C19.6317 9.30142 18.909 9.00204 18.1553 9.00204H14.548C14.7005 8.72079 14.8071 8.41702 14.8638 8.10219C15.0453 7.06026 14.7059 5.91572 13.8692 4.70014C13.5089 4.1803 13.0992 3.69655 12.6457 3.25565C12.4702 3.09139 12.2388 3 11.9985 3C11.7581 3 11.5267 3.09139 11.3512 3.25565C10.8977 3.69655 10.488 4.1803 10.1277 4.70014C9.29104 5.91572 8.95162 7.06026 9.13317 8.10219C9.18988 8.41702 9.29647 8.72079 9.4489 9.00204H5.84162C5.08798 9.00204 4.3652 9.30142 3.83229 9.83433C3.29938 10.3672 3 11.09 3 11.8437V12.8935C3.00156 13.384 3.09999 13.8695 3.28962 14.3219C3.47926 14.7743 3.75638 15.1848 4.10508 15.5299V19.4213C4.10715 19.8394 4.27414 20.2397 4.56975 20.5353C4.86536 20.8309 5.2657 20.9979 5.68375 21H18.3132C18.7312 20.9979 19.1316 20.8309 19.4272 20.5353C19.7228 20.2397 19.8898 19.8394 19.8919 19.4213V15.5299C20.2406 15.1848 20.5177 14.7743 20.7073 14.3219C20.897 13.8695 20.9954 13.384 20.9969 12.8935V11.8437ZM11.9985 5.35529C12.5431 6.03412 13.1272 7.00501 13.0009 7.77856C12.922 8.2048 12.5905 8.58369 11.9985 8.89942C11.4065 8.58369 11.0749 8.2048 11.0039 7.77856C10.8618 7.0129 11.4538 6.04201 11.9985 5.35529ZM4.89442 11.8437C4.89442 11.5924 4.99421 11.3515 5.17185 11.1739C5.34948 10.9962 5.59041 10.8965 5.84162 10.8965H18.1553C18.4065 10.8965 18.6475 10.9962 18.8251 11.1739C19.0027 11.3515 19.1025 11.5924 19.1025 11.8437V12.8935C19.1018 13.1345 19.0533 13.3731 18.9598 13.5953C18.8664 13.8175 18.7297 14.0189 18.5579 14.188C18.3978 14.3488 18.207 14.4757 17.9968 14.5612C17.7866 14.6466 17.5613 14.6888 17.3344 14.6853C16.88 14.675 16.4475 14.4878 16.1291 14.1634C15.8106 13.8391 15.6314 13.4033 15.6294 12.9487C15.6307 12.917 15.6281 12.8851 15.6215 12.854C15.5919 12.6259 15.4802 12.4163 15.3074 12.2644C15.1345 12.1126 14.9123 12.0288 14.6822 12.0288C14.4521 12.0288 14.2299 12.1126 14.0571 12.2644C13.8842 12.4163 13.7726 12.6259 13.7429 12.854C13.7364 12.8851 13.7337 12.917 13.735 12.9487C13.735 13.4093 13.5521 13.851 13.2264 14.1767C12.9007 14.5023 12.459 14.6853 11.9985 14.6853C11.5379 14.6853 11.0962 14.5023 10.7705 14.1767C10.4449 13.851 10.2619 13.4093 10.2619 12.9487C10.2632 12.917 10.2605 12.8851 10.254 12.854C10.2244 12.6259 10.1127 12.4163 9.93986 12.2644C9.76701 12.1126 9.5448 12.0288 9.31472 12.0288C9.08464 12.0288 8.86242 12.1126 8.68957 12.2644C8.51672 12.4163 8.40504 12.6259 8.3754 12.854C8.36889 12.8851 8.36624 12.917 8.36751 12.9487C8.36557 13.4033 8.1863 13.8391 7.86786 14.1634C7.54941 14.4878 7.11695 14.675 6.66254 14.6853C6.43566 14.6888 6.21039 14.6466 6.00018 14.5612C5.78998 14.4757 5.59914 14.3488 5.43906 14.188C5.26721 14.0189 5.13059 13.8175 5.0371 13.5953C4.94362 13.3731 4.89512 13.1345 4.89442 12.8935V11.8437ZM5.99949 19.1056V16.5244C6.23167 16.5627 6.46669 16.5812 6.702 16.5797C7.19416 16.5671 7.67867 16.4551 8.12634 16.2502C8.57402 16.0454 8.97558 15.752 9.30682 15.3878C9.64787 15.7627 10.0635 16.0622 10.527 16.2671C10.9905 16.4721 11.4917 16.5779 11.9985 16.5779C12.5053 16.5779 13.0065 16.4721 13.47 16.2671C13.9335 16.0622 14.3491 15.7627 14.6901 15.3878C15.0214 15.752 15.4229 16.0454 15.8706 16.2502C16.3183 16.4551 16.8028 16.5671 17.2949 16.5797H17.366C17.5776 16.5773 17.7887 16.5588 17.9975 16.5244V19.1056H5.99949Z" fill="black"/>
</svg>
