<svg width="18" height="20" viewBox="0 0 18 20" fill="none" xmlns="http://www.w3.org/2000/svg">
<path fill-rule="evenodd" clip-rule="evenodd" d="M12.429 0.428589C12.9812 0.428589 13.429 0.876304 13.429 1.42859V2.14288H15.0004C16.4995 2.14288 17.7147 3.35811 17.7147 4.85717V8.28571V16.8572C17.7147 18.3562 16.4995 19.5715 15.0004 19.5715H3.00042C1.50136 19.5715 0.286133 18.3562 0.286133 16.8572V8.28571V4.85717C0.286133 3.35811 1.50136 2.14288 3.00042 2.14288H4.57178V1.42859C4.57178 0.876304 5.01949 0.428589 5.57178 0.428589C6.12406 0.428589 6.57178 0.876304 6.57178 1.42859V2.14288H11.429V1.42859C11.429 0.876304 11.8767 0.428589 12.429 0.428589ZM4.57178 4.14288V4.85716C4.57178 5.40944 5.01949 5.85716 5.57178 5.85716C6.12406 5.85716 6.57178 5.40944 6.57178 4.85716V4.14288H11.429V4.85716C11.429 5.40944 11.8767 5.85716 12.429 5.85716C12.9812 5.85716 13.429 5.40944 13.429 4.85716V4.14288H15.0004C15.3949 4.14288 15.7147 4.46268 15.7147 4.85717V7.28571H2.28613V4.85717C2.28613 4.46268 2.60593 4.14288 3.00042 4.14288H4.57178ZM15.7147 9.28571V16.8572C15.7147 17.2517 15.3949 17.5715 15.0004 17.5715H3.00042C2.60593 17.5715 2.28613 17.2517 2.28613 16.8572V9.28571H15.7147Z" fill="black"/>
</svg>
