<svg width="24" height="24" viewBox="0 0 24 24" fill="none" xmlns="http://www.w3.org/2000/svg">
<path fill-rule="evenodd" clip-rule="evenodd" d="M0 2H2.5C2.81476 2 3.11115 2.14819 3.3 2.4L4.5 4H19.5604C21.4535 4 22.8734 5.73198 22.5021 7.58835L21.4629 12.7845C21.089 14.6542 19.4473 16 17.5406 16H6C5.44772 16 5 16.4477 5 17C5 17.5523 5.44772 18 6 18H21V20H19C19 21.1046 18.1046 22 17 22C15.8954 22 15 21.1046 15 20H11C11 21.1046 10.1046 22 9 22C7.89543 22 7 21.1046 7 20H6C4.34315 20 3 18.6569 3 17C3 15.4575 4.16407 14.187 5.66163 14.0189L3.09328 5.45771L2 4H0V2ZM5.34403 6L7.74403 14H17.5406C18.4939 14 19.3148 13.3271 19.5017 12.3922L20.541 7.19612C20.6647 6.57732 20.1914 6 19.5604 6H5.34403Z" fill="#DB7D8A"/>
<circle cx="17" cy="7" r="7" fill="#00CC00"/>
<path d="M14.6733 10.0852C14.232 10.0852 13.8504 9.99148 13.5284 9.80398C13.2083 9.61458 12.9612 9.35133 12.7869 9.0142C12.6127 8.67519 12.5256 8.2822 12.5256 7.83523C12.5256 7.38447 12.6127 6.99053 12.7869 6.65341C12.9612 6.31439 13.2083 6.05114 13.5284 5.86364C13.8504 5.67424 14.232 5.57955 14.6733 5.57955C15.1146 5.57955 15.4953 5.67424 15.8153 5.86364C16.1373 6.05114 16.3854 6.31439 16.5597 6.65341C16.7339 6.99053 16.821 7.38447 16.821 7.83523C16.821 8.2822 16.7339 8.67519 16.5597 9.0142C16.3854 9.35133 16.1373 9.61458 15.8153 9.80398C15.4953 9.99148 15.1146 10.0852 14.6733 10.0852ZM14.679 9.14773C14.8797 9.14773 15.0473 9.09091 15.1818 8.97727C15.3163 8.86174 15.4176 8.70455 15.4858 8.50568C15.5559 8.30682 15.5909 8.08049 15.5909 7.8267C15.5909 7.57292 15.5559 7.34659 15.4858 7.14773C15.4176 6.94886 15.3163 6.79167 15.1818 6.67614C15.0473 6.56061 14.8797 6.50284 14.679 6.50284C14.4763 6.50284 14.3059 6.56061 14.1676 6.67614C14.0313 6.79167 13.928 6.94886 13.858 7.14773C13.7898 7.34659 13.7557 7.57292 13.7557 7.8267C13.7557 8.08049 13.7898 8.30682 13.858 8.50568C13.928 8.70455 14.0313 8.86174 14.1676 8.97727C14.3059 9.09091 14.4763 9.14773 14.679 9.14773ZM18.7045 8.74432L18.7074 7.29261H18.8835L20.2812 5.63636H21.6705L19.7926 7.82955H19.5057L18.7045 8.74432ZM17.608 10V4.18182H18.8182V10H17.608ZM20.3352 10L19.0511 8.09943L19.858 7.24432L21.7528 10H20.3352Z" fill="white"/>
</svg>
