<svg width="19" height="19" viewBox="0 0 19 19" fill="none" xmlns="http://www.w3.org/2000/svg">
<path fill-rule="evenodd" clip-rule="evenodd" d="M0.5 3C0.5 1.34314 1.84315 0 3.5 0H15.5C17.1569 0 18.5 1.34315 18.5 3V13.3158C18.5 14.9726 17.1569 16.3158 15.5 16.3158H9.83508L6.54696 18.7981C6.24421 19.0267 5.8382 19.0642 5.49864 18.8951C5.15908 18.726 4.94444 18.3793 4.94444 18V16.3158H3.5C1.84315 16.3158 0.5 14.9726 0.5 13.3158V3ZM3.5 2C2.94771 2 2.5 2.44772 2.5 3V13.3158C2.5 13.8681 2.94772 14.3158 3.5 14.3158H5.94444C6.49673 14.3158 6.94444 14.7635 6.94444 15.3158V15.9921L8.89748 14.5177C9.07103 14.3867 9.28255 14.3158 9.5 14.3158H15.5C16.0523 14.3158 16.5 13.8681 16.5 13.3158V3C16.5 2.44772 16.0523 2 15.5 2H3.5Z" fill="#00817D"/>
</svg>
