<svg width="40" height="40" viewBox="0 0 40 40" fill="none" xmlns="http://www.w3.org/2000/svg">
<rect width="40" height="40" rx="8" fill="white"/>
<path d="M19.1575 22.21H17.1225C17.1225 19.7813 18.0873 17.452 19.8047 15.7347C21.522 14.0173 23.8513 13.0525 26.28 13.0525V15.0875C22.3423 15.0875 19.1575 18.2723 19.1575 22.21ZM26.28 19.1575V17.1225C23.4717 17.1225 21.1925 19.4017 21.1925 22.21H23.2275C23.2275 20.521 24.591 19.1575 26.28 19.1575ZM15.0875 12.035C15.0875 10.9056 14.1819 10 13.0525 10C11.9231 10 11.0175 10.9056 11.0175 12.035C11.0175 13.1644 11.9231 14.07 13.0525 14.07C14.1819 14.07 15.0875 13.1644 15.0875 12.035ZM19.6154 12.5438H17.5804C17.4638 13.2552 17.0978 13.902 16.5478 14.3681C15.9977 14.8342 15.2997 15.0892 14.5788 15.0875H11.5263C10.6817 15.0875 10 15.7692 10 16.6138V19.1575H16.105V16.858C17.0469 16.5593 17.881 15.9918 18.5047 15.2253C19.1284 14.4588 19.5144 13.5267 19.6154 12.5438ZM27.2975 25.2625C28.4269 25.2625 29.3325 24.3569 29.3325 23.2275C29.3325 22.0981 28.4269 21.1925 27.2975 21.1925C26.1681 21.1925 25.2625 22.0981 25.2625 23.2275C25.2625 24.3569 26.1681 25.2625 27.2975 25.2625ZM28.8238 26.28H25.7713C24.245 26.28 23.0138 25.1811 22.7696 23.7363H20.7346C20.9381 25.7713 22.3525 27.4501 24.245 28.0505V30.35H30.35V27.8063C30.35 26.9617 29.6683 26.28 28.8238 26.28Z" fill="#BE3455"/>
</svg>
