<svg width="370" height="139" viewBox="0 0 370 139" fill="none" xmlns="http://www.w3.org/2000/svg">
<g filter="url(#filter0_d_1705_29740)">
<rect x="10" y="8" width="350" height="119" rx="12" fill="white"/>
</g>
<path d="M10 74H295" stroke="url(#paint0_linear_1705_29740)" stroke-width="0.1" stroke-linecap="round" stroke-linejoin="round"/>
<path d="M10 66H295" stroke="url(#paint1_linear_1705_29740)" stroke-width="0.1" stroke-linecap="round" stroke-linejoin="round"/>
<path d="M10 58H295" stroke="url(#paint2_linear_1705_29740)" stroke-width="0.1" stroke-linecap="round" stroke-linejoin="round"/>
<path d="M10 50H295" stroke="url(#paint3_linear_1705_29740)" stroke-width="0.1" stroke-linecap="round" stroke-linejoin="round"/>
<path d="M10 42H295" stroke="url(#paint4_linear_1705_29740)" stroke-width="0.1" stroke-linecap="round" stroke-linejoin="round"/>
<path d="M10 34H295" stroke="url(#paint5_linear_1705_29740)" stroke-width="0.1" stroke-linecap="round" stroke-linejoin="round"/>
<path d="M10 26L295 26" stroke="url(#paint6_linear_1705_29740)" stroke-width="0.1" stroke-linecap="round" stroke-linejoin="round"/>
<path d="M19.3097 94.7273V102H18.429V95.6506H18.3864L16.6108 96.8295V95.9347L18.429 94.7273H19.3097ZM23.9581 94.7273V102H23.0774V95.6506H23.0348L21.2592 96.8295V95.9347L23.0774 94.7273H23.9581ZM26.245 102.057C26.0698 102.057 25.9195 101.994 25.794 101.869C25.6686 101.743 25.6058 101.593 25.6058 101.418C25.6058 101.242 25.6686 101.092 25.794 100.967C25.9195 100.841 26.0698 100.778 26.245 100.778C26.4202 100.778 26.5705 100.841 26.696 100.967C26.8215 101.092 26.8842 101.242 26.8842 101.418C26.8842 101.534 26.8546 101.64 26.7955 101.737C26.7386 101.834 26.6617 101.912 26.5646 101.972C26.4699 102.028 26.3634 102.057 26.245 102.057ZM19.3097 106.727V114H18.429V107.651H18.3864L16.6108 108.83V107.935L18.429 106.727H19.3097ZM23.7734 114.099C23.2384 114.099 22.7827 113.954 22.4062 113.663C22.0298 113.369 21.7422 112.944 21.5433 112.388C21.3445 111.829 21.245 111.154 21.245 110.364C21.245 109.578 21.3445 108.906 21.5433 108.35C21.7446 107.791 22.0334 107.365 22.4098 107.072C22.7886 106.776 23.2431 106.628 23.7734 106.628C24.3037 106.628 24.7571 106.776 25.1335 107.072C25.5123 107.365 25.8011 107.791 26 108.35C26.2012 108.906 26.3018 109.578 26.3018 110.364C26.3018 111.154 26.2024 111.829 26.0036 112.388C25.8047 112.944 25.517 113.369 25.1406 113.663C24.7642 113.954 24.3085 114.099 23.7734 114.099ZM23.7734 113.318C24.3037 113.318 24.7157 113.062 25.0092 112.551C25.3028 112.04 25.4496 111.311 25.4496 110.364C25.4496 109.734 25.3821 109.198 25.2472 108.755C25.1146 108.312 24.9228 107.975 24.6719 107.743C24.4233 107.511 24.1238 107.395 23.7734 107.395C23.2479 107.395 22.8371 107.654 22.5412 108.173C22.2453 108.689 22.0973 109.419 22.0973 110.364C22.0973 110.993 22.1636 111.528 22.2962 111.969C22.4287 112.409 22.6193 112.744 22.8679 112.974C23.1188 113.203 23.4207 113.318 23.7734 113.318Z" fill="#878D96"/>
<path d="M38.3097 94.7273V102H37.429V95.6506H37.3864L35.6108 96.8295V95.9347L37.429 94.7273H38.3097ZM42.8587 102.099C42.3899 102.099 41.9721 102.019 41.6051 101.858C41.2405 101.697 40.9505 101.473 40.7351 101.187C40.522 100.898 40.406 100.563 40.3871 100.182H41.282C41.3009 100.416 41.3814 100.619 41.5234 100.789C41.6655 100.957 41.8513 101.087 42.081 101.18C42.3106 101.272 42.5651 101.318 42.8445 101.318C43.157 101.318 43.4339 101.264 43.6754 101.155C43.9169 101.046 44.1063 100.894 44.2436 100.7C44.3809 100.506 44.4496 100.281 44.4496 100.026C44.4496 99.758 44.3833 99.5225 44.2507 99.3189C44.1181 99.1129 43.924 98.9519 43.6683 98.8359C43.4126 98.7199 43.1001 98.6619 42.7308 98.6619H42.1484V97.8807H42.7308C43.0196 97.8807 43.273 97.8286 43.4908 97.7244C43.7109 97.6203 43.8826 97.4735 44.0057 97.2841C44.1312 97.0947 44.1939 96.8722 44.1939 96.6165C44.1939 96.3703 44.1394 96.156 44.0305 95.9737C43.9216 95.7914 43.7678 95.6494 43.5689 95.5476C43.3724 95.4458 43.1404 95.3949 42.8729 95.3949C42.6219 95.3949 42.3852 95.4411 42.1626 95.5334C41.9425 95.6233 41.7625 95.7547 41.6229 95.9276C41.4832 96.098 41.4074 96.304 41.3956 96.5455H40.5433C40.5575 96.1643 40.6723 95.8305 40.8878 95.544C41.1032 95.2552 41.3849 95.0303 41.733 94.8693C42.0833 94.7083 42.468 94.6278 42.8871 94.6278C43.3369 94.6278 43.7228 94.719 44.0447 94.9013C44.3667 95.0812 44.6141 95.3191 44.7869 95.6151C44.9598 95.911 45.0462 96.2306 45.0462 96.5739C45.0462 96.9834 44.9384 97.3326 44.723 97.6214C44.5099 97.9103 44.2199 98.1103 43.853 98.2216V98.2784C44.3123 98.3542 44.6709 98.5495 44.929 98.8643C45.187 99.1768 45.3161 99.5639 45.3161 100.026C45.3161 100.421 45.2083 100.776 44.9929 101.091C44.7798 101.403 44.4886 101.65 44.1193 101.83C43.75 102.009 43.3298 102.099 42.8587 102.099ZM47.1689 102.057C46.9937 102.057 46.8433 101.994 46.7179 101.869C46.5924 101.743 46.5297 101.593 46.5297 101.418C46.5297 101.242 46.5924 101.092 46.7179 100.967C46.8433 100.841 46.9937 100.778 47.1689 100.778C47.344 100.778 47.4944 100.841 47.6199 100.967C47.7453 101.092 47.8081 101.242 47.8081 101.418C47.8081 101.534 47.7785 101.64 47.7193 101.737C47.6625 101.834 47.5855 101.912 47.4885 101.972C47.3938 102.028 47.2872 102.057 47.1689 102.057ZM38.3097 106.727V114H37.429V107.651H37.3864L35.6108 108.83V107.935L37.429 106.727H38.3097ZM42.7734 114.099C42.2384 114.099 41.7827 113.954 41.4062 113.663C41.0298 113.369 40.7422 112.944 40.5433 112.388C40.3445 111.829 40.245 111.154 40.245 110.364C40.245 109.578 40.3445 108.906 40.5433 108.35C40.7446 107.791 41.0334 107.365 41.4098 107.072C41.7886 106.776 42.2431 106.628 42.7734 106.628C43.3037 106.628 43.7571 106.776 44.1335 107.072C44.5123 107.365 44.8011 107.791 45 108.35C45.2012 108.906 45.3018 109.578 45.3018 110.364C45.3018 111.154 45.2024 111.829 45.0036 112.388C44.8047 112.944 44.517 113.369 44.1406 113.663C43.7642 113.954 43.3085 114.099 42.7734 114.099ZM42.7734 113.318C43.3037 113.318 43.7157 113.062 44.0092 112.551C44.3028 112.04 44.4496 111.311 44.4496 110.364C44.4496 109.734 44.3821 109.198 44.2472 108.755C44.1146 108.312 43.9228 107.975 43.6719 107.743C43.4233 107.511 43.1238 107.395 42.7734 107.395C42.2479 107.395 41.8371 107.654 41.5412 108.173C41.2453 108.689 41.0973 109.419 41.0973 110.364C41.0973 110.993 41.1636 111.528 41.2962 111.969C41.4287 112.409 41.6193 112.744 41.8679 112.974C42.1188 113.203 42.4207 113.318 42.7734 113.318Z" fill="#878D96"/>
<path d="M58.3097 94.7273V102H57.429V95.6506H57.3864L55.6108 96.8295V95.9347L57.429 94.7273H58.3097ZM62.674 102.099C62.2573 102.099 61.8821 102.017 61.5483 101.851C61.2145 101.685 60.947 101.458 60.7457 101.169C60.5445 100.88 60.4344 100.551 60.4155 100.182H61.2678C61.3009 100.511 61.45 100.783 61.7152 100.999C61.9827 101.212 62.3023 101.318 62.674 101.318C62.9723 101.318 63.2375 101.248 63.4695 101.109C63.7038 100.969 63.8873 100.777 64.0199 100.533C64.1548 100.287 64.2223 100.009 64.2223 99.6989C64.2223 99.3816 64.1525 99.0987 64.0128 98.8501C63.8755 98.5992 63.6861 98.4015 63.4446 98.2571C63.2031 98.1127 62.9273 98.0393 62.6172 98.0369C62.3946 98.0346 62.1662 98.0689 61.9318 98.1399C61.6974 98.2086 61.5045 98.2973 61.353 98.4062L60.5291 98.3068L60.9695 94.7273H64.7479V95.5085H61.7081L61.4524 97.6534H61.495C61.6442 97.535 61.8312 97.4368 62.0561 97.3587C62.281 97.2805 62.5154 97.2415 62.7592 97.2415C63.2043 97.2415 63.6009 97.348 63.9489 97.5611C64.2992 97.7718 64.5739 98.0606 64.7727 98.4276C64.974 98.7945 65.0746 99.2135 65.0746 99.6847C65.0746 100.149 64.9704 100.563 64.7621 100.928C64.5561 101.29 64.272 101.576 63.9098 101.787C63.5476 101.995 63.1357 102.099 62.674 102.099ZM66.8368 102.057C66.6616 102.057 66.5113 101.994 66.3858 101.869C66.2604 101.743 66.1976 101.593 66.1976 101.418C66.1976 101.242 66.2604 101.092 66.3858 100.967C66.5113 100.841 66.6616 100.778 66.8368 100.778C67.012 100.778 67.1623 100.841 67.2878 100.967C67.4133 101.092 67.476 101.242 67.476 101.418C67.476 101.534 67.4464 101.64 67.3873 101.737C67.3304 101.834 67.2535 101.912 67.1564 101.972C67.0617 102.028 66.9552 102.057 66.8368 102.057ZM58.3097 106.727V114H57.429V107.651H57.3864L55.6108 108.83V107.935L57.429 106.727H58.3097ZM62.7734 114.099C62.2384 114.099 61.7827 113.954 61.4062 113.663C61.0298 113.369 60.7422 112.944 60.5433 112.388C60.3445 111.829 60.245 111.154 60.245 110.364C60.245 109.578 60.3445 108.906 60.5433 108.35C60.7446 107.791 61.0334 107.365 61.4098 107.072C61.7886 106.776 62.2431 106.628 62.7734 106.628C63.3037 106.628 63.7571 106.776 64.1335 107.072C64.5123 107.365 64.8011 107.791 65 108.35C65.2012 108.906 65.3018 109.578 65.3018 110.364C65.3018 111.154 65.2024 111.829 65.0036 112.388C64.8047 112.944 64.517 113.369 64.1406 113.663C63.7642 113.954 63.3085 114.099 62.7734 114.099ZM62.7734 113.318C63.3037 113.318 63.7157 113.062 64.0092 112.551C64.3028 112.04 64.4496 111.311 64.4496 110.364C64.4496 109.734 64.3821 109.198 64.2472 108.755C64.1146 108.312 63.9228 107.975 63.6719 107.743C63.4233 107.511 63.1238 107.395 62.7734 107.395C62.2479 107.395 61.8371 107.654 61.5412 108.173C61.2453 108.689 61.0973 109.419 61.0973 110.364C61.0973 110.993 61.1636 111.528 61.2962 111.969C61.4287 112.409 61.6193 112.744 61.8679 112.974C62.1188 113.203 62.4207 113.318 62.7734 113.318Z" fill="#878D96"/>
<path d="M81.3097 94.7273V102H80.429V95.6506H80.3864L78.6108 96.8295V95.9347L80.429 94.7273H81.3097ZM83.6286 102L86.8814 95.5653V95.5085H83.1314V94.7273H87.7905V95.5511L84.5518 102H83.6286ZM88.4892 102.057C88.314 102.057 88.1636 101.994 88.0382 101.869C87.9127 101.743 87.85 101.593 87.85 101.418C87.85 101.242 87.9127 101.092 88.0382 100.967C88.1636 100.841 88.314 100.778 88.4892 100.778C88.6644 100.778 88.8147 100.841 88.9402 100.967C89.0656 101.092 89.1284 101.242 89.1284 101.418C89.1284 101.534 89.0988 101.64 89.0396 101.737C88.9828 101.834 88.9058 101.912 88.8088 101.972C88.7141 102.028 88.6075 102.057 88.4892 102.057ZM81.3097 106.727V114H80.429V107.651H80.3864L78.6108 108.83V107.935L80.429 106.727H81.3097ZM85.7734 114.099C85.2384 114.099 84.7827 113.954 84.4062 113.663C84.0298 113.369 83.7422 112.944 83.5433 112.388C83.3445 111.829 83.245 111.154 83.245 110.364C83.245 109.578 83.3445 108.906 83.5433 108.35C83.7446 107.791 84.0334 107.365 84.4098 107.072C84.7886 106.776 85.2431 106.628 85.7734 106.628C86.3037 106.628 86.7571 106.776 87.1335 107.072C87.5123 107.365 87.8011 107.791 88 108.35C88.2012 108.906 88.3018 109.578 88.3018 110.364C88.3018 111.154 88.2024 111.829 88.0036 112.388C87.8047 112.944 87.517 113.369 87.1406 113.663C86.7642 113.954 86.3085 114.099 85.7734 114.099ZM85.7734 113.318C86.3037 113.318 86.7157 113.062 87.0092 112.551C87.3028 112.04 87.4496 111.311 87.4496 110.364C87.4496 109.734 87.3821 109.198 87.2472 108.755C87.1146 108.312 86.9228 107.975 86.6719 107.743C86.4233 107.511 86.1238 107.395 85.7734 107.395C85.2479 107.395 84.8371 107.654 84.5412 108.173C84.2453 108.689 84.0973 109.419 84.0973 110.364C84.0973 110.993 84.1636 111.528 84.2962 111.969C84.4287 112.409 84.6193 112.744 84.8679 112.974C85.1188 113.203 85.4207 113.318 85.7734 113.318Z" fill="#878D96"/>
<path d="M101.31 94.7273V102H100.429V95.6506H100.386L98.6108 96.8295V95.9347L100.429 94.7273H101.31ZM105.717 94.6278C106.015 94.6302 106.313 94.687 106.612 94.7983C106.91 94.9096 107.182 95.0942 107.428 95.3523C107.674 95.608 107.872 95.9571 108.021 96.3999C108.17 96.8426 108.245 97.3977 108.245 98.0653C108.245 98.7116 108.183 99.2857 108.06 99.7876C107.94 100.287 107.764 100.709 107.535 101.052C107.308 101.395 107.031 101.656 106.704 101.833C106.379 102.011 106.013 102.099 105.603 102.099C105.196 102.099 104.832 102.019 104.513 101.858C104.196 101.695 103.935 101.469 103.732 101.18C103.53 100.888 103.401 100.551 103.344 100.168H104.211C104.289 100.501 104.444 100.777 104.676 100.995C104.911 101.21 105.219 101.318 105.603 101.318C106.164 101.318 106.607 101.073 106.931 100.583C107.258 100.093 107.421 99.4006 107.421 98.5057H107.364C107.232 98.7045 107.074 98.8762 106.892 99.0206C106.71 99.165 106.507 99.2763 106.285 99.3544C106.062 99.4325 105.826 99.4716 105.575 99.4716C105.158 99.4716 104.776 99.3686 104.428 99.1626C104.082 98.9543 103.805 98.669 103.597 98.3068C103.391 97.9422 103.288 97.5256 103.288 97.0568C103.288 96.6117 103.387 96.2045 103.586 95.8352C103.787 95.4635 104.069 95.1676 104.431 94.9474C104.796 94.7273 105.224 94.6207 105.717 94.6278ZM105.717 95.4091C105.418 95.4091 105.15 95.4837 104.911 95.6328C104.674 95.7796 104.486 95.9785 104.346 96.2294C104.209 96.478 104.14 96.7538 104.14 97.0568C104.14 97.3598 104.206 97.6357 104.339 97.8842C104.474 98.1304 104.657 98.3269 104.889 98.4737C105.124 98.6181 105.39 98.6903 105.688 98.6903C105.913 98.6903 106.123 98.6465 106.317 98.5589C106.511 98.469 106.68 98.3471 106.825 98.1932C106.971 98.0369 107.086 97.8606 107.169 97.6641C107.252 97.4652 107.293 97.258 107.293 97.0426C107.293 96.7585 107.225 96.4922 107.087 96.2436C106.952 95.995 106.765 95.7938 106.526 95.6399C106.29 95.486 106.02 95.4091 105.717 95.4091ZM110.013 102.057C109.837 102.057 109.687 101.994 109.562 101.869C109.436 101.743 109.373 101.593 109.373 101.418C109.373 101.242 109.436 101.092 109.562 100.967C109.687 100.841 109.837 100.778 110.013 100.778C110.188 100.778 110.338 100.841 110.464 100.967C110.589 101.092 110.652 101.242 110.652 101.418C110.652 101.534 110.622 101.64 110.563 101.737C110.506 101.834 110.429 101.912 110.332 101.972C110.238 102.028 110.131 102.057 110.013 102.057ZM101.31 106.727V114H100.429V107.651H100.386L98.6108 108.83V107.935L100.429 106.727H101.31ZM105.773 114.099C105.238 114.099 104.783 113.954 104.406 113.663C104.03 113.369 103.742 112.944 103.543 112.388C103.344 111.829 103.245 111.154 103.245 110.364C103.245 109.578 103.344 108.906 103.543 108.35C103.745 107.791 104.033 107.365 104.41 107.072C104.789 106.776 105.243 106.628 105.773 106.628C106.304 106.628 106.757 106.776 107.134 107.072C107.512 107.365 107.801 107.791 108 108.35C108.201 108.906 108.302 109.578 108.302 110.364C108.302 111.154 108.202 111.829 108.004 112.388C107.805 112.944 107.517 113.369 107.141 113.663C106.764 113.954 106.308 114.099 105.773 114.099ZM105.773 113.318C106.304 113.318 106.716 113.062 107.009 112.551C107.303 112.04 107.45 111.311 107.45 110.364C107.45 109.734 107.382 109.198 107.247 108.755C107.115 108.312 106.923 107.975 106.672 107.743C106.423 107.511 106.124 107.395 105.773 107.395C105.248 107.395 104.837 107.654 104.541 108.173C104.245 108.689 104.097 109.419 104.097 110.364C104.097 110.993 104.164 111.528 104.296 111.969C104.429 112.409 104.619 112.744 104.868 112.974C105.119 113.203 105.421 113.318 105.773 113.318Z" fill="#878D96"/>
<path d="M120.753 102V101.361L123.153 98.733C123.435 98.4252 123.667 98.1577 123.849 97.9304C124.032 97.7008 124.167 97.4853 124.254 97.2841C124.344 97.0805 124.389 96.8674 124.389 96.6449C124.389 96.3892 124.328 96.1679 124.205 95.9808C124.084 95.7938 123.918 95.6494 123.707 95.5476C123.497 95.4458 123.26 95.3949 122.997 95.3949C122.718 95.3949 122.474 95.4529 122.266 95.5689C122.06 95.6825 121.9 95.8423 121.786 96.0483C121.675 96.2543 121.619 96.4957 121.619 96.7727H120.781C120.781 96.3466 120.879 95.9725 121.076 95.6506C121.272 95.3286 121.54 95.0777 121.879 94.8977C122.219 94.7178 122.602 94.6278 123.026 94.6278C123.452 94.6278 123.829 94.7178 124.158 94.8977C124.487 95.0777 124.746 95.3203 124.933 95.6257C125.12 95.9311 125.213 96.2708 125.213 96.6449C125.213 96.9124 125.165 97.174 125.067 97.4297C124.973 97.683 124.807 97.9659 124.57 98.2784C124.336 98.5885 124.01 98.9673 123.594 99.4148L121.96 101.162V101.219H125.341V102H120.753ZM129.364 94.7273V102H128.484V95.6506H128.441L126.665 96.8295V95.9347L128.484 94.7273H129.364ZM131.651 102.057C131.476 102.057 131.326 101.994 131.2 101.869C131.075 101.743 131.012 101.593 131.012 101.418C131.012 101.242 131.075 101.092 131.2 100.967C131.326 100.841 131.476 100.778 131.651 100.778C131.826 100.778 131.977 100.841 132.102 100.967C132.228 101.092 132.29 101.242 132.29 101.418C132.29 101.534 132.261 101.64 132.202 101.737C132.145 101.834 132.068 101.912 131.971 101.972C131.876 102.028 131.77 102.057 131.651 102.057ZM123.31 106.727V114H122.429V107.651H122.386L120.611 108.83V107.935L122.429 106.727H123.31ZM127.773 114.099C127.238 114.099 126.783 113.954 126.406 113.663C126.03 113.369 125.742 112.944 125.543 112.388C125.344 111.829 125.245 111.154 125.245 110.364C125.245 109.578 125.344 108.906 125.543 108.35C125.745 107.791 126.033 107.365 126.41 107.072C126.789 106.776 127.243 106.628 127.773 106.628C128.304 106.628 128.757 106.776 129.134 107.072C129.512 107.365 129.801 107.791 130 108.35C130.201 108.906 130.302 109.578 130.302 110.364C130.302 111.154 130.202 111.829 130.004 112.388C129.805 112.944 129.517 113.369 129.141 113.663C128.764 113.954 128.308 114.099 127.773 114.099ZM127.773 113.318C128.304 113.318 128.716 113.062 129.009 112.551C129.303 112.04 129.45 111.311 129.45 110.364C129.45 109.734 129.382 109.198 129.247 108.755C129.115 108.312 128.923 107.975 128.672 107.743C128.423 107.511 128.124 107.395 127.773 107.395C127.248 107.395 126.837 107.654 126.541 108.173C126.245 108.689 126.097 109.419 126.097 110.364C126.097 110.993 126.164 111.528 126.296 111.969C126.429 112.409 126.619 112.744 126.868 112.974C127.119 113.203 127.421 113.318 127.773 113.318Z" fill="#878D96"/>
<path d="M140.753 102V101.361L143.153 98.733C143.435 98.4252 143.667 98.1577 143.849 97.9304C144.032 97.7008 144.167 97.4853 144.254 97.2841C144.344 97.0805 144.389 96.8674 144.389 96.6449C144.389 96.3892 144.328 96.1679 144.205 95.9808C144.084 95.7938 143.918 95.6494 143.707 95.5476C143.497 95.4458 143.26 95.3949 142.997 95.3949C142.718 95.3949 142.474 95.4529 142.266 95.5689C142.06 95.6825 141.9 95.8423 141.786 96.0483C141.675 96.2543 141.619 96.4957 141.619 96.7727H140.781C140.781 96.3466 140.879 95.9725 141.076 95.6506C141.272 95.3286 141.54 95.0777 141.879 94.8977C142.219 94.7178 142.602 94.6278 143.026 94.6278C143.452 94.6278 143.829 94.7178 144.158 94.8977C144.487 95.0777 144.746 95.3203 144.933 95.6257C145.12 95.9311 145.213 96.2708 145.213 96.6449C145.213 96.9124 145.165 97.174 145.067 97.4297C144.973 97.683 144.807 97.9659 144.57 98.2784C144.336 98.5885 144.01 98.9673 143.594 99.4148L141.96 101.162V101.219H145.341V102H140.753ZM149.265 102.099C148.796 102.099 148.378 102.019 148.011 101.858C147.647 101.697 147.357 101.473 147.141 101.187C146.928 100.898 146.812 100.563 146.793 100.182H147.688C147.707 100.416 147.788 100.619 147.93 100.789C148.072 100.957 148.258 101.087 148.487 101.18C148.717 101.272 148.971 101.318 149.251 101.318C149.563 101.318 149.84 101.264 150.082 101.155C150.323 101.046 150.513 100.894 150.65 100.7C150.787 100.506 150.856 100.281 150.856 100.026C150.856 99.758 150.79 99.5225 150.657 99.3189C150.524 99.1129 150.33 98.9519 150.075 98.8359C149.819 98.7199 149.506 98.6619 149.137 98.6619H148.555V97.8807H149.137C149.426 97.8807 149.679 97.8286 149.897 97.7244C150.117 97.6203 150.289 97.4735 150.412 97.2841C150.537 97.0947 150.6 96.8722 150.6 96.6165C150.6 96.3703 150.546 96.156 150.437 95.9737C150.328 95.7914 150.174 95.6494 149.975 95.5476C149.779 95.4458 149.547 95.3949 149.279 95.3949C149.028 95.3949 148.791 95.4411 148.569 95.5334C148.349 95.6233 148.169 95.7547 148.029 95.9276C147.889 96.098 147.814 96.304 147.802 96.5455H146.95C146.964 96.1643 147.079 95.8305 147.294 95.544C147.509 95.2552 147.791 95.0303 148.139 94.8693C148.49 94.7083 148.874 94.6278 149.293 94.6278C149.743 94.6278 150.129 94.719 150.451 94.9013C150.773 95.0812 151.02 95.3191 151.193 95.6151C151.366 95.911 151.452 96.2306 151.452 96.5739C151.452 96.9834 151.345 97.3326 151.129 97.6214C150.916 97.9103 150.626 98.1103 150.259 98.2216V98.2784C150.719 98.3542 151.077 98.5495 151.335 98.8643C151.593 99.1768 151.722 99.5639 151.722 100.026C151.722 100.421 151.615 100.776 151.399 101.091C151.186 101.403 150.895 101.65 150.526 101.83C150.156 102.009 149.736 102.099 149.265 102.099ZM153.575 102.057C153.4 102.057 153.25 101.994 153.124 101.869C152.999 101.743 152.936 101.593 152.936 101.418C152.936 101.242 152.999 101.092 153.124 100.967C153.25 100.841 153.4 100.778 153.575 100.778C153.75 100.778 153.901 100.841 154.026 100.967C154.152 101.092 154.214 101.242 154.214 101.418C154.214 101.534 154.185 101.64 154.126 101.737C154.069 101.834 153.992 101.912 153.895 101.972C153.8 102.028 153.693 102.057 153.575 102.057ZM143.31 106.727V114H142.429V107.651H142.386L140.611 108.83V107.935L142.429 106.727H143.31ZM147.773 114.099C147.238 114.099 146.783 113.954 146.406 113.663C146.03 113.369 145.742 112.944 145.543 112.388C145.344 111.829 145.245 111.154 145.245 110.364C145.245 109.578 145.344 108.906 145.543 108.35C145.745 107.791 146.033 107.365 146.41 107.072C146.789 106.776 147.243 106.628 147.773 106.628C148.304 106.628 148.757 106.776 149.134 107.072C149.512 107.365 149.801 107.791 150 108.35C150.201 108.906 150.302 109.578 150.302 110.364C150.302 111.154 150.202 111.829 150.004 112.388C149.805 112.944 149.517 113.369 149.141 113.663C148.764 113.954 148.308 114.099 147.773 114.099ZM147.773 113.318C148.304 113.318 148.716 113.062 149.009 112.551C149.303 112.04 149.45 111.311 149.45 110.364C149.45 109.734 149.382 109.198 149.247 108.755C149.115 108.312 148.923 107.975 148.672 107.743C148.423 107.511 148.124 107.395 147.773 107.395C147.248 107.395 146.837 107.654 146.541 108.173C146.245 108.689 146.097 109.419 146.097 110.364C146.097 110.993 146.164 111.528 146.296 111.969C146.429 112.409 146.619 112.744 146.868 112.974C147.119 113.203 147.421 113.318 147.773 113.318Z" fill="#878D96"/>
<path d="M162.753 102V101.361L165.153 98.733C165.435 98.4252 165.667 98.1577 165.849 97.9304C166.032 97.7008 166.167 97.4853 166.254 97.2841C166.344 97.0805 166.389 96.8674 166.389 96.6449C166.389 96.3892 166.328 96.1679 166.205 95.9808C166.084 95.7938 165.918 95.6494 165.707 95.5476C165.497 95.4458 165.26 95.3949 164.997 95.3949C164.718 95.3949 164.474 95.4529 164.266 95.5689C164.06 95.6825 163.9 95.8423 163.786 96.0483C163.675 96.2543 163.619 96.4957 163.619 96.7727H162.781C162.781 96.3466 162.879 95.9725 163.076 95.6506C163.272 95.3286 163.54 95.0777 163.879 94.8977C164.219 94.7178 164.602 94.6278 165.026 94.6278C165.452 94.6278 165.829 94.7178 166.158 94.8977C166.487 95.0777 166.746 95.3203 166.933 95.6257C167.12 95.9311 167.213 96.2708 167.213 96.6449C167.213 96.9124 167.165 97.174 167.067 97.4297C166.973 97.683 166.807 97.9659 166.57 98.2784C166.336 98.5885 166.01 98.9673 165.594 99.4148L163.96 101.162V101.219H167.341V102H162.753ZM171.08 102.099C170.664 102.099 170.288 102.017 169.955 101.851C169.621 101.685 169.353 101.458 169.152 101.169C168.951 100.88 168.841 100.551 168.822 100.182H169.674C169.707 100.511 169.856 100.783 170.121 100.999C170.389 101.212 170.709 101.318 171.08 101.318C171.379 101.318 171.644 101.248 171.876 101.109C172.11 100.969 172.294 100.777 172.426 100.533C172.561 100.287 172.629 100.009 172.629 99.6989C172.629 99.3816 172.559 99.0987 172.419 98.8501C172.282 98.5992 172.092 98.4015 171.851 98.2571C171.609 98.1127 171.334 98.0393 171.023 98.0369C170.801 98.0346 170.572 98.0689 170.338 98.1399C170.104 98.2086 169.911 98.2973 169.759 98.4062L168.935 98.3068L169.376 94.7273H173.154V95.5085H170.114L169.859 97.6534H169.901C170.05 97.535 170.237 97.4368 170.462 97.3587C170.687 97.2805 170.922 97.2415 171.165 97.2415C171.611 97.2415 172.007 97.348 172.355 97.5611C172.705 97.7718 172.98 98.0606 173.179 98.4276C173.38 98.7945 173.481 99.2135 173.481 99.6847C173.481 100.149 173.377 100.563 173.168 100.928C172.962 101.29 172.678 101.576 172.316 101.787C171.954 101.995 171.542 102.099 171.08 102.099ZM175.243 102.057C175.068 102.057 174.918 101.994 174.792 101.869C174.667 101.743 174.604 101.593 174.604 101.418C174.604 101.242 174.667 101.092 174.792 100.967C174.918 100.841 175.068 100.778 175.243 100.778C175.418 100.778 175.569 100.841 175.694 100.967C175.82 101.092 175.882 101.242 175.882 101.418C175.882 101.534 175.853 101.64 175.794 101.737C175.737 101.834 175.66 101.912 175.563 101.972C175.468 102.028 175.361 102.057 175.243 102.057ZM165.31 106.727V114H164.429V107.651H164.386L162.611 108.83V107.935L164.429 106.727H165.31ZM169.773 114.099C169.238 114.099 168.783 113.954 168.406 113.663C168.03 113.369 167.742 112.944 167.543 112.388C167.344 111.829 167.245 111.154 167.245 110.364C167.245 109.578 167.344 108.906 167.543 108.35C167.745 107.791 168.033 107.365 168.41 107.072C168.789 106.776 169.243 106.628 169.773 106.628C170.304 106.628 170.757 106.776 171.134 107.072C171.512 107.365 171.801 107.791 172 108.35C172.201 108.906 172.302 109.578 172.302 110.364C172.302 111.154 172.202 111.829 172.004 112.388C171.805 112.944 171.517 113.369 171.141 113.663C170.764 113.954 170.308 114.099 169.773 114.099ZM169.773 113.318C170.304 113.318 170.716 113.062 171.009 112.551C171.303 112.04 171.45 111.311 171.45 110.364C171.45 109.734 171.382 109.198 171.247 108.755C171.115 108.312 170.923 107.975 170.672 107.743C170.423 107.511 170.124 107.395 169.773 107.395C169.248 107.395 168.837 107.654 168.541 108.173C168.245 108.689 168.097 109.419 168.097 110.364C168.097 110.993 168.164 111.528 168.296 111.969C168.429 112.409 168.619 112.744 168.868 112.974C169.119 113.203 169.421 113.318 169.773 113.318Z" fill="#878D96"/>
<path d="M182.753 102V101.361L185.153 98.733C185.435 98.4252 185.667 98.1577 185.849 97.9304C186.032 97.7008 186.167 97.4853 186.254 97.2841C186.344 97.0805 186.389 96.8674 186.389 96.6449C186.389 96.3892 186.328 96.1679 186.205 95.9808C186.084 95.7938 185.918 95.6494 185.707 95.5476C185.497 95.4458 185.26 95.3949 184.997 95.3949C184.718 95.3949 184.474 95.4529 184.266 95.5689C184.06 95.6825 183.9 95.8423 183.786 96.0483C183.675 96.2543 183.619 96.4957 183.619 96.7727H182.781C182.781 96.3466 182.879 95.9725 183.076 95.6506C183.272 95.3286 183.54 95.0777 183.879 94.8977C184.219 94.7178 184.602 94.6278 185.026 94.6278C185.452 94.6278 185.829 94.7178 186.158 94.8977C186.487 95.0777 186.746 95.3203 186.933 95.6257C187.12 95.9311 187.213 96.2708 187.213 96.6449C187.213 96.9124 187.165 97.174 187.067 97.4297C186.973 97.683 186.807 97.9659 186.57 98.2784C186.336 98.5885 186.01 98.9673 185.594 99.4148L183.96 101.162V101.219H187.341V102H182.753ZM189.035 102L192.288 95.5653V95.5085H188.538V94.7273H193.197V95.5511L189.958 102H189.035ZM193.895 102.057C193.72 102.057 193.57 101.994 193.444 101.869C193.319 101.743 193.256 101.593 193.256 101.418C193.256 101.242 193.319 101.092 193.444 100.967C193.57 100.841 193.72 100.778 193.895 100.778C194.071 100.778 194.221 100.841 194.346 100.967C194.472 101.092 194.535 101.242 194.535 101.418C194.535 101.534 194.505 101.64 194.446 101.737C194.389 101.834 194.312 101.912 194.215 101.972C194.12 102.028 194.014 102.057 193.895 102.057ZM185.31 106.727V114H184.429V107.651H184.386L182.611 108.83V107.935L184.429 106.727H185.31ZM189.773 114.099C189.238 114.099 188.783 113.954 188.406 113.663C188.03 113.369 187.742 112.944 187.543 112.388C187.344 111.829 187.245 111.154 187.245 110.364C187.245 109.578 187.344 108.906 187.543 108.35C187.745 107.791 188.033 107.365 188.41 107.072C188.789 106.776 189.243 106.628 189.773 106.628C190.304 106.628 190.757 106.776 191.134 107.072C191.512 107.365 191.801 107.791 192 108.35C192.201 108.906 192.302 109.578 192.302 110.364C192.302 111.154 192.202 111.829 192.004 112.388C191.805 112.944 191.517 113.369 191.141 113.663C190.764 113.954 190.308 114.099 189.773 114.099ZM189.773 113.318C190.304 113.318 190.716 113.062 191.009 112.551C191.303 112.04 191.45 111.311 191.45 110.364C191.45 109.734 191.382 109.198 191.247 108.755C191.115 108.312 190.923 107.975 190.672 107.743C190.423 107.511 190.124 107.395 189.773 107.395C189.248 107.395 188.837 107.654 188.541 108.173C188.245 108.689 188.097 109.419 188.097 110.364C188.097 110.993 188.164 111.528 188.296 111.969C188.429 112.409 188.619 112.744 188.868 112.974C189.119 113.203 189.421 113.318 189.773 113.318Z" fill="#878D96"/>
<path d="M203.753 102V101.361L206.153 98.733C206.435 98.4252 206.667 98.1577 206.849 97.9304C207.032 97.7008 207.167 97.4853 207.254 97.2841C207.344 97.0805 207.389 96.8674 207.389 96.6449C207.389 96.3892 207.328 96.1679 207.205 95.9808C207.084 95.7938 206.918 95.6494 206.707 95.5476C206.497 95.4458 206.26 95.3949 205.997 95.3949C205.718 95.3949 205.474 95.4529 205.266 95.5689C205.06 95.6825 204.9 95.8423 204.786 96.0483C204.675 96.2543 204.619 96.4957 204.619 96.7727H203.781C203.781 96.3466 203.879 95.9725 204.076 95.6506C204.272 95.3286 204.54 95.0777 204.879 94.8977C205.219 94.7178 205.602 94.6278 206.026 94.6278C206.452 94.6278 206.829 94.7178 207.158 94.8977C207.487 95.0777 207.746 95.3203 207.933 95.6257C208.12 95.9311 208.213 96.2708 208.213 96.6449C208.213 96.9124 208.165 97.174 208.067 97.4297C207.973 97.683 207.807 97.9659 207.57 98.2784C207.336 98.5885 207.01 98.9673 206.594 99.4148L204.96 101.162V101.219H208.341V102H203.753ZM212.123 94.6278C212.421 94.6302 212.719 94.687 213.018 94.7983C213.316 94.9096 213.588 95.0942 213.835 95.3523C214.081 95.608 214.278 95.9571 214.428 96.3999C214.577 96.8426 214.651 97.3977 214.651 98.0653C214.651 98.7116 214.59 99.2857 214.467 99.7876C214.346 100.287 214.171 100.709 213.941 101.052C213.714 101.395 213.437 101.656 213.11 101.833C212.786 102.011 212.419 102.099 212.009 102.099C211.602 102.099 211.239 102.019 210.919 101.858C210.602 101.695 210.341 101.469 210.138 101.18C209.937 100.888 209.808 100.551 209.751 100.168H210.617C210.695 100.501 210.85 100.777 211.082 100.995C211.317 101.21 211.626 101.318 212.009 101.318C212.57 101.318 213.013 101.073 213.337 100.583C213.664 100.093 213.827 99.4006 213.827 98.5057H213.771C213.638 98.7045 213.481 98.8762 213.298 99.0206C213.116 99.165 212.914 99.2763 212.691 99.3544C212.469 99.4325 212.232 99.4716 211.981 99.4716C211.564 99.4716 211.182 99.3686 210.834 99.1626C210.488 98.9543 210.211 98.669 210.003 98.3068C209.797 97.9422 209.694 97.5256 209.694 97.0568C209.694 96.6117 209.793 96.2045 209.992 95.8352C210.193 95.4635 210.475 95.1676 210.837 94.9474C211.202 94.7273 211.63 94.6207 212.123 94.6278ZM212.123 95.4091C211.825 95.4091 211.556 95.4837 211.317 95.6328C211.08 95.7796 210.892 95.9785 210.752 96.2294C210.615 96.478 210.546 96.7538 210.546 97.0568C210.546 97.3598 210.612 97.6357 210.745 97.8842C210.88 98.1304 211.063 98.3269 211.295 98.4737C211.53 98.6181 211.796 98.6903 212.094 98.6903C212.319 98.6903 212.529 98.6465 212.723 98.5589C212.917 98.469 213.086 98.3471 213.231 98.1932C213.378 98.0369 213.492 97.8606 213.575 97.6641C213.658 97.4652 213.7 97.258 213.7 97.0426C213.7 96.7585 213.631 96.4922 213.494 96.2436C213.359 95.995 213.172 95.7938 212.933 95.6399C212.696 95.486 212.426 95.4091 212.123 95.4091ZM216.419 102.057C216.244 102.057 216.093 101.994 215.968 101.869C215.842 101.743 215.78 101.593 215.78 101.418C215.78 101.242 215.842 101.092 215.968 100.967C216.093 100.841 216.244 100.778 216.419 100.778C216.594 100.778 216.744 100.841 216.87 100.967C216.995 101.092 217.058 101.242 217.058 101.418C217.058 101.534 217.028 101.64 216.969 101.737C216.912 101.834 216.836 101.912 216.738 101.972C216.644 102.028 216.537 102.057 216.419 102.057ZM206.31 106.727V114H205.429V107.651H205.386L203.611 108.83V107.935L205.429 106.727H206.31ZM210.773 114.099C210.238 114.099 209.783 113.954 209.406 113.663C209.03 113.369 208.742 112.944 208.543 112.388C208.344 111.829 208.245 111.154 208.245 110.364C208.245 109.578 208.344 108.906 208.543 108.35C208.745 107.791 209.033 107.365 209.41 107.072C209.789 106.776 210.243 106.628 210.773 106.628C211.304 106.628 211.757 106.776 212.134 107.072C212.512 107.365 212.801 107.791 213 108.35C213.201 108.906 213.302 109.578 213.302 110.364C213.302 111.154 213.202 111.829 213.004 112.388C212.805 112.944 212.517 113.369 212.141 113.663C211.764 113.954 211.308 114.099 210.773 114.099ZM210.773 113.318C211.304 113.318 211.716 113.062 212.009 112.551C212.303 112.04 212.45 111.311 212.45 110.364C212.45 109.734 212.382 109.198 212.247 108.755C212.115 108.312 211.923 107.975 211.672 107.743C211.423 107.511 211.124 107.395 210.773 107.395C210.248 107.395 209.837 107.654 209.541 108.173C209.245 108.689 209.097 109.419 209.097 110.364C209.097 110.993 209.164 111.528 209.296 111.969C209.429 112.409 209.619 112.744 209.868 112.974C210.119 113.203 210.421 113.318 210.773 113.318Z" fill="#878D96"/>
<path d="M230.125 102.099C229.59 102.099 229.134 101.954 228.758 101.663C228.381 101.369 228.094 100.944 227.895 100.388C227.696 99.8291 227.597 99.1544 227.597 98.3636C227.597 97.5777 227.696 96.9065 227.895 96.3501C228.096 95.7914 228.385 95.3653 228.761 95.0717C229.14 94.7758 229.595 94.6278 230.125 94.6278C230.655 94.6278 231.109 94.7758 231.485 95.0717C231.864 95.3653 232.153 95.7914 232.352 96.3501C232.553 96.9065 232.653 97.5777 232.653 98.3636C232.653 99.1544 232.554 99.8291 232.355 100.388C232.156 100.944 231.869 101.369 231.492 101.663C231.116 101.954 230.66 102.099 230.125 102.099ZM230.125 101.318C230.655 101.318 231.067 101.062 231.361 100.551C231.654 100.04 231.801 99.3106 231.801 98.3636C231.801 97.7339 231.734 97.1977 231.599 96.755C231.466 96.3123 231.274 95.9749 231.023 95.7429C230.775 95.5109 230.475 95.3949 230.125 95.3949C229.599 95.3949 229.189 95.6541 228.893 96.1726C228.597 96.6887 228.449 97.419 228.449 98.3636C228.449 98.9934 228.515 99.5284 228.648 99.9688C228.78 100.409 228.971 100.744 229.219 100.974C229.47 101.203 229.772 101.318 230.125 101.318ZM236.56 94.7273V102H235.679V95.6506H235.636L233.861 96.8295V95.9347L235.679 94.7273H236.56ZM238.847 102.057C238.671 102.057 238.521 101.994 238.396 101.869C238.27 101.743 238.207 101.593 238.207 101.418C238.207 101.242 238.27 101.092 238.396 100.967C238.521 100.841 238.671 100.778 238.847 100.778C239.022 100.778 239.172 100.841 239.298 100.967C239.423 101.092 239.486 101.242 239.486 101.418C239.486 101.534 239.456 101.64 239.397 101.737C239.34 101.834 239.263 101.912 239.166 101.972C239.071 102.028 238.965 102.057 238.847 102.057ZM230.31 106.727V114H229.429V107.651H229.386L227.611 108.83V107.935L229.429 106.727H230.31ZM234.958 106.727V114H234.077V107.651H234.035L232.259 108.83V107.935L234.077 106.727H234.958Z" fill="#878D96"/>
<path d="M251.125 102.099C250.59 102.099 250.134 101.954 249.758 101.663C249.381 101.369 249.094 100.944 248.895 100.388C248.696 99.8291 248.597 99.1544 248.597 98.3636C248.597 97.5777 248.696 96.9065 248.895 96.3501C249.096 95.7914 249.385 95.3653 249.761 95.0717C250.14 94.7758 250.595 94.6278 251.125 94.6278C251.655 94.6278 252.109 94.7758 252.485 95.0717C252.864 95.3653 253.153 95.7914 253.352 96.3501C253.553 96.9065 253.653 97.5777 253.653 98.3636C253.653 99.1544 253.554 99.8291 253.355 100.388C253.156 100.944 252.869 101.369 252.492 101.663C252.116 101.954 251.66 102.099 251.125 102.099ZM251.125 101.318C251.655 101.318 252.067 101.062 252.361 100.551C252.654 100.04 252.801 99.3106 252.801 98.3636C252.801 97.7339 252.734 97.1977 252.599 96.755C252.466 96.3123 252.274 95.9749 252.023 95.7429C251.775 95.5109 251.475 95.3949 251.125 95.3949C250.599 95.3949 250.189 95.6541 249.893 96.1726C249.597 96.6887 249.449 97.419 249.449 98.3636C249.449 98.9934 249.515 99.5284 249.648 99.9688C249.78 100.409 249.971 100.744 250.219 100.974C250.47 101.203 250.772 101.318 251.125 101.318ZM257.46 102.099C256.991 102.099 256.574 102.019 256.207 101.858C255.842 101.697 255.552 101.473 255.337 101.187C255.124 100.898 255.008 100.563 254.989 100.182H255.884C255.902 100.416 255.983 100.619 256.125 100.789C256.267 100.957 256.453 101.087 256.683 101.18C256.912 101.272 257.167 101.318 257.446 101.318C257.759 101.318 258.036 101.264 258.277 101.155C258.518 101.046 258.708 100.894 258.845 100.7C258.982 100.506 259.051 100.281 259.051 100.026C259.051 99.758 258.985 99.5225 258.852 99.3189C258.72 99.1129 258.526 98.9519 258.27 98.8359C258.014 98.7199 257.702 98.6619 257.332 98.6619H256.75V97.8807H257.332C257.621 97.8807 257.875 97.8286 258.092 97.7244C258.313 97.6203 258.484 97.4735 258.607 97.2841C258.733 97.0947 258.795 96.8722 258.795 96.6165C258.795 96.3703 258.741 96.156 258.632 95.9737C258.523 95.7914 258.369 95.6494 258.17 95.5476C257.974 95.4458 257.742 95.3949 257.474 95.3949C257.223 95.3949 256.987 95.4411 256.764 95.5334C256.544 95.6233 256.364 95.7547 256.224 95.9276C256.085 96.098 256.009 96.304 255.997 96.5455H255.145C255.159 96.1643 255.274 95.8305 255.489 95.544C255.705 95.2552 255.987 95.0303 256.335 94.8693C256.685 94.7083 257.07 94.6278 257.489 94.6278C257.938 94.6278 258.324 94.719 258.646 94.9013C258.968 95.0812 259.216 95.3191 259.388 95.6151C259.561 95.911 259.648 96.2306 259.648 96.5739C259.648 96.9834 259.54 97.3326 259.325 97.6214C259.112 97.9103 258.821 98.1103 258.455 98.2216V98.2784C258.914 98.3542 259.272 98.5495 259.531 98.8643C259.789 99.1768 259.918 99.5639 259.918 100.026C259.918 100.421 259.81 100.776 259.594 101.091C259.381 101.403 259.09 101.65 258.721 101.83C258.352 102.009 257.931 102.099 257.46 102.099ZM261.77 102.057C261.595 102.057 261.445 101.994 261.319 101.869C261.194 101.743 261.131 101.593 261.131 101.418C261.131 101.242 261.194 101.092 261.319 100.967C261.445 100.841 261.595 100.778 261.77 100.778C261.946 100.778 262.096 100.841 262.221 100.967C262.347 101.092 262.41 101.242 262.41 101.418C262.41 101.534 262.38 101.64 262.321 101.737C262.264 101.834 262.187 101.912 262.09 101.972C261.995 102.028 261.889 102.057 261.77 102.057ZM251.31 106.727V114H250.429V107.651H250.386L248.611 108.83V107.935L250.429 106.727H251.31ZM255.958 106.727V114H255.077V107.651H255.035L253.259 108.83V107.935L255.077 106.727H255.958Z" fill="#878D96"/>
<path d="M270.125 102.099C269.59 102.099 269.134 101.954 268.758 101.663C268.381 101.369 268.094 100.944 267.895 100.388C267.696 99.8291 267.597 99.1544 267.597 98.3636C267.597 97.5777 267.696 96.9065 267.895 96.3501C268.096 95.7914 268.385 95.3653 268.761 95.0717C269.14 94.7758 269.595 94.6278 270.125 94.6278C270.655 94.6278 271.109 94.7758 271.485 95.0717C271.864 95.3653 272.153 95.7914 272.352 96.3501C272.553 96.9065 272.653 97.5777 272.653 98.3636C272.653 99.1544 272.554 99.8291 272.355 100.388C272.156 100.944 271.869 101.369 271.492 101.663C271.116 101.954 270.66 102.099 270.125 102.099ZM270.125 101.318C270.655 101.318 271.067 101.062 271.361 100.551C271.654 100.04 271.801 99.3106 271.801 98.3636C271.801 97.7339 271.734 97.1977 271.599 96.755C271.466 96.3123 271.274 95.9749 271.023 95.7429C270.775 95.5109 270.475 95.3949 270.125 95.3949C269.599 95.3949 269.189 95.6541 268.893 96.1726C268.597 96.6887 268.449 97.419 268.449 98.3636C268.449 98.9934 268.515 99.5284 268.648 99.9688C268.78 100.409 268.971 100.744 269.219 100.974C269.47 101.203 269.772 101.318 270.125 101.318ZM276.276 102.099C275.859 102.099 275.484 102.017 275.15 101.851C274.816 101.685 274.549 101.458 274.347 101.169C274.146 100.88 274.036 100.551 274.017 100.182H274.869C274.902 100.511 275.052 100.783 275.317 100.999C275.584 101.212 275.904 101.318 276.276 101.318C276.574 101.318 276.839 101.248 277.071 101.109C277.305 100.969 277.489 100.777 277.621 100.533C277.756 100.287 277.824 100.009 277.824 99.6989C277.824 99.3816 277.754 99.0987 277.614 98.8501C277.477 98.5992 277.288 98.4015 277.046 98.2571C276.805 98.1127 276.529 98.0393 276.219 98.0369C275.996 98.0346 275.768 98.0689 275.533 98.1399C275.299 98.2086 275.106 98.2973 274.955 98.4062L274.131 98.3068L274.571 94.7273H278.349V95.5085H275.31L275.054 97.6534H275.097C275.246 97.535 275.433 97.4368 275.658 97.3587C275.883 97.2805 276.117 97.2415 276.361 97.2415C276.806 97.2415 277.202 97.348 277.55 97.5611C277.901 97.7718 278.175 98.0606 278.374 98.4276C278.576 98.7945 278.676 99.2135 278.676 99.6847C278.676 100.149 278.572 100.563 278.364 100.928C278.158 101.29 277.874 101.576 277.511 101.787C277.149 101.995 276.737 102.099 276.276 102.099ZM280.438 102.057C280.263 102.057 280.113 101.994 279.987 101.869C279.862 101.743 279.799 101.593 279.799 101.418C279.799 101.242 279.862 101.092 279.987 100.967C280.113 100.841 280.263 100.778 280.438 100.778C280.614 100.778 280.764 100.841 280.889 100.967C281.015 101.092 281.078 101.242 281.078 101.418C281.078 101.534 281.048 101.64 280.989 101.737C280.932 101.834 280.855 101.912 280.758 101.972C280.663 102.028 280.557 102.057 280.438 102.057ZM270.31 106.727V114H269.429V107.651H269.386L267.611 108.83V107.935L269.429 106.727H270.31ZM274.958 106.727V114H274.077V107.651H274.035L272.259 108.83V107.935L274.077 106.727H274.958Z" fill="#878D96"/>
<path d="M291.125 102.099C290.59 102.099 290.134 101.954 289.758 101.663C289.381 101.369 289.094 100.944 288.895 100.388C288.696 99.8291 288.597 99.1544 288.597 98.3636C288.597 97.5777 288.696 96.9065 288.895 96.3501C289.096 95.7914 289.385 95.3653 289.761 95.0717C290.14 94.7758 290.595 94.6278 291.125 94.6278C291.655 94.6278 292.109 94.7758 292.485 95.0717C292.864 95.3653 293.153 95.7914 293.352 96.3501C293.553 96.9065 293.653 97.5777 293.653 98.3636C293.653 99.1544 293.554 99.8291 293.355 100.388C293.156 100.944 292.869 101.369 292.492 101.663C292.116 101.954 291.66 102.099 291.125 102.099ZM291.125 101.318C291.655 101.318 292.067 101.062 292.361 100.551C292.654 100.04 292.801 99.3106 292.801 98.3636C292.801 97.7339 292.734 97.1977 292.599 96.755C292.466 96.3123 292.274 95.9749 292.023 95.7429C291.775 95.5109 291.475 95.3949 291.125 95.3949C290.599 95.3949 290.189 95.6541 289.893 96.1726C289.597 96.6887 289.449 97.419 289.449 98.3636C289.449 98.9934 289.515 99.5284 289.648 99.9688C289.78 100.409 289.971 100.744 290.219 100.974C290.47 101.203 290.772 101.318 291.125 101.318ZM295.035 102L298.288 95.5653V95.5085H294.538V94.7273H299.197V95.5511L295.958 102H295.035ZM299.895 102.057C299.72 102.057 299.57 101.994 299.444 101.869C299.319 101.743 299.256 101.593 299.256 101.418C299.256 101.242 299.319 101.092 299.444 100.967C299.57 100.841 299.72 100.778 299.895 100.778C300.071 100.778 300.221 100.841 300.346 100.967C300.472 101.092 300.535 101.242 300.535 101.418C300.535 101.534 300.505 101.64 300.446 101.737C300.389 101.834 300.312 101.912 300.215 101.972C300.12 102.028 300.014 102.057 299.895 102.057ZM291.31 106.727V114H290.429V107.651H290.386L288.611 108.83V107.935L290.429 106.727H291.31ZM295.958 106.727V114H295.077V107.651H295.035L293.259 108.83V107.935L295.077 106.727H295.958Z" fill="#878D96"/>
<path d="M311.125 102.099C310.59 102.099 310.134 101.954 309.758 101.663C309.381 101.369 309.094 100.944 308.895 100.388C308.696 99.8291 308.597 99.1544 308.597 98.3636C308.597 97.5777 308.696 96.9065 308.895 96.3501C309.096 95.7914 309.385 95.3653 309.761 95.0717C310.14 94.7758 310.595 94.6278 311.125 94.6278C311.655 94.6278 312.109 94.7758 312.485 95.0717C312.864 95.3653 313.153 95.7914 313.352 96.3501C313.553 96.9065 313.653 97.5777 313.653 98.3636C313.653 99.1544 313.554 99.8291 313.355 100.388C313.156 100.944 312.869 101.369 312.492 101.663C312.116 101.954 311.66 102.099 311.125 102.099ZM311.125 101.318C311.655 101.318 312.067 101.062 312.361 100.551C312.654 100.04 312.801 99.3106 312.801 98.3636C312.801 97.7339 312.734 97.1977 312.599 96.755C312.466 96.3123 312.274 95.9749 312.023 95.7429C311.775 95.5109 311.475 95.3949 311.125 95.3949C310.599 95.3949 310.189 95.6541 309.893 96.1726C309.597 96.6887 309.449 97.419 309.449 98.3636C309.449 98.9934 309.515 99.5284 309.648 99.9688C309.78 100.409 309.971 100.744 310.219 100.974C310.47 101.203 310.772 101.318 311.125 101.318ZM317.318 94.6278C317.616 94.6302 317.915 94.687 318.213 94.7983C318.511 94.9096 318.784 95.0942 319.03 95.3523C319.276 95.608 319.474 95.9571 319.623 96.3999C319.772 96.8426 319.847 97.3977 319.847 98.0653C319.847 98.7116 319.785 99.2857 319.662 99.7876C319.541 100.287 319.366 100.709 319.136 101.052C318.909 101.395 318.632 101.656 318.305 101.833C317.981 102.011 317.614 102.099 317.205 102.099C316.797 102.099 316.434 102.019 316.114 101.858C315.797 101.695 315.537 101.469 315.333 101.18C315.132 100.888 315.003 100.551 314.946 100.168H315.812C315.891 100.501 316.046 100.777 316.278 100.995C316.512 101.21 316.821 101.318 317.205 101.318C317.766 101.318 318.208 101.073 318.533 100.583C318.859 100.093 319.023 99.4006 319.023 98.5057H318.966C318.833 98.7045 318.676 98.8762 318.494 99.0206C318.311 99.165 318.109 99.2763 317.886 99.3544C317.664 99.4325 317.427 99.4716 317.176 99.4716C316.759 99.4716 316.377 99.3686 316.029 99.1626C315.683 98.9543 315.406 98.669 315.198 98.3068C314.992 97.9422 314.889 97.5256 314.889 97.0568C314.889 96.6117 314.989 96.2045 315.188 95.8352C315.389 95.4635 315.67 95.1676 316.033 94.9474C316.397 94.7273 316.826 94.6207 317.318 94.6278ZM317.318 95.4091C317.02 95.4091 316.751 95.4837 316.512 95.6328C316.275 95.7796 316.087 95.9785 315.947 96.2294C315.81 96.478 315.741 96.7538 315.741 97.0568C315.741 97.3598 315.808 97.6357 315.94 97.8842C316.075 98.1304 316.259 98.3269 316.491 98.4737C316.725 98.6181 316.991 98.6903 317.29 98.6903C317.515 98.6903 317.724 98.6465 317.918 98.5589C318.112 98.469 318.282 98.3471 318.426 98.1932C318.573 98.0369 318.688 97.8606 318.771 97.6641C318.853 97.4652 318.895 97.258 318.895 97.0426C318.895 96.7585 318.826 96.4922 318.689 96.2436C318.554 95.995 318.367 95.7938 318.128 95.6399C317.891 95.486 317.621 95.4091 317.318 95.4091ZM321.614 102.057C321.439 102.057 321.289 101.994 321.163 101.869C321.038 101.743 320.975 101.593 320.975 101.418C320.975 101.242 321.038 101.092 321.163 100.967C321.289 100.841 321.439 100.778 321.614 100.778C321.789 100.778 321.94 100.841 322.065 100.967C322.191 101.092 322.253 101.242 322.253 101.418C322.253 101.534 322.224 101.64 322.165 101.737C322.108 101.834 322.031 101.912 321.934 101.972C321.839 102.028 321.733 102.057 321.614 102.057ZM311.31 106.727V114H310.429V107.651H310.386L308.611 108.83V107.935L310.429 106.727H311.31ZM315.958 106.727V114H315.077V107.651H315.035L313.259 108.83V107.935L315.077 106.727H315.958Z" fill="#878D96"/>
<path d="M318 83H16" stroke="url(#paint7_linear_1705_29740)" stroke-linejoin="round" stroke-dasharray="2 2"/>
<rect x="20.9998" y="83" width="1" height="4" fill="url(#paint8_linear_1705_29740)"/>
<rect x="42" y="83" width="1" height="4" fill="url(#paint9_linear_1705_29740)"/>
<rect x="105" y="83" width="1" height="4" fill="url(#paint10_linear_1705_29740)"/>
<rect x="126" y="83" width="1" height="4" fill="url(#paint11_linear_1705_29740)"/>
<rect x="147" y="83" width="1" height="4" fill="url(#paint12_linear_1705_29740)"/>
<rect x="63" y="83" width="1" height="4" fill="url(#paint13_linear_1705_29740)"/>
<rect x="84" y="83" width="1" height="4" fill="url(#paint14_linear_1705_29740)"/>
<rect x="168" y="83" width="1" height="4" fill="url(#paint15_linear_1705_29740)"/>
<rect x="189" y="83" width="1" height="4" fill="url(#paint16_linear_1705_29740)"/>
<rect x="210" y="83" width="1" height="4" fill="url(#paint17_linear_1705_29740)"/>
<rect x="231" y="83" width="1" height="4" fill="url(#paint18_linear_1705_29740)"/>
<rect x="252" y="83" width="1" height="4" fill="url(#paint19_linear_1705_29740)"/>
<rect x="273" y="83" width="1" height="4" fill="url(#paint20_linear_1705_29740)"/>
<rect x="315" y="83" width="1" height="4" fill="url(#paint21_linear_1705_29740)"/>
<rect x="294" y="83" width="1" height="4" fill="url(#paint22_linear_1705_29740)"/>
<path d="M329.185 108.562V106.219H329.639C329.75 106.103 329.846 105.977 329.927 105.842C330.007 105.707 330.077 105.548 330.136 105.363C330.198 105.176 330.25 104.949 330.293 104.681C330.335 104.411 330.373 104.086 330.406 103.705L330.591 101.545H334.057V106.219H334.895V108.562H334.057V107H330.023V108.562H329.185ZM330.591 106.219H333.219V102.327H331.372L331.23 103.705C331.171 104.275 331.098 104.773 331.01 105.2C330.922 105.626 330.783 105.965 330.591 106.219ZM338.294 107.114C337.769 107.114 337.315 106.998 336.934 106.766C336.555 106.531 336.263 106.205 336.057 105.786C335.853 105.364 335.752 104.874 335.752 104.315C335.752 103.757 335.853 103.264 336.057 102.838C336.263 102.41 336.549 102.076 336.916 101.837C337.286 101.595 337.717 101.474 338.209 101.474C338.493 101.474 338.774 101.522 339.051 101.616C339.328 101.711 339.58 101.865 339.807 102.078C340.034 102.289 340.215 102.568 340.35 102.916C340.485 103.264 340.553 103.693 340.553 104.202V104.557H336.348V103.832H339.7C339.7 103.525 339.639 103.25 339.516 103.009C339.395 102.767 339.222 102.576 338.997 102.437C338.775 102.297 338.512 102.227 338.209 102.227C337.875 102.227 337.586 102.31 337.343 102.476C337.101 102.639 336.915 102.852 336.785 103.115C336.655 103.378 336.59 103.66 336.59 103.96V104.443C336.59 104.855 336.661 105.204 336.803 105.491C336.947 105.775 337.147 105.991 337.403 106.141C337.659 106.287 337.956 106.361 338.294 106.361C338.514 106.361 338.713 106.33 338.891 106.268C339.071 106.205 339.226 106.11 339.356 105.984C339.486 105.857 339.587 105.698 339.658 105.509L340.468 105.736C340.382 106.01 340.239 106.252 340.038 106.46C339.837 106.666 339.588 106.827 339.292 106.943C338.996 107.057 338.664 107.114 338.294 107.114ZM345.478 103.889V104.67H342.467V103.889H345.478ZM342.666 101.545V107H341.828V101.545H342.666ZM346.117 101.545V107H345.279V101.545H346.117ZM348.372 103.52H349.935C350.574 103.52 351.063 103.682 351.401 104.006C351.74 104.331 351.909 104.741 351.909 105.239C351.909 105.565 351.834 105.862 351.682 106.13C351.53 106.395 351.308 106.607 351.014 106.766C350.721 106.922 350.361 107 349.935 107H347.648V101.545H348.486V106.219H349.935C350.266 106.219 350.539 106.131 350.752 105.956C350.965 105.781 351.071 105.556 351.071 105.281C351.071 104.992 350.965 104.757 350.752 104.575C350.539 104.392 350.266 104.301 349.935 104.301H348.372V103.52Z" fill="#878D96"/>
<path d="M329.98 83L333.233 76.5653V76.5085H329.483V75.7273H334.142V76.5511L330.903 83H329.98ZM337.682 83.0994C337.147 83.0994 336.691 82.9538 336.314 82.6626C335.938 82.3691 335.65 81.9441 335.452 81.3878C335.253 80.8291 335.153 80.1544 335.153 79.3636C335.153 78.5777 335.253 77.9065 335.452 77.3501C335.653 76.7914 335.942 76.3653 336.318 76.0717C336.697 75.7758 337.151 75.6278 337.682 75.6278C338.212 75.6278 338.665 75.7758 339.042 76.0717C339.421 76.3653 339.709 76.7914 339.908 77.3501C340.109 77.9065 340.21 78.5777 340.21 79.3636C340.21 80.1544 340.111 80.8291 339.912 81.3878C339.713 81.9441 339.425 82.3691 339.049 82.6626C338.672 82.9538 338.217 83.0994 337.682 83.0994ZM337.682 82.3182C338.212 82.3182 338.624 82.0625 338.917 81.5511C339.211 81.0398 339.358 80.3106 339.358 79.3636C339.358 78.7339 339.29 78.1977 339.155 77.755C339.023 77.3123 338.831 76.9749 338.58 76.7429C338.331 76.5109 338.032 76.3949 337.682 76.3949C337.156 76.3949 336.745 76.6541 336.449 77.1726C336.153 77.6887 336.006 78.419 336.006 79.3636C336.006 79.9934 336.072 80.5284 336.204 80.9688C336.337 81.4091 336.528 81.7441 336.776 81.9737C337.027 82.2034 337.329 82.3182 337.682 82.3182Z" fill="#878D96"/>
<path d="M332.068 58.6278C332.366 58.6302 332.665 58.687 332.963 58.7983C333.261 58.9096 333.534 59.0942 333.78 59.3523C334.026 59.608 334.224 59.9571 334.373 60.3999C334.522 60.8426 334.597 61.3977 334.597 62.0653C334.597 62.7116 334.535 63.2857 334.412 63.7876C334.291 64.2872 334.116 64.7086 333.886 65.0518C333.659 65.3951 333.382 65.6555 333.055 65.8331C332.731 66.0107 332.364 66.0994 331.955 66.0994C331.547 66.0994 331.184 66.0189 330.864 65.858C330.547 65.6946 330.287 65.4685 330.083 65.1797C329.882 64.8885 329.753 64.5511 329.696 64.1676H330.562C330.641 64.5014 330.796 64.7772 331.028 64.995C331.262 65.2105 331.571 65.3182 331.955 65.3182C332.516 65.3182 332.958 65.0732 333.283 64.5831C333.609 64.093 333.773 63.4006 333.773 62.5057H333.716C333.583 62.7045 333.426 62.8762 333.244 63.0206C333.061 63.165 332.859 63.2763 332.636 63.3544C332.414 63.4325 332.177 63.4716 331.926 63.4716C331.509 63.4716 331.127 63.3686 330.779 63.1626C330.433 62.9543 330.156 62.669 329.948 62.3068C329.742 61.9422 329.639 61.5256 329.639 61.0568C329.639 60.6117 329.739 60.2045 329.938 59.8352C330.139 59.4635 330.42 59.1676 330.783 58.9474C331.147 58.7273 331.576 58.6207 332.068 58.6278ZM332.068 59.4091C331.77 59.4091 331.501 59.4837 331.262 59.6328C331.025 59.7796 330.837 59.9785 330.697 60.2294C330.56 60.478 330.491 60.7538 330.491 61.0568C330.491 61.3598 330.558 61.6357 330.69 61.8842C330.825 62.1304 331.009 62.3269 331.241 62.4737C331.475 62.6181 331.741 62.6903 332.04 62.6903C332.265 62.6903 332.474 62.6465 332.668 62.5589C332.862 62.469 333.032 62.3471 333.176 62.1932C333.323 62.0369 333.438 61.8606 333.521 61.6641C333.603 61.4652 333.645 61.258 333.645 61.0426C333.645 60.7585 333.576 60.4922 333.439 60.2436C333.304 59.995 333.117 59.7938 332.878 59.6399C332.641 59.486 332.371 59.4091 332.068 59.4091ZM338.365 66.0994C337.83 66.0994 337.374 65.9538 336.998 65.6626C336.622 65.3691 336.334 64.9441 336.135 64.3878C335.936 63.8291 335.837 63.1544 335.837 62.3636C335.837 61.5777 335.936 60.9065 336.135 60.3501C336.336 59.7914 336.625 59.3653 337.002 59.0717C337.38 58.7758 337.835 58.6278 338.365 58.6278C338.896 58.6278 339.349 58.7758 339.725 59.0717C340.104 59.3653 340.393 59.7914 340.592 60.3501C340.793 60.9065 340.894 61.5777 340.894 62.3636C340.894 63.1544 340.794 63.8291 340.595 64.3878C340.396 64.9441 340.109 65.3691 339.732 65.6626C339.356 65.9538 338.9 66.0994 338.365 66.0994ZM338.365 65.3182C338.896 65.3182 339.307 65.0625 339.601 64.5511C339.895 64.0398 340.041 63.3106 340.041 62.3636C340.041 61.7339 339.974 61.1977 339.839 60.755C339.706 60.3123 339.515 59.9749 339.264 59.7429C339.015 59.5109 338.716 59.3949 338.365 59.3949C337.84 59.3949 337.429 59.6541 337.133 60.1726C336.837 60.6887 336.689 61.419 336.689 62.3636C336.689 62.9934 336.755 63.5284 336.888 63.9688C337.021 64.4091 337.211 64.7441 337.46 64.9737C337.711 65.2034 338.012 65.3182 338.365 65.3182Z" fill="#878D96"/>
<path d="M332.31 18.7273V26H331.429V19.6506H331.386L329.611 20.8295V19.9347L331.429 18.7273H332.31ZM336.773 26.0994C336.238 26.0994 335.783 25.9538 335.406 25.6626C335.03 25.3691 334.742 24.9441 334.543 24.3878C334.344 23.8291 334.245 23.1544 334.245 22.3636C334.245 21.5777 334.344 20.9065 334.543 20.3501C334.745 19.7914 335.033 19.3653 335.41 19.0717C335.789 18.7758 336.243 18.6278 336.773 18.6278C337.304 18.6278 337.757 18.7758 338.134 19.0717C338.512 19.3653 338.801 19.7914 339 20.3501C339.201 20.9065 339.302 21.5777 339.302 22.3636C339.302 23.1544 339.202 23.8291 339.004 24.3878C338.805 24.9441 338.517 25.3691 338.141 25.6626C337.764 25.9538 337.308 26.0994 336.773 26.0994ZM336.773 25.3182C337.304 25.3182 337.716 25.0625 338.009 24.5511C338.303 24.0398 338.45 23.3106 338.45 22.3636C338.45 21.7339 338.382 21.1977 338.247 20.755C338.115 20.3123 337.923 19.9749 337.672 19.7429C337.423 19.5109 337.124 19.3949 336.773 19.3949C336.248 19.3949 335.837 19.6541 335.541 20.1726C335.245 20.6887 335.097 21.419 335.097 22.3636C335.097 22.9934 335.164 23.5284 335.296 23.9688C335.429 24.4091 335.619 24.7441 335.868 24.9737C336.119 25.2034 336.421 25.3182 336.773 25.3182ZM343.023 26.0994C342.488 26.0994 342.033 25.9538 341.656 25.6626C341.28 25.3691 340.992 24.9441 340.793 24.3878C340.594 23.8291 340.495 23.1544 340.495 22.3636C340.495 21.5777 340.594 20.9065 340.793 20.3501C340.995 19.7914 341.283 19.3653 341.66 19.0717C342.039 18.7758 342.493 18.6278 343.023 18.6278C343.554 18.6278 344.007 18.7758 344.384 19.0717C344.762 19.3653 345.051 19.7914 345.25 20.3501C345.451 20.9065 345.552 21.5777 345.552 22.3636C345.552 23.1544 345.452 23.8291 345.254 24.3878C345.055 24.9441 344.767 25.3691 344.391 25.6626C344.014 25.9538 343.558 26.0994 343.023 26.0994ZM343.023 25.3182C343.554 25.3182 343.966 25.0625 344.259 24.5511C344.553 24.0398 344.7 23.3106 344.7 22.3636C344.7 21.7339 344.632 21.1977 344.497 20.755C344.365 20.3123 344.173 19.9749 343.922 19.7429C343.673 19.5109 343.374 19.3949 343.023 19.3949C342.498 19.3949 342.087 19.6541 341.791 20.1726C341.495 20.6887 341.347 21.419 341.347 22.3636C341.347 22.9934 341.414 23.5284 341.546 23.9688C341.679 24.4091 341.869 24.7441 342.118 24.9737C342.369 25.2034 342.671 25.3182 343.023 25.3182Z" fill="#878D96"/>
<path d="M85 57.5L116 39.5H156L180 34.5L243.5 39.5L277.5 31" stroke="#BE3455"/>
<circle cx="277" cy="31" r="5" fill="#BE3455"/>
<circle cx="243" cy="40" r="5" fill="#BE3455"/>
<circle cx="180" cy="34" r="5" fill="#BE3455"/>
<circle cx="156" cy="39" r="5" fill="#BE3455"/>
<circle cx="85" cy="57" r="5" fill="#BE3455"/>
<circle cx="118" cy="40" r="5" fill="#BE3455"/>
<defs>
<filter id="filter0_d_1705_29740" x="0" y="0" width="370" height="139" filterUnits="userSpaceOnUse" color-interpolation-filters="sRGB">
<feFlood flood-opacity="0" result="BackgroundImageFix"/>
<feColorMatrix in="SourceAlpha" type="matrix" values="0 0 0 0 0 0 0 0 0 0 0 0 0 0 0 0 0 0 127 0" result="hardAlpha"/>
<feOffset dy="2"/>
<feGaussianBlur stdDeviation="5"/>
<feComposite in2="hardAlpha" operator="out"/>
<feColorMatrix type="matrix" values="0 0 0 0 0 0 0 0 0 0 0 0 0 0 0 0 0 0 0.1 0"/>
<feBlend mode="normal" in2="BackgroundImageFix" result="effect1_dropShadow_1705_29740"/>
<feBlend mode="normal" in="SourceGraphic" in2="effect1_dropShadow_1705_29740" result="shape"/>
</filter>
<linearGradient id="paint0_linear_1705_29740" x1="10" y1="74" x2="10.5406" y2="86.9112" gradientUnits="userSpaceOnUse">
<stop stop-color="#DFF9F8"/>
<stop offset="0.46875" stop-color="#D5F4E5"/>
<stop offset="1" stop-color="#AEE5E2"/>
</linearGradient>
<linearGradient id="paint1_linear_1705_29740" x1="10" y1="66" x2="10.5406" y2="78.9112" gradientUnits="userSpaceOnUse">
<stop stop-color="#DFF9F8"/>
<stop offset="0.46875" stop-color="#D5F4E5"/>
<stop offset="1" stop-color="#AEE5E2"/>
</linearGradient>
<linearGradient id="paint2_linear_1705_29740" x1="10" y1="58" x2="10.5406" y2="70.9112" gradientUnits="userSpaceOnUse">
<stop stop-color="#DFF9F8"/>
<stop offset="0.46875" stop-color="#D5F4E5"/>
<stop offset="1" stop-color="#AEE5E2"/>
</linearGradient>
<linearGradient id="paint3_linear_1705_29740" x1="10" y1="50" x2="10.5406" y2="62.9112" gradientUnits="userSpaceOnUse">
<stop stop-color="#DFF9F8"/>
<stop offset="0.46875" stop-color="#D5F4E5"/>
<stop offset="1" stop-color="#AEE5E2"/>
</linearGradient>
<linearGradient id="paint4_linear_1705_29740" x1="10" y1="42" x2="10.5406" y2="54.9112" gradientUnits="userSpaceOnUse">
<stop stop-color="#DFF9F8"/>
<stop offset="0.46875" stop-color="#D5F4E5"/>
<stop offset="1" stop-color="#AEE5E2"/>
</linearGradient>
<linearGradient id="paint5_linear_1705_29740" x1="10" y1="34" x2="10.5406" y2="46.9112" gradientUnits="userSpaceOnUse">
<stop stop-color="#DFF9F8"/>
<stop offset="0.46875" stop-color="#D5F4E5"/>
<stop offset="1" stop-color="#AEE5E2"/>
</linearGradient>
<linearGradient id="paint6_linear_1705_29740" x1="10" y1="26" x2="10.5406" y2="38.9112" gradientUnits="userSpaceOnUse">
<stop stop-color="#DFF9F8"/>
<stop offset="0.46875" stop-color="#D5F4E5"/>
<stop offset="1" stop-color="#AEE5E2"/>
</linearGradient>
<linearGradient id="paint7_linear_1705_29740" x1="16" y1="83" x2="16.5103" y2="95.9137" gradientUnits="userSpaceOnUse">
<stop stop-color="#DFF9F8"/>
<stop offset="0.46875" stop-color="#D5F4E5"/>
<stop offset="1" stop-color="#AEE5E2"/>
</linearGradient>
<linearGradient id="paint8_linear_1705_29740" x1="20.9998" y1="83" x2="22.0831" y2="83.0227" gradientUnits="userSpaceOnUse">
<stop stop-color="#DFF9F8"/>
<stop offset="0.46875" stop-color="#D5F4E5"/>
<stop offset="1" stop-color="#AEE5E2"/>
</linearGradient>
<linearGradient id="paint9_linear_1705_29740" x1="42" y1="83" x2="43.0833" y2="83.0227" gradientUnits="userSpaceOnUse">
<stop stop-color="#DFF9F8"/>
<stop offset="0.46875" stop-color="#D5F4E5"/>
<stop offset="1" stop-color="#AEE5E2"/>
</linearGradient>
<linearGradient id="paint10_linear_1705_29740" x1="105" y1="83" x2="106.083" y2="83.0227" gradientUnits="userSpaceOnUse">
<stop stop-color="#DFF9F8"/>
<stop offset="0.46875" stop-color="#D5F4E5"/>
<stop offset="1" stop-color="#AEE5E2"/>
</linearGradient>
<linearGradient id="paint11_linear_1705_29740" x1="126" y1="83" x2="127.083" y2="83.0227" gradientUnits="userSpaceOnUse">
<stop stop-color="#DFF9F8"/>
<stop offset="0.46875" stop-color="#D5F4E5"/>
<stop offset="1" stop-color="#AEE5E2"/>
</linearGradient>
<linearGradient id="paint12_linear_1705_29740" x1="147" y1="83" x2="148.083" y2="83.0227" gradientUnits="userSpaceOnUse">
<stop stop-color="#DFF9F8"/>
<stop offset="0.46875" stop-color="#D5F4E5"/>
<stop offset="1" stop-color="#AEE5E2"/>
</linearGradient>
<linearGradient id="paint13_linear_1705_29740" x1="63" y1="83" x2="64.0833" y2="83.0227" gradientUnits="userSpaceOnUse">
<stop stop-color="#DFF9F8"/>
<stop offset="0.46875" stop-color="#D5F4E5"/>
<stop offset="1" stop-color="#AEE5E2"/>
</linearGradient>
<linearGradient id="paint14_linear_1705_29740" x1="84" y1="83" x2="85.0833" y2="83.0227" gradientUnits="userSpaceOnUse">
<stop stop-color="#DFF9F8"/>
<stop offset="0.46875" stop-color="#D5F4E5"/>
<stop offset="1" stop-color="#AEE5E2"/>
</linearGradient>
<linearGradient id="paint15_linear_1705_29740" x1="168" y1="83" x2="169.083" y2="83.0227" gradientUnits="userSpaceOnUse">
<stop stop-color="#DFF9F8"/>
<stop offset="0.46875" stop-color="#D5F4E5"/>
<stop offset="1" stop-color="#AEE5E2"/>
</linearGradient>
<linearGradient id="paint16_linear_1705_29740" x1="189" y1="83" x2="190.083" y2="83.0227" gradientUnits="userSpaceOnUse">
<stop stop-color="#DFF9F8"/>
<stop offset="0.46875" stop-color="#D5F4E5"/>
<stop offset="1" stop-color="#AEE5E2"/>
</linearGradient>
<linearGradient id="paint17_linear_1705_29740" x1="210" y1="83" x2="211.083" y2="83.0227" gradientUnits="userSpaceOnUse">
<stop stop-color="#DFF9F8"/>
<stop offset="0.46875" stop-color="#D5F4E5"/>
<stop offset="1" stop-color="#AEE5E2"/>
</linearGradient>
<linearGradient id="paint18_linear_1705_29740" x1="231" y1="83" x2="232.083" y2="83.0227" gradientUnits="userSpaceOnUse">
<stop stop-color="#DFF9F8"/>
<stop offset="0.46875" stop-color="#D5F4E5"/>
<stop offset="1" stop-color="#AEE5E2"/>
</linearGradient>
<linearGradient id="paint19_linear_1705_29740" x1="252" y1="83" x2="253.083" y2="83.0227" gradientUnits="userSpaceOnUse">
<stop stop-color="#DFF9F8"/>
<stop offset="0.46875" stop-color="#D5F4E5"/>
<stop offset="1" stop-color="#AEE5E2"/>
</linearGradient>
<linearGradient id="paint20_linear_1705_29740" x1="273" y1="83" x2="274.083" y2="83.0227" gradientUnits="userSpaceOnUse">
<stop stop-color="#DFF9F8"/>
<stop offset="0.46875" stop-color="#D5F4E5"/>
<stop offset="1" stop-color="#AEE5E2"/>
</linearGradient>
<linearGradient id="paint21_linear_1705_29740" x1="315" y1="83" x2="316.083" y2="83.0227" gradientUnits="userSpaceOnUse">
<stop stop-color="#DFF9F8"/>
<stop offset="0.46875" stop-color="#D5F4E5"/>
<stop offset="1" stop-color="#AEE5E2"/>
</linearGradient>
<linearGradient id="paint22_linear_1705_29740" x1="294" y1="83" x2="295.083" y2="83.0227" gradientUnits="userSpaceOnUse">
<stop stop-color="#DFF9F8"/>
<stop offset="0.46875" stop-color="#D5F4E5"/>
<stop offset="1" stop-color="#AEE5E2"/>
</linearGradient>
</defs>
</svg>
