<svg width="233" height="234" viewBox="0 0 233 234" fill="none" xmlns="http://www.w3.org/2000/svg">
<g id="days">
<circle id="Ellipse 808" cx="116.573" cy="3" r="3" fill="#BE3455"/>
<circle id="Ellipse 809" cx="116.573" cy="231" r="3" fill="#F9DEE0"/>
<circle id="Ellipse 810" cx="92.6595" cy="6.23712" r="3" transform="rotate(-13.7169 92.6595 6.23712)" fill="#F9DEE0"/>
<circle id="Ellipse 811" cx="140.487" cy="227.763" r="3" transform="rotate(-13.7169 140.487 227.763)" fill="#F9DEE0"/>
<circle id="Ellipse 812" cx="70.2014" cy="13.2914" r="3" transform="rotate(-26.9116 70.2014 13.2914)" fill="#F9DEE0"/>
<circle id="Ellipse 838" cx="49.2014" cy="25.2914" r="3" transform="rotate(-26.9116 49.2014 25.2914)" fill="#F9DEE0"/>
<circle id="Ellipse 813" cx="162.945" cy="220.708" r="3" transform="rotate(-26.9116 162.945 220.708)" fill="#F9DEE0"/>
<circle id="Ellipse 836" cx="182.945" cy="208.708" r="3" transform="rotate(-26.9116 182.945 208.708)" fill="#F9DEE0"/>
<circle id="Ellipse 814" cx="31.4079" cy="41.4562" r="3" transform="rotate(-41.4716 31.4079 41.4562)" fill="#F9DEE0"/>
<circle id="Ellipse 815" cx="200.738" cy="192.544" r="3" transform="rotate(-41.4716 200.738 192.544)" fill="#F9DEE0"/>
<circle id="Ellipse 816" cx="17.6307" cy="60.3548" r="3" transform="rotate(-54.9726 17.6307 60.3548)" fill="#F9DEE0"/>
<circle id="Ellipse 817" cx="214.516" cy="174.646" r="3" transform="rotate(-54.9726 214.516 174.646)" fill="#F9DEE0"/>
<circle id="Ellipse 818" cx="8.17007" cy="81.9954" r="3" transform="rotate(-69.6314 8.17007 81.9954)" fill="#F9DEE0"/>
<circle id="Ellipse 819" cx="223.976" cy="152.005" r="3" transform="rotate(-69.6314 223.976 152.005)" fill="#F9DEE0"/>
<circle id="Ellipse 820" cx="3.82474" cy="105.463" r="3" transform="rotate(-83.4042 3.82474 105.463)" fill="#F9DEE0"/>
<circle id="Ellipse 821" cx="229.322" cy="128.537" r="3" transform="rotate(-83.4042 229.322 128.537)" fill="#F9DEE0"/>
<circle id="Ellipse 822" cx="3.87938" cy="129.002" r="3" transform="rotate(-96.8322 3.87938 129.002)" fill="#F9DEE0"/>
<circle id="Ellipse 823" cx="229.267" cy="105.998" r="3" transform="rotate(-96.8322 229.267 105.998)" fill="#BE3455"/>
<circle id="Ellipse 824" cx="8.37841" cy="152.56" r="3" transform="rotate(-110.668 8.37841 152.56)" fill="#F9DEE0"/>
<circle id="Ellipse 837" cx="18.3784" cy="174.56" r="3" transform="rotate(-110.668 18.3784 174.56)" fill="#F9DEE0"/>
<circle id="Ellipse 825" cx="223.768" cy="81.4394" r="3" transform="rotate(-110.668 223.768 81.4394)" fill="#BE3455"/>
<circle id="Ellipse 826" cx="32.2314" cy="193.072" r="3" transform="rotate(-124.675 32.2314 193.072)" fill="#F9DEE0"/>
<circle id="Ellipse 827" cx="200.915" cy="40.9282" r="3" transform="rotate(-124.675 200.915 40.9282)" fill="#BE3455"/>
<circle id="Ellipse 835" cx="214.915" cy="59.9282" r="3" transform="rotate(-124.675 214.915 59.9282)" fill="#BE3455"/>
<circle id="Ellipse 828" cx="49.836" cy="208.92" r="3" transform="rotate(-138.816 49.836 208.92)" fill="#F9DEE0"/>
<circle id="Ellipse 829" cx="183.31" cy="25.0799" r="3" transform="rotate(-138.816 183.31 25.0799)" fill="#BE3455"/>
<circle id="Ellipse 830" cx="70.5172" cy="220.358" r="3" transform="rotate(-152.701 70.5172 220.358)" fill="#F9DEE0"/>
<circle id="Ellipse 831" cx="162.365" cy="13.0418" r="3" transform="rotate(-152.701 162.365 13.0418)" fill="#BE3455"/>
<circle id="Ellipse 832" cx="93.5327" cy="227.972" r="3" transform="rotate(-166.736 93.5327 227.972)" fill="#F9DEE0"/>
<circle id="Ellipse 833" cx="139.931" cy="5.60829" r="3" transform="rotate(-166.736 139.931 5.60829)" fill="#BE3455"/>
</g>
</svg>
