<svg width="24" height="24" viewBox="0 0 24 24" fill="none"
  xmlns="http://www.w3.org/2000/svg">
  <path fill-rule="evenodd" clip-rule="evenodd" d="M17.2071 4.20712C17.4174 3.99683 17.7026 3.87869 18 3.87869C18.1473 3.87869 18.2931 3.9077 18.4291 3.96405C18.5652 4.0204 18.6888 4.103 18.7929 4.20712C18.897 4.31124 18.9796 4.43486 19.036 4.5709C19.0923 4.70695 19.1213 4.85276 19.1213 5.00001C19.1213 5.14727 19.0923 5.29308 19.036 5.42912C18.9796 5.56517 18.897 5.68878 18.7929 5.79291L6.48877 18.097L4.37439 18.6256L4.90299 16.5113L17.2071 4.20712ZM18 1.87869C17.1722 1.87869 16.3783 2.20754 15.7929 2.79291L3.29291 15.2929C3.16476 15.4211 3.07384 15.5816 3.02988 15.7575L2.02988 19.7575C1.94468 20.0983 2.04453 20.4587 2.29291 20.7071C2.54129 20.9555 2.90178 21.0553 3.24256 20.9702L7.24256 19.9702C7.41839 19.9262 7.57897 19.8353 7.70713 19.7071L20.2071 7.20712C20.497 6.91728 20.7269 6.57319 20.8837 6.19449C21.0406 5.81579 21.1213 5.40991 21.1213 5.00001C21.1213 4.59011 21.0406 4.18423 20.8837 3.80554C20.7269 3.42684 20.497 3.08275 20.2071 2.79291C19.9173 2.50306 19.5732 2.27315 19.1945 2.11629C18.8158 1.95943 18.4099 1.87869 18 1.87869ZM12 19C11.4477 19 11 19.4477 11 20C11 20.5523 11.4477 21 12 21H21C21.5523 21 22 20.5523 22 20C22 19.4477 21.5523 19 21 19H12Z" fill="white"/>
</svg>
