<svg width="24" height="24" viewBox="0 0 24 24" fill="none" xmlns="http://www.w3.org/2000/svg">
<g id="emoji-smile-sad" clip-path="url(#clip0_6275_35686)">
<g id="Vector">
<path d="M12 24C15.1826 24 18.2348 22.7357 20.4853 20.4853C22.7357 18.2348 24 15.1826 24 12C24 8.8174 22.7357 5.76516 20.4853 3.51472C18.2348 1.26428 15.1826 0 12 0C8.8174 0 5.76516 1.26428 3.51472 3.51472C1.26428 5.76516 0 8.8174 0 12C0 15.1826 1.26428 18.2348 3.51472 20.4853C5.76516 22.7357 8.8174 24 12 24ZM10.5 9.75C10.5 10.992 9.828 12 9 12C8.172 12 7.5 10.992 7.5 9.75C7.5 8.508 8.172 7.5 9 7.5C9.828 7.5 10.5 8.508 10.5 9.75ZM15 12C14.172 12 13.5 10.992 13.5 9.75C13.5 8.508 14.172 7.5 15 7.5C15.828 7.5 16.5 8.508 16.5 9.75C16.5 10.992 15.828 12 15 12Z" fill="#FF9F00"/>
<path d="M6.9966 19.153C6.80447 19.2045 6.59976 19.1775 6.4275 19.0781C6.25525 18.9786 6.12956 18.8148 6.07808 18.6227C6.0266 18.4305 6.05355 18.2258 6.153 18.0536C6.74555 17.0272 7.59787 16.175 8.62425 15.5826C9.65063 14.9901 10.8149 14.6783 12 14.6786C13.1852 14.678 14.3496 14.9897 15.376 15.5822C16.4024 16.1746 17.2547 17.027 17.847 18.0536C17.9449 18.2257 17.9707 18.4296 17.9188 18.6208C17.8669 18.8119 17.7415 18.9747 17.57 19.0738C17.3985 19.1728 17.1948 19.2 17.0033 19.1493C16.8118 19.0987 16.6482 18.9744 16.548 18.8036C15.639 17.2331 13.9425 16.1786 12 16.1786C11.0781 16.178 10.1724 16.4204 9.374 16.8812C8.57558 17.342 7.91267 18.0051 7.45201 18.8036C7.35255 18.9758 7.18873 19.1015 6.9966 19.153Z" fill="white"/>
</g>
</g>
<defs>
<clipPath id="clip0_6275_35686">
<rect width="24" height="24" fill="white"/>
</clipPath>
</defs>
</svg>
