<svg width="32" height="32" viewBox="0 0 32 32" fill="none" xmlns="http://www.w3.org/2000/svg">
<path d="M12.398 5V8.76118L10.3596 7.54158L11.1727 9.71441L5.8188 8.74516L9.74052 11.0554H5V12.3212L10.1138 13.0098L14.5852 11.6587C14.062 11.1092 13.7245 10.2355 13.7245 9.2515C13.7245 7.58843 14.6906 6.23968 15.8828 6.23968C17.0749 6.23968 18.0411 7.58843 18.0411 9.25154C18.0411 10.2166 17.7153 11.0743 17.2093 11.6254L21.7935 13.0098L27.0013 12.3082V11.0554H22.3218L26.2435 8.74521L20.6683 9.75344L21.4957 7.5445L19.2434 8.89279V5H12.398ZM27.0014 14.3797L21.7936 15.4183L19.2288 14.8108L17.9313 20.2877L18.6993 27H21.0921L19.3156 20.2993L21.4696 21.5882L20.4831 18.9525L26.2434 19.994L22.0251 17.5087H27.0014V14.3798L27.0014 14.3797ZM5 14.3985V17.5088H10.0371L5.8188 19.994L11.3563 18.9916L10.3858 21.5853L12.1666 20.5206L10.8429 27H13.0721L13.6695 20.3151L12.6656 14.8138L10.1138 15.4183L5 14.3985Z" fill="white"/>
</svg>
