<svg width="28" height="28" viewBox="0 0 28 28" fill="none" xmlns="http://www.w3.org/2000/svg">
<g id="activity/fitness" opacity="0.8">
<path id="Vector" d="M19.0689 10.4186L19.4702 7.10524C19.5636 6.3329 19.6102 5.9479 19.5297 5.62707C19.4282 5.2073 19.167 4.84362 18.8017 4.61324C18.5334 4.44757 18.1717 4.3974 17.4519 4.29824C16.7309 4.19674 16.3704 4.14657 16.0706 4.23407C15.6716 4.34957 15.3309 4.63074 15.1256 5.0134C14.9704 5.30157 14.8736 6.1019 14.7802 6.87424L7.62625 5.87907C7.71958 5.10674 7.81758 4.3064 7.73591 3.98557C7.63408 3.56623 7.37297 3.20301 7.00792 2.9729C6.73958 2.80724 6.37791 2.75707 5.65808 2.65674C4.93708 2.5564 4.57658 2.50507 4.27792 2.59257C3.87775 2.70807 3.53825 2.98924 3.33175 3.37307C3.17658 3.66124 3.12991 4.04624 3.03658 4.81974L2.63525 8.13307C2.54192 8.90307 2.49525 9.2904 2.57458 9.61124C2.68308 10.0382 2.94441 10.4034 3.30375 10.6239C3.57208 10.7896 3.93375 10.8397 4.65358 10.9389C5.37458 11.0404 5.73391 11.0906 6.03375 11.0042C6.43275 10.8876 6.77341 10.6076 6.97875 10.2237C7.13391 9.93557 7.23191 9.13524 7.32525 8.36407L14.4781 9.35924C14.3847 10.1304 14.2879 10.9307 14.3684 11.2516C14.4757 11.6797 14.7382 12.0449 15.0964 12.2654C15.3659 12.4311 15.7264 12.4812 16.4474 12.5804C17.1672 12.6819 17.5277 12.7321 17.8276 12.6446C18.2266 12.5291 18.5672 12.2479 18.7726 11.8652C18.9277 11.5771 18.9756 11.1909 19.0689 10.4186ZM9.05425 23.2461L8.24808 20.0202C8.06025 19.2689 7.96575 18.8921 8.00658 18.5631C8.06025 18.1232 8.27491 17.7254 8.60391 17.4547C8.84891 17.2529 9.20008 17.1526 9.90241 16.9507C10.6047 16.7501 10.9559 16.6486 11.2627 16.6929C11.6734 16.7512 12.0444 16.9799 12.2964 17.3322C12.4854 17.5959 12.6814 18.3752 12.8681 19.1266L19.8366 17.1269C19.6487 16.3744 19.4539 15.5951 19.4936 15.2661C19.5438 14.8339 19.7576 14.4373 20.0909 14.1577C20.3371 13.9559 20.6882 13.8556 21.3906 13.6537C22.0917 13.4531 22.4429 13.3516 22.7509 13.3959C23.1604 13.4542 23.5326 13.6829 23.7846 14.0352C23.9736 14.2989 24.0669 14.6746 24.2559 15.4259L25.0632 18.6541C25.2499 19.4054 25.3444 19.7811 25.3047 20.1112C25.2499 20.5499 25.0364 20.9489 24.7074 21.2184C24.4624 21.4202 24.1101 21.5217 23.4089 21.7224C22.7066 21.9242 22.3554 22.0257 22.0474 21.9814C21.8408 21.9505 21.6425 21.8779 21.4648 21.768C21.2871 21.6581 21.1337 21.5132 21.0137 21.3421C20.8247 21.0784 20.6299 20.2991 20.4421 19.5477L13.4747 21.5474C13.6614 22.2987 13.8574 23.0781 13.8166 23.4082C13.7629 23.8469 13.5482 24.2459 13.2204 24.5154C12.9742 24.7172 12.6231 24.8187 11.9207 25.0194C11.2196 25.2212 10.8684 25.3227 10.5604 25.2784C10.3538 25.2475 10.1556 25.1748 9.9779 25.0649C9.8002 24.955 9.64671 24.8101 9.52675 24.6391C9.33775 24.3754 9.24325 23.9997 9.05541 23.2484L9.05425 23.2461Z" fill="#00817D"/>
</g>
</svg>
