<svg width="24" height="24" viewBox="0 0 24 24" fill="none" xmlns="http://www.w3.org/2000/svg">
<path d="M9.12095 18.4302C6.57839 18.7897 4.79999 19.6494 4.79999 20.9144C4.79999 22.6184 7.77143 24.0001 12 24.0001C16.2285 24.0001 19.2 22.6187 19.2 20.9144C19.2 19.6491 17.4216 18.7897 14.8793 18.4304L14.5269 19.0302C16.4433 19.2959 17.76 19.8548 17.76 20.5031C17.76 21.4119 15.1812 22.1487 12 22.1487C8.81879 22.1487 6.23999 21.4119 6.23999 20.5031C6.23975 19.857 7.54799 19.2987 9.47015 19.0319L9.12095 18.4302Z" fill="#BE3455"/>
<path fill-rule="evenodd" clip-rule="evenodd" d="M12 0L11.9733 0.00048L11.9621 0.00096L11.9546 0.00144L11.9297 0.00288L11.9095 0.00528L11.8946 0.00648L11.8677 0.0108L11.8565 0.01272L11.8363 0.01632L11.8181 0.02016L11.8073 0.02256L11.7763 0.03048L11.7477 0.03888L11.73 0.04488L11.7043 0.054L11.6695 0.06792L11.6429 0.07968L11.6253 0.08808L11.6013 0.1008L11.5716 0.1176L11.5687 0.11904L11.5461 0.1332L11.5157 0.15336L11.5145 0.1548L11.4924 0.17112L11.4804 0.18L11.4655 0.192L11.4487 0.2064L11.4468 0.20808L11.4271 0.22584L11.4 0.25224L11.3769 0.27696L11.3714 0.28272L11.3618 0.294L11.3438 0.3156L11.3395 0.32112L11.3198 0.34752L11.3001 0.37584L11.2982 0.37824L11.2843 0.4008L11.2701 0.42432L11.2613 0.44064L11.2598 0.44304L11.2478 0.46704L11.2368 0.48984L11.2274 0.51048L11.2269 0.51144L11.2173 0.53568L11.2073 0.56208L11.2017 0.57936L11.1993 0.58536L11.19 0.61776L11.189 0.62208L11.183 0.64536L11.1753 0.68064L11.1705 0.70824L11.1681 0.72648L11.1669 0.73368L11.1638 0.7632L11.1629 0.77616L11.1609 0.80256V0.80856L11.16 0.84V20.04C11.16 20.2628 11.2485 20.4764 11.406 20.634C11.5635 20.7915 11.7772 20.88 12 20.88C12.2228 20.88 12.4364 20.7915 12.5939 20.634C12.7515 20.4764 12.84 20.2628 12.84 20.04V10.9855L23.1413 6.40728C23.2897 6.34127 23.4158 6.23363 23.5043 6.0974C23.5928 5.96118 23.6399 5.80221 23.6399 5.63976C23.6399 5.47731 23.5928 5.31834 23.5043 5.18212C23.4158 5.04589 23.2897 4.93825 23.1413 4.87224L12.3413 0.07224L12.3285 0.06696L12.2945 0.05352L12.294 0.05304L12.293 0.05256L12.2582 0.04056L12.2217 0.03L12.185 0.0204L12.1481 0.0132L12.1111 0.00744L12.0737 0.00336L12.0355 0.00096L12.0113 0H12Z" fill="#BE3455"/>
</svg>
