<svg width="32" height="32" viewBox="0 0 32 32" fill="none" xmlns="http://www.w3.org/2000/svg">
<path d="M9.13891 21.5951C8.43727 21.6979 7.28227 21.8893 6.51391 21.0176C5.74555 20.1459 5.0811 18.0409 4.78907 16.1597C4.35813 13.387 4.78579 11.0502 5.99219 9.58024C6.70313 8.71453 7.6361 8.21305 8.69047 8.1332C9.59337 8.06375 10.9425 8.41703 12.2452 10.4952C13.0611 11.7973 13.6818 13.527 13.9481 15.2404C14.2697 17.3087 14.5831 19.5159 13.4866 20.3072C12.8681 20.754 12.424 20.9088 11.3745 21.1587C10.5116 21.3638 9.8411 21.4917 9.13891 21.5951ZM7.89094 23.3741L13.8459 22.1458C14.349 22.0419 14.7526 22.3186 14.9396 23.1477C15.5532 25.8689 14.6738 29.125 11.9198 29.125C9.31172 29.125 7.57376 26.1522 7.28993 24.5542C7.16032 23.8296 7.34516 23.4862 7.89094 23.3741ZM20.626 15.9092C19.5766 15.6604 19.1325 15.5045 18.514 15.0577C17.4175 14.2664 17.7309 12.0592 18.0524 9.99094C18.3188 8.27758 18.9395 6.54563 19.7554 5.2457C21.057 3.16758 22.4061 2.8143 23.3101 2.88375C24.3634 2.96414 25.2969 3.46453 26.0078 4.33024C27.2153 5.80024 27.643 8.13703 27.2109 10.9097C26.9184 12.7909 26.2561 14.8888 25.4834 15.7676C24.7106 16.6464 23.5622 16.4479 22.8584 16.3451C22.1545 16.2423 21.4884 16.1138 20.626 15.9092ZM24.1091 18.1241L18.1541 16.8958C17.651 16.7919 17.2474 17.0686 17.0604 17.8977C16.4474 20.6189 17.3267 23.875 20.0808 23.875C22.6888 23.875 24.4268 20.9022 24.7106 19.3042C24.8397 18.5796 24.6549 18.2362 24.1091 18.1241Z" fill="#697077"/>
</svg>
