<svg width="24" height="24" viewBox="0 0 24 24" fill="none" xmlns="http://www.w3.org/2000/svg">
<circle cx="12" cy="12" r="12" fill="white"/>
<path d="M19.7143 12.3325C19.7143 11.6852 19.6618 11.2129 19.5481 10.7231H12.1575V13.6444H16.4956C16.4082 14.3704 15.9359 15.4637 14.8863 16.1983L14.8716 16.2961L17.2084 18.1064L17.3703 18.1226C18.8571 16.7494 19.7143 14.7289 19.7143 12.3325Z" fill="#62ACFC"/>
<path d="M12.1575 20.0292C14.2828 20.0292 16.067 19.3295 17.3703 18.1225L14.8863 16.1983C14.2216 16.6618 13.3294 16.9854 12.1575 16.9854C10.0758 16.9854 8.30909 15.6123 7.67929 13.7144L7.58697 13.7222L5.15714 15.6027L5.12537 15.691C6.41981 18.2624 9.07871 20.0292 12.1575 20.0292Z" fill="#00817D"/>
<path d="M7.67932 13.7143C7.51314 13.2245 7.41697 12.6997 7.41697 12.1574C7.41697 11.6151 7.51314 11.0904 7.67058 10.6006L7.66617 10.4962L5.20589 8.58557L5.1254 8.62386C4.59189 9.69093 4.28577 10.8892 4.28577 12.1574C4.28577 13.4256 4.59189 14.6239 5.1254 15.6909L7.67932 13.7143Z" fill="#FF9F00"/>
<path d="M12.1575 7.32948C13.6356 7.32948 14.6326 7.96796 15.2012 8.50152L17.4227 6.33241C16.0583 5.0642 14.2828 4.28577 12.1575 4.28577C9.07871 4.28577 6.41981 6.05252 5.12537 8.62393L7.67055 10.6006C8.30909 8.70267 10.0758 7.32948 12.1575 7.32948Z" fill="#FF0000"/>
</svg>
