<svg width="213" height="292" viewBox="0 0 213 292" fill="none" xmlns="http://www.w3.org/2000/svg">
<g id="Group 26" opacity="0.5" filter="url(#filter0_d_5825_34262)">
<path id="Vector" d="M67.8066 166.615C66.9222 167.26 65.7883 167.562 64.5397 167.468C63.2209 167.337 62.0911 166.806 61.3061 165.849C60.3886 164.77 59.9923 163.268 60.1433 161.498C61.0657 151.257 63.0815 141.616 66.0821 132.788C68.1928 126.574 66.7543 121.724 61.4379 116.949C58.2003 114.066 54.4777 111.537 50.8953 109.081C48.8664 107.676 47.8003 106.094 47.788 104.399C47.7678 102.754 48.6564 101.276 50.4822 99.9446C50.5678 99.8822 50.6534 99.8198 50.739 99.7574C58.7505 94.2659 66.0078 91.8148 73.5174 92.107C76.8348 92.2225 80.1011 92.987 83.2687 93.736C83.2687 93.736 83.7542 93.8626 83.8529 93.8781C83.8398 93.8002 83.8476 93.7509 83.806 93.6938C83.3538 91.0961 82.8524 88.4906 82.4003 85.8929C81.1384 78.9483 79.9228 71.7078 78.6062 64.6284C78.4025 63.5099 77.5813 60.5258 80.32 58.5291C82.9445 56.6156 86.0747 58.5716 87.0772 59.1077C93.2329 62.397 99.5157 65.6809 105.552 68.9261C107.838 70.1434 110.123 71.3607 112.43 72.6065C112.549 72.6505 112.64 72.7153 112.731 72.78C112.718 72.7022 112.733 72.6035 112.749 72.5049C112.669 62.2079 116.827 53.4088 125.413 45.7077C126.356 44.8448 127.391 44.0467 128.369 43.2902L128.568 43.1446C128.683 43.0614 128.797 42.9782 128.911 42.895C131.25 41.1895 133.049 41.3198 134.145 41.7442C135.269 42.1478 136.73 43.3115 137.382 46.2439C138.773 52.5264 140.663 57.3962 143.326 61.528C146.093 65.8024 149.477 67.7478 154.308 67.7213C164.639 67.748 174.483 68.7851 183.622 70.7729C183.741 70.8169 183.868 70.8116 183.967 70.8271C184.214 70.8657 184.432 70.9251 184.678 70.9638C187.817 71.7336 189.424 74.0574 188.807 76.8667C188.544 78.0636 187.909 79.0507 186.996 79.7163C186.226 80.2779 184.869 80.8739 182.777 80.5207C182.086 80.4125 181.403 80.255 180.77 80.1052C179.819 79.8805 178.939 79.692 178.044 79.6023C175.879 79.3894 173.693 79.148 171.577 78.9428C165.661 78.319 159.498 77.6566 153.463 77.4691C145.444 77.1982 139.348 73.6909 135.322 66.9702C133.699 64.2648 132.411 61.3592 131.206 58.5676C130.727 57.4313 130.219 56.3158 129.712 55.2002C125.069 60.1583 122.76 65.3809 122.564 71.4654C122.557 71.5147 122.57 71.5926 122.562 71.6419L122.56 71.8184C122.574 77.5315 120.511 80.2153 118.771 81.484C115.918 83.5639 111.832 83.3533 107.261 80.9188C102.64 78.4765 89.7681 71.6079 89.7681 71.6079C90.2226 74.0292 90.6278 76.4427 91.0823 78.8639C91.8897 83.3872 92.7257 87.8897 93.5123 92.3845C94.2466 96.5679 93.0542 100.146 90.2014 102.226C87.7195 104.036 84.3818 104.372 80.8529 103.187C74.6104 101.097 67.0187 101.651 62.0383 104.409C62.5475 104.867 63.036 105.298 63.5453 105.757C65.9385 107.9 68.4018 110.08 70.6499 112.505C76.5861 118.969 78.3442 126.294 75.7864 134.232C72.784 143.718 70.7629 153.231 69.8602 162.54C69.6241 164.853 68.6054 166.033 67.8066 166.615Z" fill="url(#paint0_linear_5825_34262)"/>
<path id="Vector_2" d="M207.231 232.479C191.499 243.862 177.208 250.568 162.216 253.677C149.391 256.342 136.817 256.116 124.84 253.051C113.397 250.121 102.175 244.497 91.4528 236.323C72.3365 221.729 61.7156 202.427 59.9073 178.972L59.8758 178.689C59.8651 178.435 59.8336 178.152 59.8099 177.82C59.7791 175.92 60.4781 174.361 61.7904 173.405C62.4465 172.926 63.2274 172.619 64.1254 172.532C66.905 172.21 69.1395 174.076 69.5583 177.048C69.7181 178.286 69.8779 179.524 70.0169 180.733C70.2819 183.074 70.5884 185.472 71.0376 187.766C71.7713 191.469 72.8242 195.071 74.1261 198.534C71.1559 186.85 70.4666 174.638 72.1498 162.444C75.5137 138.233 87.9033 116.573 107.075 101.459L108.802 100.112C108.802 100.112 177.642 194.412 184.977 204.532C190.405 211.978 190.226 221.021 184.56 227.512C183.671 228.51 182.634 229.484 181.435 230.358C180.237 231.232 178.927 232.012 177.591 232.636C162.469 239.642 141.642 240.32 124.548 234.433L121.336 233.323L131.52 225.898L132.302 226.071C149.677 230.006 159.337 229.473 173.545 223.79C174.325 223.483 175.073 223.069 175.672 222.632C175.843 222.507 176.042 222.362 176.193 222.209C179.766 219.079 180.02 214.394 176.859 210.057C169.496 199.958 106.508 113.625 106.508 113.625C92.6655 126.82 83.5989 144.528 80.9532 163.672C77.9085 185.684 83.4295 207.699 96.5121 225.643C97.8225 227.441 99.2392 229.204 100.684 230.946C116.703 242.25 133.212 247.035 151.084 245.54C162.374 244.605 173.508 241.119 185.046 234.891C191.007 231.681 196.641 228.141 201.776 224.398C209.364 218.865 216.207 212.609 222.068 205.846C231.76 194.629 237.988 182.616 240.637 170.068C243.241 157.64 242.34 144.359 238.036 130.544C236.889 128.672 235.656 126.861 234.388 125.121C221.305 107.177 202.033 95.187 180.145 91.353C161.208 88.0322 141.682 91.2142 124.893 100.308C124.893 100.308 187.761 186.598 195.166 196.754C198.327 201.09 202.845 202.253 206.938 199.836C207.13 199.74 207.301 199.615 207.501 199.47C208.129 199.012 208.722 198.448 209.254 197.799C219.01 186.011 222.465 177.025 224.04 159.23L224.114 158.433L234.299 151.008L234.373 154.406C234.771 172.51 227.734 192.103 216.439 204.357C215.464 205.417 214.292 206.447 213.094 207.32C211.895 208.194 210.643 208.932 209.428 209.425C201.516 212.834 192.879 210.218 187.422 202.793C180.052 192.743 111.419 98.2478 111.419 98.2478L112.887 97.2649C133.141 83.6345 157.552 78.4636 181.632 82.6662C193.559 84.7624 204.793 89.0242 214.885 95.2549C209.694 91.1313 203.787 87.7042 197.207 85.0306L197.038 84.9789C196.848 84.8986 196.588 84.7821 196.35 84.6942C193.648 83.3865 192.498 80.7299 193.598 78.2238C193.963 77.346 194.531 76.6264 195.244 76.1064C196.699 75.0456 198.607 74.9655 200.339 75.8434C201.671 76.5323 203.074 77.2574 204.414 77.897C208.938 80.1473 213.595 82.5194 217.871 85.3878C232.307 95.1798 242.167 109.662 247.989 129.754C256.903 160.437 250.415 188.455 228.771 213.062C222.946 219.755 215.891 226.079 207.231 232.479Z" fill="url(#paint1_linear_5825_34262)"/>
</g>
<defs>
<filter id="filter0_d_5825_34262" x="37.7881" y="33.4719" width="224.076" height="234.053" filterUnits="userSpaceOnUse" color-interpolation-filters="sRGB">
<feFlood flood-opacity="0" result="BackgroundImageFix"/>
<feColorMatrix in="SourceAlpha" type="matrix" values="0 0 0 0 0 0 0 0 0 0 0 0 0 0 0 0 0 0 127 0" result="hardAlpha"/>
<feOffset dy="2"/>
<feGaussianBlur stdDeviation="5"/>
<feComposite in2="hardAlpha" operator="out"/>
<feColorMatrix type="matrix" values="0 0 0 0 0 0 0 0 0 0 0 0 0 0 0 0 0 0 0.1 0"/>
<feBlend mode="normal" in2="BackgroundImageFix" result="effect1_dropShadow_5825_34262"/>
<feBlend mode="normal" in="SourceGraphic" in2="effect1_dropShadow_5825_34262" result="shape"/>
</filter>
<linearGradient id="paint0_linear_5825_34262" x1="143.767" y1="12.2713" x2="25.8809" y2="132.001" gradientUnits="userSpaceOnUse">
<stop stop-color="#DFF9F8"/>
<stop offset="0.46875" stop-color="#D5F4E5"/>
<stop offset="1" stop-color="#AEE5E2"/>
</linearGradient>
<linearGradient id="paint1_linear_5825_34262" x1="190.279" y1="40.7094" x2="30.6635" y2="183.726" gradientUnits="userSpaceOnUse">
<stop stop-color="#DFF9F8"/>
<stop offset="0.46875" stop-color="#D5F4E5"/>
<stop offset="1" stop-color="#AEE5E2"/>
</linearGradient>
</defs>
</svg>
