<svg width="24" height="21" viewBox="0 0 24 21" fill="none" xmlns="http://www.w3.org/2000/svg">
<g id="heart">
<path id="Vector" d="M21.0884 2.61183C20.5776 2.10083 19.9712 1.69547 19.3037 1.41891C18.6363 1.14235 17.9209 1 17.1984 1C16.4759 1 15.7605 1.14235 15.093 1.41891C14.4256 1.69547 13.8191 2.10083 13.3084 2.61183L12.2484 3.67183L11.1884 2.61183C10.1567 1.58013 8.75741 1.00053 7.29838 1.00053C5.83935 1.00053 4.44007 1.58013 3.40838 2.61183C2.37669 3.64352 1.79709 5.04279 1.79709 6.50183C1.79709 7.96086 2.37669 9.36013 3.40838 10.3918L4.46838 11.4518L12.2484 19.2318L20.0284 11.4518L21.0884 10.3918C21.5994 9.88107 22.0047 9.27464 22.2813 8.60718C22.5579 7.93972 22.7002 7.22431 22.7002 6.50183C22.7002 5.77934 22.5579 5.06393 22.2813 4.39647C22.0047 3.72901 21.5994 3.12258 21.0884 2.61183Z" fill="#BE3455" stroke="#BE3455" stroke-width="2" stroke-linecap="round" stroke-linejoin="round"/>
</g>
</svg>
