<svg width="24" height="24" viewBox="0 0 24 24" fill="none" xmlns="http://www.w3.org/2000/svg">
<path d="M7.15 3C8.752 3 9.553 4.944 8.428 6.078C7.294 7.203 5.35 6.402 5.35 4.8C5.35 4.32261 5.53964 3.86477 5.87721 3.52721C6.21477 3.18964 6.67261 3 7.15 3ZM5.8 7.5H8.5C8.97739 7.5 9.43523 7.68964 9.77279 8.02721C10.1104 8.36477 10.3 8.82261 10.3 9.3V14.25H8.95V21H5.35V14.25H4V9.3C4 8.82261 4.18964 8.36477 4.52721 8.02721C4.86477 7.68964 5.32261 7.5 5.8 7.5ZM17.95 8.4H19.75L17.05 4.8L14.35 8.4H16.15V15.6H14.35L17.05 19.2L19.75 15.6H17.95M20.65 3H13.45V4.8H20.65M20.65 19.2H13.45V21H20.65" fill="black"/>
</svg>
