<svg width="19" height="22" viewBox="0 0 19 22" fill="none" xmlns="http://www.w3.org/2000/svg">
<path d="M9.2093 22C7.9814 20.8403 6.57442 19.9535 4.98837 19.3395C3.40233 18.7256 1.73953 18.4186 0 18.4186V7.16279C1.72248 7.16279 3.37674 7.47386 4.96279 8.096C6.54884 8.71882 7.96434 9.6186 9.2093 10.7953C10.4543 9.6186 11.8698 8.71882 13.4558 8.096C15.0419 7.47386 16.6961 7.16279 18.4186 7.16279V18.4186C16.662 18.4186 14.9951 18.7256 13.418 19.3395C11.8401 19.9535 10.4372 20.8403 9.2093 22ZM9.2093 8.18605C8.08372 8.18605 7.12016 7.78527 6.3186 6.98372C5.51705 6.18217 5.11628 5.2186 5.11628 4.09302C5.11628 2.96744 5.51705 2.00388 6.3186 1.20233C7.12016 0.400775 8.08372 0 9.2093 0C10.3349 0 11.2984 0.400775 12.1 1.20233C12.9016 2.00388 13.3023 2.96744 13.3023 4.09302C13.3023 5.2186 12.9016 6.18217 12.1 6.98372C11.2984 7.78527 10.3349 8.18605 9.2093 8.18605Z" fill="#BE3455"/>
</svg>
