<svg width="32" height="32" viewBox="0 0 32 32" fill="none" xmlns="http://www.w3.org/2000/svg">
<path fill-rule="evenodd" clip-rule="evenodd" d="M16 19C18.2091 19 20 17.2091 20 15C20 12.7909 18.2091 11 16 11C13.7909 11 12 12.7909 12 15C12 17.2091 13.7909 19 16 19ZM18 15C18 16.1046 17.1046 17 16 17C14.8954 17 14 16.1046 14 15C14 13.8954 14.8954 13 16 13C17.1046 13 18 13.8954 18 15Z" fill="white"/>
<path fill-rule="evenodd" clip-rule="evenodd" d="M25 15C25 19.9706 19 26.5 16 26.5C13 26.5 7 19.9706 7 15C7 10.0294 11.0294 6 16 6C20.9706 6 25 10.0294 25 15ZM23 15C23 16.7989 21.8427 19.2252 20.0875 21.3348C19.2412 22.352 18.3373 23.1944 17.5241 23.7642C16.6419 24.3825 16.1245 24.5 16 24.5C15.8755 24.5 15.3581 24.3825 14.4759 23.7642C13.6627 23.1944 12.7588 22.352 11.9125 21.3348C10.1573 19.2252 9 16.7989 9 15C9 11.134 12.134 8 16 8C19.866 8 23 11.134 23 15Z" fill="white"/>
</svg>
