<svg width="34" height="40" viewBox="0 0 34 40" fill="none" xmlns="http://www.w3.org/2000/svg">
<g id="logo7-3 1">
<path id="Vector" d="M17 36.9173C24.193 36.9173 30.024 31.4354 30.024 24.6731C30.024 17.9109 24.193 12.429 17 12.429C9.80699 12.429 3.97592 17.9109 3.97592 24.6731C3.97592 31.4354 9.80699 36.9173 17 36.9173Z" fill="#A2A9B0"/>
<g id="Group">
<path id="Vector_2" d="M27.9751 29.0249C27.9751 35.0371 23.1398 39.922 17.1418 40C17.0922 40 17.0425 40 17 40C16.9574 40 16.9007 40 16.8582 40C8.02424 39.922 0.891846 32.74 0.891846 23.8918C0.891846 15.0437 8.02424 7.86168 16.8582 7.78369C10.8602 7.86168 6.0249 12.7466 6.0249 18.7588C6.0249 20.6163 6.48574 22.3604 7.29398 23.8918C9.13734 27.3659 12.7886 29.7339 17 29.7339C21.2114 29.7339 24.8626 27.3659 26.706 23.8918C27.5142 25.4232 27.9751 27.1744 27.9751 29.0249Z" fill="#DDE1E6"/>
<path id="Vector_3" d="M33.1081 23.8921C33.1081 32.7402 25.9757 39.9222 17.1418 40.0002C23.1398 39.9222 27.9751 35.0373 27.9751 29.0251C27.9751 27.1676 27.5142 25.4235 26.706 23.8921C24.8626 20.4181 21.2114 18.05 17 18.05C12.7886 18.05 9.13735 20.4181 7.29399 23.8921C6.47865 22.3607 6.0249 20.6095 6.0249 18.759C6.0249 12.7468 10.8602 7.86192 16.8582 7.78394C16.9078 7.78394 16.9575 7.78394 17 7.78394C17.0425 7.78394 17.0993 7.78394 17.1418 7.78394C25.9757 7.86192 33.1081 15.0439 33.1081 23.8921Z" fill="#C1C7CD"/>
</g>
<path id="Vector_4" d="M25.4795 2.24773C25.3306 2.51714 25.1888 2.78656 25.0399 3.04888C24.2671 4.43849 23.4872 5.82101 22.7215 7.21062C22.5797 7.46586 22.4734 7.58639 22.1331 7.49422C18.7157 6.58672 15.3055 6.64344 11.9237 7.69982C11.7819 7.74236 11.477 7.6431 11.4061 7.52258C10.4064 5.77847 9.43513 4.02019 8.52054 2.15556C10.6546 3.18359 12.7957 4.21162 14.9936 5.268C15.6388 3.53099 16.2697 1.8507 16.9646 0.000244141C17.6523 1.83652 18.2762 3.51681 18.9355 5.268C21.1192 4.21162 23.2674 3.18359 25.4086 2.14847C25.4298 2.19101 25.4582 2.21937 25.4795 2.24773Z" fill="#A2A9B0"/>
</g>
</svg>
