<svg width="32" height="32" viewBox="0 0 32 32" fill="none" xmlns="http://www.w3.org/2000/svg">
<path d="M16.3805 6C16.5748 6 16.7612 6.07721 16.8987 6.21465C17.0361 6.35208 17.1133 6.53848 17.1133 6.73285V14.4175L17.8462 14.9407V11.4524C17.8462 10.06 18.9748 8.93139 20.3672 8.93139C21.1352 8.93139 21.8666 9.32713 22.4822 9.79909C23.1139 10.2857 23.7236 10.9321 24.2645 11.6004C25.3432 12.9313 26.2387 14.4527 26.5803 15.2354C26.8382 15.829 27.1563 16.9356 27.3952 18.1829C27.637 19.439 27.81 20.9047 27.7469 22.2267C27.6883 23.4975 27.4069 24.8503 26.5202 25.6418C25.5381 26.5212 24.1428 26.4567 22.5027 25.6359L19.8718 24.3212C19.2631 24.0169 18.7512 23.5491 18.3935 22.9703C18.0357 22.3914 17.8462 21.7244 17.8462 21.0439V16.7421L16.3805 15.6941L14.9148 16.7421V15.1078C14.7682 15.1078 14.6187 15.1518 14.4897 15.2441L10.8255 17.8619C10.7437 17.9163 10.6738 17.9866 10.6197 18.0686C10.5657 18.1506 10.5287 18.2426 10.5109 18.3391C10.4931 18.4357 10.4949 18.5349 10.5162 18.6307C10.5375 18.7266 10.5778 18.8172 10.6348 18.8972C10.6918 18.9771 10.7642 19.0448 10.8479 19.0962C10.9315 19.1477 11.0247 19.1817 11.1218 19.1965C11.2189 19.2112 11.3179 19.2062 11.413 19.1819C11.5082 19.1576 11.5975 19.1144 11.6756 19.055L14.9148 16.7421V21.0439C14.9147 21.7244 14.7252 22.3914 14.3675 22.9703C14.0097 23.5491 13.4978 24.0169 12.8892 24.3212L10.2583 25.6359C8.61667 26.4567 7.22426 26.5198 6.24078 25.6418C5.35403 24.8503 5.07115 23.4975 5.01253 22.2267C4.95097 20.9047 5.12392 19.439 5.36429 18.1829C5.60467 16.9341 5.92126 15.829 6.18215 15.2339C6.52219 14.4527 7.41773 12.9313 8.49649 11.6004C9.03879 10.9321 9.64706 10.2857 10.2788 9.79909C10.8944 9.32713 11.6257 8.93139 12.3938 8.93139C13.7862 8.93139 14.9148 10.06 14.9148 11.4524V14.9407L15.6476 14.4175V6.73285C15.6476 6.53848 15.7248 6.35208 15.8623 6.21465C15.9997 6.07721 16.1861 6 16.3805 6ZM21.0854 19.055C21.1635 19.1144 21.2528 19.1576 21.3479 19.1819C21.443 19.2062 21.5421 19.2112 21.6392 19.1965C21.7363 19.1817 21.8294 19.1477 21.913 19.0962C21.9967 19.0448 22.0692 18.9771 22.1262 18.8972C22.1831 18.8172 22.2235 18.7266 22.2447 18.6307C22.266 18.5349 22.2678 18.4357 22.25 18.3391C22.2323 18.2426 22.1952 18.1506 22.1412 18.0686C22.0872 17.9866 22.0172 17.9163 21.9355 17.8619L18.2712 15.2441C18.1472 15.1554 17.9986 15.1078 17.8462 15.1078V16.7436L21.0854 19.0564V19.055Z" fill="#FA64B4"/>
</svg>
