<svg width="24" height="24" viewBox="0 0 24 24" fill="none" xmlns="http://www.w3.org/2000/svg">
<g id="lung">
<path id="Vector" d="M12.3805 2C12.5748 2 12.7612 2.07721 12.8987 2.21465C13.0361 2.35208 13.1133 2.53848 13.1133 2.73285V10.4175L13.8462 10.9407V7.45239C13.8462 6.05998 14.9748 4.93139 16.3672 4.93139C17.1352 4.93139 17.8666 5.32713 18.4822 5.79909C19.1139 6.2857 19.7236 6.93207 20.2645 7.60043C21.3432 8.93128 22.2387 10.4527 22.5803 11.2354C22.8382 11.829 23.1563 12.9356 23.3952 14.1829C23.637 15.439 23.81 16.9047 23.7469 18.2267C23.6883 19.4975 23.4069 20.8503 22.5202 21.6418C21.5381 22.5212 20.1428 22.4567 18.5027 21.6359L15.8718 20.3212C15.2631 20.0169 14.7512 19.5491 14.3935 18.9703C14.0357 18.3914 13.8462 17.7244 13.8462 17.0439V12.7421L12.3805 11.6941L10.9148 12.7421V11.1078C10.7682 11.1078 10.6187 11.1518 10.4897 11.2441L6.82548 13.8619C6.74374 13.9163 6.67378 13.9866 6.61974 14.0686C6.5657 14.1506 6.52868 14.2426 6.5109 14.3391C6.49311 14.4357 6.49491 14.5349 6.51619 14.6307C6.53747 14.7266 6.5778 14.8172 6.63478 14.8972C6.69176 14.9771 6.76423 15.0448 6.84789 15.0962C6.93155 15.1477 7.02468 15.1817 7.12177 15.1965C7.21885 15.2112 7.3179 15.2062 7.41304 15.1819C7.50818 15.1576 7.59746 15.1144 7.67558 15.055L10.9148 12.7421V17.0439C10.9147 17.7244 10.7252 18.3914 10.3675 18.9703C10.0097 19.5491 9.49783 20.0169 8.88918 20.3212L6.25825 21.6359C4.61667 22.4567 3.22426 22.5198 2.24078 21.6418C1.35403 20.8503 1.07115 19.4975 1.01253 18.2267C0.950967 16.9047 1.12392 15.439 1.36429 14.1829C1.60467 12.9341 1.92126 11.829 2.18215 11.2339C2.52219 10.4527 3.41773 8.93128 4.49649 7.60043C5.03879 6.93207 5.64706 6.2857 6.27877 5.79909C6.89437 5.32713 7.62575 4.93139 8.39377 4.93139C9.78619 4.93139 10.9148 6.05998 10.9148 7.45239V10.9407L11.6476 10.4175V2.73285C11.6476 2.53848 11.7248 2.35208 11.8623 2.21465C11.9997 2.07721 12.1861 2 12.3805 2ZM17.0854 15.055C17.1635 15.1144 17.2528 15.1576 17.3479 15.1819C17.443 15.2062 17.5421 15.2112 17.6392 15.1965C17.7363 15.1817 17.8294 15.1477 17.913 15.0962C17.9967 15.0448 18.0692 14.9771 18.1262 14.8972C18.1831 14.8172 18.2235 14.7266 18.2447 14.6307C18.266 14.5349 18.2678 14.4357 18.25 14.3391C18.2323 14.2426 18.1952 14.1506 18.1412 14.0686C18.0872 13.9866 18.0172 13.9163 17.9355 13.8619L14.2712 11.2441C14.1472 11.1554 13.9986 11.1078 13.8462 11.1078V12.7436L17.0854 15.0564V15.055Z" fill="#FA64B4"/>
</g>
</svg>
