<svg width="24" height="25" viewBox="0 0 24 25" fill="none" xmlns="http://www.w3.org/2000/svg">
<path fill-rule="evenodd" clip-rule="evenodd" d="M3.10665 5.57397C3.27203 5.24694 3.61211 5.02002 4.00007 5.02002H20C20.388 5.02002 20.7281 5.24694 20.8934 5.57397L12 11.7994L3.10665 5.57397ZM1.00014 6.00268C0.999973 6.01255 0.999957 6.02241 1.00009 6.03227V18.02C1.00009 19.6723 2.3478 21.02 4.00007 21.02H20C21.6523 21.02 23 19.6723 23 18.02V6.03238C23.0001 6.02244 23.0001 6.01248 22.9999 6.00253C22.9905 4.35823 21.6465 3.02002 20 3.02002H4.00007C2.35358 3.02002 1.00953 4.35831 1.00014 6.00268ZM21 7.94068V18.02C21 18.5677 20.5477 19.02 20 19.02H4.00007C3.45236 19.02 3.00008 18.5677 3.00008 18.02V7.94068L11.4266 13.8393C11.7709 14.0803 12.2292 14.0803 12.5735 13.8393L21 7.94068Z" fill="#343A3F"/>
</svg>
