<svg width="25" height="24" viewBox="0 0 25 24" fill="none" xmlns="http://www.w3.org/2000/svg">
<path d="M10.5 22V15H8.5V9.00001C8.5 8.45001 8.696 7.97934 9.088 7.58801C9.48 7.19667 9.95067 7.00067 10.5 7.00001H14.5C15.05 7.00001 15.521 7.19601 15.913 7.58801C16.305 7.98001 16.5007 8.45067 16.5 9.00001V15H14.5V22H10.5ZM12.5 6.00001C11.95 6.00001 11.4793 5.80434 11.088 5.41301C10.6967 5.02167 10.5007 4.55067 10.5 4.00001C10.4993 3.44934 10.6953 2.97867 11.088 2.58801C11.4807 2.19734 11.9513 2.00134 12.5 2.00001C13.0487 1.99867 13.5197 2.19467 13.913 2.58801C14.3063 2.98134 14.502 3.45201 14.5 4.00001C14.498 4.54801 14.3023 5.01901 13.913 5.41301C13.5237 5.80701 13.0527 6.00267 12.5 6.00001Z" fill="#BE3455"/>
</svg>
