<svg width="40" height="40" viewBox="0 0 40 40" fill="none"
  xmlns="http://www.w3.org/2000/svg">
  <circle cx="20" cy="20" r="20" fill="white"/>
<path fill-rule="evenodd" clip-rule="evenodd" d="M17 13C17 11.3431 18.3431 10 20 10C21.6569 10 23 11.3431 23 13V19C23 20.6569 21.6569 22 20 22C18.3431 22 17 20.6569 17 19V13ZM21 13V19C21 19.5523 20.5523 20 20 20C19.4477 20 19 19.5523 19 19V13C19 12.4477 19.4477 12 20 12C20.5523 12 21 12.4477 21 13Z" fill="#00817D"/>

<path d="M14 17V21.5C14 23.7091 15.7909 25.5 18 25.5H19V30H21V25.5H22C24.2091 25.5 26 23.7091 26 21.5V17H24V21.5C24 22.6046 23.1046 23.5 22 23.5H18C16.8954 23.5 16 22.6046 16 21.5V17H14Z" fill="#00817D"/>

</svg>
