<svg width="36" height="24" viewBox="0 0 36 24" fill="none" xmlns="http://www.w3.org/2000/svg">
<g id="1 slot ">
<path id="shape1" d="M30.4455 10.1891C28.143 10.1891 25.2288 6.56708 25.2288 2.09766H32.5277C34.4451 2.09766 36 5.11462 36 8.83846C36 9.29231 35.9762 9.74493 35.9289 10.1891H30.4455Z" fill="url(#paint0_linear_5683_7067)"/>
<g id="shape2">
<path d="M24.6604 2.09766L21.5135 2.09768C21.0875 2.09384 20.6986 2.57612 20.5146 3.33624L18.0175 13.8131C17.9104 14.2633 17.5644 14.1146 17.5644 13.6196V2.28917C17.5644 2.18324 17.5191 2.09768 17.4645 2.09768L14.4165 2.09766V21.9025L17.6705 21.9025C18.0908 21.9057 18.4755 21.4356 18.6621 20.6904L21.2499 10.2196C21.3137 9.96093 21.5135 10.0506 21.5135 10.3358V21.9025L24.6604 21.9025V2.09766Z" fill="#4DB45E"/>
<path d="M12.8101 2.09768H9.17506C8.69828 2.09768 8.27815 2.72307 8.14428 3.6357L6.62746 13.9761C6.56362 14.4181 6.24748 14.4181 6.18261 13.9761L4.66579 3.6357C4.53295 2.72307 4.11179 2.09768 3.63501 2.09768H0V21.9025H3.07483V10.4804C3.07483 10.1707 3.29314 10.1056 3.33844 10.4009L5.12403 21.9025H7.68604L9.47162 10.4009C9.51693 10.1056 9.73524 10.1707 9.73524 10.4804V21.9025H12.8101V2.09768Z" fill="#4DB45E"/>
<path d="M35.794 11.3523H25.7437V21.9025H28.8916V15.5793H32.5751C33.982 15.5914 35.2534 13.9219 35.794 11.3523Z" fill="#4DB45E"/>
</g>
</g>
<defs>
<linearGradient id="paint0_linear_5683_7067" x1="25.2297" y1="6.14336" x2="36" y2="6.14336" gradientUnits="userSpaceOnUse">
<stop offset="0.3" stop-color="#00B4E6"/>
<stop offset="1" stop-color="#088CCB"/>
</linearGradient>
</defs>
</svg>
