<svg width="23" height="32" viewBox="0 0 23 32" fill="none" xmlns="http://www.w3.org/2000/svg">
<g id="Pads_outline">
<path id="Union (Stroke)" fill-rule="evenodd" clip-rule="evenodd" d="M8.18454 10.2496C7.55158 10.3249 6.97793 10.6949 6.59319 11.2386C6.58328 11.2526 6.58163 11.2549 6.58794 11.242L4.79406 14.92C4.79337 16.4596 6.03293 16.8514 4.97809 18.1452C4.16766 19.1392 3.43005 20.1568 2.90055 21.2097C2.33396 22.3364 2.15283 23.5528 2.47495 24.655C2.79068 25.7354 3.65652 26.9327 5.61489 27.8878C7.81273 28.9598 9.38354 28.9367 10.3924 28.5441C11.3753 28.1617 12.0932 27.3262 12.4539 26.1419C12.7881 25.0447 13.0235 23.8633 13.2698 22.5971C13.6604 20.5895 15.0781 21.7852 16.507 20.5601L18.2514 16.9836C18.3724 16.315 18.0728 15.6482 17.6731 15.171C16.9572 14.3163 17.3617 13.487 18.0244 12.8886C18.687 12.2902 19.2595 11.7573 19.8314 11.0954C20.6857 10.1064 21.0668 8.90685 20.8346 7.77449C20.6042 6.651 19.6938 5.23656 17.2451 4.04228C15.0295 2.96164 13.4473 3.14662 12.3838 3.68747C11.2697 4.25409 10.4486 5.3512 10.0291 6.56613C9.74023 7.40257 9.56426 8.48147 9.48772 9.04535C9.41118 9.60923 9.05205 10.1464 8.18454 10.2496ZM17.7596 21.4136C17.3521 22.003 16.0781 22.6958 14.7574 22.8385C14.5133 24.0936 14.2631 25.3583 13.8997 26.5515C12.9315 29.7302 9.77359 31.6872 4.91708 29.3186C0.433962 27.132 0.127358 23.3855 1.56149 20.5338C2.17152 19.3207 2.997 18.1935 3.83819 17.1617C3.3093 16.0788 3.14725 14.8747 3.3789 14.3997L5.23974 10.5844C5.4101 10.2351 6.31323 8.97668 7.98271 8.91252C8.09418 8.03243 8.26074 7.08725 8.6025 6.09754C9.65914 3.03769 12.8731 0.138807 17.943 2.61155C23.3677 5.25736 23.1915 9.50972 20.9407 12.1153C20.3051 12.851 19.5922 13.5048 18.879 14.157C19.7923 15.3499 19.9577 16.9069 19.6204 17.5984L17.7596 21.4136Z" fill="#00817D"/>
<path id="Vector 7 (Stroke)" fill-rule="evenodd" clip-rule="evenodd" d="M13.7559 6.23326C12.959 6.76631 12.2691 7.75028 11.8603 8.83626C11.5361 9.69771 11.5 10.5772 11.4945 11.5811C11.4942 11.6392 11.494 11.6986 11.4938 11.7591C11.4922 12.1887 11.4904 12.6739 11.4511 13.1261C11.4053 13.652 11.3015 14.2554 11.02 14.8326C10.732 15.4232 10.2758 15.9737 9.84505 16.446C9.52259 16.7996 9.14654 17.1802 8.77672 17.5546C8.64519 17.6878 8.51445 17.8201 8.38718 17.9502C7.36142 18.9984 6.41142 20.0504 5.8407 21.1932C5.32669 22.2224 5.12353 23.2519 5.25303 24.063C5.3674 24.7794 5.73733 25.3869 6.64798 25.831C7.75694 26.3719 8.52444 26.2667 9.09409 25.9573C9.74741 25.6025 10.3594 24.8493 10.7318 23.7668C11.0809 22.7519 11.2281 21.6043 11.3972 20.285C11.4126 20.1647 11.4282 20.043 11.4442 19.9199C11.6228 18.541 11.8504 16.9341 12.5188 15.5636C13.1262 14.3183 14.1135 13.5242 14.905 12.9154C14.9949 12.8462 15.0826 12.7792 15.168 12.7139C15.8891 12.1627 16.4526 11.7319 16.9188 11.1253C17.6346 10.1938 17.9978 9.12153 17.9249 8.2391C17.8622 7.4785 17.4776 6.71634 16.2604 6.12265C15.2369 5.62347 14.459 5.76293 13.7559 6.23326ZM16.9651 4.67772C13.6542 3.06287 11.2155 5.65272 10.2534 8.20867C9.79907 9.41584 9.7942 10.6077 9.78987 11.6655C9.78604 12.6015 9.78265 13.4324 9.46873 14.076C9.1425 14.7449 8.38963 15.5071 7.52884 16.3785C6.39579 17.5256 5.07576 18.8619 4.29566 20.4239C3.08891 22.8403 3.01549 25.848 5.94324 27.276C9.11484 28.8229 11.4432 26.9993 12.3532 24.3539C12.7555 23.1844 12.9218 21.8806 13.0856 20.5964C13.2824 19.0536 13.4756 17.5392 14.0701 16.3202C14.5582 15.3196 15.3985 14.6793 16.2793 14.0083C16.9839 13.4715 17.7143 12.915 18.311 12.1386C20.0627 9.85936 20.5078 6.4056 16.9651 4.67772Z" fill="#00817D"/>
</g>
</svg>
