<svg width="24" height="32" viewBox="0 0 24 32" fill="none" xmlns="http://www.w3.org/2000/svg">
<g id="Pads">
<path id="Union" fill-rule="evenodd" clip-rule="evenodd" d="M18.5097 2.60913C13.0777 -0.0402342 9.75986 2.80799 8.72837 5.8801C8.39474 6.87378 8.24517 7.82725 8.15203 8.71628C6.38803 8.73433 5.4682 9.98465 5.29785 10.3339L3.43701 14.1492C3.20536 14.6242 3.41064 15.8494 4.00053 16.9621C3.13983 17.9843 2.29845 19.1038 1.68735 20.3163C0.250729 23.1669 0.680463 26.9734 5.4838 29.3162C10.6872 31.854 13.9722 29.959 14.9068 26.7639C15.2576 25.5646 15.4867 24.2895 15.7096 23.0241C17.1024 22.9166 18.4305 22.2501 18.8449 21.6642L20.7057 17.8489C21.043 17.1574 20.8242 15.5744 19.8246 14.3394C19.8653 14.3039 19.9062 14.2683 19.9471 14.2327C20.601 13.6633 21.2868 13.0662 21.9478 12.3277C24.2552 9.7497 24.3219 5.44393 18.5097 2.60913Z" fill="#BE3455"/>
<path id="Union (Stroke)" fill-rule="evenodd" clip-rule="evenodd" d="M8.40315 10.0774C7.73578 10.1359 7.13944 10.4949 6.74781 11.0351C6.73771 11.0491 6.73604 11.0514 6.74234 11.0385L4.94846 14.7165C4.99106 16.2772 6.31318 16.7092 5.23388 17.9911C4.40466 18.9759 3.65313 19.9868 3.12271 21.0393C2.55513 22.1655 2.39779 23.3935 2.76951 24.5199C3.13387 25.624 4.08335 26.862 6.18162 27.8854C8.53645 29.0339 10.1972 29.0547 11.2533 28.6852C12.2821 28.3251 13.0179 27.4984 13.3661 26.308C13.6887 25.2051 13.9045 24.0141 14.1294 22.7375C14.4859 20.7134 16.0191 21.9653 17.496 20.7636L19.2404 17.1871C19.3495 16.5128 19.0139 15.8284 18.5777 15.3334C17.7965 14.4468 18.201 13.6175 18.885 13.0295C19.5691 12.4416 20.1596 11.9175 20.7458 11.2626C21.6216 10.284 21.991 9.07876 21.7135 7.92432C21.4381 6.77893 20.4354 5.31945 17.8119 4.03986C15.438 2.88204 13.7696 3.02502 12.66 3.54337C11.4976 4.08641 10.66 5.17548 10.2504 6.39528C9.96847 7.23507 9.81272 8.32383 9.74763 8.89329C9.68255 9.46276 9.31781 9.99718 8.40315 10.0774ZM18.8449 21.6642C18.4305 22.2501 17.1024 22.9166 15.7096 23.0241C15.4867 24.2895 15.2576 25.5646 14.9068 26.7639C13.9722 29.959 10.6872 31.854 5.4838 29.3162C0.680463 26.9734 0.250729 23.1669 1.68735 20.3163C2.29845 19.1038 3.13983 17.9843 4.00053 16.9621C3.41064 15.8494 3.20536 14.6242 3.43701 14.1492L5.29785 10.3339C5.4682 9.98465 6.38803 8.73433 8.15203 8.71628C8.24517 7.82725 8.39474 6.87378 8.72837 5.8801C9.75986 2.80799 13.0777 -0.0402342 18.5097 2.60913C24.3219 5.44393 24.2552 9.7497 21.9478 12.3277C21.2963 13.0556 20.5606 13.6983 19.8246 14.3394C20.8242 15.5744 21.043 17.1574 20.7057 17.8489L18.8449 21.6642Z" fill="#BE3455"/>
<path id="Vector 7" d="M11.3343 8.45717C12.3251 5.91524 14.6451 3.26749 17.5422 4.68048C20.642 6.19238 20.0717 9.5851 18.3847 11.8959C17.0916 13.6671 15.2445 14.3848 14.3661 16.1859C13.2768 18.4194 13.35 21.5548 12.4269 24.1111C11.4785 26.7378 9.29544 28.6323 6.52029 27.2787C3.9585 26.0293 4.17265 23.0901 5.37655 20.6724C6.74605 17.9222 9.58424 15.7715 10.3399 14.2222C11.0086 12.8511 10.4524 10.7199 11.3343 8.45717Z" fill="#BE3455"/>
<path id="Vector 7 (Stroke)" fill-rule="evenodd" clip-rule="evenodd" d="M14.5804 6.35671C13.8377 6.91622 13.169 7.91052 12.748 8.99055C12.4141 9.84727 12.3384 10.7074 12.284 11.6875C12.2809 11.7442 12.2777 11.8022 12.2746 11.8612C12.252 12.2806 12.2265 12.7542 12.1688 13.1975C12.1018 13.713 11.9788 14.307 11.6973 14.8842C11.4092 15.4748 10.972 16.0346 10.5615 16.5167C10.2542 16.8777 9.89735 17.2677 9.54643 17.6514C9.42162 17.7878 9.29757 17.9234 9.17675 18.0566C8.20294 19.1302 7.29705 20.2037 6.72769 21.3471C6.21489 22.3769 5.98154 23.3917 6.05802 24.1769C6.12556 24.8705 6.42821 25.4452 7.22503 25.8338C8.19537 26.3071 8.89055 26.1666 9.41792 25.8366C10.0227 25.4581 10.61 24.6928 10.9981 23.618C11.362 22.6103 11.5508 21.483 11.7678 20.1871C11.7876 20.0689 11.8076 19.9494 11.8281 19.8284C12.0566 18.4738 12.3403 16.8943 13.0087 15.5239C13.6161 14.2785 14.5428 13.4549 15.2844 12.8218C15.3686 12.7498 15.4507 12.6801 15.5308 12.6121C16.2061 12.0387 16.734 11.5904 17.183 10.9755C17.8724 10.0311 18.2517 8.96669 18.2297 8.10905C18.2107 7.36981 17.9025 6.64489 16.8374 6.12542C15.9419 5.68863 15.2357 5.86305 14.5804 6.35671ZM17.5422 4.68048C14.6451 3.26749 12.3251 5.91524 11.3343 8.45717C10.8664 9.65772 10.8033 10.8212 10.7473 11.8538C10.6978 12.7675 10.6538 13.5786 10.3399 14.2222C10.0137 14.8911 9.29927 15.672 8.48249 16.5649C7.40736 17.7403 6.1548 19.1095 5.37655 20.6724C4.17265 23.0901 3.9585 26.0293 6.52029 27.2787C9.29544 28.6323 11.4785 26.7378 12.4269 24.1111C12.8462 22.9499 13.0599 21.6693 13.2704 20.4079C13.5233 18.8924 13.7716 17.4048 14.3661 16.1859C14.8542 15.1853 15.6412 14.519 16.4661 13.8207C17.1259 13.2621 17.81 12.683 18.3847 11.8959C20.0717 9.5851 20.642 6.19238 17.5422 4.68048Z" fill="white"/>
</g>
</svg>
