<svg width="24" height="24" viewBox="0 0 24 24" fill="none" xmlns="http://www.w3.org/2000/svg">
<path d="M7.46429 2H3.28571V8H2V9.33333H3.28571V10.6667H2V12H3.28571V14H4.57143V12H7.14286V10.6667H4.57143V9.33333H7.46429C9.41857 9.33333 11 7.69333 11 5.66667C11 3.64 9.41857 2 7.46429 2ZM7.46429 8H4.57143V3.33333H7.46429C8.705 3.33333 9.71429 4.38 9.71429 5.66667C9.71429 6.95333 8.705 8 7.46429 8Z" fill="#BE3455"/>
<path d="M18.4643 10H14.2857V16H13V17.3333H14.2857V18.6667H13V20H14.2857V22H15.5714V20H18.1429V18.6667H15.5714V17.3333H18.4643C20.4186 17.3333 22 15.6933 22 13.6667C22 11.64 20.4186 10 18.4643 10ZM18.4643 16H15.5714V11.3333H18.4643C19.705 11.3333 20.7143 12.38 20.7143 13.6667C20.7143 14.9533 19.705 16 18.4643 16Z" fill="#00817D"/>
<path d="M12 9.5L23 23" stroke="#00817D"/>
</svg>
