<svg width="64" height="68" viewBox="0 0 64 68" fill="none" xmlns="http://www.w3.org/2000/svg">
<g id="Group">
<path id="Vector" d="M38.0848 11.494C38.0528 10.694 38.1968 9.92603 38.7568 9.46203C40.7568 7.79803 42.2768 7.27003 41.6528 6.42203C41.0448 5.57403 38.2288 5.55803 37.7648 5.09403C37.3008 4.63003 38.9008 1.35003 37.6848 0.726026C36.4528 0.102026 34.0048 4.55003 32.5488 4.55003C31.0928 4.55003 29.9408 0.406026 28.7088 1.04603C27.4768 1.67003 27.7808 4.63003 27.3168 5.09403C26.8528 5.55803 23.2528 3.86203 22.6448 4.71003C22.0368 5.55803 24.1008 7.15803 26.3248 8.51803C27.2688 9.09403 27.4128 10.214 27.2688 11.302C12.0528 13.382 0.388794 25.174 0.388794 39.414C0.388794 55.126 14.5808 67.862 32.0848 67.862C49.5888 67.862 63.7808 55.126 63.7808 39.414C63.7808 25.558 52.7248 14.006 38.0848 11.494Z" fill="#BE3455"/>
<path id="Vector_2" d="M38.0848 11.4936C38.0848 11.4776 37.8288 11.6056 37.7968 11.6216C48.4048 15.9576 59.2047 26.0056 59.9727 38.2136C60.7087 49.7656 51.9567 60.3096 42.8688 66.1816C55.0767 62.2296 63.7808 51.7336 63.7808 39.4296C63.7808 25.5576 52.7248 14.0056 38.0848 11.4936Z" fill="#982A44"/>
<g id="Group_2">
<path id="Vector_3" d="M19.9888 17.8619C15.8608 16.3259 9.20482 21.2539 7.78082 23.0139C6.34082 24.7739 4.69282 31.5419 7.86082 32.8699C11.0288 34.1979 17.1248 31.6379 21.1408 27.8139C25.1568 23.9899 22.7888 18.8859 19.9888 17.8619Z" fill="#EF8595"/>
<path id="Vector_4" d="M6.03683 37.622C3.07683 37.318 1.34883 45.062 4.98083 45.094C8.61283 45.126 8.99683 37.942 6.03683 37.622Z" fill="#EF8595"/>
</g>
<g id="Group_3">
<g id="Group_4">
<g id="Group_5">
<path id="Vector_5" d="M42.605 40.3586C46.4059 40.118 49.2686 36.4699 48.999 32.2104C48.7293 27.9509 45.4295 24.6929 41.6285 24.9335C37.8276 25.1741 34.9649 28.8222 35.2345 33.0817C35.5042 37.3412 38.804 40.5992 42.605 40.3586Z" fill="#982A44"/>
<path id="Vector_6" d="M42.5652 39.6724C45.8105 39.467 48.255 36.355 48.025 32.7216C47.795 29.0882 44.9777 26.3093 41.7323 26.5148C38.487 26.7202 36.0425 29.8322 36.2725 33.4655C36.5025 37.0989 39.3198 39.8778 42.5652 39.6724Z" fill="white"/>
<path id="Vector_7" d="M42.4004 37.0704C44.3582 36.9465 45.8326 35.0659 45.6936 32.87C45.5546 30.6741 43.8549 28.9945 41.8971 29.1184C39.9393 29.2423 38.4649 31.1229 38.6039 33.3188C38.7429 35.5147 40.4426 37.1944 42.4004 37.0704Z" fill="#982A44"/>
<path id="Vector_8" d="M42.3347 36.0317C43.781 35.9402 44.8702 34.5505 44.7675 32.9279C44.6648 31.3052 43.409 30.064 41.9627 30.1555C40.5164 30.2471 39.4273 31.6367 39.53 33.2594C39.6327 34.8821 40.8884 36.1233 42.3347 36.0317Z" fill="#D25C78"/>
<path id="Vector_9" d="M42.261 34.8667C43.1341 34.8114 43.7916 33.9731 43.7297 32.9942C43.6677 32.0153 42.9097 31.2665 42.0366 31.3218C41.1636 31.3771 40.506 32.2154 40.568 33.1943C40.63 34.1732 41.388 34.922 42.261 34.8667Z" fill="#553F16"/>
<path id="Vector_10" d="M45.3508 33.4268C46.0652 33.3816 46.6076 32.7659 46.5624 32.0515C46.5172 31.3372 45.9014 30.7948 45.1871 30.84C44.4728 30.8852 43.9303 31.501 43.9755 32.2153C44.0208 32.9296 44.6365 33.472 45.3508 33.4268Z" fill="white"/>
</g>
<g id="Group_6">
<path id="Vector_11" d="M22.2772 40.3383C26.069 39.983 28.82 36.2502 28.4218 32.001C28.0236 27.7517 24.6269 24.595 20.8351 24.9504C17.0433 25.3057 14.2923 29.0385 14.6905 33.2877C15.0887 37.537 18.4854 40.6937 22.2772 40.3383Z" fill="#982A44"/>
<path id="Vector_12" d="M22.2194 39.6548C25.4569 39.3514 27.8061 36.1671 27.4664 32.5424C27.1267 28.9178 24.2268 26.2254 20.9893 26.5288C17.7517 26.8322 15.4026 30.0165 15.7422 33.6411C16.0819 37.2658 18.9818 39.9582 22.2194 39.6548Z" fill="white"/>
<path id="Vector_13" d="M21.9761 37.0576C23.9292 36.8746 25.346 34.9503 25.1407 32.7597C24.9354 30.5691 23.1857 28.9416 21.2327 29.1247C19.2796 29.3077 17.8627 31.2319 18.068 33.4225C18.2733 35.6131 20.023 37.2406 21.9761 37.0576Z" fill="#982A44"/>
<path id="Vector_14" d="M21.879 36.0225C23.3218 35.8873 24.3684 34.4655 24.2167 32.8467C24.065 31.2279 22.7724 30.0252 21.3296 30.1605C19.8868 30.2957 18.8401 31.7175 18.9918 33.3363C19.1435 34.9551 20.4361 36.1578 21.879 36.0225Z" fill="#D25C78"/>
<path id="Vector_15" d="M21.77 34.8593C22.641 34.7777 23.2728 33.9199 23.1813 32.9433C23.0898 31.9668 22.3096 31.2413 21.4386 31.3229C20.5676 31.4045 19.9358 32.2623 20.0273 33.2389C20.1188 34.2154 20.899 34.9409 21.77 34.8593Z" fill="#553F16"/>
<path id="Vector_16" d="M24.7958 33.3112C25.5084 33.2445 26.032 32.6126 25.9652 31.9C25.8984 31.1874 25.2666 30.6639 24.554 30.7306C23.8414 30.7974 23.3178 31.4292 23.3846 32.1419C23.4514 32.8545 24.0832 33.378 24.7958 33.3112Z" fill="white"/>
</g>
</g>
</g>
<path id="Vector_17" d="M18.9168 20.5655C20.1008 20.6455 21.2848 20.4535 22.4528 20.2615C23.2848 20.1335 24.2928 20.0535 24.7888 20.7255C25.0608 21.0935 25.0928 21.6055 24.9488 22.0375C24.8048 22.4695 24.5008 22.8375 24.1488 23.1415C23.2368 23.9415 21.9888 24.3255 20.7728 24.2935C19.5568 24.2455 18.3728 23.7975 17.3968 23.0775C16.8208 22.6455 14.7088 20.5015 15.3808 19.6215C15.6208 19.3175 18.2448 20.5175 18.9168 20.5655Z" fill="#343A3F"/>
<path id="Vector_18" d="M43.3328 19.0619C42.1968 19.3819 40.9968 19.4299 39.8128 19.4779C38.9808 19.5099 37.9728 19.6539 37.6208 20.4059C37.4288 20.8219 37.4928 21.3179 37.7328 21.7179C37.9568 22.1179 38.3248 22.4059 38.7248 22.6299C39.7808 23.2219 41.0768 23.3659 42.2608 23.0779C43.4448 22.7899 44.5168 22.1019 45.3168 21.2059C45.7968 20.6779 47.4288 18.1499 46.5968 17.4139C46.3248 17.1899 43.9888 18.8859 43.3328 19.0619Z" fill="#343A3F"/>
<g id="Group_7">
<path id="Vector_19" d="M24.0848 47.4303C24.8208 48.4383 25.8608 48.9343 26.9968 49.3823C28.3248 49.9103 29.6848 50.2463 31.1248 50.3583C33.8928 50.5823 36.9008 50.2143 39.3488 48.8223C40.2928 48.2783 42.1328 47.0463 41.6208 45.7343C41.4608 45.3343 41.0768 45.0463 40.6288 45.1743C39.8768 45.3823 39.6848 45.9423 39.2048 46.3903C38.7888 46.7743 38.2608 47.0943 37.7168 47.3663C36.3728 48.0383 34.8368 48.3903 33.3488 48.5023C31.7488 48.6303 30.1008 48.5343 28.5168 48.3103C27.0608 48.1023 25.6688 47.6063 24.2448 47.2223C24.1328 47.1903 24.0048 47.3183 24.0848 47.4303Z" fill="#343A3F"/>
</g>
<path id="Vector_20" d="M39.0447 51.0458C38.9487 50.8058 38.8847 50.6778 38.6607 50.5498C38.3087 50.3418 37.9407 50.4378 37.6527 50.6778C36.1487 51.8938 34.2927 52.2778 32.4047 52.4698C32.2127 52.4858 32.0847 52.7578 32.2927 52.8698C34.3727 53.9578 36.8367 53.3338 38.6447 51.9738C38.9327 51.7818 39.1887 51.4138 39.0447 51.0458Z" fill="#982A44"/>
</g>
</svg>
