<svg width="65" height="68" viewBox="0 0 65 68" fill="none" xmlns="http://www.w3.org/2000/svg">
<g id="Group">
<path id="Vector" d="M38.5 11.2313C38.468 10.4313 38.612 9.66333 39.172 9.19933C41.172 7.53533 42.692 7.00733 42.068 6.15933C41.46 5.31133 38.644 5.29533 38.18 4.83133C37.716 4.36733 39.316 1.08733 38.1 0.463331C36.868 -0.160669 34.42 4.28733 32.964 4.28733C31.508 4.28733 30.356 0.143331 29.124 0.783331C27.892 1.40733 28.196 4.36733 27.732 4.83133C27.268 5.29533 23.668 3.59933 23.06 4.44733C22.452 5.29533 24.516 6.89533 26.74 8.25533C27.684 8.83133 27.828 9.95133 27.684 11.0393C12.468 13.1193 0.803955 24.9113 0.803955 39.1513C0.803955 54.8633 14.996 67.5993 32.5 67.5993C50.004 67.5993 64.196 54.8633 64.196 39.1513C64.196 25.2953 53.14 13.7433 38.5 11.2313Z" fill="#BE3455"/>
<path id="Vector_2" d="M38.4999 11.2309C38.4999 11.2149 38.2439 11.3429 38.2119 11.3589C48.8199 15.6949 59.6199 25.7429 60.3879 37.9509C61.1239 49.5029 52.3719 60.0469 43.2839 65.9189C55.4919 61.9669 64.1959 51.4709 64.1959 39.1669C64.1959 25.2949 53.1399 13.7429 38.4999 11.2309Z" fill="#982A44"/>
<g id="Group_2">
<g id="Group_3">
<path id="Vector_3" d="M20.404 17.5992C16.276 16.0632 9.61999 20.9912 8.19599 22.7512C6.75599 24.5112 5.10799 31.2792 8.27599 32.6072C11.444 33.9352 17.54 31.3752 21.556 27.5512C25.572 23.7272 23.204 18.6232 20.404 17.5992Z" fill="#EF8595"/>
<path id="Vector_4" d="M6.45199 37.3593C3.49199 37.0553 1.76399 44.7993 5.39599 44.8313C9.02799 44.8633 9.41199 37.6793 6.45199 37.3593Z" fill="#EF8595"/>
</g>
</g>
<g id="Group_4">
<g id="Group_5">
<g id="Group_6">
<path id="Vector_5" d="M26.2919 31.4717H14.9799C14.1479 32.8477 13.6999 34.5277 13.8119 36.3357C13.8599 37.1357 14.0199 37.8877 14.2599 38.5917H27.2039C27.5079 37.6157 27.6519 36.5597 27.5879 35.4717C27.4919 33.9837 27.0279 32.6077 26.2919 31.4717Z" fill="#982A44"/>
<path id="Vector_6" d="M24.6279 31.4717H16.6919C15.4439 32.7677 14.7239 34.6557 14.8519 36.7037C14.8839 37.3597 15.0119 37.9837 15.2199 38.5757H26.2919C26.5479 37.7597 26.6599 36.8797 26.6119 35.9677C26.4839 34.1757 25.7479 32.5917 24.6279 31.4717Z" fill="white"/>
<path id="Vector_7" d="M17.8119 38.5913H23.6839C24.0199 38.0153 24.2439 37.3433 24.2759 36.6073C24.2919 36.4473 24.2919 36.2873 24.2759 36.1273C24.2279 35.3753 24.0039 34.6873 23.6359 34.1113C22.9479 32.9913 21.7799 32.3033 20.4839 32.3833C18.5319 32.5113 17.0439 34.3833 17.1879 36.5753C17.2199 37.3113 17.4599 38.0153 17.8119 38.5913Z" fill="#982A44"/>
<path id="Vector_8" d="M19.0598 38.5913H22.4358C22.9478 38.0953 23.2838 37.3913 23.3318 36.5913C23.3478 36.4633 23.3478 36.3193 23.3318 36.1913C23.2998 35.5993 23.0918 35.0553 22.7878 34.6073C22.2758 33.8393 21.4278 33.3753 20.5318 33.4233C19.0758 33.5193 18.0038 34.9113 18.0998 36.5273C18.1478 37.3433 18.5158 38.0793 19.0598 38.5913Z" fill="#D25C78"/>
<path id="Vector_9" d="M20.8355 38.1079C21.7086 38.0527 22.3661 37.2143 22.3041 36.2354C22.2422 35.2565 21.4842 34.5078 20.6111 34.563C19.738 34.6183 19.0805 35.4566 19.1425 36.4355C19.2044 37.4144 19.9624 38.1632 20.8355 38.1079Z" fill="#553F16"/>
<path id="Vector_10" d="M23.9094 36.669C24.6238 36.6238 25.1662 36.0081 25.121 35.2937C25.0757 34.5794 24.46 34.037 23.7457 34.0822C23.0314 34.1274 22.4889 34.7431 22.5341 35.4575C22.5794 36.1718 23.1951 36.7142 23.9094 36.669Z" fill="white"/>
</g>
</g>
<g id="Group_7">
<g id="Group_8">
<path id="Vector_11" d="M49.3319 32.4316H38.0199C37.1879 33.8076 36.7399 35.4876 36.8519 37.2956C36.8999 38.0956 37.0599 38.8476 37.2999 39.5516H50.2439C50.5479 38.5756 50.6919 37.5196 50.6279 36.4316C50.5159 34.9436 50.0519 33.5836 49.3319 32.4316Z" fill="#982A44"/>
<path id="Vector_12" d="M47.6679 32.4316H39.732C38.484 33.7276 37.764 35.6156 37.892 37.6636C37.924 38.3196 38.0519 38.9436 38.2599 39.5356H49.332C49.588 38.7196 49.7 37.8396 49.652 36.9276C49.524 35.1516 48.7719 33.5676 47.6679 32.4316Z" fill="white"/>
<path id="Vector_13" d="M40.8519 39.5512H46.7239C47.0599 38.9752 47.2839 38.3032 47.3159 37.5672C47.3319 37.4072 47.3319 37.2472 47.3159 37.0872C47.2679 36.3352 47.0439 35.6472 46.6759 35.0712C45.9879 33.9512 44.8199 33.2632 43.5239 33.3432C41.5719 33.4712 40.0839 35.3432 40.2279 37.5352C40.2599 38.2872 40.4999 38.9752 40.8519 39.5512Z" fill="#982A44"/>
<path id="Vector_14" d="M42.1 39.5513H45.476C45.988 39.0553 46.324 38.3513 46.372 37.5513C46.388 37.4233 46.388 37.2793 46.372 37.1513C46.34 36.5593 46.132 36.0153 45.828 35.5673C45.316 34.7993 44.468 34.3353 43.572 34.3833C42.116 34.4793 41.044 35.8713 41.14 37.4873C41.188 38.3193 41.556 39.0553 42.1 39.5513Z" fill="#D25C78"/>
<path id="Vector_15" d="M43.8763 39.0835C44.7493 39.0282 45.4069 38.1899 45.3449 37.211C45.2829 36.2321 44.5249 35.4833 43.6519 35.5386C42.7788 35.5939 42.1213 36.4322 42.1832 37.4111C42.2452 38.39 43.0032 39.1388 43.8763 39.0835Z" fill="#553F16"/>
<path id="Vector_16" d="M46.9502 37.6456C47.6645 37.6003 48.2069 36.9846 48.1617 36.2703C48.1165 35.556 47.5008 35.0135 46.7864 35.0588C46.0721 35.104 45.5297 35.7197 45.5749 36.434C45.6201 37.1484 46.2359 37.6908 46.9502 37.6456Z" fill="white"/>
</g>
</g>
<path id="Vector_17" d="M14.0519 38.3831C13.8599 38.4471 14.0519 38.6871 14.2599 38.6871C17.7159 38.7351 24.0839 38.1751 28.3239 39.1991C28.3719 39.2151 28.4519 39.1511 28.4039 39.1351C25.5719 37.4871 19.3799 36.6231 14.0519 38.3831Z" fill="#982A44"/>
<path id="Vector_18" d="M14.0519 31.3756C13.8439 31.3596 14.0679 31.1676 14.2599 31.0716C15.4919 30.4156 23.5239 30.8956 28.0359 31.5036C28.0839 31.5036 28.2599 31.7756 27.9719 31.7756C25.4439 31.8556 19.4759 31.7596 14.0519 31.3756Z" fill="#982A44"/>
<path id="Vector_19" d="M37.0279 39.2956C36.8359 39.3596 37.0279 39.5996 37.2359 39.5996C40.6919 39.6476 47.0599 39.0876 51.2999 40.1116C51.3479 40.1276 51.4279 40.0636 51.3799 40.0476C48.5319 38.4156 42.3559 37.5516 37.0279 39.2956Z" fill="#982A44"/>
<path id="Vector_20" d="M36.932 32.5599C36.724 32.5599 36.9479 32.3519 37.1239 32.2559C38.3239 31.5519 46.388 31.7279 50.9 32.1759C50.948 32.1759 51.14 32.4319 50.852 32.4639C48.324 32.6079 42.356 32.7359 36.932 32.5599Z" fill="#982A44"/>
</g>
<path id="Vector_21" d="M39.972 27.8077C38.836 27.7917 37.476 27.8557 37.06 28.4477C36.82 28.7677 36.964 29.1837 37.3 29.5197C37.636 29.8557 38.164 30.1117 38.724 30.3197C40.212 30.8637 41.972 31.0397 43.556 30.8797C45.14 30.7037 53.252 29.2157 50.932 28.6397C48.66 28.0797 41.572 27.8397 39.972 27.8077Z" fill="#343A3F"/>
<path id="Vector_22" d="M25.252 27.4234C26.404 27.4554 27.78 27.5674 28.196 28.1914C28.42 28.5274 28.26 28.9594 27.908 29.2794C27.556 29.5994 26.996 29.8554 26.42 30.0314C24.884 30.5274 23.076 30.6394 21.476 30.3994C19.876 30.1594 11.684 28.3034 14.052 27.8074C16.388 27.3434 23.62 27.3914 25.252 27.4234Z" fill="#343A3F"/>
<g id="Group_9">
<path id="Vector_23" d="M46.532 55.2959C46.532 55.2959 40.212 54.0479 31.172 54.0479C21.38 54.0479 18.02 54.3679 18.02 54.3679L46.532 55.2959Z" fill="#343A3F"/>
<g id="Group_10">
<path id="Vector_24" d="M46.74 54.5275C43.268 53.8395 39.7 53.5515 36.18 53.3755C30.852 53.1035 25.46 53.1995 20.116 53.4395C19.412 53.4715 18.708 53.5035 18.02 53.5675C17.012 53.6635 16.98 55.1355 18.02 55.1675C21.236 55.2795 24.436 55.3755 27.652 55.4875C32.772 55.6635 37.892 55.8235 43.012 55.9995C44.196 56.0315 45.364 56.0795 46.548 56.1115C47.572 56.1435 47.572 54.5435 46.548 54.5115C43.332 54.3995 40.132 54.3035 36.916 54.1915C31.796 54.0155 26.676 53.8555 21.556 53.6795C20.372 53.6475 19.204 53.5995 18.02 53.5675C18.02 54.0955 18.02 54.6395 18.02 55.1675C20.324 54.9595 22.676 54.9435 24.996 54.8955C30.948 54.7995 36.884 54.8155 42.804 55.5355C43.988 55.6795 45.172 55.8395 46.34 56.0635C47.316 56.2555 47.748 54.7195 46.74 54.5275Z" fill="#343A3F"/>
</g>
</g>
</g>
</svg>
