<svg width="81" height="80" viewBox="0 0 81 80" fill="none" xmlns="http://www.w3.org/2000/svg">
<path d="M13.8337 19.4997H13.3337V19.9997V59.9997V60.4997H13.8337H67.167H67.667V59.9997V19.9997V19.4997H67.167H13.8337ZM60.0003 43.5401V52.833H24.3337V46.8734L30.5003 40.7068L36.8134 47.0199L37.167 47.3734L37.5205 47.0199L50.5003 34.0401L60.0003 43.5401ZM13.8337 13.833H67.167C68.8025 13.833 70.371 14.4827 71.5275 15.6392C72.684 16.7957 73.3337 18.3642 73.3337 19.9997V59.9997C73.3337 61.6352 72.684 63.2037 71.5275 64.3602C70.371 65.5166 68.8025 66.1663 67.167 66.1663H13.8337C12.1982 66.1663 10.6296 65.5166 9.47317 64.3602C8.31669 63.2037 7.66699 61.6352 7.66699 59.9997V19.9997C7.66699 18.3642 8.31669 16.7957 9.47317 15.6392C10.6296 14.4827 12.1982 13.833 13.8337 13.833ZM28.6823 34.8483C27.8384 35.6922 26.6938 36.1663 25.5003 36.1663C24.3069 36.1663 23.1623 35.6922 22.3183 34.8483C21.4744 34.0044 21.0003 32.8598 21.0003 31.6663C21.0003 30.4729 21.4744 29.3283 22.3183 28.4844C23.1623 27.6404 24.3069 27.1663 25.5003 27.1663C26.6938 27.1663 27.8384 27.6404 28.6823 28.4844C29.5262 29.3283 30.0003 30.4729 30.0003 31.6663C30.0003 32.8598 29.5262 34.0044 28.6823 34.8483Z" fill="white" stroke="url(#paint0_linear_10814_36742)"/>
<defs>
<linearGradient id="paint0_linear_10814_36742" x1="73.8337" y1="13.333" x2="2.36476" y2="20.8189" gradientUnits="userSpaceOnUse">
<stop stop-color="#AEE5E2"/>
<stop offset="0.166667" stop-color="#D5F4E5"/>
<stop offset="0.380208" stop-color="#DFF9F8"/>
<stop offset="0.65625" stop-color="#DFF9F8"/>
<stop offset="1" stop-color="#D5F4E5"/>
</linearGradient>
</defs>
</svg>
