<svg width="18" height="18" viewBox="0 0 18 18" fill="none" xmlns="http://www.w3.org/2000/svg">
<g id="picture">
<path id="Vector" d="M3 4.5V13.5H15V4.5H3ZM3 3H15C15.3978 3 15.7794 3.15804 16.0607 3.43934C16.342 3.72064 16.5 4.10218 16.5 4.5V13.5C16.5 13.8978 16.342 14.2794 16.0607 14.5607C15.7794 14.842 15.3978 15 15 15H3C2.60218 15 2.22064 14.842 1.93934 14.5607C1.65804 14.2794 1.5 13.8978 1.5 13.5V4.5C1.5 4.10218 1.65804 3.72064 1.93934 3.43934C2.22064 3.15804 2.60218 3 3 3ZM5.625 8.25C5.92337 8.25 6.20952 8.13147 6.4205 7.9205C6.63147 7.70952 6.75 7.42337 6.75 7.125C6.75 6.82663 6.63147 6.54048 6.4205 6.3295C6.20952 6.11853 5.92337 6 5.625 6C5.32663 6 5.04048 6.11853 4.8295 6.3295C4.61853 6.54048 4.5 6.82663 4.5 7.125C4.5 7.42337 4.61853 7.70952 4.8295 7.9205C5.04048 8.13147 5.32663 8.25 5.625 8.25ZM5.25 10.5L6.75 9L8.25 10.5L11.25 7.5L13.5 9.75V12H5.25V10.5Z" fill="#00817D"/>
</g>
</svg>
