<svg width="24" height="24" viewBox="0 0 24 24" fill="none" xmlns="http://www.w3.org/2000/svg">
<g clip-path="url(#clip0_1901_9120)">
<path d="M21.7229 1.25931C21.234 1.26188 20.5934 1.42758 19.8107 1.7994C14.1437 1.40423 7.30451 2.23001 2.7462 3.6619C-0.557306 2.1354 -1.10402 3.6386 0.397373 5.64082C-1.43991 11.095 -0.63447 16.6375 1.31951 20.6027C0.717404 23.2076 2.24729 23.0909 3.57111 22.0493C12.9101 22.547 18.9837 21.1459 22.7052 18.2941C24.0182 19.3458 24.9834 17.9657 24.4479 16.2786C25.0999 12.3515 23.9519 7.12881 22.4741 3.49373C23.2048 2.21005 22.9128 1.25291 21.7229 1.25931ZM2.17833 5.52275C5.05762 8.86115 5.11023 16.481 3.36767 21.0213C3.753 16.0497 3.50466 8.78923 2.17833 5.52269V5.52275Z" fill="#00817D"/>
</g>
<defs>
<clipPath id="clip0_1901_9120">
<rect width="24" height="24" fill="white"/>
</clipPath>
</defs>
</svg>
