<svg width="25" height="24" viewBox="0 0 25 24" fill="none" xmlns="http://www.w3.org/2000/svg">
<path fill-rule="evenodd" clip-rule="evenodd" d="M12.5 15C14.7091 15 16.5 13.2091 16.5 11C16.5 8.79086 14.7091 7 12.5 7C10.2909 7 8.5 8.79086 8.5 11C8.5 13.2091 10.2909 15 12.5 15ZM14.5 11C14.5 12.1046 13.6046 13 12.5 13C11.3954 13 10.5 12.1046 10.5 11C10.5 9.89543 11.3954 9 12.5 9C13.6046 9 14.5 9.89543 14.5 11Z" fill="black"/>
<path fill-rule="evenodd" clip-rule="evenodd" d="M21.5 11C21.5 15.9706 15.5 22.5 12.5 22.5C9.5 22.5 3.5 15.9706 3.5 11C3.5 6.02944 7.52944 2 12.5 2C17.4706 2 21.5 6.02944 21.5 11ZM19.5 11C19.5 12.7989 18.3427 15.2252 16.5875 17.3348C15.7412 18.352 14.8373 19.1944 14.0241 19.7642C13.1419 20.3825 12.6245 20.5 12.5 20.5C12.3755 20.5 11.8581 20.3825 10.9759 19.7642C10.1627 19.1944 9.25876 18.352 8.41247 17.3348C6.65732 15.2252 5.5 12.7989 5.5 11C5.5 7.13401 8.63401 4 12.5 4C16.366 4 19.5 7.13401 19.5 11Z" fill="black"/>
</svg>
