<svg width="24" height="24" viewBox="0 0 24 24" fill="none" xmlns="http://www.w3.org/2000/svg">
<g id="plate">
<path id="Vector" d="M12.1076 16.216C14.4491 16.216 16.3514 14.2936 16.4323 11.8917C16.3514 9.48985 14.4491 7.56738 12.1076 7.56738C9.76641 7.56738 7.86356 9.48985 7.78369 11.8917C7.86329 14.2936 9.76614 16.216 12.1076 16.216Z" fill="#00817D"/>
<path id="Vector_2" d="M12.1083 3.24316C7.33201 3.24316 3.45947 7.1154 3.45947 11.8918C3.45947 16.6678 7.33241 20.5405 12.1083 20.5405C16.8842 20.5405 20.7568 16.6678 20.7568 11.8918C20.7568 7.1154 16.8842 3.24316 12.1083 3.24316ZM12.1079 18.1817C8.634 18.1817 5.81775 15.461 5.81775 12.1037C5.81775 12.0322 5.82758 11.9626 5.82993 11.8918C5.82758 11.8211 5.81775 11.7511 5.81775 11.6799C5.81775 8.32267 8.63439 5.60189 12.1079 5.60189C15.5819 5.60189 18.3977 8.32267 18.3977 11.6799C18.3977 11.7511 18.3895 11.8211 18.3875 11.8918C18.3898 11.9626 18.3977 12.0322 18.3977 12.1037C18.3973 15.461 15.5819 18.1817 12.1079 18.1817Z" fill="#F0BEC3"/>
<path id="Vector_3" d="M23.7587 2.59473C23.2769 2.59356 21.278 4.03473 21.2757 9.39078C21.2733 11.1036 22.2078 11.1032 22.2062 12.1747C22.2047 13.2442 22.1988 21.7511 22.1988 21.7511C22.1988 21.7511 23.224 22.4544 23.986 21.7184L24 2.7469C23.9992 2.74729 24.0019 2.59434 23.7587 2.59473Z" fill="#F0BEC3"/>
<path id="Vector_4" d="M0.324324 2.59473C0.145205 2.59473 0 2.73993 0 2.91905V8.9059C0 9.60714 1.15315 10.3084 1.15315 10.3084C1.15315 15.2171 0.576577 18.022 0.576577 19.4245C0.576577 20.1258 0.576577 20.827 1.15315 21.5283C1.72973 22.2295 1.72973 22.2295 2.30631 21.5283C2.88288 20.827 2.88288 20.1258 2.88288 19.4245C2.88288 18.022 2.30631 15.2171 2.30631 10.3084C2.30631 10.3084 3.45946 9.60714 3.45946 8.9059V2.91905C3.45946 2.73993 3.31425 2.59473 3.13514 2.59473C2.95602 2.59473 2.81081 2.73993 2.81081 2.91905V6.80218H2.05405V2.91905C2.05405 2.73993 1.90885 2.59473 1.72973 2.59473C1.55061 2.59473 1.40541 2.73993 1.40541 2.91905V6.80218H0.648649V2.91905C0.648649 2.73993 0.503444 2.59473 0.324324 2.59473Z" fill="#F0BEC3"/>
</g>
</svg>
