<svg width="64" height="64" viewBox="0 0 64 64" fill="none" xmlns="http://www.w3.org/2000/svg">
<path d="M48.16 14.0001C47.3474 14.0044 46.2827 14.2821 44.9818 14.9052C35.563 14.2429 24.1959 15.6268 16.6198 18.0265C11.1291 15.4683 10.2205 17.9875 12.7159 21.343C9.66222 30.4835 11.0009 39.7722 14.2485 46.4175C13.2478 50.7831 15.7905 50.5874 17.9908 48.8418C33.5127 49.6759 43.6073 47.3278 49.7926 42.5486C51.975 44.311 53.5792 41.9981 52.6892 39.1707C53.7728 32.5893 51.8648 23.8367 49.4086 17.7447C50.6231 15.5934 50.1377 13.9893 48.16 14.0001ZM15.6759 21.1451C20.4615 26.7399 20.5489 39.51 17.6527 47.1191C18.2931 38.7872 17.8804 26.6194 15.6759 21.145V21.1451Z" fill="#41CBAA"/>
</svg>
