<svg width="351" height="381" viewBox="0 0 351 381" fill="none" xmlns="http://www.w3.org/2000/svg">
<g opacity="0.2">
<path d="M169.196 224.656C169.196 256.246 169.196 288.07 169.196 319.66C169.196 334.402 160.538 346.336 146.732 349.378C142.286 350.314 136.904 350.782 132.458 349.378C91.9759 336.742 60.3859 312.874 43.0699 273.562C22.2439 226.528 30.4339 182.77 62.9599 143.692C80.9779 122.164 104.144 107.89 130.82 99.466C150.242 93.382 169.196 107.656 169.196 128.716C169.43 153.52 169.196 178.558 169.196 203.362C169.196 210.85 169.196 217.87 169.196 224.656ZM157.964 224.89C157.964 205.234 157.964 185.578 157.964 165.688C157.964 153.52 158.198 141.118 157.964 128.95C157.73 114.91 146.03 106.72 132.926 110.932C110.93 118.186 91.5079 129.886 75.5959 146.734C43.0699 180.664 34.1779 227.932 53.3659 269.35C69.7459 304.918 98.2939 326.68 134.798 338.614C136.904 339.316 139.244 339.316 141.35 339.316C151.412 338.38 157.964 330.424 157.964 319.192C157.964 287.836 157.964 256.246 157.964 224.89Z" fill="url(#paint0_radial_591_18626)"/>
<path d="M181.598 186.982C181.598 167.794 181.598 148.84 181.598 129.652C181.598 114.208 190.49 102.508 204.53 99.4659C208.976 98.5299 214.358 98.2959 218.804 99.6999C261.392 113.038 293.918 138.778 310.298 181.132C328.55 228.634 318.02 271.456 284.558 308.896C267.242 328.318 245.246 341.188 220.442 349.144C201.722 355.228 182.768 342.358 182.066 322.702C181.364 307.258 181.832 291.814 181.832 276.37C181.832 272.626 184.172 270.286 187.214 270.052C190.724 270.052 193.064 272.626 193.064 276.838C193.064 291.58 193.064 306.322 193.064 321.064C193.064 331.126 200.084 338.614 209.912 339.55C212.018 339.784 214.124 339.55 216.23 339.082C253.202 327.148 282.218 305.152 297.896 269.116C316.616 226.294 308.66 186.514 278.942 151.18C263.03 132.226 242.438 120.058 219.272 111.634C205.7 106.72 192.83 116.08 193.064 130.588C193.532 169.198 193.298 207.574 193.298 246.184C193.298 247.588 193.298 249.226 193.064 250.63C192.362 253.672 190.256 255.076 187.448 254.842C184.64 254.608 182.768 253.204 182.3 250.396C182.066 248.992 182.066 247.588 182.066 246.418C181.598 226.294 181.598 206.638 181.598 186.982Z" fill="url(#paint1_radial_591_18626)"/>
<path fill-rule="evenodd" clip-rule="evenodd" d="M179.353 2.34591C178.75 1.57741 178.152 0.813479 177.62 0.0159912C176.216 0.0159912 175.046 0.0159912 174.11 0.483993C173.745 0.849288 173.368 1.20295 172.992 1.55535C171.684 2.78313 170.391 3.99566 169.664 5.63199L146.498 53.368C144.626 57.58 143.924 57.58 140.882 54.07C140.154 53.2568 139.435 52.4357 138.715 51.6155C135.503 47.9511 132.304 44.302 128.48 41.434C117.014 32.308 103.442 29.5 89.1679 29.032C82.6159 28.798 80.5099 32.074 82.6159 38.392C82.9136 39.258 83.2144 40.1272 83.5162 40.9991C85.8238 47.6662 88.1874 54.4951 89.6359 61.324C92.4439 73.726 89.8699 84.256 78.4039 92.446C65.9602 101.364 54.4355 111.569 43.9928 122.897C42.6107 123.738 41.1173 125.088 39.5599 127.078C38.8748 127.943 38.1396 128.864 37.3621 129.839C33.0945 135.185 27.5522 142.128 22.0099 150.244C21.8929 150.478 21.7174 150.77 21.5419 151.063C21.3664 151.355 21.1909 151.648 21.0739 151.882C-0.922063 187.684 -5.36806 225.826 6.56594 266.074C19.9039 310.768 46.1119 344.464 89.1679 364.12C116.78 376.522 145.796 380.5 175.748 380.734C192.83 380.734 210.146 379.33 226.76 374.884C282.452 362.248 320.828 329.956 340.484 276.136C351.716 245.248 355.226 213.658 343.76 182.068C340.503 173.063 335.99 164.371 331.507 155.736C330.516 153.826 329.525 151.918 328.55 150.01C324.338 141.82 318.956 135.736 312.17 128.248C311.99 128.045 311.813 127.85 311.638 127.662C311.39 127.234 310.961 126.805 310.532 126.376L310.532 126.376C298.832 113.272 285.728 101.572 271.688 91.276C263.264 85.192 260.456 77.704 260.924 67.876C261.392 57.346 264.434 47.518 268.646 38.158C271.22 32.074 268.646 28.564 262.094 28.798C260.924 28.915 259.754 28.9735 258.584 29.032C257.414 29.0905 256.244 29.149 255.074 29.266C236.822 31.138 221.612 38.158 210.614 53.368C207.572 57.58 206.87 57.346 204.53 52.666L182.066 6.33399C181.339 4.88009 180.341 3.60686 179.353 2.34591ZM304.684 136.291C304.293 136 303.903 135.659 303.512 135.268C302.459 134.215 301.464 133.103 300.47 131.992C299.475 130.88 298.481 129.769 297.428 128.716C294.93 126.484 292.433 124.228 289.929 121.967C281.41 114.272 272.828 106.519 263.966 99.466C253.202 91.042 248.756 80.746 249.926 67.876C250.443 62.1894 251.721 56.6298 253.013 51.0102C253.476 48.9986 253.94 46.9794 254.372 44.944C254.586 43.6604 254.995 42.5725 255.6 40.9649C255.657 40.8141 255.716 40.6586 255.776 40.498C241.502 42.136 229.802 47.284 221.144 58.516C221.027 58.633 220.968 58.75 220.91 58.867C220.851 58.984 220.793 59.101 220.676 59.218C211.55 71.62 201.02 70.684 194.234 56.644C191.248 50.5567 188.318 44.4694 185.361 38.3268C182.294 31.9547 179.199 25.523 175.982 18.97C175.572 19.6882 175.251 20.2714 174.961 20.7986C174.591 21.4738 174.27 22.057 173.876 22.714C170.951 28.681 168.026 34.7065 165.101 40.732C162.176 46.7575 159.251 52.783 156.326 58.75C150.944 69.982 139.244 70.918 131.99 60.622C123.566 48.688 108.59 40.498 96.8899 40.966C97.3579 43.306 97.8641 45.646 98.3703 47.986C99.6358 53.836 100.901 59.686 101.57 65.536C103.208 79.342 99.2299 91.042 87.2959 99.7C73.0219 109.996 59.9179 121.93 48.2179 135.034C47.2942 136.035 46.3452 136.757 45.3958 137.192C38.8834 144.622 34.1181 151.46 31.6039 155.86C30.3312 158.307 28.9766 160.714 27.6258 163.114C25.7478 166.45 23.8771 169.773 22.2439 173.176C8.67194 202.66 8.20394 232.612 17.5639 263.266C28.0939 298.132 47.0479 326.446 78.6379 345.634C97.5919 357.1 118.418 363.652 140.414 366.694C169.196 370.672 197.744 370.204 226.058 363.652C281.75 350.782 317.318 316.618 333.464 261.862C344.462 224.89 340.25 190.024 319.892 157.03C319.658 156.562 319.424 156.094 319.19 155.86C318.352 154.393 313.572 146.357 304.684 136.291Z" fill="url(#paint2_radial_591_18626)"/>
</g>
<defs>
<radialGradient id="paint0_radial_591_18626" cx="0" cy="0" r="1" gradientUnits="userSpaceOnUse" gradientTransform="translate(100.874 112.948) rotate(89.589) scale(136.802 74.6791)">
<stop stop-color="#BE3455"/>
<stop offset="1" stop-color="white"/>
</radialGradient>
<radialGradient id="paint1_radial_591_18626" cx="0" cy="0" r="1" gradientUnits="userSpaceOnUse" gradientTransform="translate(250.794 113.585) rotate(89.5889) scale(136.665 74.6302)">
<stop stop-color="#BE3455"/>
<stop offset="1" stop-color="white"/>
</radialGradient>
<radialGradient id="paint2_radial_591_18626" cx="0" cy="0" r="1" gradientUnits="userSpaceOnUse" gradientTransform="translate(176.5 22.5) rotate(89.3064) scale(206.515 190.243)">
<stop stop-color="#BE3455"/>
<stop offset="1" stop-color="white"/>
</radialGradient>
</defs>
</svg>
