<svg width="372" height="320" viewBox="0 0 372 320" fill="none" xmlns="http://www.w3.org/2000/svg">
<g opacity="0.6" filter="url(#filter0_d_6275_45025)">
<path d="M211.309 163.778C241.715 164.25 272.345 164.725 302.751 165.197C316.94 165.417 328.357 172.95 331.174 184.723C332.039 188.513 332.446 193.092 331.059 196.848C318.572 231.046 295.346 257.524 257.369 271.645C211.931 288.634 169.88 281.023 132.528 252.81C111.952 237.184 98.3996 217.292 90.5056 194.507C84.8057 177.918 98.6966 162.031 118.967 162.345C142.843 162.517 166.94 163.09 190.814 163.46C198.021 163.572 204.778 163.677 211.309 163.778ZM211.444 173.323C192.525 173.029 173.606 172.735 154.462 172.438C142.751 172.257 130.816 171.873 119.102 171.89C105.587 171.879 97.6097 181.695 101.559 192.889C108.364 211.682 119.469 228.354 135.558 242.122C167.954 270.258 213.378 278.517 253.397 262.837C287.763 249.454 308.938 225.529 320.718 194.699C321.41 192.921 321.429 190.933 321.446 189.144C320.626 180.583 313.021 174.899 302.21 174.731C272.03 174.263 241.624 173.791 211.444 173.323Z" fill="white"/>
<path d="M175.507 151.798C157.039 151.511 138.796 151.228 120.327 150.942C105.462 150.711 94.2723 142.983 91.4571 131.011C90.5919 127.221 90.4099 122.646 91.7969 118.89C104.977 82.9129 130.013 55.6683 170.91 42.3869C216.777 27.5923 257.909 37.1766 293.676 66.1599C312.231 81.159 324.442 100.036 331.9 121.224C337.606 137.217 325.066 153.125 306.142 153.428C291.271 153.793 276.41 153.165 261.545 152.934C257.942 152.878 255.708 150.856 255.507 148.268C255.536 145.287 258.032 143.337 262.086 143.4C276.275 143.62 290.464 143.841 304.653 144.061C314.338 144.211 321.602 138.36 322.582 130.025C322.824 128.24 322.615 126.448 322.182 124.652C310.992 93.0677 290.054 68.0917 255.495 54.2359C214.429 37.6947 176.077 43.8587 141.829 68.5748C123.458 81.8081 111.581 99.1181 103.287 118.671C98.4485 130.126 107.354 141.198 121.32 141.216C158.486 141.395 195.421 142.167 232.583 142.744C233.935 142.765 235.511 142.789 236.861 143.009C239.783 143.651 241.117 145.461 240.87 147.842C240.622 150.224 239.255 151.793 236.549 152.149C235.196 152.327 233.844 152.306 232.718 152.288C213.345 152.385 194.426 152.092 175.507 151.798Z" fill="white"/>
<path fill-rule="evenodd" clip-rule="evenodd" d="M-2.42149 151.875C-3.16864 152.377 -3.91136 152.877 -4.68594 153.319C-4.6973 154.518 -4.70677 155.517 -4.26232 156.323C-3.91244 156.64 -3.57391 156.967 -3.23658 157.293C-2.06127 158.429 -0.900573 159.55 0.674049 160.195L46.5938 180.683C50.6469 182.344 50.6413 182.943 47.2264 185.488C46.435 186.097 45.6362 186.699 44.8381 187.301C41.2727 189.989 37.7222 192.666 34.9212 195.888C26.0137 205.542 23.1917 217.087 22.6241 229.267C22.3451 234.857 25.4922 236.704 31.6117 235C32.4506 234.758 33.2926 234.514 34.1372 234.27C40.5955 232.399 47.2105 230.482 53.8181 229.347C65.8197 227.134 75.9696 229.488 83.7873 239.399C92.1762 249.999 101.779 259.855 112.447 268.833C113.255 269.949 114.491 271.15 116.254 272.406C117.084 273.003 117.966 273.644 118.899 274.322C124.02 278.042 130.672 282.872 138.453 287.721C138.678 287.824 138.959 287.978 139.239 288.132C139.52 288.286 139.801 288.44 140.025 288.543C174.374 307.838 211.122 312.197 250.032 302.615C293.242 291.902 325.949 270.047 345.253 233.612C357.436 210.243 361.507 185.551 361.975 160.005C362.113 145.434 360.899 130.643 356.746 116.405C345.01 68.7111 314.178 35.4963 262.434 17.9299C232.738 7.89003 202.301 4.42663 171.744 13.7379C163.033 16.3825 154.615 20.1024 146.252 23.798C144.401 24.6158 142.553 25.4324 140.705 26.2359C132.773 29.7071 126.862 34.2075 119.586 39.8848C117.368 41.582 116.066 42.9805 115.35 44.1412C103.838 53.3177 93.4609 63.4957 84.2217 74.3657C78.2771 81.4672 71.0218 83.7531 61.5329 83.2075C51.366 82.6513 41.898 79.9081 32.8914 76.1729C27.0358 73.8849 23.6248 76.0303 23.7977 81.6275C23.9013 82.6281 23.9483 83.6279 23.9954 84.6277C24.0424 85.6274 24.0894 86.6272 24.193 87.6278C25.8534 103.238 32.5107 116.328 47.1127 125.944C51.1564 128.604 50.9247 129.2 46.3855 131.128L1.45248 149.617C0.0423003 150.216 -1.19557 151.05 -2.42149 151.875ZM129.058 45.0617C128.739 45.9888 128.047 46.9224 126.97 47.85C125.945 48.7334 124.863 49.5659 123.781 50.3985C122.7 51.231 121.618 52.0635 120.593 52.9468C118.417 55.046 116.217 57.1448 114.013 59.2483C106.512 66.4069 98.9543 73.619 92.0697 81.0801C83.846 90.1446 73.8653 93.7873 61.4439 92.597C55.9556 92.0711 50.5959 90.8971 45.1785 89.7103C43.2393 89.2855 41.2928 88.8591 39.3303 88.4603C38.0923 88.2585 37.0447 87.8928 35.4969 87.3522C35.3516 87.3015 35.202 87.2493 35.0474 87.1955C36.514 99.4063 41.3916 109.472 52.1703 117.03C52.2824 117.132 52.3949 117.184 52.5075 117.235C52.62 117.287 52.7325 117.339 52.8446 117.44C64.7496 125.416 63.7603 134.392 50.1444 139.977C44.2407 142.436 38.3375 144.847 32.3806 147.28C26.201 149.803 19.9636 152.35 13.6081 155C14.2984 155.361 14.8591 155.643 15.3659 155.898C16.0151 156.225 16.5759 156.507 17.2073 156.853C22.9466 159.439 28.7423 162.026 34.5381 164.612C40.3348 167.199 46.1315 169.786 51.8717 172.372C62.6769 177.134 63.4863 187.137 53.4829 193.177C41.8879 200.192 33.8561 212.856 34.2134 222.851C36.4774 222.487 38.7416 222.089 41.0059 221.692C46.6665 220.698 52.3272 219.705 57.983 219.221C71.3312 218.028 82.5998 221.598 90.8658 231.916C100.695 244.255 112.116 255.62 124.678 265.804C125.552 266.536 126.203 267.283 126.624 268.029C133.516 273.465 139.837 277.469 143.947 279.62C146.297 280.742 148.607 281.934 150.91 283.121C154.112 284.773 157.302 286.418 160.57 287.862C188.894 299.877 217.776 300.721 247.413 293.192C281.122 284.728 308.581 268.981 327.341 242.319C338.551 226.322 345.038 208.654 348.15 189.937C352.218 165.445 351.998 141.086 345.908 116.837C333.947 69.1395 301.287 38.2922 248.612 23.706C213.046 13.7753 179.388 16.8501 147.405 33.7255C146.952 33.9182 146.499 34.1108 146.271 34.3069C144.937 34.9577 137.993 38.4845 129.058 45.0617Z" fill="white"/>
</g>
<defs>
<filter id="filter0_d_6275_45025" x="-14.6895" y="0.298828" width="386.676" height="319.216" filterUnits="userSpaceOnUse" color-interpolation-filters="sRGB">
<feFlood flood-opacity="0" result="BackgroundImageFix"/>
<feColorMatrix in="SourceAlpha" type="matrix" values="0 0 0 0 0 0 0 0 0 0 0 0 0 0 0 0 0 0 127 0" result="hardAlpha"/>
<feOffset dy="2"/>
<feGaussianBlur stdDeviation="5"/>
<feComposite in2="hardAlpha" operator="out"/>
<feColorMatrix type="matrix" values="0 0 0 0 0 0 0 0 0 0 0 0 0 0 0 0 0 0 0.1 0"/>
<feBlend mode="normal" in2="BackgroundImageFix" result="effect1_dropShadow_6275_45025"/>
<feBlend mode="normal" in="SourceGraphic" in2="effect1_dropShadow_6275_45025" result="shape"/>
</filter>
</defs>
</svg>
