<svg width="14" height="14" viewBox="0 0 14 14" fill="none" xmlns="http://www.w3.org/2000/svg">
<g id="Group">
<path id="Vector" d="M1.40625 7.92924C2.45802 9.50646 4.23839 11.2474 6.99939 13.0723C9.76038 11.2474 11.5408 9.50646 12.5925 7.92924H10.4281C10.3425 7.92922 10.2589 7.90357 10.188 7.8556C10.1171 7.80763 10.0622 7.73953 10.0304 7.66008L8.78148 4.53821L7.41169 9.33245C7.3872 9.41843 7.33644 9.4946 7.2665 9.5503C7.19657 9.60599 7.11097 9.63843 7.02169 9.64305C6.93241 9.64768 6.84391 9.62428 6.7686 9.57611C6.69328 9.52795 6.63491 9.45744 6.60165 9.37445L5.18987 5.84456L3.92723 7.73894C3.88803 7.79754 3.83498 7.84557 3.77278 7.87876C3.71058 7.91196 3.64115 7.92929 3.57064 7.92924H1.40625Z" fill="#BE3455"/>
<path id="Vector_2" d="M0.896721 7.07204C-1.93799 1.65463 3.92259 -1.49982 6.84816 1.19432C6.89959 1.24146 6.95017 1.29032 6.99903 1.3409C7.04739 1.29037 7.09772 1.24176 7.14989 1.19518C10.0772 -1.49982 15.9369 1.65463 13.103 7.07204H10.7175L9.11113 3.05527C9.07788 2.97228 9.01951 2.90177 8.94419 2.8536C8.86887 2.80544 8.78038 2.78203 8.6911 2.78666C8.60181 2.79129 8.51622 2.82373 8.44628 2.87942C8.37635 2.93512 8.32558 3.01129 8.30109 3.09727L6.93217 7.89151L5.68325 4.76964C5.65416 4.69722 5.60585 4.63412 5.54353 4.58714C5.48121 4.54016 5.40725 4.51109 5.32962 4.50306C5.25199 4.49503 5.17364 4.50835 5.10303 4.54158C5.03241 4.57482 4.97221 4.6267 4.92892 4.69164L3.34142 7.07204H0.896721Z" fill="#BE3455"/>
</g>
</svg>
