<svg width="24" height="25" viewBox="0 0 24 25" fill="none" xmlns="http://www.w3.org/2000/svg">
<path d="M5 12.6934C5 8.82737 8.13401 5.69336 12 5.69336C14.3777 5.69336 16.48 6.87901 17.7456 8.69336H14V10.6934H20C20.5523 10.6934 21 10.2456 21 9.69336V3.69336H19V7.03634C17.3506 4.99783 14.8283 3.69336 12 3.69336C7.02944 3.69336 3 7.7228 3 12.6934C3 17.6639 7.02944 21.6934 12 21.6934C16.9706 21.6934 21 17.6639 21 12.6934H19C19 16.5594 15.866 19.6934 12 19.6934C8.13401 19.6934 5 16.5594 5 12.6934Z" fill="black"/>
</svg>
