<svg width="28" height="28" viewBox="0 0 28 28" fill="none" xmlns="http://www.w3.org/2000/svg">
<path fill-rule="evenodd" clip-rule="evenodd" d="M18 13.9998C18 16.209 16.2091 17.9998 14 17.9998C11.7909 17.9998 10 16.209 10 13.9998C10 11.7907 11.7909 9.99985 14 9.99985C16.2091 9.99985 18 11.7907 18 13.9998ZM16 13.9998C16 15.1044 15.1046 15.9998 14 15.9998C12.8954 15.9998 12 15.1044 12 13.9998C12 12.8953 12.8954 11.9998 14 11.9998C15.1046 11.9998 16 12.8953 16 13.9998Z" fill="black"/>
<path fill-rule="evenodd" clip-rule="evenodd" d="M11.9854 5.15539C13.0753 3.98922 14.9247 3.98922 16.0146 5.15539L16.3016 5.46248C16.8452 6.04411 17.6137 6.36242 18.4093 6.33553L18.8294 6.32134C20.4247 6.26742 21.7324 7.57511 21.6785 9.17041L21.6643 9.5905C21.6374 10.3862 21.9557 11.1546 22.5374 11.6982L22.8445 11.9853C24.0106 13.0752 24.0106 14.9245 22.8445 16.0145L22.5374 16.3015C21.9557 16.8451 21.6374 17.6135 21.6643 18.4092L21.6785 18.8293C21.7324 20.4246 20.4247 21.7323 18.8294 21.6784L18.4093 21.6642C17.6137 21.6373 16.8452 21.9556 16.3016 22.5372L16.0146 22.8443C14.9247 24.0105 13.0753 24.0105 11.9854 22.8443L11.6984 22.5372C11.1548 21.9556 10.3863 21.6373 9.59064 21.6642L9.17055 21.6784C7.57525 21.7323 6.26756 20.4246 6.32147 18.8293L6.33567 18.4092C6.36256 17.6135 6.04425 16.8451 5.46262 16.3015L5.15553 16.0145C3.98936 14.9245 3.98936 13.0752 5.15553 11.9853L5.46262 11.6982C6.04425 11.1546 6.36256 10.3862 6.33567 9.59051L6.32147 9.17041C6.26756 7.57511 7.57525 6.26742 9.17055 6.32134L9.59064 6.33553C10.3863 6.36242 11.1548 6.04411 11.6984 5.46248L11.9854 5.15539ZM14.5534 6.52103L14.8404 6.82812C15.7783 7.83161 17.1041 8.38078 18.4769 8.33439L18.897 8.32019C19.3352 8.30538 19.6945 8.66462 19.6797 9.10286L19.6655 9.52295C19.6191 10.8957 20.1682 12.2215 21.1717 13.1594L21.4788 13.4464C21.7992 13.7458 21.7992 14.2539 21.4788 14.5533L21.1717 14.8403C20.1682 15.7782 19.6191 17.104 19.6655 18.4768L19.6797 18.8969C19.6945 19.3351 19.3352 19.6943 18.897 19.6795L18.4769 19.6653C17.1041 19.6189 15.7783 20.1681 14.8404 21.1716L14.5534 21.4787C14.254 21.799 13.746 21.799 13.4466 21.4787L13.1596 21.1716C12.2217 20.1681 10.8958 19.6189 9.52309 19.6653L9.103 19.6795C8.66476 19.6943 8.30552 19.3351 8.32033 18.8969L8.33453 18.4768C8.38092 17.104 7.83175 15.7782 6.82826 14.8403L6.52117 14.5533C6.20081 14.2539 6.20081 13.7458 6.52117 13.4464L6.82826 13.1594C7.83175 12.2215 8.38092 10.8957 8.33453 9.52295L8.32033 9.10286C8.30552 8.66462 8.66476 8.30538 9.103 8.32019L9.52309 8.33439C10.8958 8.38078 12.2217 7.83161 13.1596 6.82812L13.4466 6.52103C13.746 6.20067 14.254 6.20067 14.5534 6.52103Z" fill="black"/>
</svg>
