<svg width="24" height="25" viewBox="0 0 24 25" fill="none" xmlns="http://www.w3.org/2000/svg">
<path fill-rule="evenodd" clip-rule="evenodd" d="M18 3.02002C16.8954 3.02002 16 3.91545 16 5.02002C16 5.36747 16.0886 5.69423 16.2444 5.97893C16.2545 5.99426 16.2643 6.00995 16.2737 6.026C16.283 6.04193 16.2918 6.05802 16.3001 6.07423C16.6529 6.64201 17.2823 7.02002 18 7.02002C19.1046 7.02002 20 6.12459 20 5.02002C20 3.91545 19.1046 3.02002 18 3.02002ZM15.1581 7.83487C15.883 8.5667 16.8885 9.02002 18 9.02002C20.2091 9.02002 22 7.22916 22 5.02002C22 2.81088 20.2091 1.02002 18 1.02002C15.7909 1.02002 14 2.81088 14 5.02002C14 5.39703 14.0522 5.76187 14.1497 6.10769L8.84193 9.20516C8.11703 8.47333 7.11145 8.02002 6 8.02002C3.79086 8.02002 2 9.81088 2 12.02C2 14.2292 3.79086 16.02 6 16.02C7.11166 16.02 8.1174 15.5665 8.84232 14.8345L14.1509 17.9279C14.0526 18.2751 14 18.6414 14 19.02C14 21.2292 15.7909 23.02 18 23.02C20.2091 23.02 22 21.2292 22 19.02C22 16.8109 20.2091 15.02 18 15.02C16.8902 15.02 15.886 15.472 15.1613 16.2019L9.85049 13.1072C9.94789 12.7615 10 12.3968 10 12.02C10 11.643 9.94784 11.2782 9.85034 10.9323L15.1581 7.83487ZM7.69948 10.9651C7.70791 10.9816 7.71684 10.9979 7.72628 11.0141C7.73579 11.0303 7.74568 11.0463 7.75595 11.0618C7.91155 11.3464 8 11.6729 8 12.02C8 12.3672 7.91153 12.6938 7.7559 12.9783C7.74553 12.994 7.73555 13.0101 7.72596 13.0266C7.71666 13.0425 7.70785 13.0586 7.69953 13.0749C7.3466 13.6423 6.71741 14.02 6 14.02C4.89543 14.02 4 13.1246 4 12.02C4 10.9155 4.89543 10.02 6 10.02C6.71737 10.02 7.34653 10.3977 7.69948 10.9651ZM16.2153 18.1164C16.24 18.0839 16.2629 18.0496 16.284 18.0135C16.3041 17.9789 16.322 17.9436 16.3376 17.9077C16.6965 17.3724 17.3071 17.02 18 17.02C19.1046 17.02 20 17.9154 20 19.02C20 20.1246 19.1046 21.02 18 21.02C16.8954 21.02 16 20.1246 16 19.02C16 18.6948 16.0776 18.3878 16.2153 18.1164Z" fill="#343A3F"/>
</svg>
