<svg width="24" height="24" viewBox="0 0 24 24" fill="none" xmlns="http://www.w3.org/2000/svg">
<g id="sugar blood">
<path id="Vector" d="M18.8712 13.0238L14.4 16.5998H8.4V15.3998H13.278C13.3865 15.3997 13.493 15.3703 13.5861 15.3145C13.6792 15.2587 13.7554 15.1787 13.8066 15.083C13.8579 14.9873 13.8822 14.8795 13.877 14.7711C13.8718 14.6627 13.8373 14.5578 13.7772 14.4674L12.7116 12.869C12.493 12.54 12.1964 12.2702 11.8482 12.0836C11.5 11.897 11.111 11.7995 10.716 11.7998H1.2C0.88174 11.7998 0.576515 11.9262 0.351472 12.1513C0.126428 12.3763 0 12.6815 0 12.9998V20.1998C0 20.8363 0.252856 21.4468 0.702944 21.8969C1.15303 22.3469 1.76348 22.5998 2.4 22.5998H13.9668C14.4799 22.5999 14.9872 22.4903 15.4545 22.2784C15.9218 22.0665 16.3384 21.7571 16.6764 21.371L24 12.9998L22.2576 12.419C21.6875 12.229 21.079 12.1848 20.4874 12.2904C19.8959 12.3961 19.3402 12.6482 18.8712 13.0238Z" fill="#F0BEC3"/>
<path id="Vector_2" d="M16.0836 11.8C17.0384 11.8 17.954 11.4207 18.6292 10.7456C19.3043 10.0705 19.6836 9.15478 19.6836 8.2C19.6836 4.9504 16.0836 1 16.0836 1C16.0836 1 12.4836 4.9252 12.4836 8.2C12.4836 9.15478 12.8629 10.0705 13.538 10.7456C14.2131 11.4207 15.1288 11.8 16.0836 11.8Z" fill="#DC143C"/>
</g>
</svg>
