<svg width="24" height="24" viewBox="0 0 24 24" fill="none" xmlns="http://www.w3.org/2000/svg">
<path d="M18.8712 13.024L14.4 16.6H8.4V15.4H13.278C13.3865 15.3999 13.493 15.3705 13.5861 15.3147C13.6792 15.2589 13.7554 15.1789 13.8066 15.0832C13.8579 14.9875 13.8822 14.8797 13.877 14.7713C13.8718 14.6629 13.8373 14.558 13.7772 14.4676L12.7116 12.8692C12.493 12.5402 12.1964 12.2704 11.8482 12.0838C11.5 11.8972 11.111 11.7997 10.716 11.8H1.2C0.88174 11.8 0.576515 11.9264 0.351472 12.1515C0.126428 12.3765 0 12.6817 0 13V20.2C0 20.8365 0.252856 21.447 0.702944 21.8971C1.15303 22.3471 1.76348 22.6 2.4 22.6H13.9668C14.4799 22.6001 14.9872 22.4905 15.4545 22.2786C15.9218 22.0667 16.3384 21.7573 16.6764 21.3712L24 13L22.2576 12.4192C21.6875 12.2292 21.079 12.185 20.4874 12.2906C19.8959 12.3963 19.3402 12.6484 18.8712 13.024ZM16.0836 11.8C17.0384 11.8 17.9541 11.4207 18.6292 10.7456C19.3043 10.0705 19.6836 9.15478 19.6836 8.2C19.6836 4.9504 16.0836 1 16.0836 1C16.0836 1 12.4836 4.9252 12.4836 8.2C12.4836 9.15478 12.8629 10.0705 13.538 10.7456C14.2131 11.4207 15.1288 11.8 16.0836 11.8Z" fill="#00817D"/>
</svg>
