<svg width="32" height="32" viewBox="0 0 32 32" fill="none" xmlns="http://www.w3.org/2000/svg">
<path d="M25.9724 10.2819L21.717 6.02649C21.5171 5.82663 21.2461 5.71436 20.9634 5.71436C20.6808 5.71436 20.4097 5.82663 20.2099 6.02649C20.01 6.22635 19.8977 6.49741 19.8977 6.78005C19.8977 7.06269 20.01 7.33375 20.2099 7.53361L21.5849 8.90686L19.5458 10.9459L16.7523 8.15419C16.6534 8.05523 16.5359 7.97673 16.4066 7.92317C16.2773 7.86962 16.1387 7.84205 15.9988 7.84205C15.8588 7.84205 15.7203 7.86962 15.591 7.92317C15.4617 7.97673 15.3442 8.05523 15.2452 8.15419C15.1463 8.25315 15.0678 8.37063 15.0142 8.49992C14.9607 8.62922 14.9331 8.7678 14.9331 8.90775C14.9331 9.0477 14.9607 9.18627 15.0142 9.31557C15.0678 9.44487 15.1463 9.56235 15.2452 9.66131L15.5564 9.97071L8.36301 17.1668C8.1978 17.331 8.06682 17.5263 7.97764 17.7415C7.88846 17.9567 7.84287 18.1874 7.8435 18.4203V22.6482L6.02698 24.4665C5.82712 24.6664 5.71484 24.9375 5.71484 25.2201C5.71484 25.5027 5.82712 25.7738 6.02698 25.9736C6.22683 26.1735 6.4979 26.2858 6.78054 26.2858C7.06318 26.2858 7.33424 26.1735 7.5341 25.9736L9.35062 24.1554H13.5812C13.8141 24.156 14.0449 24.1104 14.26 24.0212C14.4752 23.932 14.6706 23.8011 14.8348 23.6358L22.0281 16.4425L22.3393 16.7545C22.5392 16.9544 22.8102 17.0667 23.0929 17.0667C23.3755 17.0667 23.6466 16.9544 23.8464 16.7545C24.0463 16.5547 24.1586 16.2836 24.1586 16.001C24.1586 15.7183 24.0463 15.4473 23.8464 15.2474L21.053 12.453L23.092 10.414L24.467 11.7899C24.6669 11.9897 24.9379 12.102 25.2206 12.102C25.5032 12.102 25.7743 11.9897 25.9741 11.7899C26.174 11.59 26.2863 11.319 26.2863 11.0363C26.2863 10.7537 26.174 10.4826 25.9741 10.2828L25.9724 10.2819ZM13.4287 22.0277H9.9712V18.5702L11.2124 17.329L12.7647 18.8822C12.9645 19.0821 13.2356 19.1943 13.5182 19.1943C13.8009 19.1943 14.0719 19.0821 14.2718 18.8822C14.4717 18.6824 14.5839 18.4113 14.5839 18.1287C14.5839 17.846 14.4717 17.575 14.2718 17.3751L12.7195 15.8219L13.6947 14.8467L15.247 16.3999C15.4469 16.5998 15.7179 16.712 16.0006 16.712C16.2832 16.712 16.5543 16.5998 16.7541 16.3999C16.954 16.2 17.0663 15.929 17.0663 15.6463C17.0663 15.3637 16.954 15.0926 16.7541 14.8928L15.2018 13.3396L17.0635 11.4778L20.521 14.9353L13.4287 22.0277Z" fill="#BE3455"/>
</svg>
