<svg width="32" height="33" viewBox="0 0 32 33" fill="none" xmlns="http://www.w3.org/2000/svg">
<path fill-rule="evenodd" clip-rule="evenodd" d="M10.735 4.07832C10.9165 3.53387 11.426 3.16663 12 3.16663H20C20.5739 3.16663 21.0834 3.53387 21.2649 4.07832L22.2943 7.16663H26.6666V9.83329H5.33331V7.16663H9.70561L10.735 4.07832ZM19.0389 5.83329L19.4834 7.16663H12.5165L12.961 5.83329H19.0389Z" fill="white"/>
<path d="M6.66665 12.5V28.5C6.66665 29.2363 7.2636 29.8333 7.99998 29.8333H24C24.7364 29.8333 25.3333 29.2363 25.3333 28.5V12.5H22.6666V27.1666H9.33331V12.5H6.66665Z" fill="white"/>
<path d="M12 24.5V12.5H14.6666V24.5H12Z" fill="white"/>
<path d="M17.3333 12.5V24.5H20V12.5H17.3333Z" fill="white"/>
</svg>
