<svg width="24" height="24" viewBox="0 0 24 24" fill="none" xmlns="http://www.w3.org/2000/svg">
<path fill-rule="evenodd" clip-rule="evenodd" d="M9.57141 7.71422C9.57141 6.37295 10.6587 5.28564 12 5.28564C13.3412 5.28564 14.4286 6.37295 14.4286 7.71422C14.4286 9.05548 13.3412 10.1428 12 10.1428C10.6587 10.1428 9.57141 9.05548 9.57141 7.71422ZM12 3.28564C9.55415 3.28564 7.57141 5.26838 7.57141 7.71422C7.57141 10.16 9.55415 12.1428 12 12.1428C14.4458 12.1428 16.4286 10.16 16.4286 7.71422C16.4286 5.26838 14.4458 3.28564 12 3.28564ZM8.57139 13.5714C7.39686 13.5714 6.27044 14.0379 5.43992 14.8684C4.6094 15.699 4.14282 16.8254 4.14282 17.9999V19.7142C4.14282 20.2665 4.59054 20.7142 5.14282 20.7142C5.69511 20.7142 6.14282 20.2665 6.14282 19.7142V17.9999C6.14282 17.3558 6.39869 16.7381 6.85413 16.2827C7.30958 15.8272 7.9273 15.5714 8.57139 15.5714H15.4285C16.0726 15.5714 16.6903 15.8272 17.1458 16.2827C17.6012 16.7381 17.8571 17.3558 17.8571 17.9999V19.7142C17.8571 20.2665 18.3048 20.7142 18.8571 20.7142C19.4094 20.7142 19.8571 20.2665 19.8571 19.7142V17.9999C19.8571 16.8254 19.3905 15.699 18.56 14.8684C17.7295 14.0379 16.6031 13.5714 15.4285 13.5714H8.57139Z" fill="black"/>
</svg>
