<svg width="24" height="24" viewBox="0 0 24 24" fill="none" xmlns="http://www.w3.org/2000/svg">
<circle cx="12" cy="12" r="12" fill="white"/>
<path d="M12 3.42859C7.26609 3.42859 3.42859 7.26609 3.42859 12C3.42859 16.7339 7.26609 20.5714 12 20.5714C16.7339 20.5714 20.5714 16.7339 20.5714 12C20.5714 7.26609 16.7339 3.42859 12 3.42859ZM15.2964 13.0991C15.2964 13.0991 16.0545 13.8473 16.2411 14.1947C16.2464 14.2018 16.2491 14.2089 16.2509 14.2125C16.3268 14.3402 16.3447 14.4393 16.3072 14.5134C16.2447 14.6366 16.0304 14.6973 15.9572 14.7027H14.6179C14.525 14.7027 14.3304 14.6786 14.0947 14.5161C13.9134 14.3893 13.7348 14.1813 13.5607 13.9786C13.3009 13.6768 13.0759 13.4161 12.8491 13.4161C12.8203 13.416 12.7917 13.4206 12.7643 13.4295C12.5929 13.4848 12.3732 13.7295 12.3732 14.3813C12.3732 14.5848 12.2125 14.7018 12.0991 14.7018H11.4857C11.2768 14.7018 10.1884 14.6286 9.22412 13.6116C8.04377 12.3661 6.98127 9.86787 6.97234 9.84466C6.90537 9.68305 7.04377 9.59645 7.19466 9.59645H8.54734C8.7277 9.59645 8.78662 9.70627 8.8277 9.80359C8.87591 9.91698 9.0527 10.3679 9.34287 10.875C9.81341 11.7018 10.1018 12.0375 10.3331 12.0375C10.3764 12.037 10.419 12.026 10.4572 12.0054C10.7589 11.8375 10.7027 10.7616 10.6893 10.5384C10.6893 10.4964 10.6884 10.0572 10.5339 9.84645C10.4232 9.69377 10.2348 9.63573 10.1206 9.6143C10.1668 9.55047 10.2278 9.49872 10.2982 9.46341C10.5054 9.35984 10.8786 9.34466 11.2491 9.34466H11.4554C11.8572 9.35002 11.9607 9.37591 12.1063 9.41252C12.4009 9.48305 12.4072 9.67323 12.3813 10.3241C12.3732 10.5089 12.3652 10.7179 12.3652 10.9643C12.3652 11.0179 12.3625 11.075 12.3625 11.1357C12.3536 11.467 12.3429 11.8429 12.5768 11.9973C12.6073 12.0165 12.6426 12.0267 12.6786 12.0268C12.7598 12.0268 13.0045 12.0268 13.667 10.8902C13.8713 10.5244 14.0488 10.1442 14.1982 9.7527C14.2116 9.72948 14.2509 9.65805 14.2973 9.63037C14.3316 9.61291 14.3696 9.60402 14.4081 9.60448H15.9982C16.1714 9.60448 16.2902 9.63037 16.3125 9.69734C16.3518 9.80359 16.3054 10.1277 15.5795 11.1107L15.2554 11.5384C14.5973 12.4009 14.5973 12.4447 15.2964 13.0991Z" fill="#00817D"/>
</svg>
