<svg width="32" height="32" viewBox="0 0 32 32" fill="none" xmlns="http://www.w3.org/2000/svg">
<g id="water">
<path id="Vector" d="M15.9998 27.6666C13.5304 27.6666 11.3577 26.8064 9.48167 25.0859C7.60489 23.3647 6.6665 21.036 6.6665 18.0999C6.6665 16.2527 7.3665 14.2499 8.7665 12.0916C10.1665 9.93325 12.2859 7.59992 15.1248 5.09159C15.2415 4.99436 15.3776 4.91659 15.5332 4.85825C15.6887 4.79992 15.8443 4.77075 15.9998 4.77075C16.1554 4.77075 16.3109 4.79992 16.4665 4.85825C16.6221 4.91659 16.7582 4.99436 16.8748 5.09159C19.7137 7.59992 21.8332 9.93325 23.2332 12.0916C24.6332 14.2499 25.3332 16.2527 25.3332 18.0999C25.3332 21.036 24.3948 23.3647 22.518 25.0859C20.642 26.8064 18.4693 27.6666 15.9998 27.6666ZM16.3207 24.1666C16.554 24.1471 16.7535 24.055 16.9192 23.8901C17.0841 23.7244 17.1665 23.5249 17.1665 23.2916C17.1665 23.0194 17.079 22.8008 16.904 22.6359C16.729 22.4703 16.5054 22.3971 16.2332 22.4166C15.4359 22.4749 14.5901 22.2564 13.6957 21.7609C12.8012 21.2647 12.2373 20.3652 12.004 19.0624C11.9651 18.8485 11.8628 18.6735 11.6972 18.5374C11.5323 18.4013 11.3429 18.3333 11.129 18.3333C10.8568 18.3333 10.6332 18.4351 10.4582 18.6389C10.2832 18.8435 10.2248 19.0819 10.2832 19.3541C10.6137 21.1235 11.3915 22.3874 12.6165 23.1458C13.8415 23.9041 15.0762 24.2444 16.3207 24.1666Z" fill="#62ACFC"/>
</g>
</svg>
