<svg width="20" height="24" viewBox="0 0 20 24" fill="none" xmlns="http://www.w3.org/2000/svg">
<g id="Group">
<path id="Vector" fill-rule="evenodd" clip-rule="evenodd" d="M16.8635 0.333008C17.1916 0.332985 17.516 0.402152 17.8156 0.535994C18.1151 0.669836 18.3831 0.865343 18.6019 1.10975C18.8208 1.35417 18.9857 1.64199 19.0858 1.95443C19.1859 2.26687 19.2189 2.59691 19.1829 2.92301L17.1085 21.5897C17.0453 22.1606 16.7738 22.6882 16.3458 23.0714C15.9179 23.4545 15.3636 23.6664 14.7892 23.6663H5.21086C4.63643 23.6664 4.08218 23.4545 3.65423 23.0714C3.22628 22.6882 2.95471 22.1606 2.89153 21.5897L0.818359 2.92301C0.78228 2.59701 0.815335 2.26707 0.915367 1.95471C1.0154 1.64234 1.18016 1.35458 1.3989 1.11019C1.61765 0.865796 1.88545 0.670265 2.18486 0.536351C2.48426 0.402437 2.80854 0.333149 3.13653 0.333008H16.8635ZM11.1667 15.4997C10.8573 15.4997 10.5605 15.6226 10.3417 15.8414C10.1229 16.0602 10 16.3569 10 16.6663C10 16.9758 10.1229 17.2725 10.3417 17.4913C10.5605 17.7101 10.8573 17.833 11.1667 17.833C11.4761 17.833 11.7729 17.7101 11.9916 17.4913C12.2104 17.2725 12.3334 16.9758 12.3334 16.6663C12.3334 16.3569 12.2104 16.0602 11.9916 15.8414C11.7729 15.6226 11.4761 15.4997 11.1667 15.4997ZM7.66669 11.9997C7.35727 11.9997 7.06053 12.1226 6.84173 12.3414C6.62294 12.5602 6.50003 12.8569 6.50003 13.1663C6.50003 13.4758 6.62294 13.7725 6.84173 13.9913C7.06053 14.2101 7.35727 14.333 7.66669 14.333C7.97611 14.333 8.27286 14.2101 8.49165 13.9913C8.71044 13.7725 8.83336 13.4758 8.83336 13.1663C8.83336 12.8569 8.71044 12.5602 8.49165 12.3414C8.27286 12.1226 7.97611 11.9997 7.66669 11.9997ZM16.8635 2.66634H3.13653L3.63236 7.12651L3.85053 7.08801C4.15386 7.03667 4.50503 6.99467 4.90053 6.97134C6.21653 6.89317 8.00736 7.03784 10.0689 7.84984L10.4597 8.01084C12.2004 8.75751 13.6855 8.91151 14.7542 8.87534L16.1822 8.79601L16.8635 2.66634Z" fill="#15ABEE"/>
</g>
</svg>
