<svg width="25" height="24" viewBox="0 0 25 24" fill="none" xmlns="http://www.w3.org/2000/svg">
<path d="M20.3063 6.41816H16.9278V5.54375C16.9278 4.82832 16.6827 4.2255 16.1925 3.7353C15.7023 3.2451 15.0995 3 14.3841 3H10.9659C10.2505 3 9.64767 3.2451 9.15747 3.7353C8.66727 4.2255 8.42217 4.82832 8.42217 5.54375V6.41816H5.04375C4.32832 6.41816 3.7255 6.65664 3.2353 7.13359C2.7451 7.61055 2.5 8.21999 2.5 8.96191V12.3403C2.5 12.8968 2.77822 13.175 3.33467 13.175V19.9716C3.33467 20.422 3.5069 20.8195 3.85137 21.164C4.19583 21.5084 4.59329 21.6807 5.04375 21.6807H20.3063C20.7567 21.6807 21.1542 21.5084 21.4986 21.164C21.8431 20.8195 22.0153 20.422 22.0153 19.9716V13.175C22.5718 13.175 22.85 12.8968 22.85 12.3403V8.96191C22.85 8.21999 22.6049 7.61055 22.1147 7.13359C21.6245 6.65664 21.0217 6.41816 20.3063 6.41816ZM10.1313 5.54375C10.1313 5.30527 10.2107 5.10654 10.3697 4.94756C10.5287 4.78857 10.7274 4.70908 10.9659 4.70908H14.3841C14.6226 4.70908 14.8213 4.78857 14.9803 4.94756C15.1393 5.10654 15.2188 5.30527 15.2188 5.54375V6.41816H10.1313V5.54375ZM5.04375 19.9716V13.175H10.1313V15.7188C10.1313 16.1957 10.2969 16.5998 10.6281 16.931C10.9593 17.2622 11.3634 17.4278 11.8403 17.4278H13.5097C13.9866 17.4278 14.3907 17.2622 14.7219 16.931C15.0531 16.5998 15.2188 16.1957 15.2188 15.7188V13.175H20.3063V19.9716H5.04375ZM11.8403 15.7188V13.175H13.5097V15.7188H11.8403ZM21.1409 11.5057H4.20908V8.96191C4.20908 8.37897 4.4873 8.0875 5.04375 8.0875H20.3063C20.8627 8.0875 21.1409 8.37897 21.1409 8.96191V11.5057Z" fill="black"/>
</svg>
