<svg width="37" height="36" viewBox="0 0 37 36" fill="none" xmlns="http://www.w3.org/2000/svg">
<rect x="0.5" y="-0.000976562" width="36" height="36" rx="18" fill="white"/>
<path d="M18.8961 31.9166C11.6169 31.9166 8.42733 28.9934 7.03773 26.5382C5.32413 23.507 5.67693 20.0942 6.47613 18.6614C6.49053 18.6254 6.50493 18.5966 6.51933 18.5606C7.03773 17.4014 7.41213 16.2206 7.63533 15.0542C7.80093 14.1902 7.96653 13.5566 8.14653 13.1174C8.81613 11.4686 11.7393 10.511 15.8001 9.33022C16.4409 9.14302 17.0457 8.97022 17.5281 8.81182C19.6593 8.12782 21.7113 5.28382 21.9921 4.72222C22.1937 4.32622 22.5897 4.08142 23.0433 4.08142C23.5257 4.08142 23.9793 4.33342 24.7569 5.05342C25.2321 5.49262 25.8081 6.09022 26.4129 6.77422C27.4641 7.95502 28.7745 9.59662 29.3001 10.655C29.7609 11.5766 30.1425 13.571 30.5097 16.9334C30.5601 17.423 30.6609 17.9846 30.7617 18.5822C31.1937 21.131 31.7265 24.299 30.0921 26.9774C28.2417 30.2534 24.4833 31.9166 18.8961 31.9166ZM23.2953 6.65182C22.3449 7.96942 20.4513 10.1366 18.1833 10.8638C17.6721 11.0294 17.0529 11.2094 16.3977 11.3966C15.0513 11.7926 13.5177 12.2318 12.2505 12.7358C10.3929 13.4702 10.1481 13.9166 10.1409 13.931C10.0545 14.1326 9.91773 14.5718 9.75213 15.4574C9.49293 16.7822 9.06813 18.1214 8.49213 19.4318C8.47773 19.4606 8.46333 19.4894 8.45613 19.5254C8.43453 19.583 8.40573 19.6334 8.37693 19.6838C8.23293 19.9286 7.96653 20.7062 7.98093 21.9158C7.99533 22.8014 8.16813 24.1334 8.92413 25.4726C10.5153 28.2734 13.9641 29.7566 18.9033 29.7566C23.6553 29.7566 26.7873 28.4606 28.2057 25.9118C28.2129 25.8974 28.2201 25.883 28.2273 25.8686C29.4513 23.8742 29.0121 21.2606 28.6233 18.9494C28.5153 18.3158 28.4145 17.7182 28.3569 17.171C27.9321 13.2182 27.5505 12.0014 27.3633 11.627C26.7297 10.3598 24.4761 7.75342 23.2953 6.65182Z" fill="#62ACFC"/>
<path d="M19.0472 21.7358C17.8088 21.7358 16.628 21.4262 15.512 20.807C13.6544 19.7774 12.4952 18.1214 12.1136 17.5814C11.7752 17.0918 11.8904 16.4222 12.38 16.0766C12.8696 15.7382 13.5392 15.8534 13.8848 16.343C16.0232 19.3958 18.5576 20.2742 21.632 19.0142C22.1864 18.791 22.8128 19.0502 23.0432 19.6046C23.2664 20.159 23.0072 20.7854 22.4528 21.0158C21.272 21.491 20.1344 21.7358 19.0472 21.7358Z" fill="#62ACFC"/>
<path d="M20.8473 16.0046C20.6025 16.0046 20.3865 15.9902 20.2065 15.9542C19.6233 15.839 19.2417 15.2702 19.3569 14.6798C19.4721 14.0966 20.0409 13.715 20.6313 13.8302C20.8761 13.8734 21.8841 13.8086 23.0217 13.5134C24.4329 13.1462 24.9369 12.7142 25.0017 12.5918C25.2681 12.059 25.9161 11.843 26.4489 12.1094C26.9817 12.3758 27.1977 13.0238 26.9313 13.5566C26.4849 14.4422 25.3545 15.1334 23.5689 15.6014C22.7481 15.8174 21.6609 16.0046 20.8473 16.0046Z" fill="#62ACFC"/>
<path d="M18.7233 28.3238C16.8657 28.3238 15.0441 27.7622 13.6113 27.1502C13.0713 26.9198 12.7833 26.3078 12.9921 25.7606C13.2081 25.1846 13.8633 24.911 14.4249 25.1486C17.1105 26.3006 19.4289 26.4734 21.1281 25.6454C21.7113 25.3574 22.1361 24.9974 22.4241 24.695C22.7481 24.3494 23.2665 24.2486 23.6913 24.4646L24.3105 24.7814C24.6057 24.9254 24.6993 25.2998 24.5049 25.5662C24.1305 26.0918 23.4105 26.8982 22.2369 27.5102C21.1065 28.0934 19.9041 28.3238 18.7233 28.3238Z" fill="#62ACFC"/>
</svg>
