<svg width="37" height="36" viewBox="0 0 37 36" fill="none" xmlns="http://www.w3.org/2000/svg">
<rect x="0.5" y="-0.000976562" width="36" height="36" rx="18" fill="white"/>
<path d="M19.9545 28.1006C18.7449 26.2718 18.8169 23.615 20.1633 20.4182C20.8401 18.6974 22.1217 16.9334 22.6401 16.2566C23.8857 14.6366 24.6417 14.003 25.2465 13.7942C22.8777 9.21502 19.7169 5.52142 18.5073 5.52142C17.4921 5.52142 12.4521 11.6558 10.6881 16.163C7.72168 23.1902 7.43368 31.103 18.5145 31.103C20.5593 31.103 22.2225 30.8294 23.5473 30.347C21.9201 30.0086 20.7177 29.2526 19.9545 28.1006Z" fill="#62ACFC"/>
<path d="M30.7328 22.967C29.7896 19.223 26.7008 15.155 25.7648 15.155C25.2104 15.155 22.46 18.503 21.4952 20.9654C19.8752 24.7958 19.7168 29.1158 25.7648 29.1158C28.3856 29.1158 29.84 28.3022 30.524 27.071C31.3664 25.703 30.7904 23.2046 30.7328 22.967Z" fill="#BE3455"/>
</svg>
