<svg width="37" height="36" viewBox="0 0 37 36" fill="none" xmlns="http://www.w3.org/2000/svg">
<rect x="0.5" y="-0.000976562" width="36" height="36" rx="18" fill="white"/>
<path d="M12.668 18.3662C12.848 17.7542 13.0568 17.1206 13.3016 16.4726L13.3088 16.451C14.5112 13.031 17.5064 8.88383 18.5864 7.83263C19.0904 8.25743 20.1488 9.45262 21.4304 11.6414C21.7472 12.1886 22.0496 12.743 22.3376 13.3118C22.82 12.4766 23.3384 11.7422 23.6984 11.2598C23.4896 10.8782 23.2664 10.4966 23.0432 10.1294C22.2872 8.88383 21.524 7.81103 20.8256 7.02623C19.9112 5.98943 19.1984 5.52863 18.5072 5.52863C18.104 5.52863 17.2688 5.52862 14.7344 9.22942C14.0072 10.295 12.2072 13.0598 11.2712 15.7166C11.1848 15.9398 11.1056 16.163 11.0264 16.3862C11.4944 16.8254 12.0416 17.459 12.668 18.3662Z" fill="#62ACFC"/>
<path d="M24.7207 25.0118C24.6559 25.2062 24.5839 25.379 24.4975 25.5374L24.4759 25.5806C23.5831 27.3878 21.5815 28.3094 18.5143 28.3094C17.4271 28.3094 16.4695 28.1942 15.6487 27.9638C15.5551 28.4894 15.3823 29.015 15.1015 29.4758C15.0079 29.6486 14.8999 29.807 14.7847 29.9654C15.8647 30.3038 17.1031 30.4694 18.5071 30.4694C20.5087 30.4694 22.1935 30.1238 23.5255 29.4398C24.8071 28.7846 25.7719 27.8126 26.3911 26.5598C26.6071 26.1566 26.7727 25.7174 26.8879 25.2566C26.1031 25.2422 25.3759 25.163 24.7207 25.0118Z" fill="#62ACFC"/>
<path d="M14.0648 24.6374C13.1216 20.8934 10.0328 16.8254 9.09679 16.8254C8.54239 16.8254 5.79199 20.1734 4.82719 22.6358C3.20719 26.4662 3.04879 30.7862 9.09679 30.7862C11.7176 30.7862 13.172 29.9726 13.856 28.7414C14.6984 27.3806 14.1296 24.8822 14.0648 24.6374Z" fill="#62ACFC"/>
<path d="M32.0218 17.6606C31.0786 13.9166 27.9898 9.84863 27.0538 9.84863C26.4994 9.84863 23.749 13.1966 22.7842 15.659C21.1642 19.4894 21.0058 23.8094 27.0538 23.8094C29.6746 23.8094 31.129 22.9958 31.813 21.7646C32.6554 20.3966 32.0794 17.8982 32.0218 17.6606Z" fill="#62ACFC"/>
</svg>
