<svg width="37" height="36" viewBox="0 0 37 36" fill="none" xmlns="http://www.w3.org/2000/svg">
<rect x="0.5" y="-0.000976562" width="36" height="36" rx="18" fill="white"/>
<path d="M8.91695 31.5638C8.44895 31.5638 7.94495 31.4918 7.41215 31.3406C6.05135 30.9734 5.16575 30.2534 4.78415 29.2166C3.97055 27.0134 5.87135 24.227 7.00175 22.5566C7.20335 22.2614 7.37615 22.0022 7.48415 21.8222C7.75055 21.3758 7.26815 20.015 6.80735 18.6974C6.32495 17.315 5.72015 15.6014 5.38895 13.607C5.05775 11.5478 5.71295 9.84142 7.28975 8.66062C8.49215 7.76062 9.95375 7.38622 10.7385 7.17742C10.8753 7.14142 11.0409 7.09822 11.1057 7.07662C11.2281 7.01182 11.5305 6.75262 11.7465 6.55822C12.6681 5.75182 14.0721 4.52782 16.0737 4.44142C18.1257 4.35502 19.3281 5.55742 20.2137 6.44302C20.5521 6.78142 20.8761 7.10542 21.1281 7.22782C21.4737 7.40062 22.2801 7.42942 22.9857 7.45102C24.2025 7.49422 25.5849 7.53742 26.7225 8.17822C27.2265 8.45902 27.8385 9.02782 27.9177 10.1438C27.9609 10.7486 27.8386 11.3534 27.7306 11.8862C27.6873 12.0878 27.6369 12.3542 27.6153 12.5558C27.7233 12.599 27.8385 12.6422 27.9537 12.6854C29.8329 13.3982 32.4177 14.3702 32.4177 18.0062C32.4177 20.6054 31.0281 22.8374 29.9049 24.623C29.5089 25.2566 29.1345 25.8542 28.9257 26.3222C28.6521 26.9342 28.6737 27.3518 28.7026 27.8414C28.7458 28.5398 28.7962 29.4974 27.6873 30.3398C26.9961 30.8654 26.1177 30.9158 25.0737 30.4766C24.3825 30.1886 23.6625 29.7062 22.9641 29.2454C22.3593 28.8494 21.7401 28.4318 21.2217 28.2014C20.9913 28.1006 20.9049 28.1078 20.9049 28.1078C20.8113 28.1366 20.5593 28.4318 20.4081 28.6118C19.9689 29.1302 19.3641 29.8358 18.3057 30.1886C17.9817 30.2966 17.6649 30.347 17.3553 30.347C16.0233 30.347 14.8497 29.4542 13.8777 28.7126C13.4889 28.4174 13.0929 28.115 12.7401 27.9062C12.6969 28.0286 12.6465 28.1654 12.6033 28.2806C12.3369 29.0438 12.0057 29.987 11.2425 30.6926C10.6233 31.2686 9.83855 31.5638 8.91695 31.5638ZM16.2825 6.59422C16.2465 6.59422 16.2105 6.59422 16.1673 6.59422C14.9217 6.65182 13.9497 7.50142 13.1721 8.18542C12.6969 8.60302 12.3153 8.93422 11.8761 9.09982C11.7177 9.15742 11.5377 9.20782 11.2857 9.27262C10.6017 9.45262 9.44975 9.74782 8.59295 10.3886C7.66415 11.087 7.32575 11.9942 7.52735 13.2614C7.82255 15.0686 8.36975 16.6166 8.84495 17.9846C9.55775 20.015 10.1265 21.6206 9.33455 22.9382C9.19775 23.1686 9.00335 23.4494 8.78735 23.7734C8.30495 24.479 7.64975 25.4438 7.21055 26.387C6.67055 27.5462 6.69215 28.1582 6.80735 28.4678C6.93695 28.8134 7.32575 29.0798 7.97375 29.2598C9.73055 29.7422 10.0545 29.051 10.5729 27.5678C10.8321 26.8262 11.0985 26.0558 11.8257 25.7174C12.0993 25.5878 12.5457 25.4798 13.1073 25.6886C13.8489 25.9694 14.5329 26.4878 15.1953 26.9918C16.0737 27.6614 16.9881 28.3598 17.6289 28.1438C18.1185 27.9782 18.4209 27.6254 18.7737 27.215C19.3425 26.5454 20.3001 25.4222 22.1145 26.2286C22.7985 26.531 23.4969 26.999 24.1737 27.4454C24.7281 27.8126 25.2465 28.1582 25.7073 28.3814C26.1609 28.6046 26.3553 28.6118 26.4057 28.6118C26.5857 28.475 26.5857 28.4606 26.5569 27.9638C26.5209 27.395 26.4777 26.5382 26.9601 25.4438C27.2265 24.839 27.6441 24.1766 28.0761 23.4782C29.0481 21.923 30.2577 19.9862 30.2577 18.0062C30.2577 15.9614 29.2066 15.4718 27.1905 14.7086C26.9674 14.6222 26.7369 14.5358 26.5137 14.4494C26.2041 14.327 25.4841 13.9238 25.4481 12.8294C25.4337 12.3902 25.5273 11.9222 25.6137 11.4686C25.7001 11.051 25.7865 10.619 25.7649 10.3094C25.7505 10.1222 25.7145 10.1006 25.6641 10.0718C24.9873 9.69022 23.9289 9.65422 22.9137 9.61822C21.8913 9.58222 20.9265 9.55342 20.1633 9.17182C19.5945 8.89102 19.1337 8.42302 18.6873 7.97662C17.9529 7.23502 17.3193 6.59422 16.2825 6.59422Z" fill="#62ACFC"/>
<path d="M20.7752 15.2126C21.7495 15.2126 22.5392 14.4229 22.5392 13.4486C22.5392 12.4744 21.7495 11.6846 20.7752 11.6846C19.801 11.6846 19.0112 12.4744 19.0112 13.4486C19.0112 14.4229 19.801 15.2126 20.7752 15.2126Z" fill="#62ACFC"/>
<path d="M14.5257 12.1382C15.4999 12.1382 16.2897 11.3485 16.2897 10.3742C16.2897 9.4 15.4999 8.61023 14.5257 8.61023C13.5515 8.61023 12.7617 9.4 12.7617 10.3742C12.7617 11.3485 13.5515 12.1382 14.5257 12.1382Z" fill="#62ACFC"/>
<path d="M18.0467 19.763C19.0209 19.763 19.8107 18.9733 19.8107 17.999C19.8107 17.0248 19.0209 16.235 18.0467 16.235C17.0725 16.235 16.2827 17.0248 16.2827 17.999C16.2827 18.9733 17.0725 19.763 18.0467 19.763Z" fill="#62ACFC"/>
<path d="M18.5003 25.5014C19.4746 25.5014 20.2643 24.7117 20.2643 23.7374C20.2643 22.7632 19.4746 21.9734 18.5003 21.9734C17.5261 21.9734 16.7363 22.7632 16.7363 23.7374C16.7363 24.7117 17.5261 25.5014 18.5003 25.5014Z" fill="#62ACFC"/>
<path d="M24.908 26.207C25.8823 26.207 26.672 25.4172 26.672 24.443C26.672 23.4688 25.8823 22.679 24.908 22.679C23.9338 22.679 23.144 23.4688 23.144 24.443C23.144 25.4172 23.9338 26.207 24.908 26.207Z" fill="#62ACFC"/>
<path d="M12.3514 16.9766C13.3256 16.9766 14.1154 16.1868 14.1154 15.2126C14.1154 14.2384 13.3256 13.4486 12.3514 13.4486C11.3772 13.4486 10.5874 14.2384 10.5874 15.2126C10.5874 16.1868 11.3772 16.9766 12.3514 16.9766Z" fill="#62ACFC"/>
<path d="M12.3514 24.4502C13.3256 24.4502 14.1154 23.6605 14.1154 22.6862C14.1154 21.712 13.3256 20.9222 12.3514 20.9222C11.3772 20.9222 10.5874 21.712 10.5874 22.6862C10.5874 23.6605 11.3772 24.4502 12.3514 24.4502Z" fill="#62ACFC"/>
<path d="M25.9378 21.527C26.9121 21.527 27.7018 20.7373 27.7018 19.763C27.7018 18.7888 26.9121 17.999 25.9378 17.999C24.9636 17.999 24.1738 18.7888 24.1738 19.763C24.1738 20.7373 24.9636 21.527 25.9378 21.527Z" fill="#62ACFC"/>
</svg>
