<svg width="37" height="36" viewBox="0 0 37 36" fill="none" xmlns="http://www.w3.org/2000/svg">
<rect x="0.5" y="-0.000976562" width="36" height="36" rx="18" fill="white"/>
<path d="M29.1201 10.4678C26.6937 7.36465 21.8265 2.38945 18.0969 2.87905C14.7129 3.33265 11.4513 10.1438 8.79451 12.5486C6.20971 14.8814 4.56091 18.3447 4.12891 20.2094C3.64651 22.2831 4.00651 24.9326 6.81451 25.055C9.62251 25.1775 8.42011 23.8238 9.29131 24.0686C10.9473 24.5222 8.13931 29.2815 12.7329 29.7063C15.8505 29.9943 13.3881 25.4943 15.6777 25.5303C17.6073 25.559 16.8585 27.9927 18.1761 28.0215C19.4937 28.0503 20.6313 27.4743 20.7609 28.7775C20.8905 30.0807 18.7017 33.9399 21.8553 34.0623C25.0161 34.1847 22.7769 31.9958 23.0865 30.5991C23.3961 29.2022 23.4753 26.5166 24.8361 27.107C26.1969 27.6975 27.6585 27.5679 28.3137 26.8406C29.5881 25.4294 27.1185 21.9591 28.9401 21.6423C30.3441 21.3974 31.2801 19.7631 31.9065 17.963C32.8281 15.3278 31.3449 13.2182 29.1201 10.4678Z" fill="#62ACFC"/>
</svg>
