<svg width="37" height="36" viewBox="0 0 37 36" fill="none" xmlns="http://www.w3.org/2000/svg">
<path d="M33.2815 16.9406C32.5903 10.0358 24.1303 13.6718 23.7415 9.44543C23.3455 5.21183 17.9383 0.294233 11.5447 4.82303C8.33348 7.09103 4.56068 13.859 10.8535 15.9326C17.1463 18.0062 -1.34332 20.195 5.05028 28.4966C11.4439 36.7982 25.6135 32.1686 24.2311 25.9766C23.5327 22.8374 33.9727 23.8454 33.2815 16.9406ZM10.6519 28.3382C9.62228 28.3382 8.77988 27.503 8.77988 26.4662C8.77988 25.4366 9.61508 24.5942 10.6519 24.5942C11.6887 24.5942 12.5239 25.4294 12.5239 26.4662C12.5239 27.503 11.6887 28.3382 10.6519 28.3382ZM14.2951 10.331C14.2951 9.24383 15.1735 8.36543 16.2607 8.36543C17.3479 8.36543 18.2263 9.24383 18.2263 10.331C18.2263 11.4182 17.3479 12.2966 16.2607 12.2966C15.1735 12.2966 14.2951 11.4182 14.2951 10.331ZM19.3135 27.3518C18.2263 27.3518 17.3479 26.4734 17.3479 25.3862C17.3479 24.299 18.2263 23.4206 19.3135 23.4206C20.4007 23.4206 21.2791 24.299 21.2791 25.3862C21.2791 26.4734 20.4007 27.3518 19.3135 27.3518ZM20.3935 19.4822C19.5727 19.4822 18.9103 18.8198 18.9103 17.999C18.9103 17.1782 19.5727 16.5158 20.3935 16.5158C21.2143 16.5158 21.8767 17.1782 21.8767 17.999C21.8767 18.8198 21.2143 19.4822 20.3935 19.4822Z" fill="#62ACFC"/>
</svg>
