<svg width="37" height="36" viewBox="0 0 37 36" fill="none" xmlns="http://www.w3.org/2000/svg">
<rect x="0.5" y="-0.000976562" width="36" height="36" rx="18" fill="white"/>
<path d="M32.5169 26.999C32.3407 26.999 32.1646 26.9532 32.008 26.8551L5.96766 10.8161C5.5044 10.5347 5.36085 9.92612 5.64794 9.46805C5.92851 9.00343 6.53531 8.85947 6.99204 9.1474L33.0323 25.1864C33.4956 25.4678 33.6391 26.0763 33.3521 26.5344C33.1694 26.8289 32.8496 26.999 32.5169 26.999Z" fill="#62ACFC"/>
<path d="M28.8395 21.119C27.4662 13.2524 20.5595 3.99902 18.5729 3.99902C17.4662 3.99902 14.7595 6.98569 12.3662 11.0057L28.8395 21.119Z" fill="#62ACFC"/>
<path d="M10.2193 15.159C6.77267 22.9657 6.18601 31.999 18.5727 31.999C24.766 31.999 27.7193 29.739 28.6993 26.5057L10.2193 15.159Z" fill="#62ACFC"/>
</svg>
