<svg width="37" height="36" viewBox="0 0 37 36" fill="none" xmlns="http://www.w3.org/2000/svg">
<rect x="0.5" y="-0.000976562" width="36" height="36" rx="18" fill="#62ACFC"/>
<path d="M18.6695 25.8875C18.6695 25.8875 7.59594 26.1385 6.05926 25.8875C4.52258 25.6365 3.41725 23.989 3.50486 22.0969C3.59248 20.1984 5.29092 19.1881 5.29092 19.1881C5.29092 19.1881 6.39625 12.8684 11.0804 12.3599C15.7646 11.8515 16.4521 16.4079 16.4521 16.4079C16.4521 16.4079 17.1328 14.0075 18.6695 13.499C20.2061 12.9906 21.7361 13.6278 21.7361 13.6278C21.7361 13.6278 23.6974 8.94911 26.8449 10.2169C29.9924 11.4847 30.4237 14.1362 30.4237 14.1362C30.4237 14.1362 31.7043 15.655 31.9604 16.9163C32.2165 18.1777 31.9604 19.6965 31.9604 19.6965C31.9604 19.6965 33.5779 19.6965 33.4971 22.6053C33.4094 25.5142 30.5989 25.8939 30.5989 25.8939H18.6695V25.8875Z" fill="white"/>
</svg>
