<svg width="37" height="36" viewBox="0 0 37 36" fill="none" xmlns="http://www.w3.org/2000/svg">
<path d="M21.2 7.75346C21.1856 7.39346 21.2504 7.04786 21.5024 6.83906C22.4024 6.09026 23.0864 5.85266 22.8056 5.47106C22.532 5.08946 21.2648 5.08226 21.056 4.87346C20.8472 4.66466 21.5672 3.18866 21.02 2.90786C20.4656 2.62706 19.364 4.62866 18.7088 4.62866C18.0536 4.62866 17.5352 2.76386 16.9808 3.05186C16.4264 3.33266 16.5632 4.66466 16.3544 4.87346C16.1456 5.08226 14.5256 4.31906 14.252 4.70066C13.9784 5.08226 14.9072 5.80226 15.908 6.41426C16.3328 6.67346 16.3976 7.17746 16.3328 7.66706C9.48562 8.60306 4.23682 13.9095 4.23682 20.3175C4.23682 27.3879 10.6232 33.1191 18.5 33.1191C26.3768 33.1191 32.7632 27.3879 32.7632 20.3175C32.7632 14.0823 27.788 8.88386 21.2 7.75346Z" fill="#BE3455"/>
<path d="M21.1999 7.75343C21.1999 7.74623 21.0847 7.80383 21.0703 7.81103C25.8439 9.76223 30.7039 14.2838 31.0495 19.7774C31.3807 24.9758 27.4423 29.7206 23.3527 32.363C28.8463 30.5846 32.7631 25.8614 32.7631 20.3246C32.7631 14.0822 27.7879 8.88383 21.1999 7.75343Z" fill="#982A44"/>
<path d="M11.6525 11.5334C9.70854 11.1374 7.09494 13.7798 6.57654 14.6654C6.05814 15.551 5.78454 18.6758 7.28934 19.043C8.79414 19.4102 11.3213 17.855 12.8477 15.8822C14.3741 13.9094 12.9701 11.7998 11.6525 11.5334Z" fill="#EF8595"/>
<path d="M6.80707 21.2894C5.46787 21.3542 5.23027 24.9254 6.85027 24.6806C8.47027 24.4358 8.14627 21.2174 6.80707 21.2894Z" fill="#EF8595"/>
<path d="M24.3678 12.6566C23.835 12.5918 23.3022 12.6494 22.7694 12.707C22.395 12.7502 21.9414 12.7502 21.7326 12.4334C21.6174 12.2606 21.6174 12.0302 21.6966 11.843C21.7758 11.6558 21.9198 11.4974 22.0782 11.3678C22.5102 11.0294 23.079 10.8854 23.619 10.9358C24.1662 10.9862 24.6846 11.2238 25.1022 11.5694C25.347 11.7782 26.247 12.7934 25.9158 13.175C25.815 13.2974 24.663 12.6926 24.3678 12.6566Z" fill="#343A3F"/>
<path d="M13.6187 13.8878C14.1515 13.8302 14.6843 13.895 15.2171 13.9598C15.5915 14.003 16.0451 14.0174 16.2611 13.7006C16.3763 13.5278 16.3835 13.3046 16.3115 13.1102C16.2395 12.9158 16.0955 12.7574 15.9371 12.635C15.5123 12.2966 14.9435 12.1382 14.4035 12.1814C13.8563 12.2246 13.3379 12.455 12.9131 12.7934C12.6611 12.995 11.7539 14.003 12.0779 14.3918C12.1643 14.5142 13.3163 13.9238 13.6187 13.8878Z" fill="#343A3F"/>
<path d="M17.5641 18.323C17.5209 18.4022 17.5713 18.503 17.4777 18.467C15.5913 17.6966 12.7761 17.7254 11.1849 19.1942C11.1705 19.2086 11.1489 19.187 11.1489 19.1654C11.2353 18.4886 12.5817 16.811 13.9065 16.667C16.3761 16.4078 17.8089 17.8838 17.5641 18.323Z" fill="#982A44"/>
<path d="M24.1522 22.2398C22.9138 22.5854 21.625 22.7942 20.3506 22.9238C19.2058 23.0462 18.0538 23.1038 16.909 22.9886C15.9802 22.895 15.0586 22.7078 14.1658 22.4414C13.849 22.3478 13.5322 22.2398 13.2298 22.1246C13.1362 22.0886 13.0498 22.0526 12.9562 22.0166C12.913 21.995 12.9922 22.031 12.9274 22.0022C12.9202 22.0022 12.913 21.995 12.9058 21.9878C12.8626 21.9662 12.8266 21.9662 12.7906 21.9662C12.6826 21.959 12.5746 22.0238 12.5746 22.1606C12.5674 22.1966 12.5674 22.2398 12.5818 22.2758C12.6466 22.895 12.8194 23.507 13.0426 24.083C13.5034 25.307 14.2738 26.4302 15.397 27.1286C16.873 28.043 18.853 28.1222 20.473 27.5534C21.8482 27.071 22.9426 26.0558 23.6338 24.7814C24.0082 24.0902 24.3034 23.3198 24.4258 22.535C24.4258 22.5206 24.433 22.5062 24.433 22.499C24.4474 22.355 24.3322 22.1894 24.1522 22.2398Z" fill="#343A3F"/>
<path d="M23.2341 20.7426C24.9446 20.6343 26.2328 18.9927 26.1114 17.0759C25.9901 15.1591 24.5052 13.693 22.7947 13.8013C21.0843 13.9095 19.7961 15.5512 19.9174 17.468C20.0388 19.3847 21.5237 20.8508 23.2341 20.7426Z" fill="#982A44"/>
<path d="M23.2164 20.4338C24.6768 20.3414 25.7768 18.941 25.6733 17.306C25.5698 15.671 24.302 14.4205 22.8416 14.5129C21.3812 14.6054 20.2812 16.0057 20.3847 17.6408C20.4882 19.2758 21.756 20.5263 23.2164 20.4338Z" fill="white"/>
<path d="M23.142 19.2626C24.023 19.2068 24.6865 18.3606 24.624 17.3724C24.5614 16.3843 23.7965 15.6284 22.9155 15.6842C22.0345 15.7399 21.371 16.5862 21.4336 17.5744C21.4961 18.5625 22.261 19.3184 23.142 19.2626Z" fill="#982A44"/>
<path d="M23.1124 18.7955C23.7633 18.7543 24.2534 18.129 24.2072 17.3988C24.1609 16.6686 23.5959 16.11 22.945 16.1512C22.2942 16.1924 21.8041 16.8178 21.8503 17.548C21.8965 18.2782 22.4616 18.8367 23.1124 18.7955Z" fill="#D25C78"/>
<path d="M23.0794 18.271C23.4723 18.2461 23.7682 17.8689 23.7403 17.4284C23.7124 16.9879 23.3713 16.6509 22.9785 16.6758C22.5856 16.7007 22.2897 17.0779 22.3176 17.5184C22.3455 17.9589 22.6866 18.2959 23.0794 18.271Z" fill="#553F16"/>
<path d="M24.4697 17.6232C24.7911 17.6028 25.0352 17.3258 25.0149 17.0043C24.9945 16.6829 24.7174 16.4388 24.396 16.4591C24.0746 16.4795 23.8305 16.7566 23.8508 17.078C23.8712 17.3995 24.1482 17.6435 24.4697 17.6232Z" fill="white"/>
<path d="M15.3105 23.7662H20.8545C20.8545 23.7662 21.9273 30.2102 18.0825 30.2462C14.2377 30.2822 15.3105 23.7662 15.3105 23.7662Z" fill="#EF8595"/>
<path d="M18.0537 30.4623C17.2041 30.4623 16.5129 30.1599 15.9945 29.5623C14.4465 27.7623 15.0657 23.8959 15.0945 23.7303L15.1233 23.5431H21.0417L21.0705 23.7303C21.0993 23.8887 21.7113 27.6975 20.1777 29.5191C19.6593 30.1383 18.9537 30.4551 18.0753 30.4623C18.0753 30.4623 18.0609 30.4623 18.0537 30.4623ZM15.4977 23.9823C15.3969 24.7671 15.0945 27.8343 16.3257 29.2743C16.7649 29.7855 17.3337 30.0303 18.0753 30.0231C18.8241 30.0159 19.4001 29.7567 19.8393 29.2311C21.0561 27.7767 20.7609 24.7527 20.6601 23.9823H15.4977Z" fill="#343A3F"/>
<path d="M18.0827 27.6183L17.7947 24.2559C17.7803 24.0975 17.8955 23.9535 18.0611 23.9463C18.2267 23.9391 18.3635 24.0471 18.3707 24.2127C18.3707 24.2271 18.3707 24.2487 18.3707 24.2631L18.0827 27.6183Z" fill="#343A3F"/>
</svg>
