<svg width="37" height="36" viewBox="0 0 37 36" fill="none" xmlns="http://www.w3.org/2000/svg">
<path d="M21.2 7.75346C21.1856 7.39346 21.2504 7.04786 21.5024 6.83906C22.4024 6.09026 23.0864 5.85266 22.8056 5.47106C22.532 5.08946 21.2648 5.08226 21.056 4.87346C20.8472 4.66466 21.5672 3.18866 21.02 2.90786C20.4656 2.62706 19.364 4.62866 18.7088 4.62866C18.0536 4.62866 17.5352 2.76386 16.9808 3.05186C16.4264 3.33266 16.5632 4.66466 16.3544 4.87346C16.1456 5.08226 14.5256 4.31906 14.252 4.70066C13.9784 5.08226 14.9072 5.80226 15.908 6.41426C16.3328 6.67346 16.3976 7.17746 16.3328 7.66706C9.48562 8.60306 4.23682 13.9095 4.23682 20.3175C4.23682 27.3879 10.6232 33.1191 18.5 33.1191C26.3768 33.1191 32.7632 27.3879 32.7632 20.3175C32.7632 14.0823 27.788 8.88386 21.2 7.75346Z" fill="#BE3455"/>
<path d="M21.1999 7.75343C21.1999 7.74623 21.0847 7.80383 21.0703 7.81103C25.8439 9.76223 30.7039 14.2838 31.0495 19.7774C31.3807 24.9758 27.4423 29.7206 23.3527 32.363C28.8463 30.5846 32.7631 25.8614 32.7631 20.3246C32.7631 14.0822 27.7879 8.88383 21.1999 7.75343Z" fill="#982A44"/>
<path d="M13.0567 10.6191C11.1991 9.92786 8.20391 12.1455 7.56311 12.9375C6.91511 13.7295 6.17351 16.7751 7.59911 17.3727C9.02471 17.9703 11.7679 16.8183 13.5751 15.0975C15.3823 13.3767 14.3167 11.0799 13.0567 10.6191Z" fill="#EF8595"/>
<path d="M6.77847 19.511C5.44647 19.3742 4.66887 22.859 6.30327 22.8734C7.93767 22.8878 8.11047 19.655 6.77847 19.511Z" fill="#EF8595"/>
<path d="M14.8856 23.9318C15.1592 24.407 15.6128 24.6374 16.0952 24.8534C16.6784 25.1054 17.2688 25.2854 17.9024 25.3502C19.1768 25.487 20.5448 25.343 21.6968 24.7454C22.1432 24.515 22.6904 24.1478 22.9064 23.6726C23.1944 23.0246 22.4456 22.4702 21.9272 22.9742C21.776 23.1182 21.6752 23.2982 21.5024 23.435C21.2936 23.6006 21.0488 23.7374 20.804 23.8454C20.2568 24.0902 19.6376 24.227 19.04 24.2774C18.3272 24.335 17.6072 24.2918 16.9016 24.2126C16.2464 24.1406 15.6272 23.9102 14.972 23.8166C14.9072 23.8022 14.8424 23.867 14.8856 23.9318Z" fill="#343A3F"/>
<path d="M21.6318 25.5518C21.5886 25.4438 21.5598 25.3862 21.459 25.3286C21.3006 25.235 21.135 25.2782 21.0054 25.3862C20.3286 25.9334 19.4934 26.1062 18.6438 26.1926C18.5574 26.1998 18.4998 26.3222 18.5934 26.3726C19.5294 26.8622 20.6382 26.5814 21.4518 25.9694C21.5814 25.883 21.6966 25.7174 21.6318 25.5518Z" fill="#982A44"/>
<path d="M15.7281 22.607L15.9369 22.499L15.1953 18.071C15.1521 17.6318 15.1449 17.387 15.4257 17.1206C15.5049 17.0558 16.1601 16.487 16.4265 16.2782C16.6641 16.0982 16.6425 15.9254 16.5633 15.7238C16.4409 15.4286 13.9425 9.08545 13.9425 9.08545L9.78809 12.167L11.7537 15.8246L10.4145 16.9478L15.7281 22.607ZM14.4897 19.835L11.8617 17.0342L13.1937 15.9182L11.0985 12.419L13.4817 10.6406C13.4889 10.6406 13.4889 10.6406 13.4889 10.6406C13.6689 11.1158 13.8633 11.591 14.0433 12.0662C14.5113 13.2542 14.9937 14.4854 15.4689 15.6878C15.4977 15.7454 15.4905 15.7598 15.4329 15.8174C15.2745 15.947 15.1161 16.0838 14.9577 16.2134C14.7201 16.4078 14.4825 16.6166 14.2449 16.811C14.1657 16.8686 14.1225 16.9262 14.0937 16.991C14.0505 17.0774 14.0433 17.1782 14.0649 17.3006C14.1873 18.0134 14.3097 18.7406 14.4321 19.4462L14.4897 19.835Z" fill="#343A3F"/>
<path d="M13.6043 10.6047C14.2667 12.2895 14.9219 13.9671 15.5915 15.6591C15.6491 15.7887 15.6131 15.8535 15.5123 15.9255C15.1163 16.2567 14.7275 16.6023 14.3171 16.9263C14.1803 17.0343 14.1443 17.1423 14.1803 17.3007C14.3315 18.1863 14.4755 19.0719 14.6339 19.9575C14.6411 20.0223 14.6483 20.0871 14.6555 20.2023C13.6475 19.1223 12.6755 18.0927 11.6891 17.0415C12.1427 16.6599 12.5891 16.2783 13.0355 15.9111C12.3299 14.7375 11.6315 13.5783 10.9331 12.4119C11.7971 11.7567 12.6539 11.1231 13.5251 10.4751C13.5539 10.5183 13.5827 10.5543 13.6043 10.6047Z" fill="url(#paint0_linear_4436_29674)"/>
<path d="M26.6073 16.8542L25.2681 15.7382L27.2409 12.0734L23.1153 8.99182C23.1153 8.99182 20.6097 15.335 20.4873 15.6302C20.4009 15.839 20.3865 16.0118 20.6241 16.1846C20.8905 16.3934 21.5385 16.9622 21.6177 17.0198C21.8913 17.2862 21.8769 17.5382 21.8409 17.9774L21.0993 22.4054L21.3009 22.5062L26.6073 16.8542ZM22.6113 19.3526C22.7337 18.6542 22.8561 17.9198 22.9713 17.2142C22.9929 17.0918 22.9857 16.991 22.9425 16.9046C22.9065 16.8398 22.8705 16.775 22.7913 16.7246C22.5465 16.5302 22.3089 16.3214 22.0785 16.127C21.9273 15.9902 21.7617 15.8606 21.6033 15.731C21.5385 15.6806 21.5385 15.659 21.5601 15.6014C22.0353 14.399 22.5177 13.1678 22.9857 11.9798C23.1657 11.5046 23.3529 11.0294 23.5473 10.5542C23.5473 10.5542 23.5473 10.5542 23.5545 10.5542L25.9377 12.3398L23.8353 15.839L25.1673 16.9478L22.5393 19.7486L22.6113 19.3526Z" fill="#343A3F"/>
<path d="M23.5039 10.3599C24.3679 11.0079 25.2247 11.6415 26.0959 12.2967C25.3903 13.4703 24.6991 14.6223 23.9863 15.7959C24.4327 16.1703 24.8791 16.5375 25.3327 16.9335C24.3535 17.9847 23.3743 19.0215 22.3663 20.0943C22.3807 19.9791 22.3807 19.9143 22.3879 19.8495C22.5391 18.9711 22.6831 18.0783 22.8415 17.1927C22.8703 17.0343 22.8415 16.9263 22.7047 16.8183C22.2943 16.4943 21.9127 16.1559 21.5167 15.8175C21.4231 15.7455 21.3871 15.6807 21.4447 15.5511C22.1071 13.8591 22.7767 12.1815 23.4319 10.5039C23.4535 10.4607 23.4823 10.4175 23.5039 10.3599Z" fill="url(#paint1_linear_4436_29674)"/>
<defs>
<linearGradient id="paint0_linear_4436_29674" x1="10.9331" y1="10.4751" x2="16.0034" y2="10.6798" gradientUnits="userSpaceOnUse">
<stop stop-color="#DFF9F8"/>
<stop offset="0.46875" stop-color="#D5F4E5"/>
<stop offset="1" stop-color="#AEE5E2"/>
</linearGradient>
<linearGradient id="paint1_linear_4436_29674" x1="21.417" y1="10.3599" x2="26.4798" y2="10.5638" gradientUnits="userSpaceOnUse">
<stop stop-color="#DFF9F8"/>
<stop offset="0.46875" stop-color="#D5F4E5"/>
<stop offset="1" stop-color="#AEE5E2"/>
</linearGradient>
</defs>
</svg>
