<svg width="30" height="31" viewBox="0 0 30 31" fill="none" xmlns="http://www.w3.org/2000/svg">
<path d="M17.4632 4.87163C17.4488 4.51163 17.5136 4.16603 17.7656 3.95723C18.6656 3.20843 19.3496 2.97083 19.0688 2.58923C18.7952 2.20763 17.528 2.20043 17.3192 1.99163C17.1104 1.78283 17.8304 0.306828 17.2832 0.0260283C16.7288 -0.254772 15.6272 1.74683 14.972 1.74683C14.3168 1.74683 13.7984 -0.117972 13.244 0.170028C12.6896 0.450828 12.8264 1.78283 12.6176 1.99163C12.4088 2.20043 10.7888 1.43723 10.5152 1.81883C10.2416 2.20043 11.1704 2.92043 12.1712 3.53243C12.596 3.79163 12.6608 4.29563 12.596 4.78523C5.7488 5.72123 0.5 11.0276 0.5 17.4356C0.5 24.506 6.8864 30.2372 14.7632 30.2372C22.64 30.2372 29.0264 24.506 29.0264 17.4356C29.0264 11.2004 24.0512 6.00203 17.4632 4.87163Z" fill="#BE3455"/>
<path d="M17.4631 4.87172C17.4631 4.86452 17.3479 4.92212 17.3335 4.92932C22.1071 6.88052 26.9671 11.4021 27.3127 16.8957C27.6439 22.0941 23.7055 26.8389 19.6159 29.4813C25.1095 27.7029 29.0263 22.9797 29.0263 17.4429C29.0263 11.2005 24.0511 6.00212 17.4631 4.87172Z" fill="#982A44"/>
<path d="M9.31989 7.73735C7.46229 7.04615 4.46709 9.26375 3.82629 10.0557C3.17829 10.8477 2.43669 13.8933 3.86229 14.4909C5.28789 15.0885 8.03109 13.9365 9.83829 12.2157C11.6455 10.4949 10.5799 8.19815 9.31989 7.73735Z" fill="#EF8595"/>
<path d="M3.04165 16.6294C1.70965 16.4926 0.932051 19.9774 2.56645 19.9918C4.20085 20.0062 4.37365 16.7734 3.04165 16.6294Z" fill="#EF8595"/>
<path d="M19.4973 17.8607C21.2077 17.7525 22.4959 16.1108 22.3746 14.194C22.2533 12.2773 20.7684 10.8112 19.0579 10.9194C17.3475 11.0277 16.0593 12.6693 16.1806 14.5861C16.302 16.5029 17.7869 17.969 19.4973 17.8607Z" fill="#982A44"/>
<path d="M19.4795 17.5521C20.94 17.4597 22.0399 16.0593 21.9364 14.4243C21.833 12.7893 20.5652 11.5388 19.1047 11.6312C17.6443 11.7236 16.5443 13.124 16.6478 14.7591C16.7513 16.3941 18.0191 17.6446 19.4795 17.5521Z" fill="white"/>
<path d="M19.4052 16.3808C20.2862 16.325 20.9497 15.4787 20.8872 14.4906C20.8246 13.5024 20.0597 12.7466 19.1787 12.8023C18.2977 12.8581 17.6342 13.7044 17.6968 14.6925C17.7593 15.6807 18.5242 16.4365 19.4052 16.3808Z" fill="#982A44"/>
<path d="M19.3756 15.9137C20.0264 15.8725 20.5166 15.2472 20.4704 14.517C20.4241 13.7868 19.8591 13.2282 19.2082 13.2694C18.5574 13.3106 18.0673 13.9359 18.1135 14.6661C18.1597 15.3963 18.7248 15.9549 19.3756 15.9137Z" fill="#D25C78"/>
<path d="M19.3426 15.3893C19.7355 15.3644 20.0314 14.9872 20.0035 14.5467C19.9756 14.1061 19.6345 13.7692 19.2416 13.7941C18.8488 13.819 18.5529 14.1962 18.5808 14.6367C18.6086 15.0772 18.9497 15.4142 19.3426 15.3893Z" fill="#553F16"/>
<path d="M20.7329 14.7415C21.0543 14.7211 21.2984 14.4441 21.2781 14.1226C21.2577 13.8012 20.9806 13.5571 20.6592 13.5774C20.3377 13.5978 20.0936 13.8748 20.114 14.1963C20.1343 14.5177 20.4114 14.7618 20.7329 14.7415Z" fill="white"/>
<path d="M10.3498 17.8516C12.0561 17.6917 13.2941 16.012 13.1149 14.0998C12.9357 12.1876 11.4072 10.7671 9.70087 10.927C7.99456 11.0869 6.75659 12.7667 6.93579 14.6789C7.11498 16.591 8.64348 18.0115 10.3498 17.8516Z" fill="#982A44"/>
<path d="M10.3238 17.544C11.7807 17.4075 12.8378 15.9745 12.685 14.3435C12.5321 12.7124 11.2272 11.5008 9.77027 11.6373C8.31337 11.7738 7.25624 13.2068 7.40909 14.8379C7.56194 16.469 8.8669 17.6805 10.3238 17.544Z" fill="white"/>
<path d="M10.2145 16.3755C11.0934 16.2932 11.731 15.4273 11.6386 14.4415C11.5462 13.4557 10.7588 12.7233 9.87994 12.8057C9.00105 12.8881 8.36346 13.754 8.45584 14.7397C8.54822 15.7255 9.33559 16.4579 10.2145 16.3755Z" fill="#982A44"/>
<path d="M10.1704 15.9096C10.8196 15.8488 11.2906 15.2089 11.2224 14.4805C11.1541 13.752 10.5724 13.2108 9.92316 13.2717C9.27389 13.3325 8.8029 13.9724 8.87116 14.7008C8.93943 15.4293 9.5211 15.9705 10.1704 15.9096Z" fill="#D25C78"/>
<path d="M10.1215 15.3862C10.5134 15.3495 10.7978 14.9634 10.7566 14.524C10.7154 14.0846 10.3643 13.7581 9.97236 13.7948C9.58042 13.8316 9.29608 14.2176 9.33726 14.657C9.37844 15.0965 9.72955 15.4229 10.1215 15.3862Z" fill="#553F16"/>
<path d="M11.4829 14.6894C11.8036 14.6593 12.0392 14.375 12.0091 14.0543C11.9791 13.7337 11.6948 13.4981 11.3741 13.5281C11.0534 13.5582 10.8178 13.8425 10.8479 14.1632C10.8779 14.4838 11.1622 14.7194 11.4829 14.6894Z" fill="white"/>
<path d="M8.83746 8.95405C9.37026 8.99005 9.90306 8.90365 10.4287 8.81725C10.8031 8.75965 11.2567 8.72365 11.4799 9.02605C11.6023 9.19165 11.6167 9.42206 11.5519 9.61646C11.4871 9.81086 11.3503 9.97645 11.1919 10.1133C10.7815 10.4733 10.2199 10.6461 9.67266 10.6317C9.12546 10.6101 8.59266 10.4085 8.15346 10.0845C7.89426 9.89006 6.94386 8.92525 7.24626 8.52925C7.35426 8.39245 8.53506 8.93245 8.83746 8.95405Z" fill="#343A3F"/>
<path d="M19.8247 8.27712C19.3135 8.42112 18.7735 8.44272 18.2407 8.46432C17.8663 8.47872 17.4127 8.54352 17.2543 8.88192C17.1679 9.06912 17.1967 9.29232 17.3047 9.47232C17.4055 9.65232 17.5711 9.78192 17.7511 9.88272C18.2263 10.1491 18.8095 10.2139 19.3423 10.0843C19.8751 9.95472 20.3575 9.64512 20.7175 9.24192C20.9335 9.00432 21.6679 7.86672 21.2935 7.53552C21.1711 7.43472 20.1199 8.19792 19.8247 8.27712Z" fill="#343A3F"/>
<path d="M11.1631 21.0428C11.4943 21.4964 11.9623 21.7196 12.4735 21.9212C13.0711 22.1588 13.6831 22.31 14.3311 22.3604C15.5767 22.4612 16.9303 22.2956 18.0319 21.6692C18.4567 21.4244 19.2847 20.87 19.0543 20.2796C18.9823 20.0996 18.8095 19.97 18.6079 20.0276C18.2695 20.1212 18.1831 20.3732 17.9671 20.5748C17.7799 20.7476 17.5423 20.8916 17.2975 21.014C16.6927 21.3164 16.0015 21.4748 15.3319 21.5252C14.6119 21.5828 13.8703 21.5396 13.1575 21.4388C12.5023 21.3452 11.8759 21.122 11.2351 20.9492C11.1847 20.9348 11.1271 20.9924 11.1631 21.0428Z" fill="#343A3F"/>
<path d="M17.895 22.67C17.8518 22.562 17.823 22.5044 17.7222 22.4468C17.5638 22.3532 17.3982 22.3964 17.2686 22.5044C16.5918 23.0516 15.7566 23.2244 14.907 23.3108C14.8206 23.318 14.763 23.4404 14.8566 23.4908C15.7926 23.9804 16.9014 23.6996 17.715 23.0876C17.8446 23.0012 17.9598 22.8356 17.895 22.67Z" fill="#982A44"/>
</svg>
