<svg width="37" height="36" viewBox="0 0 37 36" fill="none" xmlns="http://www.w3.org/2000/svg">
<path d="M21.2 7.75346C21.1856 7.39346 21.2504 7.04786 21.5024 6.83906C22.4024 6.09026 23.0864 5.85266 22.8056 5.47106C22.532 5.08946 21.2648 5.08226 21.056 4.87346C20.8472 4.66466 21.5672 3.18866 21.02 2.90786C20.4656 2.62706 19.364 4.62866 18.7088 4.62866C18.0536 4.62866 17.5352 2.76386 16.9808 3.05186C16.4264 3.33266 16.5632 4.66466 16.3544 4.87346C16.1456 5.08226 14.5256 4.31906 14.252 4.70066C13.9784 5.08226 14.9072 5.80226 15.908 6.41426C16.3328 6.67346 16.3976 7.17746 16.3328 7.66706C9.48562 8.60306 4.23682 13.9095 4.23682 20.3175C4.23682 27.3879 10.6232 33.1191 18.5 33.1191C26.3768 33.1191 32.7632 27.3879 32.7632 20.3175C32.7632 14.0823 27.788 8.88386 21.2 7.75346Z" fill="#BE3455"/>
<path d="M21.1999 7.75355C21.1999 7.74635 21.0847 7.80395 21.0703 7.81115C25.8439 9.76235 30.7039 14.284 31.0495 19.7776C31.3807 24.976 27.4423 29.7208 23.3527 32.3632C28.8463 30.5848 32.7631 25.8616 32.7631 20.3248C32.7631 14.0824 27.7879 8.88395 21.1999 7.75355Z" fill="#982A44"/>
<path d="M15.3322 10.2807C13.6978 9.1575 10.2562 10.5759 9.43541 11.1879C8.61461 11.7999 7.14581 14.5719 8.39141 15.5007C9.63701 16.4295 12.5674 15.9759 14.7418 14.7519C16.9162 13.5279 16.441 11.0367 15.3322 10.2807Z" fill="#EF8595"/>
<path d="M7.07383 17.3727C5.81383 16.9119 4.20823 20.1087 5.79223 20.5119C7.37623 20.9223 8.32663 17.8335 7.07383 17.3727Z" fill="#EF8595"/>
<path d="M23.821 11.9079C23.317 11.7207 22.7842 11.6559 22.2514 11.5911C21.877 11.5479 21.4306 11.4471 21.301 11.0943C21.229 10.8999 21.2794 10.6767 21.3946 10.5111C21.5098 10.3455 21.6898 10.2231 21.877 10.1367C22.3738 9.90629 22.957 9.89189 23.4754 10.0647C23.9938 10.2375 24.4474 10.5831 24.7786 11.0151C24.973 11.2743 25.6138 12.4623 25.2106 12.7647C25.0882 12.8583 24.109 12.0087 23.821 11.9079Z" fill="#343A3F"/>
<path d="M12.7402 13.0095C13.273 12.9519 13.8058 13.0167 14.3386 13.0815C14.713 13.1247 15.1666 13.1391 15.3826 12.8223C15.4978 12.6495 15.505 12.4263 15.433 12.2319C15.361 12.0375 15.217 11.8791 15.0586 11.7567C14.6338 11.4183 14.065 11.2599 13.525 11.3031C12.9778 11.3463 12.4594 11.5767 12.0346 11.9151C11.7826 12.1167 10.8754 13.1247 11.1994 13.5135C11.2786 13.6287 12.4378 13.0455 12.7402 13.0095Z" fill="#343A3F"/>
<path d="M19.9183 28.7414C19.9183 28.6262 19.9039 28.5614 19.8319 28.475C19.7167 28.3382 19.5439 28.3166 19.3855 28.3742C18.5575 28.655 17.7151 28.5254 16.8871 28.3238C16.8007 28.3022 16.7071 28.3958 16.7791 28.475C17.4919 29.2598 18.6295 29.375 19.6015 29.0798C19.7527 29.0366 19.9183 28.9214 19.9183 28.7414Z" fill="#982A44"/>
<path d="M25.203 19.7775C25.1238 19.6911 25.0446 19.6119 24.9582 19.5399C24.663 19.2807 24.3318 19.0791 23.9862 18.9279C23.8062 18.8487 23.6118 18.7839 23.4174 18.7263C23.0646 18.6255 22.7046 18.5679 22.3518 18.5391C22.143 18.5247 21.9414 18.5103 21.747 18.5103C21.3366 18.5103 20.9406 18.5391 20.5878 18.5823C20.4438 18.5967 20.307 18.6183 20.1846 18.6399C20.0406 18.2727 19.947 17.8767 19.9182 17.4591C19.7958 15.5439 21.0846 13.8951 22.7982 13.7871C24.5118 13.6791 25.995 15.1479 26.1174 17.0631C26.1822 18.1287 25.8222 19.1007 25.203 19.7775Z" fill="#982A44"/>
<path d="M24.9582 19.5399C24.663 19.2807 24.3318 19.0791 23.9862 18.9279C23.8062 18.8487 23.6118 18.7839 23.4174 18.7263C23.0646 18.6255 22.7046 18.5679 22.3518 18.5391C22.143 18.5247 21.9414 18.5103 21.747 18.5103C21.3366 18.5103 20.9406 18.5391 20.5878 18.5823C20.4798 18.2871 20.4078 17.9631 20.3862 17.6319C20.2782 15.9975 21.3798 14.5935 22.8414 14.5071C24.303 14.4135 25.5702 15.6663 25.671 17.3007C25.7286 18.1647 25.4478 18.9639 24.9582 19.5399Z" fill="white"/>
<path d="M24.6271 17.3728C24.6343 17.4448 24.6343 17.524 24.6271 17.5888C24.6055 18.136 24.3607 18.6184 23.9863 18.928C23.8063 18.8488 23.6119 18.784 23.4175 18.7264C23.0647 18.6256 22.7047 18.568 22.3519 18.5392C22.1431 18.5248 21.9415 18.5104 21.7471 18.5104C21.5743 18.244 21.4591 17.92 21.4375 17.5672C21.3727 16.5808 22.0351 15.7312 22.9207 15.6808C23.5039 15.6448 24.0295 15.9616 24.3391 16.4584C24.5047 16.7248 24.6055 17.0344 24.6271 17.3728Z" fill="#982A44"/>
<path d="M24.2096 17.3944C24.2168 17.452 24.2168 17.5168 24.2096 17.5744C24.1808 18.1072 23.864 18.5608 23.4176 18.7264C23.0648 18.6256 22.7048 18.568 22.352 18.5392C22.0712 18.316 21.8768 17.956 21.8552 17.5456C21.812 16.8184 22.3016 16.192 22.9496 16.1488C23.36 16.12 23.7344 16.336 23.9648 16.6816C24.1016 16.8832 24.188 17.128 24.2096 17.3944Z" fill="#D25C78"/>
<path d="M23.079 18.2711C23.4718 18.2463 23.7677 17.869 23.7398 17.4285C23.712 16.988 23.3709 16.651 22.978 16.6759C22.5851 16.7008 22.2892 17.078 22.3171 17.5185C22.345 17.9591 22.6861 18.296 23.079 18.2711Z" fill="#553F16"/>
<path d="M24.4697 17.6233C24.7911 17.603 25.0352 17.3259 25.0149 17.0044C24.9945 16.683 24.7174 16.4389 24.396 16.4593C24.0746 16.4796 23.8305 16.7567 23.8508 17.0781C23.8712 17.3996 24.1482 17.6437 24.4697 17.6233Z" fill="white"/>
<path d="M19.5295 18.7838C19.4503 18.8342 19.5007 18.9638 19.5943 18.935C21.5671 18.4166 24.3535 18.8198 25.7359 20.483C25.7503 20.4974 25.7863 20.483 25.7791 20.4614C24.9799 18.5678 21.1783 17.711 19.5295 18.7838Z" fill="#982A44"/>
<path d="M11.6168 19.7775C11.696 19.6911 11.7752 19.6119 11.8616 19.5399C12.1568 19.2807 12.488 19.0791 12.8336 18.9279C13.0136 18.8487 13.208 18.7839 13.4024 18.7263C13.7552 18.6255 14.1152 18.5679 14.468 18.5391C14.6768 18.5247 14.8784 18.5103 15.0728 18.5103C15.4832 18.5103 15.8792 18.5391 16.232 18.5823C16.376 18.5967 16.5128 18.6183 16.6352 18.6399C16.7792 18.2727 16.8728 17.8767 16.9016 17.4591C17.024 15.5439 15.7352 13.8951 14.0216 13.7871C12.308 13.6791 10.8248 15.1479 10.7024 17.0631C10.6376 18.1287 10.9904 19.1007 11.6168 19.7775Z" fill="#982A44"/>
<path d="M11.8545 19.5399C12.1497 19.2807 12.4809 19.0791 12.8265 18.9279C13.0065 18.8487 13.2009 18.7839 13.3953 18.7263C13.7481 18.6255 14.1081 18.5679 14.4609 18.5391C14.6697 18.5247 14.8713 18.5103 15.0657 18.5103C15.4761 18.5103 15.8721 18.5391 16.2249 18.5823C16.3329 18.2871 16.4049 17.9631 16.4265 17.6319C16.5345 15.9975 15.4329 14.5935 13.9713 14.5071C12.5097 14.4135 11.2425 15.6663 11.1417 17.3007C11.0913 18.1647 11.3649 18.9639 11.8545 19.5399Z" fill="white"/>
<path d="M12.1856 17.3728C12.1784 17.4448 12.1784 17.524 12.1856 17.5888C12.2072 18.136 12.452 18.6184 12.8264 18.928C13.0064 18.8488 13.2008 18.784 13.3952 18.7264C13.748 18.6256 14.108 18.568 14.4608 18.5392C14.6696 18.5248 14.8712 18.5104 15.0656 18.5104C15.2384 18.244 15.3536 17.92 15.3752 17.5672C15.44 16.5808 14.7776 15.7312 13.892 15.6808C13.3088 15.6448 12.7832 15.9616 12.4736 16.4584C12.3152 16.7248 12.2144 17.0344 12.1856 17.3728Z" fill="#982A44"/>
<path d="M12.6104 17.3944C12.6032 17.452 12.6032 17.5168 12.6104 17.5744C12.6392 18.1072 12.956 18.5608 13.4024 18.7264C13.7552 18.6256 14.1152 18.568 14.468 18.5392C14.7488 18.316 14.9432 17.956 14.9648 17.5456C15.008 16.8184 14.5184 16.192 13.8704 16.1488C13.46 16.12 13.0856 16.336 12.8552 16.6816C12.7112 16.8832 12.6248 17.128 12.6104 17.3944Z" fill="#D25C78"/>
<path d="M14.4981 17.519C14.526 17.0785 14.2301 16.7013 13.8373 16.6764C13.4444 16.6515 13.1033 16.9885 13.0754 17.429C13.0475 17.8695 13.3434 18.2467 13.7363 18.2716C14.1292 18.2965 14.4703 17.9595 14.4981 17.519Z" fill="#553F16"/>
<path d="M12.97 17.0737C12.9903 16.7522 12.7462 16.4752 12.4248 16.4548C12.1033 16.4345 11.8262 16.6785 11.8059 17C11.7855 17.3214 12.0296 17.5985 12.3511 17.6189C12.6725 17.6392 12.9496 17.3951 12.97 17.0737Z" fill="white"/>
<path d="M17.2833 18.7838C17.3625 18.8342 17.3121 18.9638 17.2185 18.935C15.2457 18.4166 12.4593 18.8198 11.0769 20.483C11.0625 20.4974 11.0265 20.483 11.0337 20.4614C11.8401 18.5678 15.6345 17.711 17.2833 18.7838Z" fill="#982A44"/>
<path d="M12.79 22.1895C12.79 22.1895 13.2868 27.7623 18.3988 27.6903C23.5108 27.6183 24.2092 22.4559 24.2092 22.4559C24.2092 22.4559 21.5884 23.1975 18.478 23.2767C15.3676 23.3559 12.79 22.1895 12.79 22.1895Z" fill="white"/>
<path d="M12.4302 22.1894C12.6102 24.1478 13.6326 26.2214 15.3318 27.2654C16.8438 28.1942 18.8742 28.2734 20.5302 27.6902C21.9198 27.1934 23.0286 26.1782 23.7342 24.8966C24.123 24.1838 24.4542 23.363 24.5622 22.5494C24.5982 22.2902 24.411 22.0238 24.1158 22.103C22.8918 22.4486 21.6102 22.6502 20.3502 22.787C18.255 23.003 16.2102 22.9094 14.187 22.3046C13.8774 22.211 13.5678 22.1102 13.2654 21.995C13.179 21.959 13.0926 21.9302 13.0062 21.8942C12.9702 21.8798 13.0494 21.9158 12.9702 21.8798C12.5526 21.6926 12.1854 22.3118 12.6102 22.499C15.8214 23.939 19.4574 23.795 22.8414 23.1326C23.331 23.039 23.8278 22.931 24.3102 22.7942C24.159 22.643 24.015 22.499 23.8638 22.3478C23.619 24.119 22.5174 25.8902 20.9262 26.7254C19.515 27.467 17.5854 27.5678 16.1382 26.8766C15.0006 26.3366 14.1942 25.343 13.7046 24.1982C13.503 23.7302 13.3518 23.2406 13.2438 22.7438C13.2078 22.5926 13.1862 22.4342 13.1574 22.283C13.1358 22.1606 13.1718 22.3406 13.1502 22.2254C13.1502 22.211 13.1502 22.1966 13.143 22.175C13.107 21.7358 12.387 21.7286 12.4302 22.1894Z" fill="#343A3F"/>
<path d="M23.4172 24.2918C21.7468 24.8462 19.9036 25.1126 18.1468 25.0118C16.5772 24.9182 14.9428 24.6446 13.4596 24.1046C13.114 23.975 12.9628 24.5366 13.3084 24.659C14.8348 25.2206 16.5268 25.4942 18.1468 25.5878C19.9468 25.6958 21.8548 25.415 23.5684 24.8462C23.9212 24.731 23.77 24.1766 23.4172 24.2918Z" fill="#343A3F"/>
</svg>
