<svg width="37" height="36" viewBox="0 0 37 36" fill="none" xmlns="http://www.w3.org/2000/svg">
<path d="M21.2 7.75346C21.1856 7.39346 21.2504 7.04786 21.5024 6.83906C22.4024 6.09026 23.0864 5.85266 22.8056 5.47106C22.532 5.08946 21.2648 5.08226 21.056 4.87346C20.8472 4.66466 21.5672 3.18866 21.02 2.90786C20.4656 2.62706 19.364 4.62866 18.7088 4.62866C18.0536 4.62866 17.5352 2.76386 16.9808 3.05186C16.4264 3.33266 16.5632 4.66466 16.3544 4.87346C16.1456 5.08226 14.5256 4.31906 14.252 4.70066C13.9784 5.08226 14.9072 5.80226 15.908 6.41426C16.3328 6.67346 16.3976 7.17746 16.3328 7.66706C9.48562 8.60306 4.23682 13.9095 4.23682 20.3175C4.23682 27.3879 10.6232 33.1191 18.5 33.1191C26.3768 33.1191 32.7632 27.3879 32.7632 20.3175C32.7632 14.0823 27.788 8.88386 21.2 7.75346Z" fill="#BE3455"/>
<path d="M21.1999 7.75343C21.1999 7.74623 21.0847 7.80383 21.0703 7.81103C25.8439 9.76223 30.7039 14.2838 31.0495 19.7774C31.3807 24.9758 27.4423 29.7206 23.3527 32.363C28.8463 30.5846 32.7631 25.8614 32.7631 20.3246C32.7631 14.0822 27.7879 8.88383 21.1999 7.75343Z" fill="#982A44"/>
<path d="M13.0567 10.6191C11.1991 9.92786 8.20391 12.1455 7.56311 12.9375C6.91511 13.7295 6.17351 16.7751 7.59911 17.3727C9.02471 17.9703 11.7679 16.8183 13.5751 15.0975C15.3823 13.3767 14.3167 11.0799 13.0567 10.6191Z" fill="#EF8595"/>
<path d="M6.77847 19.511C5.44647 19.3742 4.66887 22.859 6.30327 22.8734C7.93767 22.8878 8.11047 19.655 6.77847 19.511Z" fill="#EF8595"/>
<path d="M16.1239 21.6422C16.0447 21.5558 15.9655 21.4766 15.8791 21.4046C15.5839 21.1454 15.2527 20.9438 14.9071 20.7926C14.7271 20.7134 14.5327 20.6486 14.3383 20.591C13.9855 20.4902 13.6255 20.4326 13.2727 20.4038C13.0639 20.3894 12.8623 20.375 12.6679 20.375C12.2575 20.375 11.8615 20.4038 11.5087 20.447C11.3647 20.4614 11.2279 20.483 11.1055 20.5046C10.9615 20.1374 10.8679 19.7414 10.8391 19.3238C10.7167 17.4086 12.0055 15.7598 13.7191 15.6518C15.4327 15.5438 16.9159 17.0126 17.0383 18.9278C17.1031 19.9862 16.7431 20.9654 16.1239 21.6422Z" fill="#982A44"/>
<path d="M15.8791 21.3975C15.5839 21.1383 15.2527 20.9367 14.9071 20.7855C14.7271 20.7063 14.5327 20.6415 14.3383 20.5839C13.9855 20.4831 13.6255 20.4255 13.2727 20.3967C13.0639 20.3823 12.8623 20.3679 12.6679 20.3679C12.2575 20.3679 11.8615 20.3967 11.5087 20.4399C11.4007 20.1447 11.3287 19.8207 11.3071 19.4895C11.1991 17.8551 12.3007 16.4511 13.7623 16.3647C15.2239 16.2711 16.4911 17.5239 16.5919 19.1583C16.6495 20.0295 16.3687 20.8215 15.8791 21.3975Z" fill="white"/>
<path d="M15.548 19.2302C15.5552 19.3022 15.5552 19.3814 15.548 19.4462C15.5264 19.9934 15.2816 20.4758 14.9072 20.7854C14.7272 20.7062 14.5328 20.6414 14.3384 20.5838C13.9856 20.483 13.6256 20.4254 13.2728 20.3966C13.064 20.3822 12.8624 20.3678 12.668 20.3678C12.4952 20.1014 12.38 19.7774 12.3584 19.4246C12.2936 18.4382 12.956 17.5886 13.8416 17.5382C14.4248 17.5022 14.9504 17.819 15.26 18.3158C15.4256 18.5822 15.5264 18.8918 15.548 19.2302Z" fill="#982A44"/>
<path d="M15.1305 19.259C15.1377 19.3166 15.1377 19.3814 15.1305 19.439C15.1017 19.9718 14.7849 20.4254 14.3385 20.591C13.9857 20.4902 13.6257 20.4326 13.2729 20.4038C12.9921 20.1806 12.7977 19.8206 12.7761 19.4102C12.7329 18.683 13.2225 18.0566 13.8705 18.0134C14.2809 17.9846 14.6553 18.2006 14.8857 18.5462C15.0297 18.7406 15.1161 18.9926 15.1305 19.259Z" fill="#D25C78"/>
<path d="M14.0072 20.1284C14.4001 20.1036 14.6959 19.7263 14.6681 19.2858C14.6402 18.8453 14.2991 18.5083 13.9062 18.5332C13.5133 18.5581 13.2174 18.9353 13.2453 19.3758C13.2732 19.8164 13.6143 20.1533 14.0072 20.1284Z" fill="#553F16"/>
<path d="M15.3901 19.481C15.7115 19.4606 15.9556 19.1836 15.9353 18.8621C15.9149 18.5407 15.6379 18.2966 15.3164 18.3169C14.995 18.3373 14.7509 18.6143 14.7712 18.9358C14.7916 19.2572 15.0686 19.5013 15.3901 19.481Z" fill="white"/>
<path d="M10.4577 20.6486C10.3785 20.699 10.4289 20.8286 10.5225 20.7998C12.4953 20.2814 15.2817 20.6846 16.6641 22.3478C16.6785 22.3622 16.7145 22.3478 16.7073 22.3262C15.9009 20.4254 12.0993 19.5686 10.4577 20.6486Z" fill="#982A44"/>
<path d="M21.0202 21.6422C21.0994 21.5558 21.1786 21.4766 21.265 21.4046C21.5602 21.1454 21.8914 20.9438 22.237 20.7926C22.417 20.7134 22.6114 20.6486 22.8058 20.591C23.1586 20.4902 23.5186 20.4326 23.8714 20.4038C24.0802 20.3894 24.2818 20.375 24.4762 20.375C24.8866 20.375 25.2826 20.4038 25.6354 20.447C25.7794 20.4614 25.9162 20.483 26.0386 20.5046C26.1826 20.1374 26.2762 19.7414 26.305 19.3238C26.4274 17.4086 25.1386 15.7598 23.425 15.6518C21.7114 15.5438 20.2282 17.0126 20.1058 18.9278C20.0338 19.9862 20.3938 20.9654 21.0202 21.6422Z" fill="#982A44"/>
<path d="M21.2578 21.3975C21.553 21.1383 21.8842 20.9367 22.2298 20.7855C22.4098 20.7063 22.6042 20.6415 22.7986 20.5839C23.1514 20.4831 23.5114 20.4255 23.8642 20.3967C24.073 20.3823 24.2746 20.3679 24.469 20.3679C24.8794 20.3679 25.2754 20.3967 25.6282 20.4399C25.7362 20.1447 25.8082 19.8207 25.8298 19.4895C25.9378 17.8551 24.8362 16.4511 23.3746 16.3647C21.913 16.2711 20.6458 17.5239 20.545 19.1583C20.4874 20.0295 20.7682 20.8215 21.2578 21.3975Z" fill="white"/>
<path d="M21.5889 19.2302C21.5817 19.3022 21.5817 19.3814 21.5889 19.4462C21.6105 19.9934 21.8553 20.4758 22.2297 20.7854C22.4097 20.7062 22.6041 20.6414 22.7985 20.5838C23.1513 20.483 23.5113 20.4254 23.8641 20.3966C24.0729 20.3822 24.2745 20.3678 24.4689 20.3678C24.6417 20.1014 24.7569 19.7774 24.7785 19.4246C24.8433 18.4382 24.1809 17.5886 23.2953 17.5382C22.7121 17.5022 22.1865 17.819 21.8769 18.3158C21.7113 18.5822 21.6105 18.8918 21.5889 19.2302Z" fill="#982A44"/>
<path d="M22.0064 19.259C21.9992 19.3166 21.9992 19.3814 22.0064 19.439C22.0352 19.9718 22.352 20.4254 22.7984 20.591C23.1512 20.4902 23.5112 20.4326 23.864 20.4038C24.1448 20.1806 24.3392 19.8206 24.3608 19.4102C24.404 18.683 23.9144 18.0566 23.2664 18.0134C22.856 17.9846 22.4816 18.2006 22.2512 18.5462C22.1144 18.7406 22.028 18.9926 22.0064 19.259Z" fill="#D25C78"/>
<path d="M23.8966 19.3784C23.9245 18.9379 23.6286 18.5606 23.2357 18.5358C22.8428 18.5109 22.5017 18.8478 22.4738 19.2883C22.4459 19.7288 22.7418 20.1061 23.1347 20.131C23.5276 20.1558 23.8687 19.8189 23.8966 19.3784Z" fill="#553F16"/>
<path d="M25.2756 18.7152C25.296 18.3937 25.0519 18.1166 24.7304 18.0963C24.409 18.0759 24.1319 18.32 24.1115 18.6415C24.0912 18.9629 24.3353 19.24 24.6567 19.2604C24.9782 19.2807 25.2553 19.0366 25.2756 18.7152Z" fill="white"/>
<path d="M26.6866 20.6486C26.7658 20.699 26.7154 20.8286 26.6218 20.7998C24.649 20.2814 21.8626 20.6846 20.4802 22.3478C20.4658 22.3622 20.4298 22.3478 20.437 22.3262C21.2362 20.4254 25.0378 19.5686 26.6866 20.6486Z" fill="#982A44"/>
<path d="M16.0735 15.7166C15.6703 15.371 15.1879 15.1262 14.7127 14.8814C14.3743 14.7086 13.9927 14.4638 13.9927 14.0894C13.9927 13.8806 14.1151 13.6934 14.2807 13.571C14.4463 13.4486 14.6551 13.3982 14.8639 13.3838C15.4111 13.3406 15.9655 13.5278 16.3903 13.8662C16.8223 14.2046 17.1247 14.687 17.2903 15.2126C17.3839 15.5222 17.5783 16.8614 17.0959 17.0054C16.9375 17.0414 16.3039 15.911 16.0735 15.7166Z" fill="#343A3F"/>
<path d="M20.7896 16.0911C21.236 15.8031 21.7472 15.6231 22.2512 15.4431C22.604 15.3135 23.0216 15.1191 23.072 14.7447C23.1008 14.5431 23 14.3343 22.8488 14.1975C22.6976 14.0607 22.496 13.9815 22.2944 13.9383C21.7616 13.8231 21.1856 13.9383 20.7176 14.2191C20.2496 14.4999 19.8824 14.9391 19.652 15.4359C19.5152 15.7311 19.1552 17.0343 19.616 17.2359C19.7672 17.3007 20.5376 16.2567 20.7896 16.0911Z" fill="#343A3F"/>
<path d="M21.603 26.1134C21.3582 25.8398 21.0414 25.6958 20.703 25.5806C20.4078 25.4726 20.0982 25.4006 19.7814 25.379C19.1622 25.3286 18.543 25.3358 17.931 25.2278C17.7438 25.1918 17.5566 25.1414 17.3766 25.091C17.2614 25.055 17.1462 25.0118 17.0382 24.9758C16.887 24.9182 16.7718 24.8966 16.6134 24.9614C16.491 25.0118 16.455 25.163 16.5054 25.271C16.6062 25.5014 16.851 25.5518 17.0742 25.6238C17.2758 25.6886 17.4774 25.7318 17.679 25.775C18.003 25.8398 18.327 25.8686 18.651 25.883C19.2414 25.9046 19.839 25.8758 20.4294 25.9478C20.8182 25.9982 21.1782 26.135 21.567 26.1926C21.6102 26.1854 21.6246 26.135 21.603 26.1134Z" fill="#343A3F"/>
<path d="M20.005 27.0279C19.9906 26.9919 19.9834 26.9703 19.9474 26.9559C19.897 26.9271 19.8394 26.9415 19.7962 26.9775C19.573 27.1575 19.2994 27.2151 19.0186 27.2439C18.9898 27.2439 18.9682 27.2871 19.0042 27.3015C19.3138 27.4599 19.681 27.3663 19.9474 27.1647C19.9906 27.1359 20.0266 27.0783 20.005 27.0279Z" fill="#982A44"/>
<path d="M20.8185 8.74706L19.8105 8.40866L20.1273 5.88866L17.0961 5.03906C17.0961 5.03906 17.0673 9.20066 17.0601 9.40226C17.0601 9.53906 17.0889 9.63986 17.2617 9.69026C17.4561 9.74786 17.9529 9.93506 18.0105 9.94946C18.2265 10.0431 18.2697 10.1871 18.3489 10.4463L18.9033 13.1319L19.0401 13.1463L20.8185 8.74706ZM19.0977 11.0511C19.0113 10.6263 18.9177 10.1799 18.8313 9.75506C18.8169 9.68306 18.7881 9.62546 18.7449 9.58226C18.7089 9.55346 18.6729 9.52466 18.6225 9.51026C18.4425 9.45266 18.2553 9.38786 18.0825 9.33026C17.9673 9.28706 17.8449 9.25106 17.7225 9.20786C17.6721 9.19346 17.6721 9.17906 17.6721 9.14306C17.6793 8.35106 17.6793 7.54466 17.6865 6.76706C17.6865 6.45746 17.6865 6.14786 17.6937 5.83106C17.6937 5.83106 17.6937 5.83106 17.7009 5.83106L19.4505 6.32066L19.0257 8.77586L20.0265 9.11426L19.1481 11.2887L19.0977 11.0511Z" fill="#343A3F"/>
<path d="M17.6214 5.73022C18.255 5.91022 18.8814 6.08302 19.5222 6.26302C19.3782 7.08382 19.2414 7.89742 19.0902 8.71822C19.4286 8.83342 19.7598 8.94142 20.1054 9.07102C19.7814 9.88462 19.4502 10.691 19.1118 11.5262C19.0974 11.4542 19.083 11.4182 19.0686 11.3822C18.9606 10.8494 18.8454 10.3094 18.7446 9.76942C18.723 9.67582 18.687 9.61822 18.5862 9.58942C18.2838 9.49582 17.9886 9.38782 17.6862 9.27982C17.6142 9.25822 17.5854 9.22942 17.5854 9.14302C17.5926 8.03422 17.5998 6.93262 17.607 5.83102C17.6142 5.80222 17.6214 5.76622 17.6214 5.73022Z" fill="#EF8595"/>
<path d="M11.8543 8.01984L10.9183 8.53104L9.27667 6.59424L6.60547 8.25024C6.60547 8.25024 9.65107 11.087 9.79507 11.2238C9.89587 11.3174 9.98947 11.3678 10.1407 11.267C10.3207 11.159 10.7887 10.9214 10.8391 10.8854C11.0551 10.7918 11.1919 10.8566 11.4367 10.9718L13.7911 12.383L13.8919 12.2894L11.8543 8.01984ZM12.3799 10.8494C12.0127 10.6262 11.6167 10.3886 11.2423 10.1654C11.1775 10.1222 11.1199 10.1078 11.0623 10.115C11.0191 10.1222 10.9759 10.1294 10.9255 10.1582C10.7599 10.2518 10.5871 10.3454 10.4287 10.4318C10.3207 10.4894 10.2055 10.5542 10.0975 10.6118C10.0543 10.6406 10.0399 10.6334 10.0111 10.6046C9.43507 10.0646 8.84467 9.51744 8.26867 8.98464C8.03827 8.77584 7.80787 8.56704 7.58467 8.34384C7.58467 8.34384 7.58467 8.34384 7.58467 8.33664L9.13267 7.37904L10.6519 9.35184L11.5807 8.84064L12.5887 10.9574L12.3799 10.8494Z" fill="#343A3F"/>
<path d="M7.46924 8.3366C8.03084 7.991 8.58524 7.6454 9.14684 7.2926C9.65804 7.955 10.1548 8.603 10.666 9.2726C10.9756 9.0998 11.2852 8.9342 11.6164 8.7614C11.998 9.5534 12.3652 10.3382 12.754 11.1518C12.6892 11.1158 12.6532 11.1014 12.6172 11.087C12.1492 10.8062 11.674 10.5254 11.206 10.2374C11.1196 10.187 11.0548 10.1798 10.9612 10.2302C10.6876 10.3886 10.4068 10.5326 10.126 10.6838C10.0612 10.7198 10.018 10.727 9.96044 10.6622C9.14684 9.9062 8.34044 9.1502 7.53404 8.4086C7.51244 8.387 7.49804 8.3582 7.46924 8.3366Z" fill="#EF8595"/>
<path d="M24.0801 12.8366L24.1881 12.923L26.4561 11.3894C26.6937 11.2598 26.8305 11.1878 27.0465 11.267C27.0969 11.2958 27.5793 11.5118 27.7593 11.6054C27.9177 11.6918 28.0113 11.6414 28.1049 11.5406C28.2345 11.3966 31.1217 8.3942 31.1217 8.3942L28.3641 6.8822L26.8305 8.9054L25.8729 8.4446L24.0801 12.8366ZM25.2969 11.447L26.1825 9.2798L27.1401 9.7406L28.5513 7.6814L30.1497 8.5526C30.1497 8.5598 30.1497 8.5598 30.1497 8.5598C29.9337 8.7902 29.7177 9.0134 29.5017 9.2366C28.9617 9.7982 28.4001 10.3814 27.8529 10.9502C27.8241 10.979 27.8169 10.979 27.7665 10.9574C27.6513 10.8998 27.5433 10.8422 27.4281 10.7918C27.2625 10.7126 27.0825 10.6334 26.9169 10.547C26.8665 10.5182 26.8233 10.511 26.7801 10.511C26.7225 10.511 26.6649 10.5326 26.6001 10.5758C26.2401 10.8206 25.8585 11.0726 25.5057 11.3174L25.2969 11.447Z" fill="#343A3F"/>
<path d="M30.2072 8.60297C29.444 9.39497 28.6808 10.1942 27.9104 10.9862C27.8528 11.051 27.8096 11.051 27.7448 11.015C27.4568 10.8782 27.1688 10.7558 26.888 10.6118C26.7944 10.5614 26.7224 10.5758 26.6432 10.6334C26.1896 10.943 25.7288 11.2526 25.2824 11.5622C25.2464 11.5838 25.2104 11.5982 25.1528 11.6342C25.4912 10.799 25.8224 9.99257 26.1536 9.18617C26.492 9.33737 26.8088 9.48857 27.1256 9.64697C27.5936 8.95577 28.0616 8.27897 28.5296 7.58777C29.1128 7.90457 29.6816 8.22137 30.2648 8.53817C30.2432 8.55257 30.2288 8.58137 30.2072 8.60297Z" fill="#EF8595"/>
</svg>
