<svg width="37" height="36" viewBox="0 0 37 36" fill="none" xmlns="http://www.w3.org/2000/svg">
<path d="M21.2 7.75346C21.1856 7.39346 21.2504 7.04786 21.5024 6.83906C22.4024 6.09026 23.0864 5.85266 22.8056 5.47106C22.532 5.08946 21.2648 5.08226 21.056 4.87346C20.8472 4.66466 21.5672 3.18866 21.02 2.90786C20.4656 2.62706 19.364 4.62866 18.7088 4.62866C18.0536 4.62866 17.5352 2.76386 16.9808 3.05186C16.4264 3.33266 16.5632 4.66466 16.3544 4.87346C16.1456 5.08226 14.5256 4.31906 14.252 4.70066C13.9784 5.08226 14.9072 5.80226 15.908 6.41426C16.3328 6.67346 16.3976 7.17746 16.3328 7.66706C9.48562 8.60306 4.23682 13.9095 4.23682 20.3175C4.23682 27.3879 10.6232 33.1191 18.5 33.1191C26.3768 33.1191 32.7632 27.3879 32.7632 20.3175C32.7632 14.0823 27.788 8.88386 21.2 7.75346Z" fill="#BE3455"/>
<path d="M21.1999 7.75343C21.1999 7.74623 21.0847 7.80383 21.0703 7.81103C25.8439 9.76223 30.7039 14.2838 31.0495 19.7774C31.3807 24.9758 27.4423 29.7206 23.3527 32.363C28.8463 30.5846 32.7631 25.8614 32.7631 20.3246C32.7631 14.0822 27.7879 8.88383 21.1999 7.75343Z" fill="#982A44"/>
<path d="M13.0567 10.6191C11.1991 9.92786 8.20391 12.1455 7.56311 12.9375C6.91511 13.7295 6.17351 16.7751 7.59911 17.3727C9.02471 17.9703 11.7679 16.8183 13.5751 15.0975C15.3823 13.3767 14.3167 11.0799 13.0567 10.6191Z" fill="#EF8595"/>
<path d="M6.77847 19.511C5.44647 19.3742 4.66887 22.859 6.30327 22.8734C7.93767 22.8878 8.11047 19.655 6.77847 19.511Z" fill="#EF8595"/>
<path d="M13.7122 14.5143C14.2234 14.3559 14.6842 14.0823 15.145 13.8087C15.469 13.6143 15.8866 13.4271 16.2034 13.6287C16.3762 13.7367 16.477 13.9455 16.4842 14.1543C16.4914 14.3631 16.4266 14.5647 16.333 14.7447C16.081 15.2271 15.6202 15.5943 15.109 15.7743C14.5906 15.9543 14.0218 15.9543 13.4962 15.8103C13.1866 15.7239 11.9482 15.1695 12.0922 14.6871C12.1282 14.5215 13.417 14.6007 13.7122 14.5143Z" fill="#343A3F"/>
<path d="M23.2376 14.4711C22.7264 14.3271 22.2512 14.0679 21.7832 13.8087C21.452 13.6287 21.0344 13.4487 20.7176 13.6575C20.5448 13.7727 20.4584 13.9815 20.4512 14.1903C20.4512 14.3991 20.5232 14.5935 20.624 14.7735C20.8904 15.2487 21.3584 15.6015 21.8768 15.7671C22.3952 15.9327 22.9712 15.9183 23.4896 15.7599C23.7992 15.6663 25.016 15.0759 24.8648 14.5935C24.8216 14.4423 23.5328 14.5503 23.2376 14.4711Z" fill="#343A3F"/>
<path d="M24.4113 27.0999C24.4113 27.0999 26.0673 25.5303 17.7009 25.3935C9.46409 25.2567 11.5809 26.6823 11.5809 26.6823L24.4113 27.0999Z" fill="#343A3F"/>
<path d="M24.6632 27.3519C24.8576 27.1647 24.944 26.8551 24.8792 26.5959C24.7136 25.9551 23.864 25.7103 23.3096 25.5663C21.4592 25.0767 19.4576 25.0623 17.564 25.0335C15.8 25.0047 13.9064 24.9399 12.1784 25.3647C11.6816 25.4871 10.8608 25.7751 10.9976 26.4375C11.0552 26.7183 11.3 26.9991 11.588 27.0423C12.1928 27.1215 12.848 27.0855 13.46 27.1071C14.8064 27.1503 16.1528 27.1935 17.4992 27.2367C19.76 27.3087 22.028 27.4383 24.296 27.4599C24.3392 27.4599 24.3752 27.4599 24.4184 27.4671C24.8792 27.4815 24.8792 26.7615 24.4184 26.7471C22.676 26.6895 20.9264 26.6319 19.184 26.5743C16.8368 26.4951 14.4896 26.4231 12.1424 26.3439C12.0344 26.3367 11.696 26.2647 11.6024 26.3295C11.6888 26.2791 11.912 26.4951 11.7464 26.3439C11.732 26.3295 11.6744 26.2647 11.7248 26.3223C11.7824 26.3871 11.7104 26.3151 11.7104 26.2935C11.7104 26.2215 11.696 26.3727 11.7176 26.3079C11.7392 26.2359 11.732 26.3439 11.7176 26.3151C11.696 26.2575 11.696 26.4087 11.7176 26.3223C11.6888 26.4303 11.7032 26.3583 11.7032 26.3583C11.6672 26.3295 11.7968 26.3799 11.6888 26.3727C11.7032 26.3727 11.7536 26.3007 11.7752 26.2935C11.6744 26.3655 11.8328 26.2647 11.8616 26.2431C11.9552 26.1855 11.912 26.2143 11.9768 26.1855C12.056 26.1567 12.1424 26.1279 12.2288 26.1063C12.4448 26.0415 12.668 25.9983 12.8912 25.9623C13.6328 25.8399 14.3888 25.8039 15.1304 25.7751C17.3264 25.6959 19.5656 25.7175 21.74 26.0055C22.316 26.0775 22.8992 26.1783 23.4536 26.3583C23.648 26.4231 23.7272 26.4519 23.8856 26.5311C23.9432 26.5599 23.9936 26.5959 24.0512 26.6247C24.152 26.6895 24.044 26.6103 24.1304 26.6895C24.1952 26.7471 24.1952 26.7543 24.1664 26.7255C24.2168 26.7687 24.2528 26.7975 24.188 26.7471C24.188 26.7471 24.2456 26.8839 24.2024 26.7903C24.1592 26.6895 24.224 26.8335 24.1952 26.8335C24.2456 26.8335 24.1808 26.7183 24.1952 26.8191C24.2096 26.9055 24.1952 26.7399 24.2024 26.8119C24.2024 26.8407 24.1088 26.9775 24.2024 26.8263C24.1952 26.8335 24.188 26.8479 24.1736 26.8551C23.8208 27.1647 24.332 27.6759 24.6632 27.3519Z" fill="#343A3F"/>
<path d="M20.4873 18.3879C20.5305 18.3087 20.4873 18.2079 20.5737 18.2439C22.4385 19.0647 25.4121 18.3951 26.8809 17.6823C26.9025 17.6751 26.9169 17.6895 26.9169 17.7111C26.8089 18.3879 25.4265 20.0295 24.0945 20.1375C21.6249 20.3391 20.2353 18.8271 20.4873 18.3879Z" fill="#982A44"/>
<path d="M16.4408 18.3951C16.3976 18.3159 16.4408 18.2151 16.3544 18.2511C14.4824 19.0647 11.6096 17.9919 10.0472 17.6679C10.0256 17.6607 10.0112 17.6751 10.0112 17.6967C10.1192 18.3735 11.4944 20.0151 12.8264 20.1303C15.2888 20.3463 16.6856 18.8343 16.4408 18.3951Z" fill="#982A44"/>
</svg>
