<svg width="37" height="36" viewBox="0 0 37 36" fill="none" xmlns="http://www.w3.org/2000/svg">
<path d="M21.2 7.75346C21.1856 7.39346 21.2504 7.04786 21.5024 6.83906C22.4024 6.09026 23.0864 5.85266 22.8056 5.47106C22.532 5.08946 21.2648 5.08226 21.056 4.87346C20.8472 4.66466 21.5672 3.18866 21.02 2.90786C20.4656 2.62706 19.364 4.62866 18.7088 4.62866C18.0536 4.62866 17.5352 2.76386 16.9808 3.05186C16.4264 3.33266 16.5632 4.66466 16.3544 4.87346C16.1456 5.08226 14.5256 4.31906 14.252 4.70066C13.9784 5.08226 14.9072 5.80226 15.908 6.41426C16.3328 6.67346 16.3976 7.17746 16.3328 7.66706C9.48562 8.60306 4.23682 13.9095 4.23682 20.3175C4.23682 27.3879 10.6232 33.1191 18.5 33.1191C26.3768 33.1191 32.7632 27.3879 32.7632 20.3175C32.7632 14.0823 27.788 8.88386 21.2 7.75346Z" fill="#BE3455"/>
<path d="M21.1999 7.75343C21.1999 7.74623 21.0847 7.80383 21.0703 7.81103C25.8439 9.76223 30.7039 14.2838 31.0495 19.7774C31.3807 24.9758 27.4423 29.7206 23.3527 32.363C28.8463 30.5846 32.7631 25.8614 32.7631 20.3246C32.7631 14.0822 27.7879 8.88383 21.1999 7.75343Z" fill="#982A44"/>
<path d="M13.0567 10.6191C11.1991 9.92786 8.20391 12.1455 7.56311 12.9375C6.91511 13.7295 6.17351 16.7751 7.59911 17.3727C9.02471 17.9703 11.7679 16.8183 13.5751 15.0975C15.3823 13.3767 14.3167 11.0799 13.0567 10.6191Z" fill="#EF8595"/>
<path d="M6.77847 19.511C5.44647 19.3742 4.66887 22.859 6.30327 22.8734C7.93767 22.8878 8.11047 19.655 6.77847 19.511Z" fill="#EF8595"/>
<path d="M15.9296 20.3678C15.8504 20.2814 15.7712 20.2022 15.6848 20.1302C15.3896 19.871 15.0584 19.6694 14.7128 19.5182C14.5328 19.439 14.3384 19.3742 14.144 19.3166C13.7912 19.2158 13.4312 19.1582 13.0784 19.1294C12.8696 19.115 12.668 19.1006 12.4736 19.1006C12.0632 19.1006 11.6672 19.1294 11.3144 19.1726C11.1704 19.187 11.0336 19.2086 10.9112 19.2302C10.7672 18.863 10.6736 18.467 10.6448 18.0494C10.5224 16.1342 11.8112 14.4854 13.5248 14.3774C15.2384 14.2694 16.7216 15.7382 16.844 17.6534C16.916 18.7118 16.556 19.691 15.9296 20.3678Z" fill="#982A44"/>
<path d="M15.6921 20.123C15.3969 19.8638 15.0657 19.6622 14.7201 19.511C14.5401 19.4318 14.3457 19.367 14.1513 19.3094C13.7985 19.2086 13.4385 19.151 13.0857 19.1222C12.8769 19.1078 12.6753 19.0934 12.4809 19.0934C12.0705 19.0934 11.6745 19.1222 11.3217 19.1654C11.2137 18.8702 11.1417 18.5462 11.1201 18.215C11.0121 16.5806 12.1137 15.1766 13.5753 15.0902C15.0369 14.9966 16.3041 16.2494 16.4049 17.8838C16.4625 18.755 16.1817 19.547 15.6921 20.123Z" fill="white"/>
<path d="M15.361 17.9558C15.3682 18.0278 15.3682 18.107 15.361 18.1718C15.3394 18.719 15.0946 19.2014 14.7202 19.511C14.5402 19.4318 14.3458 19.367 14.1514 19.3094C13.7986 19.2086 13.4386 19.151 13.0858 19.1222C12.877 19.1078 12.6754 19.0934 12.481 19.0934C12.3082 18.827 12.193 18.503 12.1714 18.1502C12.1066 17.1638 12.769 16.3142 13.6546 16.2638C14.2378 16.2278 14.7634 16.5446 15.073 17.0414C15.2314 17.3078 15.3394 17.6174 15.361 17.9558Z" fill="#982A44"/>
<path d="M14.9362 17.9846C14.9434 18.0422 14.9434 18.107 14.9362 18.1646C14.9074 18.6974 14.5906 19.151 14.1442 19.3166C13.7914 19.2158 13.4314 19.1582 13.0786 19.1294C12.7978 18.9062 12.6034 18.5462 12.5818 18.1358C12.5386 17.4086 13.0282 16.7822 13.6762 16.739C14.0866 16.7102 14.461 16.9262 14.6914 17.2718C14.8354 17.4662 14.9218 17.7182 14.9362 17.9846Z" fill="#D25C78"/>
<path d="M13.8128 18.8541C14.2057 18.8293 14.5016 18.452 14.4737 18.0115C14.4458 17.571 14.1047 17.2341 13.7119 17.2589C13.319 17.2838 13.0231 17.6611 13.051 18.1016C13.0789 18.5421 13.42 18.879 13.8128 18.8541Z" fill="#553F16"/>
<path d="M15.1958 18.2068C15.5172 18.1865 15.7613 17.9094 15.7409 17.5879C15.7206 17.2665 15.4435 17.0224 15.1221 17.0427C14.8006 17.0631 14.5565 17.3402 14.5769 17.6616C14.5972 17.9831 14.8743 18.2272 15.1958 18.2068Z" fill="white"/>
<path d="M23.2341 20.7426C24.9446 20.6343 26.2328 18.9927 26.1114 17.0759C25.9901 15.1591 24.5052 13.693 22.7947 13.8013C21.0843 13.9095 19.7961 15.5512 19.9174 17.468C20.0388 19.3847 21.5237 20.8508 23.2341 20.7426Z" fill="#982A44"/>
<path d="M23.2164 20.4338C24.6768 20.3414 25.7768 18.941 25.6733 17.306C25.5698 15.671 24.302 14.4205 22.8416 14.5129C21.3812 14.6054 20.2812 16.0057 20.3847 17.6408C20.4882 19.2758 21.756 20.5263 23.2164 20.4338Z" fill="white"/>
<path d="M23.142 19.2626C24.023 19.2068 24.6865 18.3606 24.624 17.3724C24.5614 16.3843 23.7965 15.6284 22.9155 15.6842C22.0345 15.7399 21.371 16.5862 21.4336 17.5744C21.4961 18.5625 22.261 19.3184 23.142 19.2626Z" fill="#982A44"/>
<path d="M23.1124 18.7955C23.7633 18.7543 24.2534 18.129 24.2072 17.3988C24.1609 16.6686 23.5959 16.11 22.945 16.1512C22.2942 16.1924 21.8041 16.8178 21.8503 17.548C21.8965 18.2782 22.4616 18.8367 23.1124 18.7955Z" fill="#D25C78"/>
<path d="M23.0794 18.271C23.4723 18.2461 23.7682 17.8689 23.7403 17.4284C23.7124 16.9879 23.3713 16.6509 22.9785 16.6758C22.5856 16.7007 22.2897 17.0779 22.3176 17.5184C22.3455 17.9589 22.6866 18.2959 23.0794 18.271Z" fill="#553F16"/>
<path d="M24.4697 17.6232C24.7911 17.6028 25.0352 17.3258 25.0149 17.0043C24.9945 16.6829 24.7174 16.4388 24.396 16.4591C24.0746 16.4795 23.8305 16.7566 23.8508 17.078C23.8712 17.3995 24.1482 17.6435 24.4697 17.6232Z" fill="white"/>
<path d="M10.2634 19.3742C10.1842 19.4246 10.2346 19.5542 10.3282 19.5254C12.301 19.007 15.0874 19.4102 16.4698 21.0734C16.4842 21.0878 16.5202 21.0734 16.513 21.0518C15.7066 19.151 11.9122 18.2942 10.2634 19.3742Z" fill="#982A44"/>
<path d="M12.488 12.0951C12.9992 11.9367 13.46 11.6631 13.9208 11.3895C14.2448 11.1951 14.6624 11.0079 14.9792 11.2095C15.152 11.3175 15.2528 11.5263 15.26 11.7351C15.2672 11.9439 15.2024 12.1455 15.1088 12.3255C14.8568 12.8079 14.396 13.1751 13.8848 13.3551C13.3664 13.5351 12.7976 13.5351 12.272 13.3911C11.9624 13.3047 10.724 12.7503 10.868 12.2679C10.904 12.1095 12.2 12.1815 12.488 12.0951Z" fill="#343A3F"/>
<path d="M23.7273 11.5262C23.2161 11.3822 22.7409 11.123 22.2729 10.8638C21.9417 10.6838 21.5241 10.5038 21.2073 10.7126C21.0345 10.8278 20.9481 11.0366 20.9409 11.2454C20.9409 11.4542 21.0129 11.6486 21.1137 11.8286C21.3801 12.3038 21.8481 12.6566 22.3665 12.8222C22.8849 12.9878 23.4609 12.9734 23.9793 12.815C24.2889 12.7214 25.5057 12.131 25.3545 11.6486C25.3113 11.4902 24.0225 11.6054 23.7273 11.5262Z" fill="#343A3F"/>
<path d="M20.048 23.7951C20.012 23.4855 19.7312 23.2911 19.4648 23.1687C19.1192 23.0031 18.7736 22.9671 18.4064 23.0463C17.6936 23.1975 17.1392 23.7951 16.9808 24.4863C16.952 24.6159 16.9808 24.7599 17.0816 24.8535C17.0888 24.8607 17.096 24.8679 17.1104 24.8751C17.2256 24.9831 17.3696 24.9903 17.5064 24.9255C17.7008 24.8391 17.708 24.6735 17.7656 24.5007C17.8016 24.3927 17.852 24.2919 17.9168 24.1911C18.0464 23.9895 18.248 23.8167 18.4712 23.7231C18.716 23.6223 19.0256 23.6079 19.2848 23.6439C19.5368 23.6799 19.76 23.8095 20.012 23.8455C20.0192 23.8527 20.048 23.8239 20.048 23.7951Z" fill="#343A3F"/>
<path d="M19.5656 25.3791C19.5512 25.3431 19.544 25.3215 19.508 25.3071C19.4576 25.2783 19.4 25.2927 19.3568 25.3287C19.1336 25.5087 18.86 25.5663 18.5792 25.5951C18.5504 25.5951 18.5288 25.6383 18.5648 25.6527C18.8744 25.8111 19.2416 25.7175 19.508 25.5159C19.5512 25.4871 19.5872 25.4367 19.5656 25.3791Z" fill="#982A44"/>
</svg>
