<svg width="37" height="36" viewBox="0 0 37 36" fill="none" xmlns="http://www.w3.org/2000/svg">
<path d="M21.2 7.75346C21.1856 7.39346 21.2504 7.04786 21.5024 6.83906C22.4024 6.09026 23.0864 5.85266 22.8056 5.47106C22.532 5.08946 21.2648 5.08226 21.056 4.87346C20.8472 4.66466 21.5672 3.18866 21.02 2.90786C20.4656 2.62706 19.364 4.62866 18.7088 4.62866C18.0536 4.62866 17.5352 2.76386 16.9808 3.05186C16.4264 3.33266 16.5632 4.66466 16.3544 4.87346C16.1456 5.08226 14.5256 4.31906 14.252 4.70066C13.9784 5.08226 14.9072 5.80226 15.908 6.41426C16.3328 6.67346 16.3976 7.17746 16.3328 7.66706C9.48562 8.60306 4.23682 13.9095 4.23682 20.3175C4.23682 27.3879 10.6232 33.1191 18.5 33.1191C26.3768 33.1191 32.7632 27.3879 32.7632 20.3175C32.7632 14.0823 27.788 8.88386 21.2 7.75346Z" fill="#BE3455"/>
<path d="M21.1999 7.75343C21.1999 7.74623 21.0847 7.80383 21.0703 7.81103C25.8439 9.76223 30.7039 14.2838 31.0495 19.7774C31.3807 24.9758 27.4423 29.7206 23.3527 32.363C28.8463 30.5846 32.7631 25.8614 32.7631 20.3246C32.7631 14.0822 27.7879 8.88383 21.1999 7.75343Z" fill="#982A44"/>
<path d="M13.0567 10.6191C11.1991 9.92786 8.20391 12.1455 7.56311 12.9375C6.91511 13.7295 6.17351 16.7751 7.59911 17.3727C9.02471 17.9703 11.7679 16.8183 13.5751 15.0975C15.3823 13.3767 14.3167 11.0799 13.0567 10.6191Z" fill="#EF8595"/>
<path d="M6.77847 19.511C5.44647 19.3742 4.66887 22.859 6.30327 22.8734C7.93767 22.8878 8.11047 19.655 6.77847 19.511Z" fill="#EF8595"/>
<path d="M15.9296 20.3678C15.8504 20.2814 15.7712 20.2022 15.6848 20.1302C15.3896 19.871 15.0584 19.6694 14.7128 19.5182C14.5328 19.439 14.3384 19.3742 14.144 19.3166C13.7912 19.2158 13.4312 19.1582 13.0784 19.1294C12.8696 19.115 12.668 19.1006 12.4736 19.1006C12.0632 19.1006 11.6672 19.1294 11.3144 19.1726C11.1704 19.187 11.0336 19.2086 10.9112 19.2302C10.7672 18.863 10.6736 18.467 10.6448 18.0494C10.5224 16.1342 11.8112 14.4854 13.5248 14.3774C15.2384 14.2694 16.7216 15.7382 16.844 17.6534C16.916 18.7118 16.556 19.691 15.9296 20.3678Z" fill="#982A44"/>
<path d="M15.6921 20.123C15.3969 19.8638 15.0657 19.6622 14.7201 19.511C14.5401 19.4318 14.3457 19.367 14.1513 19.3094C13.7985 19.2086 13.4385 19.151 13.0857 19.1222C12.8769 19.1078 12.6753 19.0934 12.4809 19.0934C12.0705 19.0934 11.6745 19.1222 11.3217 19.1654C11.2137 18.8702 11.1417 18.5462 11.1201 18.215C11.0121 16.5806 12.1137 15.1766 13.5753 15.0902C15.0369 14.9966 16.3041 16.2494 16.4049 17.8838C16.4625 18.755 16.1817 19.547 15.6921 20.123Z" fill="white"/>
<path d="M15.361 17.9558C15.3682 18.0278 15.3682 18.107 15.361 18.1718C15.3394 18.719 15.0946 19.2014 14.7202 19.511C14.5402 19.4318 14.3458 19.367 14.1514 19.3094C13.7986 19.2086 13.4386 19.151 13.0858 19.1222C12.877 19.1078 12.6754 19.0934 12.481 19.0934C12.3082 18.827 12.193 18.503 12.1714 18.1502C12.1066 17.1638 12.769 16.3142 13.6546 16.2638C14.2378 16.2278 14.7634 16.5446 15.073 17.0414C15.2314 17.3078 15.3394 17.6174 15.361 17.9558Z" fill="#982A44"/>
<path d="M14.9362 17.9846C14.9434 18.0422 14.9434 18.107 14.9362 18.1646C14.9074 18.6974 14.5906 19.151 14.1442 19.3166C13.7914 19.2158 13.4314 19.1582 13.0786 19.1294C12.7978 18.9062 12.6034 18.5462 12.5818 18.1358C12.5386 17.4086 13.0282 16.7822 13.6762 16.739C14.0866 16.7102 14.461 16.9262 14.6914 17.2718C14.8354 17.4662 14.9218 17.7182 14.9362 17.9846Z" fill="#D25C78"/>
<path d="M13.8128 18.8541C14.2057 18.8293 14.5016 18.452 14.4737 18.0115C14.4458 17.571 14.1047 17.2341 13.7119 17.2589C13.319 17.2838 13.0231 17.6611 13.051 18.1016C13.0789 18.5421 13.42 18.879 13.8128 18.8541Z" fill="#553F16"/>
<path d="M15.1958 18.2068C15.5172 18.1865 15.7613 17.9094 15.7409 17.5879C15.7206 17.2665 15.4435 17.0224 15.1221 17.0427C14.8006 17.0631 14.5565 17.3402 14.5769 17.6616C14.5972 17.9831 14.8743 18.2272 15.1958 18.2068Z" fill="white"/>
<path d="M20.7391 20.1374C20.8327 20.0654 20.9263 20.0006 21.0199 19.943C21.3583 19.7414 21.7183 19.6046 22.0927 19.5182C22.2871 19.475 22.4887 19.4462 22.6831 19.4246C23.0503 19.3886 23.4103 19.403 23.7631 19.4318C23.9719 19.4534 24.1663 19.4822 24.3607 19.5182C24.7639 19.5902 25.1455 19.691 25.4839 19.799C25.6207 19.8422 25.7503 19.8854 25.8727 19.9286C26.0815 19.5974 26.2471 19.223 26.3479 18.8126C26.8159 16.9478 25.8439 15.0974 24.1807 14.6798C22.5175 14.2622 20.7895 15.4358 20.3215 17.3006C20.0695 18.3374 20.2495 19.3598 20.7391 20.1374Z" fill="#982A44"/>
<path d="M21.0197 19.9503C21.3581 19.7487 21.7181 19.6119 22.0925 19.5255C22.2869 19.4823 22.4885 19.4535 22.6829 19.4318C23.0501 19.3959 23.4101 19.4103 23.7629 19.4391C23.9717 19.4607 24.1661 19.4895 24.3605 19.5255C24.7637 19.5975 25.1453 19.6983 25.4837 19.8063C25.6421 19.5327 25.7717 19.2303 25.8509 18.9063C26.2469 17.3151 25.4189 15.7383 24.0005 15.3855C22.5821 15.0254 21.1061 16.0335 20.7101 17.6247C20.5085 18.4599 20.6453 19.2951 21.0197 19.9503Z" fill="white"/>
<path d="M21.7397 17.8766C21.7181 17.9486 21.7109 18.0206 21.6965 18.0926C21.6173 18.6326 21.7757 19.1582 22.0853 19.5254C22.2797 19.4822 22.4813 19.4534 22.6757 19.4318C23.0429 19.3958 23.4029 19.4102 23.7557 19.439C23.9645 19.4606 24.1589 19.4894 24.3533 19.5254C24.5765 19.295 24.7421 18.9998 24.8285 18.6542C25.0733 17.6966 24.5693 16.739 23.7125 16.5302C23.1509 16.3934 22.5677 16.6022 22.1789 17.0414C21.9773 17.2574 21.8189 17.5454 21.7397 17.8766Z" fill="#982A44"/>
<path d="M22.143 17.9774C22.1286 18.035 22.1142 18.0998 22.107 18.1574C22.0422 18.6902 22.2726 19.187 22.6758 19.4318C23.043 19.3958 23.403 19.4102 23.7558 19.439C24.0726 19.2662 24.3246 18.9494 24.4254 18.5534C24.6054 17.8478 24.231 17.1422 23.5974 16.9838C23.2014 16.883 22.791 17.027 22.4958 17.3222C22.3374 17.4878 22.2078 17.7182 22.143 17.9774Z" fill="#D25C78"/>
<path d="M23.9807 18.4405C24.0877 18.0124 23.865 17.5878 23.4831 17.4923C23.1012 17.3968 22.7048 17.6665 22.5977 18.0947C22.4906 18.5229 22.7134 18.9474 23.0953 19.0429C23.4772 19.1384 23.8736 18.8687 23.9807 18.4405Z" fill="#553F16"/>
<path d="M25.3301 18.1664C25.4083 17.854 25.2183 17.5373 24.9059 17.4592C24.5934 17.381 24.2768 17.571 24.1986 17.8835C24.1205 18.1959 24.3104 18.5126 24.6229 18.5907C24.9354 18.6688 25.252 18.4789 25.3301 18.1664Z" fill="white"/>
<path d="M10.2634 19.3742C10.1842 19.4246 10.2346 19.5542 10.3282 19.5254C12.301 19.007 15.0874 19.4102 16.4698 21.0734C16.4842 21.0878 16.5202 21.0734 16.513 21.0518C15.7066 19.151 11.9122 18.2942 10.2634 19.3742Z" fill="#982A44"/>
<path d="M26.2041 20.0222C26.2761 20.0798 26.2113 20.2022 26.1177 20.1662C24.2313 19.3814 21.4233 19.3958 19.8177 20.8574C19.8033 20.8718 19.7673 20.8502 19.7817 20.8286C20.8401 19.0574 24.7209 18.7334 26.2041 20.0222Z" fill="#982A44"/>
<path d="M16.2102 14.4639C15.8502 14.0679 15.411 13.7655 14.9718 13.4559C14.6622 13.2399 14.3094 12.9447 14.3598 12.5703C14.3886 12.3687 14.5326 12.1887 14.7126 12.0951C14.8926 12.0015 15.1086 11.9799 15.3102 11.9871C15.8574 12.0159 16.383 12.2751 16.7646 12.6639C17.1462 13.0527 17.3838 13.5711 17.4774 14.1111C17.5278 14.4279 17.5494 15.7815 17.0526 15.8607C16.887 15.8895 16.4118 14.6871 16.2102 14.4639Z" fill="#343A3F"/>
<path d="M20.5232 14.2982C20.948 13.9814 21.4448 13.7654 21.9344 13.5566C22.28 13.4054 22.6832 13.1894 22.7048 12.8078C22.7192 12.6062 22.6112 12.4046 22.4456 12.275C22.2872 12.1454 22.0784 12.0806 21.8768 12.0518C21.3368 11.9726 20.768 12.1238 20.3216 12.4334C19.868 12.743 19.5368 13.2038 19.3352 13.715C19.22 14.0174 18.9392 15.3422 19.4144 15.515C19.58 15.5654 20.2856 14.4782 20.5232 14.2982Z" fill="#343A3F"/>
<path d="M20.0625 28.5542C20.0625 28.439 20.0625 28.3742 19.9905 28.2806C19.8825 28.1366 19.7097 28.115 19.5513 28.1582C18.7089 28.403 17.8737 28.2302 17.0601 27.9854C16.9737 27.9638 16.8801 28.0502 16.9449 28.1294C17.6217 28.943 18.7521 29.1158 19.7385 28.871C19.8825 28.8422 20.0553 28.727 20.0625 28.5542Z" fill="#982A44"/>
<path d="M23.8568 27.5895C23.8568 27.5895 23.4968 22.0023 18.3848 21.9519C13.2728 21.8943 12.4448 27.0423 12.4448 27.0423C12.4448 27.0423 15.08 26.3727 18.1904 26.3655C21.3008 26.3583 23.8568 27.5895 23.8568 27.5895Z" fill="white"/>
<path d="M24.0728 27.5895C24.0296 26.9415 23.864 26.2863 23.6552 25.6743C23.2232 24.4431 22.4816 23.2983 21.3728 22.5711C19.9184 21.6207 17.9384 21.4983 16.3112 22.0239C14.9216 22.4703 13.8056 23.4639 13.0856 24.7167C12.6968 25.3935 12.3728 26.1639 12.236 26.9415C12.236 26.9559 12.2288 26.9703 12.2288 26.9775C12.2 27.1431 12.3224 27.2943 12.5024 27.2511C13.7696 26.9271 15.0872 26.7543 16.3832 26.6535C17.528 26.5671 18.6872 26.5383 19.8248 26.6895C20.7392 26.8047 21.6392 27.0207 22.5104 27.3087C22.9352 27.4455 23.36 27.5967 23.7416 27.7839C23.9936 27.9063 24.2168 27.5247 23.9648 27.4023C22.8272 26.8551 21.56 26.5239 20.3216 26.3223C18.1832 25.9767 15.9656 26.1711 13.8416 26.5311C13.352 26.6175 12.8624 26.7039 12.3872 26.8263C12.4808 26.9199 12.5672 27.0063 12.6608 27.0999C12.7544 26.5095 12.9776 25.9191 13.2368 25.3791C13.7984 24.2199 14.6768 23.2335 15.8576 22.6791C17.3336 21.9879 19.2776 21.9591 20.7392 22.7151C21.8624 23.2911 22.6544 24.3279 23.1152 25.4799C23.3096 25.9623 23.4536 26.4663 23.5544 26.9775C23.6048 27.2439 23.6264 27.3447 23.6408 27.5895C23.6552 27.8703 24.0944 27.8703 24.0728 27.5895Z" fill="#343A3F"/>
<path d="M13.2582 25.1126C14.4174 24.7598 15.6486 24.5726 16.851 24.5078C18.6654 24.407 20.4942 24.7094 22.2366 25.2206C22.5822 25.3214 22.9278 25.4294 23.2662 25.559C23.475 25.6454 23.5686 25.2998 23.3598 25.2206C22.359 24.8246 21.2862 24.5798 20.2278 24.3926C19.2198 24.2126 18.1902 24.1118 17.1678 24.1406C16.275 24.1694 15.3822 24.2846 14.511 24.4574C14.0574 24.5438 13.6038 24.6446 13.1646 24.7814C12.9486 24.839 13.0422 25.1774 13.2582 25.1126Z" fill="#343A3F"/>
</svg>
