<svg width="37" height="36" viewBox="0 0 37 36" fill="none" xmlns="http://www.w3.org/2000/svg">
<path d="M20.2135 8.58859C20.1991 8.24299 20.2639 7.90459 20.5015 7.70299C21.3727 6.97579 22.0279 6.74539 21.7615 6.37819C21.4951 6.01099 20.2711 5.99659 20.0695 5.80219C19.8679 5.60059 20.5663 4.17499 20.0335 3.90139C19.5007 3.62779 18.4351 5.57179 17.8015 5.57179C17.1679 5.57179 16.6639 3.77179 16.1311 4.04539C15.5983 4.31899 15.7279 5.60779 15.5263 5.80939C15.3247 6.01099 13.7623 5.27659 13.4959 5.64379C13.2295 6.01099 14.1295 6.70939 15.0943 7.29979C15.5047 7.55179 15.5623 8.03419 15.5047 8.51659C8.88069 9.42379 3.80469 14.5574 3.80469 20.7494C3.80469 27.575 9.98229 33.119 17.5999 33.119C25.2175 33.119 31.3951 27.575 31.3951 20.7422C31.3951 14.7086 26.5783 9.68299 20.2135 8.58859Z" fill="#BE3455"/>
<path d="M20.2136 8.58864C20.2136 8.58144 20.0984 8.63904 20.084 8.63904C24.6992 10.5326 29.4008 14.903 29.732 20.2166C30.0488 25.2494 26.24 29.8286 22.2872 32.3846C27.5936 30.6638 31.388 26.099 31.388 20.7422C31.3952 14.7086 26.5784 9.68304 20.2136 8.58864Z" fill="#982A44"/>
<path d="M9.47104 13.7294C7.99504 13.5062 6.13024 15.587 5.77744 16.271C5.42464 16.955 5.33104 19.3094 6.47584 19.5326C7.62064 19.7558 9.45664 18.4958 10.5294 16.955C11.6022 15.4142 10.4646 13.8878 9.47104 13.7294Z" fill="#EF8595"/>
<path d="M6.19502 21.2318C5.19422 21.3326 5.14382 24.0182 6.35342 23.7806C7.55582 23.5358 7.19582 21.131 6.19502 21.2318Z" fill="#EF8595"/>
<path d="M22.1825 22.8522C23.8373 22.7475 25.0837 21.1602 24.9664 19.3069C24.8491 17.4536 23.4125 16.0361 21.7576 16.1409C20.1028 16.2456 18.8563 17.833 18.9736 19.6862C19.091 21.5395 20.5276 22.957 22.1825 22.8522Z" fill="#982A44"/>
<path d="M22.1588 22.558C23.5716 22.4686 24.6357 21.1125 24.5354 19.529C24.4352 17.9456 23.2086 16.7345 21.7959 16.8239C20.3831 16.9133 19.319 18.2695 19.4193 19.8529C19.5195 21.4363 20.746 22.6475 22.1588 22.558Z" fill="white"/>
<path d="M22.0869 21.4227C22.9401 21.3687 23.5827 20.5496 23.5222 19.5932C23.4616 18.6367 22.7209 17.9052 21.8677 17.9592C21.0144 18.0132 20.3718 18.8323 20.4324 19.7887C20.4929 20.7451 21.2337 21.4767 22.0869 21.4227Z" fill="#982A44"/>
<path d="M22.0583 20.97C22.6893 20.9301 23.1646 20.325 23.1199 19.6186C23.0752 18.9123 22.5274 18.372 21.8964 18.4119C21.2654 18.4519 20.7902 19.0569 20.8349 19.7633C20.8796 20.4697 21.4274 21.0099 22.0583 20.97Z" fill="#D25C78"/>
<path d="M22.0259 20.4598C22.4069 20.4356 22.694 20.0719 22.6671 19.6472C22.6402 19.2226 22.3096 18.8979 21.9286 18.922C21.5476 18.9461 21.2606 19.3099 21.2874 19.7346C21.3143 20.1592 21.6449 20.4839 22.0259 20.4598Z" fill="#553F16"/>
<path d="M23.3739 19.841C23.6874 19.8211 23.9255 19.5509 23.9056 19.2374C23.8858 18.9239 23.6156 18.6858 23.302 18.7056C22.9885 18.7255 22.7505 18.9957 22.7703 19.3092C22.7902 19.6228 23.0604 19.8608 23.3739 19.841Z" fill="white"/>
<path d="M13.2186 23.4211C14.8734 23.3163 16.1199 21.729 16.0026 19.8757C15.8853 18.0225 14.4486 16.605 12.7938 16.7097C11.1389 16.8145 9.89246 18.4018 10.0098 20.2551C10.1271 22.1084 11.5637 23.5258 13.2186 23.4211Z" fill="#982A44"/>
<path d="M13.2023 23.1269C14.6151 23.0374 15.6791 21.6813 15.5789 20.0979C15.4787 18.5145 14.2521 17.3033 12.8393 17.3928C11.4265 17.4822 10.3625 18.8383 10.4627 20.4217C10.563 22.0052 11.7895 23.2163 13.2023 23.1269Z" fill="white"/>
<path d="M13.1304 21.9915C13.9836 21.9375 14.6262 21.1184 14.5656 20.162C14.5051 19.2056 13.7643 18.4741 12.9111 18.5281C12.0579 18.5821 11.4153 19.4012 11.4758 20.3576C11.5364 21.314 12.2771 22.0455 13.1304 21.9915Z" fill="#982A44"/>
<path d="M13.1013 21.5389C13.7323 21.4989 14.2076 20.8939 14.1629 20.1875C14.1181 19.4811 13.5704 18.9408 12.9394 18.9808C12.3084 19.0207 11.8331 19.6257 11.8778 20.3321C11.9226 21.0385 12.4703 21.5788 13.1013 21.5389Z" fill="#D25C78"/>
<path d="M13.0694 21.0286C13.4504 21.0045 13.7374 20.6407 13.7105 20.2161C13.6837 19.7914 13.353 19.4668 12.972 19.4909C12.5911 19.515 12.304 19.8788 12.3309 20.3034C12.3578 20.728 12.6884 21.0527 13.0694 21.0286Z" fill="#553F16"/>
<path d="M14.41 20.4026C14.7235 20.3828 14.9616 20.1125 14.9418 19.799C14.9219 19.4855 14.6517 19.2474 14.3382 19.2673C14.0247 19.2871 13.7866 19.5574 13.8064 19.8709C13.8263 20.1844 14.0965 20.4225 14.41 20.4026Z" fill="white"/>
<path d="M21.0057 13.6574C20.6385 13.6286 20.1993 13.6358 20.0049 13.9454C19.8969 14.111 19.9041 14.3342 19.9833 14.5214C20.0625 14.7086 20.2065 14.8526 20.3649 14.9678C20.7897 15.2774 21.3441 15.407 21.8697 15.3422C22.3953 15.2774 25.1385 14.6222 24.4473 14.2766C23.7777 13.9382 21.5169 13.6934 21.0057 13.6574Z" fill="#343A3F"/>
<path d="M13.7623 14.2765C14.1295 14.2549 14.5687 14.2765 14.7559 14.5933C14.8567 14.7661 14.8495 14.9893 14.7631 15.1693C14.6767 15.3493 14.5327 15.4933 14.3671 15.6085C13.9351 15.9109 13.3807 16.0189 12.8551 15.9469C12.3295 15.8749 9.60075 15.1549 10.2991 14.8237C10.9831 14.4997 13.2511 14.3053 13.7623 14.2765Z" fill="#343A3F"/>
<path d="M21.7328 25.7174C21.2504 25.451 20.7176 25.4078 20.1776 25.4078C19.7024 25.4078 19.22 25.4582 18.7592 25.5806C17.852 25.8182 16.9736 26.1422 16.0448 26.2934C15.764 26.3366 15.476 26.3582 15.188 26.3726C15.008 26.3798 14.8208 26.3798 14.6408 26.3726C14.3888 26.3654 14.2232 26.3942 14.0288 26.567C13.8848 26.6966 13.9064 26.927 14.0288 27.0638C14.288 27.3446 14.6696 27.2942 15.0224 27.2798C15.3392 27.2654 15.6488 27.2366 15.9656 27.1934C16.4552 27.1214 16.9376 27.0062 17.4056 26.8622C18.2624 26.5958 19.1048 26.2502 19.9832 26.063C20.5592 25.9406 21.1496 25.955 21.7256 25.8398C21.7688 25.8182 21.776 25.739 21.7328 25.7174Z" fill="#343A3F"/>
<path d="M18.6293 27.3374C18.6149 27.3014 18.6077 27.287 18.5717 27.2654C18.5213 27.2366 18.4709 27.251 18.4277 27.287C18.2117 27.4598 17.9453 27.5174 17.6717 27.5462C17.6429 27.5462 17.6285 27.5894 17.6573 27.6038C17.9597 27.7622 18.3125 27.6686 18.5717 27.4742C18.6149 27.4454 18.6509 27.3878 18.6293 27.3374Z" fill="#982A44"/>
<path d="M20.6743 8.13503C20.7247 7.95503 20.7535 7.76783 20.8183 7.59503C21.0343 7.02623 21.4303 6.61583 21.9919 6.37823C22.0783 6.34223 22.0999 6.30623 22.0783 6.20543C21.7903 4.79423 23.0215 3.48383 24.4471 3.67823C24.6487 3.70703 24.8359 3.77903 25.0375 3.82943C25.0735 3.83663 25.1383 3.82943 25.1527 3.80783C25.5343 3.28943 26.0383 2.97983 26.6791 2.89343C26.6935 2.89343 26.7007 2.88623 26.7151 2.87903C26.8663 2.87903 27.0103 2.87903 27.1543 2.87903C27.3991 2.95103 27.6583 3.00863 27.8959 3.10943C28.2271 3.24623 28.4863 3.48383 28.6879 3.77903C28.7383 3.85103 28.7743 3.85823 28.8535 3.82223C30.1351 3.29663 31.5391 4.06703 31.7983 5.42063C31.8487 5.67983 31.8487 5.94623 31.7911 6.20543C31.7767 6.27743 31.7767 6.32063 31.8631 6.35663C32.6191 6.68063 33.0583 7.25663 33.1879 8.07023C33.1879 8.09183 33.2023 8.10623 33.2095 8.12783C33.2095 8.27903 33.2095 8.42303 33.2095 8.56703C33.2023 8.58143 33.1951 8.59583 33.1951 8.61023C33.0727 9.40943 32.6479 9.97823 31.9135 10.3238C31.8775 10.3382 31.8487 10.3958 31.8415 10.439C31.8271 10.5614 31.8271 10.6838 31.8127 10.799C31.6759 11.9294 30.5671 12.7862 29.4367 12.6278C29.2351 12.599 29.0407 12.5414 28.8391 12.4982C28.8319 12.5126 28.8247 12.527 28.8103 12.5414C27.9607 13.9742 25.9519 13.9886 25.0951 12.563C25.0447 12.491 25.0087 12.491 24.9367 12.5126C23.5183 13.0238 22.0351 11.9726 22.0567 10.4678C22.0567 10.3742 22.0351 10.331 21.9487 10.295C21.3943 10.0358 21.0055 9.61823 20.8039 9.04223C20.7535 8.88383 20.7175 8.71823 20.6815 8.55983C20.6743 8.42303 20.6743 8.27903 20.6743 8.13503ZM24.9799 12.0734C25.1671 11.9798 25.2463 12.0086 25.3399 12.1958C25.6639 12.8582 26.2039 13.2254 26.9383 13.2254C27.6727 13.2254 28.2127 12.8654 28.5367 12.1958C28.6303 12.0086 28.7095 11.9798 28.8967 12.0734C30.1135 12.6566 31.4815 11.7638 31.4311 10.4174C31.4167 10.0934 31.4167 10.0934 31.7119 9.97103C32.4103 9.67583 32.8423 8.98463 32.7991 8.23583C32.7559 7.50863 32.2519 6.87503 31.5391 6.65903C31.3303 6.59423 31.2943 6.52943 31.3519 6.32063C31.5607 5.62943 31.3375 4.88783 30.7831 4.43423C30.2287 3.98063 29.4655 3.91583 28.8319 4.25423C28.6447 4.35503 28.5655 4.33343 28.4575 4.14623C28.1119 3.57743 27.6079 3.26063 26.9383 3.26063C26.2687 3.26063 25.7575 3.57023 25.4047 4.14623C25.2895 4.34063 25.2175 4.36223 25.0231 4.25423C24.3967 3.91583 23.6335 3.98783 23.0863 4.43423C22.5319 4.88783 22.3087 5.60783 22.5103 6.29183C22.5823 6.53663 22.5463 6.58703 22.3087 6.65903C21.6031 6.87503 21.0991 7.53023 21.0703 8.26463C21.0415 9.02783 21.4951 9.71903 22.2007 9.97823C22.4599 10.079 22.4599 10.079 22.4383 10.3598C22.3519 11.375 23.1583 12.2462 24.1879 12.2534C24.4615 12.2678 24.7279 12.203 24.9799 12.0734Z" fill="#343A3F"/>
<path d="M22.4381 10.3814C22.4597 10.1006 22.4597 10.1006 22.2005 9.99983C21.4949 9.73343 21.0413 9.04943 21.0701 8.28623C21.0917 7.55183 21.6029 6.89663 22.3085 6.68063C22.5533 6.60863 22.5821 6.55103 22.5101 6.31343C22.3085 5.62943 22.5389 4.90223 23.0861 4.45583C23.6333 4.00943 24.3965 3.93743 25.0229 4.27583C25.2245 4.38383 25.2893 4.36223 25.4045 4.16783C25.7501 3.59183 26.2613 3.28223 26.9381 3.28223C27.6077 3.28223 28.1117 3.59183 28.4573 4.16783C28.5653 4.35503 28.6445 4.37663 28.8317 4.27583C29.4725 3.93743 30.2285 4.00223 30.7829 4.45583C31.3373 4.90943 31.5605 5.64383 31.3517 6.34223C31.2869 6.55103 31.3301 6.61583 31.5389 6.68063C32.2517 6.88943 32.7557 7.52303 32.7989 8.25743C32.8421 9.01343 32.4173 9.69743 31.7117 9.99263C31.4165 10.115 31.4165 10.115 31.4309 10.439C31.4813 11.7854 30.1133 12.6782 28.8965 12.095C28.7093 12.0014 28.6301 12.0302 28.5365 12.2174C28.2125 12.8798 27.6725 13.247 26.9381 13.247C26.1965 13.247 25.6637 12.887 25.3397 12.2174C25.2461 12.0302 25.1669 12.0014 24.9797 12.095C24.7277 12.2174 24.4685 12.2822 24.1877 12.2822C23.1581 12.2678 22.3517 11.3894 22.4381 10.3814Z" fill="white"/>
<path d="M28.825 8.80461C29.1272 8.80461 29.3722 8.55962 29.3722 8.2574C29.3722 7.95519 29.1272 7.71021 28.825 7.71021C28.5228 7.71021 28.2778 7.95519 28.2778 8.2574C28.2778 8.55962 28.5228 8.80461 28.825 8.80461Z" fill="#343A3F"/>
<path d="M26.9383 8.80461C27.2405 8.80461 27.4855 8.55962 27.4855 8.2574C27.4855 7.95519 27.2405 7.71021 26.9383 7.71021C26.6361 7.71021 26.3911 7.95519 26.3911 8.2574C26.3911 8.55962 26.6361 8.80461 26.9383 8.80461Z" fill="#343A3F"/>
<path d="M25.0521 8.80461C25.3543 8.80461 25.5993 8.55962 25.5993 8.2574C25.5993 7.95519 25.3543 7.71021 25.0521 7.71021C24.7499 7.71021 24.5049 7.95519 24.5049 8.2574C24.5049 8.55962 24.7499 8.80461 25.0521 8.80461Z" fill="#343A3F"/>
<path d="M20.1561 12.0302C20.5219 12.0302 20.8185 11.7337 20.8185 11.3678C20.8185 11.002 20.5219 10.7054 20.1561 10.7054C19.7902 10.7054 19.4937 11.002 19.4937 11.3678C19.4937 11.7337 19.7902 12.0302 20.1561 12.0302Z" fill="white"/>
<path d="M20.1559 12.2102C19.6879 12.2102 19.3135 11.8358 19.3135 11.3678C19.3135 10.8998 19.6879 10.5254 20.1559 10.5254C20.6239 10.5254 20.9983 10.8998 20.9983 11.3678C20.9983 11.8358 20.6239 12.2102 20.1559 12.2102ZM20.1559 10.8854C19.8895 10.8854 19.6735 11.1014 19.6735 11.3678C19.6735 11.6342 19.8895 11.8502 20.1559 11.8502C20.4223 11.8502 20.6383 11.6342 20.6383 11.3678C20.6383 11.1014 20.4223 10.8854 20.1559 10.8854Z" fill="#343A3F"/>
<path d="M18.7375 13.2614C18.996 13.2614 19.2055 13.0519 19.2055 12.7934C19.2055 12.535 18.996 12.3254 18.7375 12.3254C18.4791 12.3254 18.2695 12.535 18.2695 12.7934C18.2695 13.0519 18.4791 13.2614 18.7375 13.2614Z" fill="white"/>
<path d="M18.7374 13.4414C18.3774 13.4414 18.0894 13.1534 18.0894 12.7934C18.0894 12.4334 18.3774 12.1454 18.7374 12.1454C19.0974 12.1454 19.3854 12.4334 19.3854 12.7934C19.3854 13.1534 19.0974 13.4414 18.7374 13.4414ZM18.7374 12.5054C18.579 12.5054 18.4494 12.635 18.4494 12.7934C18.4494 12.9518 18.579 13.0814 18.7374 13.0814C18.8958 13.0814 19.0254 12.9518 19.0254 12.7934C19.0254 12.635 18.8958 12.5054 18.7374 12.5054Z" fill="#343A3F"/>
</svg>
