<svg width="37" height="36" viewBox="0 0 37 36" fill="none" xmlns="http://www.w3.org/2000/svg">
<path d="M21.2 7.75346C21.1856 7.39346 21.2504 7.04786 21.5024 6.83906C22.4024 6.09026 23.0864 5.85266 22.8056 5.47106C22.532 5.08946 21.2648 5.08226 21.056 4.87346C20.8472 4.66466 21.5672 3.18866 21.02 2.90786C20.4656 2.62706 19.364 4.62866 18.7088 4.62866C18.0536 4.62866 17.5352 2.76386 16.9808 3.05186C16.4264 3.33266 16.5632 4.66466 16.3544 4.87346C16.1456 5.08226 14.5256 4.31906 14.252 4.70066C13.9784 5.08226 14.9072 5.80226 15.908 6.41426C16.3328 6.67346 16.3976 7.17746 16.3328 7.66706C9.48562 8.60306 4.23682 13.9095 4.23682 20.3175C4.23682 27.3879 10.6232 33.1191 18.5 33.1191C26.3768 33.1191 32.7632 27.3879 32.7632 20.3175C32.7632 14.0823 27.788 8.88386 21.2 7.75346Z" fill="#BE3455"/>
<path d="M21.1999 7.75343C21.1999 7.74623 21.0847 7.80383 21.0703 7.81103C25.8439 9.76223 30.7039 14.2838 31.0495 19.7774C31.3807 24.9758 27.4423 29.7206 23.3527 32.363C28.8463 30.5846 32.7631 25.8614 32.7631 20.3246C32.7631 14.0822 27.7879 8.88383 21.1999 7.75343Z" fill="#982A44"/>
<path d="M13.0567 10.6191C11.1991 9.92786 8.20391 12.1455 7.56311 12.9375C6.91511 13.7295 6.17351 16.7751 7.59911 17.3727C9.02471 17.9703 11.7679 16.8183 13.5751 15.0975C15.3823 13.3767 14.3167 11.0799 13.0567 10.6191Z" fill="#EF8595"/>
<path d="M6.77847 19.511C5.44647 19.3742 4.66887 22.859 6.30327 22.8734C7.93767 22.8878 8.11047 19.655 6.77847 19.511Z" fill="#EF8595"/>
<path d="M23.2341 20.7426C24.9446 20.6343 26.2328 18.9927 26.1114 17.0759C25.9901 15.1591 24.5052 13.693 22.7947 13.8013C21.0843 13.9095 19.7961 15.5512 19.9174 17.468C20.0388 19.3847 21.5237 20.8508 23.2341 20.7426Z" fill="#982A44"/>
<path d="M23.2164 20.4338C24.6768 20.3414 25.7768 18.941 25.6733 17.306C25.5698 15.671 24.302 14.4205 22.8416 14.5129C21.3812 14.6054 20.2812 16.0057 20.3847 17.6408C20.4882 19.2758 21.756 20.5263 23.2164 20.4338Z" fill="white"/>
<path d="M23.142 19.2626C24.023 19.2068 24.6865 18.3606 24.624 17.3724C24.5614 16.3843 23.7965 15.6284 22.9155 15.6842C22.0345 15.7399 21.371 16.5862 21.4336 17.5744C21.4961 18.5625 22.261 19.3184 23.142 19.2626Z" fill="#982A44"/>
<path d="M23.1124 18.7955C23.7633 18.7543 24.2534 18.129 24.2072 17.3988C24.1609 16.6686 23.5959 16.11 22.945 16.1512C22.2942 16.1924 21.8041 16.8178 21.8503 17.548C21.8965 18.2782 22.4616 18.8367 23.1124 18.7955Z" fill="#D25C78"/>
<path d="M23.0794 18.271C23.4723 18.2461 23.7682 17.8689 23.7403 17.4284C23.7124 16.9879 23.3713 16.6509 22.9785 16.6758C22.5856 16.7007 22.2897 17.0779 22.3176 17.5184C22.3455 17.9589 22.6866 18.2959 23.0794 18.271Z" fill="#553F16"/>
<path d="M24.4697 17.6232C24.7911 17.6028 25.0352 17.3258 25.0149 17.0043C24.9945 16.6829 24.7174 16.4388 24.396 16.4591C24.0746 16.4795 23.8305 16.7566 23.8508 17.078C23.8712 17.3995 24.1482 17.6435 24.4697 17.6232Z" fill="white"/>
<path d="M13.9675 21.3257C15.678 21.2174 16.9662 19.5758 16.8448 17.659C16.7235 15.7422 15.2386 14.2761 13.5281 14.3844C11.8177 14.4927 10.5295 16.1343 10.6508 18.0511C10.7722 19.9679 12.2571 21.434 13.9675 21.3257Z" fill="#982A44"/>
<path d="M13.9498 21.017C15.4102 20.9245 16.5102 19.5241 16.4067 17.8891C16.3032 16.2541 15.0354 15.0036 13.575 15.096C12.1146 15.1885 11.0146 16.5889 11.1181 18.2239C11.2216 19.8589 12.4894 21.1094 13.9498 21.017Z" fill="white"/>
<path d="M13.8754 19.8457C14.7564 19.79 15.4199 18.9437 15.3574 17.9555C15.2948 16.9674 14.5299 16.2115 13.6489 16.2673C12.7679 16.3231 12.1044 17.1693 12.167 18.1575C12.2295 19.1457 12.9944 19.9015 13.8754 19.8457Z" fill="#982A44"/>
<path d="M13.8458 19.3787C14.4967 19.3375 14.9868 18.7121 14.9406 17.9819C14.8943 17.2517 14.3293 16.6932 13.6784 16.7344C13.0276 16.7756 12.5375 17.4009 12.5837 18.1311C12.6299 18.8613 13.195 19.4199 13.8458 19.3787Z" fill="#D25C78"/>
<path d="M13.8128 18.8541C14.2057 18.8293 14.5016 18.452 14.4737 18.0115C14.4458 17.571 14.1047 17.2341 13.7119 17.2589C13.319 17.2838 13.0231 17.6611 13.051 18.1016C13.0789 18.5421 13.42 18.879 13.8128 18.8541Z" fill="#553F16"/>
<path d="M15.1958 18.2068C15.5172 18.1865 15.7613 17.9094 15.7409 17.5879C15.7206 17.2665 15.4435 17.0224 15.1221 17.0427C14.8006 17.0631 14.5565 17.3402 14.5769 17.6616C14.5972 17.9831 14.8743 18.2272 15.1958 18.2068Z" fill="white"/>
<path d="M12.488 12.0951C12.9992 11.9367 13.46 11.6631 13.9208 11.3895C14.2448 11.1951 14.6624 11.0079 14.9792 11.2095C15.152 11.3175 15.2528 11.5263 15.26 11.7351C15.2672 11.9439 15.2024 12.1455 15.1088 12.3255C14.8568 12.8079 14.396 13.1751 13.8848 13.3551C13.3664 13.5351 12.7976 13.5351 12.272 13.3911C11.9624 13.3047 10.724 12.7503 10.868 12.2679C10.904 12.1095 12.2 12.1815 12.488 12.0951Z" fill="#343A3F"/>
<path d="M23.7273 11.5262C23.2161 11.3822 22.7409 11.123 22.2729 10.8638C21.9417 10.6838 21.5241 10.5038 21.2073 10.7126C21.0345 10.8278 20.9481 11.0366 20.9409 11.2454C20.9409 11.4542 21.0129 11.6486 21.1137 11.8286C21.3801 12.3038 21.8481 12.6566 22.3665 12.8222C22.8849 12.9878 23.4609 12.9734 23.9793 12.815C24.2889 12.7214 25.5057 12.131 25.3545 11.6486C25.3113 11.4902 24.0225 11.6054 23.7273 11.5262Z" fill="#343A3F"/>
<path d="M20.0407 27.4311C20.0263 27.3951 20.0191 27.3735 19.9831 27.3591C19.9327 27.3303 19.8751 27.3447 19.8319 27.3807C19.6087 27.5607 19.3351 27.6183 19.0543 27.6471C19.0255 27.6471 19.0039 27.6903 19.0399 27.7047C19.3495 27.8631 19.7167 27.7695 19.9831 27.5679C20.0263 27.5391 20.0623 27.4815 20.0407 27.4311Z" fill="#982A44"/>
<path d="M18.6726 26.7039C19.6031 26.7039 20.3574 25.8754 20.3574 24.8535C20.3574 23.8315 19.6031 23.0031 18.6726 23.0031C17.7421 23.0031 16.9878 23.8315 16.9878 24.8535C16.9878 25.8754 17.7421 26.7039 18.6726 26.7039Z" fill="#343A3F"/>
</svg>
