<svg width="37" height="36" viewBox="0 0 37 36" fill="none" xmlns="http://www.w3.org/2000/svg">
<path d="M21.7615 9.0207C21.7471 8.6679 21.8119 8.3295 22.0567 8.1207C22.9423 7.3863 23.6047 7.1559 23.3383 6.7815C23.0647 6.4071 21.8263 6.3999 21.6247 6.1983C21.4231 5.9967 22.1287 4.5495 21.5887 4.2759C21.0487 3.9951 19.9687 5.9679 19.3207 5.9679C18.6799 5.9679 18.1687 4.1463 17.6287 4.4199C17.0887 4.7007 17.2255 6.0039 17.0167 6.2055C16.8079 6.4071 15.2311 5.6655 14.9575 6.0399C14.6839 6.4143 15.5983 7.1199 16.5775 7.7175C16.9879 7.9695 17.0527 8.4591 16.9879 8.9487C10.2775 9.8703 5.13672 15.0687 5.13672 21.3399C5.13672 28.2663 11.3935 33.8751 19.1119 33.8751C26.8303 33.8751 33.0871 28.2591 33.0871 21.3399C33.0943 15.2199 28.2127 10.1295 21.7615 9.0207Z" fill="#BE3455"/>
<path d="M21.7614 9.02064C21.7614 9.01344 21.6462 9.07104 21.6318 9.07824C26.3118 10.9934 31.071 15.4142 31.4094 20.7998C31.7334 25.8974 27.8742 30.5342 23.871 33.1262C29.2494 31.3838 33.0942 26.7614 33.0942 21.3326C33.0942 15.2198 28.2126 10.1294 21.7614 9.02064Z" fill="#982A44"/>
<path d="M10.8826 14.2336C9.3922 14.0032 7.4986 16.1128 7.1386 16.804C6.7786 17.4952 6.685 19.8784 7.8442 20.1088C9.0034 20.332 10.8682 19.0576 11.9554 17.5024C13.0426 15.9472 11.8978 14.3848 10.8826 14.2336Z" fill="#EF8595"/>
<path d="M7.56323 21.8296C6.54803 21.9304 6.49764 24.652 7.72164 24.4072C8.94564 24.1624 8.57843 21.7288 7.56323 21.8296Z" fill="#EF8595"/>
<path d="M21.6678 17.2143C21.3006 17.1999 20.8542 17.2287 20.667 17.5455C20.5662 17.7183 20.5806 17.9415 20.667 18.1287C20.7534 18.3159 20.9046 18.4527 21.0774 18.5679C21.5238 18.8703 22.0854 18.9711 22.611 18.8847C23.1366 18.7983 25.8942 18.0279 25.1814 17.7039C24.483 17.3943 22.1862 17.2359 21.6678 17.2143Z" fill="#343A3F"/>
<path d="M16.0589 17.3294C16.4261 17.2934 16.8725 17.3006 17.0741 17.6102C17.1821 17.783 17.1821 18.0062 17.1029 18.1934C17.0237 18.3806 16.8797 18.5318 16.7213 18.647C16.2965 18.971 15.7349 19.1006 15.2021 19.043C14.6693 18.9854 11.8829 18.3518 12.5813 17.999C13.2581 17.6462 15.5405 17.3726 16.0589 17.3294Z" fill="#343A3F"/>
<path d="M23.3167 27.539C22.9279 27.143 22.4239 26.9414 21.8983 26.783C21.4375 26.639 20.9551 26.5527 20.4727 26.5311C19.5223 26.4951 18.5791 26.5527 17.6287 26.4231C17.3407 26.3871 17.0527 26.3223 16.7719 26.2503C16.5919 26.1999 16.4191 26.1494 16.2391 26.0918C16.0015 26.0126 15.8287 25.9911 15.5911 26.0991C15.4111 26.1855 15.3679 26.4159 15.4471 26.5815C15.6127 26.9271 16.0015 26.9919 16.3471 27.0783C16.6567 27.1575 16.9663 27.2222 17.2831 27.2726C17.7799 27.3518 18.2767 27.3735 18.7807 27.3735C19.6879 27.3663 20.6023 27.2798 21.5167 27.3518C22.1143 27.4022 22.6759 27.5894 23.2735 27.6398C23.3239 27.6398 23.3527 27.575 23.3167 27.539Z" fill="#343A3F"/>
<path d="M20.1634 28.0143C20.149 27.9783 20.1418 27.9639 20.1058 27.9423C20.0554 27.9135 20.005 27.9279 19.9618 27.9639C19.7458 28.1439 19.4722 28.1943 19.1986 28.2231C19.1698 28.2231 19.1554 28.2663 19.1842 28.2807C19.4866 28.4391 19.8466 28.3455 20.1058 28.1511C20.149 28.1151 20.185 28.0647 20.1634 28.0143Z" fill="#982A44"/>
<path d="M20.9696 21.1815C21.0128 21.1023 20.9696 21.0087 21.056 21.0447C22.8848 21.8511 25.6424 21.8871 27.2336 20.4975C27.248 20.4831 27.2696 20.5047 27.2696 20.5263C27.1616 21.1887 25.808 22.7943 24.5048 22.9023C22.0856 23.0967 20.7248 21.6063 20.9696 21.1815Z" fill="#982A44"/>
<path d="M17.0021 21.1959C16.9589 21.1167 17.0021 21.0231 16.9157 21.0591C15.0869 21.8583 12.3293 21.8871 10.7381 20.4903C10.7237 20.4759 10.7021 20.4975 10.7021 20.5191C10.8029 21.1815 12.1565 22.7943 13.4597 22.9023C15.8789 23.0967 17.2469 21.6207 17.0021 21.1959Z" fill="#982A44"/>
<path d="M14.7848 12.851L14.4032 11.1446V9.96385L14.7848 7.24225L13.8488 4.72945L11.732 3.01585L9.09675 2.52625L7.11675 3.69265C7.11675 3.69265 6.71355 3.61345 5.61915 5.09665C4.52475 6.57985 4.43115 8.17825 4.43115 8.17825L5.33115 11.2022L7.62075 12.743L9.87435 13.031L12.3368 12.3398L14.3744 13.031L14.7848 12.851Z" fill="white"/>
<path d="M12.8986 13.031C12.949 13.0814 13.165 13.1678 14.0506 13.4486C14.173 13.4918 14.3026 13.5062 14.4178 13.5062C14.677 13.5062 14.9434 13.427 15.109 13.283C15.2674 13.1534 15.3394 12.9806 15.3106 12.8006C15.2962 12.7214 15.2674 12.6422 15.2314 12.5198C15.1522 12.2606 14.9866 11.7854 14.7634 10.6982C14.6842 10.3094 14.8066 9.92064 14.9506 9.43104C15.1594 8.73984 15.4186 7.88304 15.2098 6.63024C14.9074 4.80144 13.6258 3.77904 13.3738 3.58464L13.3666 3.57744C12.4594 2.76384 11.3434 2.27424 10.1194 2.15184C8.90975 2.03664 7.70735 2.31024 6.66335 2.92944C6.44015 3.06624 6.31775 3.18864 6.28895 3.33264C6.26015 3.43344 6.28895 3.53424 6.34655 3.64224C6.53375 3.94464 6.82895 3.82944 7.10255 3.68544C8.82335 2.72064 10.501 2.74224 12.0922 3.73584C13.705 4.74384 14.4754 6.24864 14.3674 8.20704C14.3314 8.81904 14.1658 9.40224 13.8778 9.95664C13.6906 10.3166 13.669 10.655 13.8274 11.0222C14.0074 11.4542 14.1802 11.9006 14.3314 12.3326L14.3818 12.4838C14.3962 12.527 14.3962 12.5702 14.389 12.6278C14.389 12.635 14.389 12.6422 14.389 12.6422C14.3818 12.6422 14.3746 12.6422 14.3746 12.6422C14.3242 12.6422 14.2738 12.6494 14.2306 12.6278L14.0362 12.5558C13.6258 12.4046 13.201 12.2534 12.7978 12.0806C12.4378 11.9222 12.0922 11.9366 11.7106 12.1238C10.5082 12.7214 9.15455 12.7934 7.90895 12.3398C6.67775 11.8862 5.69855 10.9646 5.17295 9.74784C4.48895 8.15664 4.62575 6.59424 5.60495 5.11104C5.63375 5.06784 5.65535 5.03184 5.69135 4.98864C5.71295 4.95984 5.72735 4.93824 5.74175 4.91664C5.92895 4.65744 5.90735 4.39824 5.69135 4.24704C5.48255 4.08864 5.22335 4.15344 5.02895 4.40544C4.53935 5.05344 4.20095 5.77344 4.02815 6.53664C3.98495 6.70944 3.95615 6.89664 3.92735 7.06224C3.91295 7.14144 3.89855 7.22064 3.87695 7.30704V8.35104V8.37264C3.88415 8.39424 3.89135 8.40864 3.89135 8.42304C3.90575 8.45904 3.91295 8.48784 3.92015 8.52384C4.14335 10.3382 5.19455 11.9006 6.80735 12.8006C8.41295 13.6862 10.2706 13.7582 11.9194 12.9878C12.3514 12.7718 12.589 12.887 12.8986 13.031Z" fill="#343A3F"/>
<path d="M7.82959 9.37341L8.01679 11.2022L11.3288 11.3102V9.56061L7.82959 9.37341Z" fill="#BE3455"/>
<path d="M7.36182 6.15504V7.13424C7.36182 8.36544 7.36182 9.59664 7.36182 10.8278C7.36182 11.4326 7.70022 11.771 8.29782 11.7782C8.69382 11.7782 9.09702 11.7782 9.50022 11.7782C9.94662 11.7782 10.3786 11.7782 10.8106 11.7782H10.933C11.6026 11.7782 11.9194 11.4614 11.9194 10.7918C11.9194 9.24384 11.9194 7.69584 11.9194 6.14784C11.9194 5.50704 11.6818 5.22624 11.0626 5.11824C11.0626 5.06784 11.0626 5.01744 11.0626 4.95984C11.0626 4.80864 11.0626 4.66464 11.0626 4.52064C11.0554 3.96624 10.7242 3.63504 10.177 3.62784C9.83142 3.62064 9.48582 3.62064 9.09702 3.62784C8.54982 3.63504 8.21862 3.96624 8.20422 4.51344C8.20422 4.66464 8.20422 4.81584 8.20422 4.96704C8.20422 5.01744 8.20422 5.06064 8.20422 5.11104C7.57782 5.22624 7.36182 5.49264 7.36182 6.15504ZM9.09702 5.10384V4.51344H10.1914V5.10384H9.09702ZM8.24742 9.07104V6.00384H11.041V9.07104H8.24742ZM8.24022 10.8926V9.96384H11.041V10.8926H8.24022Z" fill="#343A3F"/>
</svg>
