<svg width="37" height="36" viewBox="0 0 37 36" fill="none" xmlns="http://www.w3.org/2000/svg">
<path d="M21.2 7.75346C21.1856 7.39346 21.2504 7.04786 21.5024 6.83906C22.4024 6.09026 23.0864 5.85266 22.8056 5.47106C22.532 5.08946 21.2648 5.08226 21.056 4.87346C20.8472 4.66466 21.5672 3.18866 21.02 2.90786C20.4656 2.62706 19.364 4.62866 18.7088 4.62866C18.0536 4.62866 17.5352 2.76386 16.9808 3.05186C16.4264 3.33266 16.5632 4.66466 16.3544 4.87346C16.1456 5.08226 14.5256 4.31906 14.252 4.70066C13.9784 5.08226 14.9072 5.80226 15.908 6.41426C16.3328 6.67346 16.3976 7.17746 16.3328 7.66706C9.48562 8.60306 4.23682 13.9095 4.23682 20.3175C4.23682 27.3879 10.6232 33.1191 18.5 33.1191C26.3768 33.1191 32.7632 27.3879 32.7632 20.3175C32.7632 14.0823 27.788 8.88386 21.2 7.75346Z" fill="#BE3455"/>
<path d="M21.1999 7.75343C21.1999 7.74623 21.0847 7.80383 21.0703 7.81103C25.8439 9.76223 30.7039 14.2838 31.0495 19.7774C31.3807 24.9758 27.4423 29.7206 23.3527 32.363C28.8463 30.5846 32.7631 25.8614 32.7631 20.3246C32.7631 14.0822 27.7879 8.88383 21.1999 7.75343Z" fill="#982A44"/>
<path d="M13.0567 10.6191C11.1991 9.92786 8.20391 12.1455 7.56311 12.9375C6.91511 13.7295 6.17351 16.7751 7.59911 17.3727C9.02471 17.9703 11.7679 16.8183 13.5751 15.0975C15.3823 13.3767 14.3167 11.0799 13.0567 10.6191Z" fill="#EF8595"/>
<path d="M6.77847 19.511C5.44647 19.3742 4.66887 22.859 6.30327 22.8734C7.93767 22.8878 8.11047 19.655 6.77847 19.511Z" fill="#EF8595"/>
<path d="M15.7066 16.8615H10.6162C10.2418 17.4807 10.0402 18.2367 10.0906 19.0503C10.1122 19.4103 10.1842 19.7487 10.2922 20.0655H16.117C16.2538 19.6263 16.3186 19.1511 16.2898 18.6615C16.2466 17.9919 16.0378 17.3727 15.7066 16.8615Z" fill="#982A44"/>
<path d="M14.958 16.8615H11.3868C10.8252 17.4447 10.5012 18.2943 10.5588 19.2159C10.5732 19.5111 10.6308 19.7919 10.7244 20.0583H15.7068C15.822 19.6911 15.8724 19.295 15.8508 18.8846C15.7932 18.0782 15.462 17.3655 14.958 16.8615Z" fill="white"/>
<path d="M11.8906 20.0655H14.533C14.6842 19.8063 14.785 19.5039 14.7994 19.1727C14.8066 19.1007 14.8066 19.0287 14.7994 18.9567C14.7778 18.6183 14.677 18.3087 14.5114 18.0495C14.2018 17.5455 13.6762 17.2359 13.093 17.2719C12.2146 17.3295 11.545 18.1719 11.6098 19.1583C11.6242 19.4895 11.7322 19.8063 11.8906 20.0655Z" fill="#982A44"/>
<path d="M12.4523 20.0654H13.9715C14.2019 19.8422 14.3531 19.5254 14.3747 19.1654C14.3819 19.1078 14.3819 19.043 14.3747 18.9854C14.3603 18.719 14.2667 18.4742 14.1299 18.2726C13.8995 17.927 13.5179 17.7182 13.1147 17.7398C12.4595 17.783 11.9771 18.4094 12.0203 19.1366C12.0419 19.5038 12.2075 19.835 12.4523 20.0654Z" fill="#D25C78"/>
<path d="M13.2513 19.8478C13.6442 19.8229 13.9401 19.4457 13.9122 19.0051C13.8843 18.5646 13.5432 18.2277 13.1503 18.2526C12.7575 18.2774 12.4616 18.6547 12.4895 19.0952C12.5173 19.5357 12.8584 19.8727 13.2513 19.8478Z" fill="#553F16"/>
<path d="M14.6347 19.2005C14.9562 19.1801 15.2003 18.903 15.1799 18.5816C15.1596 18.2601 14.8825 18.0161 14.561 18.0364C14.2396 18.0567 13.9955 18.3338 14.0158 18.6553C14.0362 18.9767 14.3133 19.2208 14.6347 19.2005Z" fill="white"/>
<path d="M26.0748 17.2935H20.9844C20.61 17.9127 20.4084 18.6687 20.4588 19.4823C20.4804 19.8423 20.5524 20.1807 20.6604 20.4975H26.4852C26.622 20.0583 26.6868 19.5831 26.658 19.0935C26.6076 18.4239 26.3988 17.8119 26.0748 17.2935Z" fill="#982A44"/>
<path d="M25.3262 17.2935H21.755C21.1934 17.8767 20.8694 18.7263 20.927 19.6479C20.9414 19.9431 20.999 20.2239 21.0926 20.4903H26.075C26.1902 20.1231 26.2406 19.7271 26.219 19.3167C26.1614 18.5175 25.823 17.8047 25.3262 17.2935Z" fill="white"/>
<path d="M22.2588 20.4975H24.9012C25.0524 20.2383 25.1532 19.9359 25.1676 19.6047C25.1748 19.5327 25.1748 19.4607 25.1676 19.3887C25.146 19.0503 25.0452 18.7407 24.8796 18.4815C24.57 17.9775 24.0444 17.6679 23.4612 17.7039C22.5828 17.7615 21.9132 18.6039 21.978 19.5903C21.9924 19.9287 22.1004 20.2383 22.2588 20.4975Z" fill="#982A44"/>
<path d="M22.8204 20.4974H24.3396C24.57 20.2742 24.7212 19.9574 24.7428 19.5974C24.75 19.5398 24.75 19.475 24.7428 19.4174C24.7284 19.151 24.6348 18.9062 24.498 18.7046C24.2676 18.359 23.886 18.1502 23.4828 18.1718C22.8276 18.215 22.3452 18.8414 22.3884 19.5686C22.41 19.943 22.5756 20.2742 22.8204 20.4974Z" fill="#D25C78"/>
<path d="M23.62 20.2869C24.0128 20.262 24.3087 19.8847 24.2809 19.4442C24.253 19.0037 23.9119 18.6668 23.519 18.6917C23.1261 18.7165 22.8302 19.0938 22.8581 19.5343C22.886 19.9748 23.2271 20.3117 23.62 20.2869Z" fill="#553F16"/>
<path d="M25.0029 19.6396C25.3243 19.6192 25.5684 19.3421 25.5481 19.0207C25.5277 18.6992 25.2506 18.4551 24.9292 18.4755C24.6078 18.4958 24.3637 18.7729 24.384 19.0944C24.4044 19.4158 24.6814 19.6599 25.0029 19.6396Z" fill="white"/>
<path d="M10.1987 19.9719C10.1123 20.0007 10.1987 20.1087 10.2923 20.1087C11.8475 20.1303 14.7131 19.8783 16.6211 20.3391C16.6427 20.3463 16.6787 20.3175 16.6571 20.3103C15.3827 19.5687 12.5963 19.1799 10.1987 19.9719Z" fill="#982A44"/>
<path d="M10.1986 16.8182C10.105 16.811 10.2058 16.7246 10.2922 16.6814C10.8466 16.3862 14.461 16.6022 16.4914 16.8758C16.513 16.8758 16.5922 16.9982 16.4626 16.9982C15.325 17.0342 12.6394 16.991 10.1986 16.8182Z" fill="#982A44"/>
<path d="M20.5381 20.3823C20.4517 20.4111 20.5381 20.5191 20.6317 20.5191C22.1869 20.5407 25.0525 20.2887 26.9605 20.7495C26.9821 20.7567 27.0181 20.7279 26.9965 20.7207C25.7149 19.9863 22.9357 19.5975 20.5381 20.3823Z" fill="#982A44"/>
<path d="M20.4947 17.351C20.4011 17.351 20.5019 17.2574 20.5811 17.2142C21.1211 16.8974 24.7499 16.9766 26.7803 17.1782C26.8019 17.1782 26.8883 17.2934 26.7587 17.3078C25.6211 17.3726 22.9355 17.4302 20.4947 17.351Z" fill="#982A44"/>
<path d="M21.8626 15.2126C21.3514 15.2054 20.7394 15.2342 20.5522 15.5006C20.4442 15.6446 20.509 15.8318 20.6602 15.983C20.8114 16.1342 21.049 16.2494 21.301 16.343C21.9706 16.5878 22.7626 16.667 23.4754 16.595C24.1882 16.5158 27.8386 15.8462 26.7946 15.587C25.7722 15.335 22.5826 15.227 21.8626 15.2126Z" fill="#343A3F"/>
<path d="M15.2383 15.0398C15.7567 15.0542 16.3759 15.1046 16.5631 15.3854C16.6639 15.5366 16.5919 15.731 16.4335 15.875C16.2751 16.019 16.0231 16.1342 15.7639 16.2134C15.0727 16.4366 14.2591 16.487 13.5391 16.379C12.8191 16.271 9.13267 15.4358 10.1983 15.2126C11.2495 15.0038 14.5039 15.0254 15.2383 15.0398Z" fill="#343A3F"/>
<path d="M24.8143 27.5822C24.8143 27.5822 21.9703 27.0206 17.9023 27.0206C13.4959 27.0206 11.9839 27.1646 11.9839 27.1646L24.8143 27.5822Z" fill="#343A3F"/>
<path d="M24.9078 27.2366C23.3454 26.927 21.7398 26.7974 20.1558 26.7182C17.7582 26.5958 15.3318 26.639 12.927 26.747C12.6102 26.7614 12.2934 26.7758 11.9838 26.8046C11.5302 26.8478 11.5158 27.5102 11.9838 27.5246C13.431 27.575 14.871 27.6182 16.3182 27.6686C18.6222 27.7478 20.9262 27.8198 23.2302 27.899C23.763 27.9134 24.2886 27.935 24.8214 27.9494C25.2822 27.9638 25.2822 27.2438 24.8214 27.2294C23.3742 27.179 21.9342 27.1358 20.487 27.0854C18.183 27.0062 15.879 26.9342 13.575 26.855C13.0422 26.8406 12.5166 26.819 11.9838 26.8046C11.9838 27.0422 11.9838 27.287 11.9838 27.5246C13.0206 27.431 14.079 27.4238 15.123 27.4022C17.8014 27.359 20.4726 27.3662 23.1366 27.6902C23.6694 27.755 24.2022 27.827 24.7278 27.9278C25.167 28.0142 25.3614 27.323 24.9078 27.2366Z" fill="#343A3F"/>
</svg>
