<svg width="37" height="36" viewBox="0 0 37 36" fill="none" xmlns="http://www.w3.org/2000/svg">
<path d="M21.2 7.75346C21.1856 7.39346 21.2504 7.04786 21.5024 6.83906C22.4024 6.09026 23.0864 5.85266 22.8056 5.47106C22.532 5.08946 21.2648 5.08226 21.056 4.87346C20.8472 4.66466 21.5672 3.18866 21.02 2.90786C20.4656 2.62706 19.364 4.62866 18.7088 4.62866C18.0536 4.62866 17.5352 2.76386 16.9808 3.05186C16.4264 3.33266 16.5632 4.66466 16.3544 4.87346C16.1456 5.08226 14.5256 4.31906 14.252 4.70066C13.9784 5.08226 14.9072 5.80226 15.908 6.41426C16.3328 6.67346 16.3976 7.17746 16.3328 7.66706C9.48562 8.60306 4.23682 13.9095 4.23682 20.3175C4.23682 27.3879 10.6232 33.1191 18.5 33.1191C26.3768 33.1191 32.7632 27.3879 32.7632 20.3175C32.7632 14.0823 27.788 8.88386 21.2 7.75346Z" fill="#BE3455"/>
<path d="M21.1999 7.75343C21.1999 7.74623 21.0847 7.80383 21.0703 7.81103C25.8439 9.76223 30.7039 14.2838 31.0495 19.7774C31.3807 24.9758 27.4423 29.7206 23.3527 32.363C28.8463 30.5846 32.7631 25.8614 32.7631 20.3246C32.7631 14.0822 27.7879 8.88383 21.1999 7.75343Z" fill="#982A44"/>
<path d="M13.0567 10.6191C11.1991 9.92786 8.20391 12.1455 7.56311 12.9375C6.91511 13.7295 6.17351 16.7751 7.59911 17.3727C9.02471 17.9703 11.7679 16.8183 13.5751 15.0975C15.3823 13.3767 14.3167 11.0799 13.0567 10.6191Z" fill="#EF8595"/>
<path d="M6.77847 19.511C5.44647 19.3742 4.66887 22.859 6.30327 22.8734C7.93767 22.8878 8.11047 19.655 6.77847 19.511Z" fill="#EF8595"/>
<path d="M14.1765 21.6209C15.8869 21.5126 17.1751 19.871 17.0538 17.9542C16.9325 16.0374 15.4476 14.5713 13.7371 14.6796C12.0267 14.7878 10.7385 16.4295 10.8598 18.3463C10.9812 20.263 12.4661 21.7291 14.1765 21.6209Z" fill="#982A44"/>
<path d="M14.1587 21.3121C15.6192 21.2197 16.7191 19.8193 16.6156 18.1843C16.5121 16.5493 15.2444 15.2988 13.7839 15.3912C12.3235 15.4837 11.2235 16.884 11.327 18.5191C11.4305 20.1541 12.6983 21.4046 14.1587 21.3121Z" fill="white"/>
<path d="M13.5517 20.71C14.4327 20.6542 15.0962 19.808 15.0336 18.8198C14.9711 17.8317 14.2062 17.0758 13.3252 17.1316C12.4442 17.1873 11.7807 18.0336 11.8432 19.0218C11.9058 20.0099 12.6707 20.7658 13.5517 20.71Z" fill="#982A44"/>
<path d="M13.5221 20.2429C14.1729 20.2017 14.6631 19.5764 14.6168 18.8462C14.5706 18.116 14.0055 17.5574 13.3547 17.5986C12.7039 17.6398 12.2137 18.2652 12.26 18.9954C12.3062 19.7256 12.8713 20.2841 13.5221 20.2429Z" fill="#D25C78"/>
<path d="M13.4891 19.7184C13.882 19.6935 14.1779 19.3163 14.15 18.8758C14.1221 18.4353 13.781 18.0983 13.3881 18.1232C12.9953 18.1481 12.6994 18.5253 12.7272 18.9658C12.7551 19.4063 13.0962 19.7433 13.4891 19.7184Z" fill="#553F16"/>
<path d="M14.8794 19.0707C15.2008 19.0504 15.4449 18.7733 15.4245 18.4518C15.4042 18.1304 15.1271 17.8863 14.8057 17.9066C14.4842 17.927 14.2401 18.2041 14.2605 18.5255C14.2808 18.847 14.5579 19.0911 14.8794 19.0707Z" fill="white"/>
<path d="M23.2483 21.6209C24.9587 21.5126 26.2469 19.871 26.1256 17.9542C26.0043 16.0374 24.5193 14.5713 22.8089 14.6796C21.0985 14.7878 19.8103 16.4295 19.9316 18.3463C20.0529 20.263 21.5379 21.7291 23.2483 21.6209Z" fill="#982A44"/>
<path d="M23.2305 21.3121C24.6909 21.2197 25.7909 19.8193 25.6874 18.1843C25.5839 16.5493 24.3161 15.2988 22.8557 15.3912C21.3953 15.4837 20.2953 16.884 20.3988 18.5191C20.5023 20.1541 21.7701 21.4046 23.2305 21.3121Z" fill="white"/>
<path d="M22.6303 20.7095C23.5113 20.6537 24.1748 19.8075 24.1123 18.8193C24.0497 17.8312 23.2848 17.0753 22.4038 17.1311C21.5228 17.1868 20.8593 18.0331 20.9219 19.0213C20.9844 20.0094 21.7493 20.7653 22.6303 20.7095Z" fill="#982A44"/>
<path d="M22.6007 20.2424C23.2515 20.2012 23.7417 19.5759 23.6955 18.8457C23.6492 18.1155 23.0842 17.5569 22.4333 17.5981C21.7825 17.6393 21.2924 18.2647 21.3386 18.9949C21.3848 19.7251 21.9499 20.2836 22.6007 20.2424Z" fill="#D25C78"/>
<path d="M22.5677 19.7179C22.9606 19.693 23.2565 19.3158 23.2286 18.8753C23.2007 18.4348 22.8596 18.0978 22.4667 18.1227C22.0739 18.1476 21.778 18.5248 21.8059 18.9653C21.8337 19.4058 22.1748 19.7428 22.5677 19.7179Z" fill="#553F16"/>
<path d="M23.9506 19.0706C24.2721 19.0502 24.5162 18.7732 24.4958 18.4517C24.4755 18.1303 24.1984 17.8862 23.877 17.9065C23.5555 17.9269 23.3114 18.2039 23.3318 18.5254C23.3521 18.8468 23.6292 19.0909 23.9506 19.0706Z" fill="white"/>
<path d="M12.488 12.0951C12.9992 11.9367 13.46 11.6631 13.9208 11.3895C14.2448 11.1951 14.6624 11.0079 14.9792 11.2095C15.152 11.3175 15.2528 11.5263 15.26 11.7351C15.2672 11.9439 15.2024 12.1455 15.1088 12.3255C14.8568 12.8079 14.396 13.1751 13.8848 13.3551C13.3664 13.5351 12.7976 13.5351 12.272 13.3911C11.9624 13.3047 10.724 12.7503 10.868 12.2679C10.904 12.1095 12.2 12.1815 12.488 12.0951Z" fill="#343A3F"/>
<path d="M23.7273 11.5262C23.2161 11.3822 22.7409 11.123 22.2729 10.8638C21.9417 10.6838 21.5241 10.5038 21.2073 10.7126C21.0345 10.8278 20.9481 11.0366 20.9409 11.2454C20.9409 11.4542 21.0129 11.6486 21.1137 11.8286C21.3801 12.3038 21.8481 12.6566 22.3665 12.8222C22.8849 12.9878 23.4609 12.9734 23.9793 12.815C24.2889 12.7214 25.5057 12.131 25.3545 11.6486C25.3113 11.4902 24.0225 11.6054 23.7273 11.5262Z" fill="#343A3F"/>
<path d="M27.4566 10.9359C26.7006 10.9143 24.6918 14.7231 27.4566 14.7231C30.2214 14.7231 27.4566 10.9359 27.4566 10.9359Z" fill="#5CD1FF"/>
<path d="M24.6562 26.4375C24.6562 26.4375 25.513 24.7598 20.4154 25.1846C15.3898 25.6022 16.8082 26.8766 16.8082 26.8766L24.6562 26.4375Z" fill="#343A3F"/>
<path d="M24.9656 26.6174C25.3472 25.8686 24.6632 25.2422 24.008 25.0118C22.9496 24.6446 21.7112 24.7238 20.624 24.803C19.4504 24.8894 18.1544 24.983 17.0744 25.4942C16.6712 25.6814 16.2536 26.0198 16.2752 26.5094C16.2824 26.7254 16.3904 26.9846 16.5632 27.1286C16.8368 27.359 17.4704 27.2006 17.7872 27.179C18.608 27.1358 19.4216 27.0854 20.2424 27.0422C21.7184 26.963 23.1872 26.8766 24.6632 26.7974C25.124 26.7686 25.124 26.0486 24.6632 26.0774C22.3736 26.207 20.0768 26.3366 17.7872 26.459C17.4632 26.4806 17.1392 26.495 16.8224 26.5166C16.9088 26.5526 16.9952 26.5886 17.0744 26.6246C16.9736 26.5382 17.0888 26.6606 17.0312 26.567C16.9664 26.4662 17.024 26.6102 17.0024 26.5094C16.988 26.4518 16.9952 26.4734 16.9952 26.4806C17.0024 26.4158 17.0096 26.4302 16.9952 26.459C17.0096 26.4302 17.024 26.3942 17.0528 26.3654C16.988 26.4374 17.096 26.3294 17.1104 26.315C17.1248 26.3006 17.1608 26.2718 17.2256 26.2358C17.5424 26.0414 17.9096 25.9406 18.2624 25.8542C19.6592 25.523 21.1928 25.4006 22.6256 25.4942C23.036 25.523 23.4608 25.5734 23.8424 25.7174C23.9432 25.7534 24.044 25.8038 24.1448 25.8686C24.2312 25.9262 24.152 25.8686 24.224 25.9262C24.2456 25.9478 24.332 26.0414 24.2744 25.9694C24.3032 26.0054 24.3248 26.0486 24.3464 26.0846C24.3104 26.0054 24.3392 26.0702 24.3536 26.1134C24.3824 26.2286 24.3464 26.063 24.3608 26.1422C24.368 26.1638 24.3608 26.1998 24.3608 26.2214C24.368 26.1206 24.368 26.2142 24.3464 26.279C24.3104 26.3654 24.3896 26.1998 24.3608 26.2502C24.1376 26.6678 24.7568 27.035 24.9656 26.6174Z" fill="#343A3F"/>
</svg>
