<svg width="37" height="36" viewBox="0 0 37 36" fill="none" xmlns="http://www.w3.org/2000/svg">
<path d="M21.2 7.75346C21.1856 7.39346 21.2504 7.04786 21.5024 6.83906C22.4024 6.09026 23.0864 5.85266 22.8056 5.47106C22.532 5.08946 21.2648 5.08226 21.056 4.87346C20.8472 4.66466 21.5672 3.18866 21.02 2.90786C20.4656 2.62706 19.364 4.62866 18.7088 4.62866C18.0536 4.62866 17.5352 2.76386 16.9808 3.05186C16.4264 3.33266 16.5632 4.66466 16.3544 4.87346C16.1456 5.08226 14.5256 4.31906 14.252 4.70066C13.9784 5.08226 14.9072 5.80226 15.908 6.41426C16.3328 6.67346 16.3976 7.17746 16.3328 7.66706C9.48562 8.60306 4.23682 13.9095 4.23682 20.3175C4.23682 27.3879 10.6232 33.1191 18.5 33.1191C26.3768 33.1191 32.7632 27.3879 32.7632 20.3175C32.7632 14.0823 27.788 8.88386 21.2 7.75346Z" fill="#BE3455"/>
<path d="M21.1999 7.75343C21.1999 7.74623 21.0847 7.80383 21.0703 7.81103C25.8439 9.76223 30.7039 14.2838 31.0495 19.7774C31.3807 24.9758 27.4423 29.7206 23.3527 32.363C28.8463 30.5846 32.7631 25.8614 32.7631 20.3246C32.7631 14.0822 27.7879 8.88383 21.1999 7.75343Z" fill="#982A44"/>
<path d="M13.0567 10.6191C11.1991 9.92786 8.20391 12.1455 7.56311 12.9375C6.91511 13.7295 6.17351 16.7751 7.59911 17.3727C9.02471 17.9703 11.7679 16.8183 13.5751 15.0975C15.3823 13.3767 14.3167 11.0799 13.0567 10.6191Z" fill="#EF8595"/>
<path d="M6.77847 19.511C5.44647 19.3742 4.66887 22.859 6.30327 22.8734C7.93767 22.8878 8.11047 19.655 6.77847 19.511Z" fill="#EF8595"/>
<path d="M24.1301 27.9999C24.1301 27.9279 20.7965 25.0335 18.2189 25.1847C15.9653 25.3143 13.4597 26.2719 12.9341 26.8695C12.5957 27.2655 12.6893 27.4455 12.7829 27.6111C13.2221 28.4391 15.9365 26.8047 18.1325 26.6535C23.7125 26.2863 24.1301 28.8495 24.1301 27.9999Z" fill="#343A3F"/>
<path d="M24.483 27.9063C24.4182 27.7191 24.2454 27.5967 24.1014 27.4743C23.8062 27.2223 23.4966 26.9919 23.187 26.7687C22.3014 26.1351 21.3438 25.5807 20.3142 25.1991C19.119 24.7599 17.9742 24.7887 16.7286 25.0191C15.519 25.2423 14.2086 25.5951 13.1574 26.2575C12.783 26.4951 12.3582 26.8551 12.3438 27.3375C12.3294 27.7119 12.5886 28.0647 12.9486 28.1727C13.3302 28.2807 13.7622 28.1871 14.1294 28.0863C14.7198 27.9351 15.2886 27.7263 15.8646 27.5463C16.4766 27.3519 17.0958 27.1719 17.7222 27.0783C18.4134 26.9703 19.1406 26.9775 19.839 27.0063C20.7606 27.0495 21.7182 27.1863 22.5678 27.5751C23.0502 27.7911 23.3454 28.0287 23.7126 28.3455C24.0798 28.6623 24.4902 28.5039 24.4902 28.0071C24.4902 27.5463 23.7702 27.5463 23.7702 28.0071C23.7702 28.1295 23.7558 28.0503 23.7774 28.0431C23.7846 28.0359 23.9142 27.8559 24.0006 27.8343C24.051 27.8199 24.2526 27.8559 24.2382 27.8559C24.2742 27.8559 24.2958 27.9135 24.2238 27.8343C24.1806 27.7911 24.1374 27.7551 24.0942 27.7119C23.7774 27.4311 23.4318 27.1863 23.0502 26.9991C22.359 26.6607 21.6174 26.4735 20.8542 26.3727C19.731 26.2215 18.543 26.1999 17.427 26.3943C16.3254 26.5815 15.2886 26.9991 14.2158 27.3087C13.9062 27.3951 13.4958 27.5535 13.1718 27.4815C13.1142 27.4671 13.071 27.4743 13.0566 27.3807C13.0422 27.2295 13.2078 27.0855 13.323 26.9919C14.0862 26.3871 15.2022 26.0991 16.131 25.8759C17.2254 25.6023 18.3846 25.4007 19.4934 25.6959C20.559 25.9767 21.5454 26.5311 22.4526 27.1431C22.791 27.3663 23.115 27.6039 23.4318 27.8631C23.5326 27.9423 23.6334 28.0287 23.727 28.1151C23.8494 28.2231 23.8566 28.3239 23.7774 28.1007C23.9358 28.5327 24.6342 28.3455 24.483 27.9063Z" fill="#343A3F"/>
<path d="M16.1239 21.6422C16.0447 21.5558 15.9655 21.4766 15.8791 21.4046C15.5839 21.1454 15.2527 20.9438 14.9071 20.7926C14.7271 20.7134 14.5327 20.6486 14.3383 20.591C13.9855 20.4902 13.6255 20.4326 13.2727 20.4038C13.0639 20.3894 12.8623 20.375 12.6679 20.375C12.2575 20.375 11.8615 20.4038 11.5087 20.447C11.3647 20.4614 11.2279 20.483 11.1055 20.5046C10.9615 20.1374 10.8679 19.7414 10.8391 19.3238C10.7167 17.4086 12.0055 15.7598 13.7191 15.6518C15.4327 15.5438 16.9159 17.0126 17.0383 18.9278C17.1031 19.9862 16.7431 20.9654 16.1239 21.6422Z" fill="#982A44"/>
<path d="M15.8791 21.3975C15.5839 21.1383 15.2527 20.9367 14.9071 20.7855C14.7271 20.7063 14.5327 20.6415 14.3383 20.5839C13.9855 20.4831 13.6255 20.4255 13.2727 20.3967C13.0639 20.3823 12.8623 20.3679 12.6679 20.3679C12.2575 20.3679 11.8615 20.3967 11.5087 20.4399C11.4007 20.1447 11.3287 19.8207 11.3071 19.4895C11.1991 17.8551 12.3007 16.4511 13.7623 16.3647C15.2239 16.2711 16.4911 17.5239 16.5919 19.1583C16.6495 20.0295 16.3687 20.8215 15.8791 21.3975Z" fill="white"/>
<path d="M15.548 19.2302C15.5552 19.3022 15.5552 19.3814 15.548 19.4462C15.5264 19.9934 15.2816 20.4758 14.9072 20.7854C14.7272 20.7062 14.5328 20.6414 14.3384 20.5838C13.9856 20.483 13.6256 20.4254 13.2728 20.3966C13.064 20.3822 12.8624 20.3678 12.668 20.3678C12.4952 20.1014 12.38 19.7774 12.3584 19.4246C12.2936 18.4382 12.956 17.5886 13.8416 17.5382C14.4248 17.5022 14.9504 17.819 15.26 18.3158C15.4256 18.5822 15.5264 18.8918 15.548 19.2302Z" fill="#982A44"/>
<path d="M15.1305 19.259C15.1377 19.3166 15.1377 19.3814 15.1305 19.439C15.1017 19.9718 14.7849 20.4254 14.3385 20.591C13.9857 20.4902 13.6257 20.4326 13.2729 20.4038C12.9921 20.1806 12.7977 19.8206 12.7761 19.4102C12.7329 18.683 13.2225 18.0566 13.8705 18.0134C14.2809 17.9846 14.6553 18.2006 14.8857 18.5462C15.0297 18.7406 15.1161 18.9926 15.1305 19.259Z" fill="#D25C78"/>
<path d="M14.0072 20.1284C14.4001 20.1036 14.6959 19.7263 14.6681 19.2858C14.6402 18.8453 14.2991 18.5083 13.9062 18.5332C13.5133 18.5581 13.2174 18.9353 13.2453 19.3758C13.2732 19.8164 13.6143 20.1533 14.0072 20.1284Z" fill="#553F16"/>
<path d="M15.3901 19.481C15.7115 19.4606 15.9556 19.1836 15.9353 18.8621C15.9149 18.5407 15.6379 18.2966 15.3164 18.3169C14.995 18.3373 14.7509 18.6143 14.7712 18.9358C14.7916 19.2572 15.0686 19.5013 15.3901 19.481Z" fill="white"/>
<path d="M10.4577 20.6486C10.3785 20.699 10.4289 20.8286 10.5225 20.7998C12.4953 20.2814 15.2817 20.6846 16.6641 22.3478C16.6785 22.3622 16.7145 22.3478 16.7073 22.3262C15.9009 20.4254 12.0993 19.5686 10.4577 20.6486Z" fill="#982A44"/>
<path d="M21.0202 21.6422C21.0994 21.5558 21.1786 21.4766 21.265 21.4046C21.5602 21.1454 21.8914 20.9438 22.237 20.7926C22.417 20.7134 22.6114 20.6486 22.8058 20.591C23.1586 20.4902 23.5186 20.4326 23.8714 20.4038C24.0802 20.3894 24.2818 20.375 24.4762 20.375C24.8866 20.375 25.2826 20.4038 25.6354 20.447C25.7794 20.4614 25.9162 20.483 26.0386 20.5046C26.1826 20.1374 26.2762 19.7414 26.305 19.3238C26.4274 17.4086 25.1386 15.7598 23.425 15.6518C21.7114 15.5438 20.2282 17.0126 20.1058 18.9278C20.0338 19.9862 20.3938 20.9654 21.0202 21.6422Z" fill="#982A44"/>
<path d="M21.2578 21.3975C21.553 21.1383 21.8842 20.9367 22.2298 20.7855C22.4098 20.7063 22.6042 20.6415 22.7986 20.5839C23.1514 20.4831 23.5114 20.4255 23.8642 20.3967C24.073 20.3823 24.2746 20.3679 24.469 20.3679C24.8794 20.3679 25.2754 20.3967 25.6282 20.4399C25.7362 20.1447 25.8082 19.8207 25.8298 19.4895C25.9378 17.8551 24.8362 16.4511 23.3746 16.3647C21.913 16.2711 20.6458 17.5239 20.545 19.1583C20.4874 20.0295 20.7682 20.8215 21.2578 21.3975Z" fill="white"/>
<path d="M21.5889 19.2302C21.5817 19.3022 21.5817 19.3814 21.5889 19.4462C21.6105 19.9934 21.8553 20.4758 22.2297 20.7854C22.4097 20.7062 22.6041 20.6414 22.7985 20.5838C23.1513 20.483 23.5113 20.4254 23.8641 20.3966C24.0729 20.3822 24.2745 20.3678 24.4689 20.3678C24.6417 20.1014 24.7569 19.7774 24.7785 19.4246C24.8433 18.4382 24.1809 17.5886 23.2953 17.5382C22.7121 17.5022 22.1865 17.819 21.8769 18.3158C21.7113 18.5822 21.6105 18.8918 21.5889 19.2302Z" fill="#982A44"/>
<path d="M22.0064 19.259C21.9992 19.3166 21.9992 19.3814 22.0064 19.439C22.0352 19.9718 22.352 20.4254 22.7984 20.591C23.1512 20.4902 23.5112 20.4326 23.864 20.4038C24.1448 20.1806 24.3392 19.8206 24.3608 19.4102C24.404 18.683 23.9144 18.0566 23.2664 18.0134C22.856 17.9846 22.4816 18.2006 22.2512 18.5462C22.1144 18.7406 22.028 18.9926 22.0064 19.259Z" fill="#D25C78"/>
<path d="M23.8966 19.3784C23.9245 18.9379 23.6286 18.5606 23.2357 18.5358C22.8428 18.5109 22.5017 18.8478 22.4738 19.2883C22.4459 19.7288 22.7418 20.1061 23.1347 20.131C23.5276 20.1558 23.8687 19.8189 23.8966 19.3784Z" fill="#553F16"/>
<path d="M25.2756 18.7152C25.296 18.3937 25.0519 18.1166 24.7304 18.0963C24.409 18.0759 24.1319 18.32 24.1115 18.6415C24.0912 18.9629 24.3353 19.24 24.6567 19.2604C24.9782 19.2807 25.2553 19.0366 25.2756 18.7152Z" fill="white"/>
<path d="M26.6866 20.6486C26.7658 20.699 26.7154 20.8286 26.6218 20.7998C24.649 20.2814 21.8626 20.6846 20.4802 22.3478C20.4658 22.3622 20.4298 22.3478 20.437 22.3262C21.2362 20.4254 25.0378 19.5686 26.6866 20.6486Z" fill="#982A44"/>
<path d="M13.7122 14.5143C14.2234 14.3559 14.6842 14.0823 15.145 13.8087C15.469 13.6143 15.8866 13.4271 16.2034 13.6287C16.3762 13.7367 16.477 13.9455 16.4842 14.1543C16.4914 14.3631 16.4266 14.5647 16.333 14.7447C16.081 15.2271 15.6202 15.5943 15.109 15.7743C14.5906 15.9543 14.0218 15.9543 13.4962 15.8103C13.1866 15.7239 11.9482 15.1695 12.0922 14.6871C12.1282 14.5215 13.417 14.6007 13.7122 14.5143Z" fill="#343A3F"/>
<path d="M23.2376 14.4711C22.7264 14.3271 22.2512 14.0679 21.7832 13.8087C21.452 13.6287 21.0344 13.4487 20.7176 13.6575C20.5448 13.7727 20.4584 13.9815 20.4512 14.1903C20.4512 14.3991 20.5232 14.5935 20.624 14.7735C20.8904 15.2487 21.3584 15.6015 21.8768 15.7671C22.3952 15.9327 22.9712 15.9183 23.4896 15.7599C23.7992 15.6663 25.016 15.0759 24.8648 14.5935C24.8216 14.4423 23.5328 14.5503 23.2376 14.4711Z" fill="#343A3F"/>
</svg>
