<svg width="43" height="42" viewBox="0 0 43 42" fill="none" xmlns="http://www.w3.org/2000/svg">
<circle cx="21.9062" cy="21" r="20.5" fill="white" stroke="#BE3455"/>
<path d="M12.0609 31.3333C11.4467 31.3333 10.9343 31.128 10.5236 30.7173C10.1129 30.3067 9.90714 29.7938 9.90625 29.1787V16.1547C9.90625 15.5404 10.112 15.028 10.5236 14.6173C10.9351 14.2067 11.4471 14.0009 12.0596 14H17.9062V12.1533C17.9062 11.54 18.112 11.0276 18.5236 10.616C18.9351 10.2044 19.4476 9.99911 20.0609 10H23.7529C24.3663 10 24.8787 10.2053 25.2903 10.616C25.7018 11.0267 25.9071 11.5391 25.9062 12.1533V14H31.7529C32.3663 14 32.8783 14.2058 33.2889 14.6173C33.6996 15.0289 33.9054 15.5413 33.9062 16.1547V29.18C33.9062 29.7933 33.7005 30.3058 33.2889 30.7173C32.8774 31.1289 32.3654 31.3342 31.7529 31.3333H12.0609ZM19.2396 14H24.5729V12.1533C24.5729 11.9489 24.4876 11.7609 24.3169 11.5893C24.1462 11.4178 23.9583 11.3324 23.7529 11.3333H20.0596C19.8551 11.3333 19.6671 11.4187 19.4956 11.5893C19.324 11.76 19.2387 11.948 19.2396 12.1533V14Z" fill="#BE3455"/>
</svg>
