<svg width="43" height="42" viewBox="0 0 43 42" fill="none" xmlns="http://www.w3.org/2000/svg">
<circle cx="21.5957" cy="21" r="20.5" fill="white" stroke="#15ABEE"/>
<path d="M23.8453 20.25C23.8451 20.8469 23.6077 21.4193 23.1855 21.8413C22.7633 22.2633 22.1907 22.5002 21.5938 22.5C20.9968 22.4998 20.4244 22.2625 20.0024 21.8402C19.5805 21.418 19.3436 20.8454 19.3438 20.2485C19.3439 19.6516 19.5813 19.0792 20.0035 18.6572C20.4257 18.2352 20.9983 17.9983 21.5953 17.9985C22.1922 17.9987 22.7646 18.236 23.1866 18.6583C23.6085 19.0805 23.8454 19.6531 23.8453 20.25ZM31.0003 15H27.1902C26.502 15 25.842 15.2734 25.3553 15.7601C24.8687 16.2467 24.5953 16.9068 24.5953 17.595V22.5C24.5953 22.8978 24.7533 23.2794 25.0346 23.5607C25.3159 23.842 25.6974 24 26.0953 24V33H32.0953V24C32.4931 24 32.8746 23.842 33.1559 23.5607C33.4372 23.2794 33.5953 22.8978 33.5953 22.5V17.595C33.5953 16.9068 33.3218 16.2467 32.8352 15.7601C32.3485 15.2734 31.6885 15 31.0003 15Z" fill="#15ABEE"/>
<path d="M32.0957 11.9996C32.1047 12.3991 32.0339 12.7964 31.8872 13.1681C31.7406 13.5398 31.5212 13.8785 31.2419 14.1643C30.9626 14.4501 30.629 14.6772 30.2607 14.8323C29.8924 14.9873 29.4968 15.0673 29.0972 15.0674C28.6976 15.0675 28.302 14.9877 27.9336 14.8329C27.5653 14.678 27.2316 14.451 26.9521 14.1654C26.6726 13.8798 26.453 13.5412 26.3062 13.1695C26.1594 12.7978 26.0884 12.4006 26.0972 12.0011C26.1145 11.2172 26.438 10.4713 26.9985 9.923C27.5589 9.3747 28.3117 9.06758 29.0957 9.06738C29.8798 9.06719 30.6327 9.37393 31.1934 9.92195C31.7541 10.47 32.078 11.2157 32.0957 11.9996ZM16.0007 16.4996H12.1907C11.8498 16.4997 11.5123 16.5669 11.1974 16.6974C10.8825 16.828 10.5964 17.0193 10.3555 17.2604C10.1145 17.5015 9.92336 17.7877 9.79301 18.1027C9.66265 18.4176 9.5956 18.7552 9.5957 19.0961C9.5958 19.4369 9.66304 19.7745 9.79358 20.0894C9.92412 20.4042 10.1154 20.6903 10.3565 20.9313C10.5976 21.1723 10.8838 21.3634 11.1988 21.4938C11.5138 21.6241 11.8513 21.6912 12.1922 21.6911C12.8806 21.6909 13.5408 21.4172 14.0275 20.9303C14.5141 20.4433 14.7874 19.783 14.7872 19.0946C14.787 18.4061 14.5133 17.746 14.0264 17.2593C13.5395 16.7726 12.8791 16.4994 12.1907 16.4996C11.5025 16.4996 10.8421 16.7737 10.3555 17.2604C9.86879 17.747 9.5957 18.4078 9.5957 19.0961L9.5957 22.4996C9.5957 22.8974 9.75374 23.2789 10.035 23.5602C10.3163 23.8415 10.6979 23.9996 11.0957 23.9996L9.5957 28.4996H11.0957V32.9996H17.0957V28.4996H18.5957L17.0957 23.9996C17.4935 23.9996 17.8751 23.8415 18.1564 23.5602C18.4377 23.2789 18.5957 22.8974 18.5957 22.4996V19.0946C18.5957 18.7538 18.5286 18.4163 18.3982 18.1015C18.2678 17.7867 18.0766 17.5006 17.8356 17.2596C17.5947 17.0186 17.3086 16.8275 16.9938 16.6971C16.6789 16.5667 16.3415 16.4996 16.0007 16.4996Z" fill="#15ABEE"/>
<path d="M17.0949 13.4996C17.104 13.8991 17.0331 14.2964 16.8865 14.6681C16.7399 15.0398 16.5205 15.3785 16.2411 15.6643C15.9618 15.9501 15.6282 16.1772 15.2599 16.3323C14.8916 16.4873 14.4961 16.5673 14.0965 16.5674C13.6968 16.5675 13.3012 16.4877 12.9329 16.3329C12.5645 16.178 12.2308 15.951 11.9513 15.6654C11.6719 15.3798 11.4523 15.0412 11.3055 14.6695C11.1587 14.2978 11.0876 13.9006 11.0964 13.5011C11.1138 12.7172 11.4373 11.9713 11.9977 11.423C12.5581 10.8747 13.3109 10.5676 14.095 10.5674C14.879 10.5672 15.6319 10.8739 16.1926 11.422C16.7533 11.97 17.0772 12.7157 17.0949 13.4996ZM20.0949 28.4996V32.9996H23.0949V28.4996C23.4928 28.4996 23.8743 28.3415 24.1556 28.0602C24.4369 27.7789 24.5949 27.3974 24.5949 26.9996V24.6896C24.5949 24.1087 24.3642 23.5517 23.9535 23.141C23.5428 22.7303 22.9858 22.4996 22.4049 22.4996H20.7849C20.2041 22.4996 19.6471 22.7303 19.2364 23.141C18.8257 23.5517 18.5949 24.1087 18.5949 24.6896V26.9996C18.5949 27.3974 18.753 27.7789 19.0343 28.0602C19.3156 28.3415 19.6971 28.4996 20.0949 28.4996Z" fill="#15ABEE"/>
</svg>
