<svg width="43" height="42" viewBox="0 0 43 42" fill="none" xmlns="http://www.w3.org/2000/svg">
<circle cx="21.5957" cy="21" r="20.5" fill="white" stroke="#FF9F00"/>
<path d="M27.8291 10.9141C28.6963 10.9141 29.4697 11.7948 29.4697 12.978C29.4697 14.1653 28.6963 15.0419 27.8291 15.0419C26.9619 15.0419 26.1885 14.1653 26.1885 12.978C26.1885 11.7948 26.9619 10.9141 27.8291 10.9141ZM21.5994 10.9141C22.4619 10.9141 23.2401 11.7948 23.2401 12.978C23.2401 14.1653 22.4619 15.0419 21.5994 15.0419C20.7323 15.0419 19.9541 14.1653 19.9541 12.978C19.9541 11.7948 20.7323 10.9141 21.5994 10.9141ZM15.3651 10.9141C16.2323 10.9141 17.0057 11.7948 17.0057 12.978C17.0057 14.1653 16.2323 15.0419 15.3651 15.0419C14.4979 15.0419 13.7202 14.1653 13.7202 12.978C13.7202 11.7948 14.4979 10.9141 15.3651 10.9141ZM21.5994 16.0262C24.5994 16.12 27.1307 16.12 30.1682 16.2231C31.6166 17.0575 32.2869 21.3325 32.2448 22.8184L31.4198 23.6481C31.0588 21.6419 30.6041 18.9653 29.8494 18.37V22.4762L30.0416 31.0872H29.001L28.2182 22.4294H27.3744L26.5916 31.0872H25.5463L25.7432 22.4762L25.3682 18.3278H23.9948L23.6573 22.4622L23.8541 31.0731H22.8088L22.0213 22.4153H21.1776L20.3901 31.0731H19.3494L19.5463 22.4622L19.2041 18.3278H17.8307L17.4557 22.4762L17.6526 31.0872H16.6073L15.8244 22.4294H14.9807L14.189 31.0872H13.1483L13.3452 22.4762V18.37C12.5858 18.9653 12.1312 21.6419 11.7702 23.6481L10.9452 22.8184C10.903 21.3325 11.578 17.0575 13.0218 16.2231C16.0682 16.12 18.5994 16.12 21.5994 16.0262Z" fill="#FF9F00"/>
</svg>
