<svg width="43" height="42" viewBox="0 0 43 42" fill="none" xmlns="http://www.w3.org/2000/svg">
<circle cx="21.5957" cy="21" r="20.5" fill="white" stroke="#00817D"/>
<path fill-rule="evenodd" clip-rule="evenodd" d="M21.2663 14.061C19.1661 11.4543 15.414 11.2974 13.1263 13.7206C11.5236 15.4183 11.1069 17.8965 11.8763 20H15.9773L18.5963 14.7639L21.5963 20.763L23.0963 17.7639L24.2143 20H31.3164C32.0858 17.8965 31.6691 15.4183 30.0664 13.7206C27.7787 11.2975 24.0266 11.4543 21.9264 14.061L21.5963 14.4706L21.2663 14.061ZM30.0929 22H23.2143L21.5963 25.236L18.5963 19.236L17.2143 22H13.0998C13.1086 22.0094 13.1174 22.0188 13.1263 22.0283L21.5921 30.9955L21.5963 31H21.5963L30.0663 22.0283C30.0752 22.0189 30.084 22.0095 30.0928 22" fill="#00817D"/>
</svg>
