<svg width="43" height="42" viewBox="0 0 43 42" fill="none" xmlns="http://www.w3.org/2000/svg">
<circle cx="21.5957" cy="21" r="20.5" fill="white" stroke="#C5763B"/>
<path d="M21.596 26.2752L17.446 28.7752C17.2627 28.8919 17.071 28.9419 16.871 28.9252C16.671 28.9085 16.496 28.8419 16.346 28.7252C16.196 28.6085 16.0794 28.4629 15.996 28.2882C15.9127 28.1135 15.896 27.9175 15.946 27.7002L17.046 22.9752L13.371 19.8002C13.2044 19.6502 13.1004 19.4792 13.059 19.2872C13.0177 19.0952 13.03 18.9079 13.096 18.7252C13.162 18.5425 13.262 18.3925 13.396 18.2752C13.53 18.1579 13.7134 18.0829 13.946 18.0502L18.796 17.6252L20.671 13.1752C20.7544 12.9752 20.8837 12.8252 21.059 12.7252C21.2344 12.6252 21.4134 12.5752 21.596 12.5752C21.7787 12.5752 21.9577 12.6252 22.133 12.7252C22.3084 12.8252 22.4377 12.9752 22.521 13.1752L24.396 17.6252L29.246 18.0502C29.4794 18.0835 29.6627 18.1585 29.796 18.2752C29.9294 18.3919 30.0294 18.5419 30.096 18.7252C30.1627 18.9085 30.1754 19.0962 30.134 19.2882C30.0927 19.4802 29.9884 19.6509 29.821 19.8002L26.146 22.9752L27.246 27.7002C27.296 27.9169 27.2794 28.1129 27.196 28.2882C27.1127 28.4635 26.996 28.6092 26.846 28.7252C26.696 28.8412 26.521 28.9079 26.321 28.9252C26.121 28.9425 25.9294 28.8925 25.746 28.7752L21.596 26.2752Z" fill="#BF733A"/>
</svg>
