<svg width="43" height="42" viewBox="0 0 43 42" fill="none" xmlns="http://www.w3.org/2000/svg">
<circle cx="21.5957" cy="21" r="20.5" fill="white" stroke="#688602"/>
<path d="M17.9927 9.96684C16.6778 9.97246 15.4593 10.2393 14.8652 10.4253C14.8652 10.4253 20.2544 11.3398 20.7027 15.0601C16.6075 9.15567 12.1406 16.2965 12.1406 16.2965C13.0719 16.0522 15.7387 15.327 17.5195 15.6329C18.7379 15.8422 19.9256 16.9468 19.8743 16.9329C16.9708 17.6473 12.3579 30.5698 13.1412 31.6192C13.8397 32.4217 14.5388 32.1479 15.2374 31.7408C15.5831 29.0022 18.2813 16.9862 21.5831 17.9562C21.5835 17.9564 21.584 17.9561 21.5845 17.9562C21.8625 18.0514 22.1254 18.2182 22.1397 18.4732C22.1669 18.959 21.8533 19.7529 21.9273 20.3043C22.099 21.5838 22.3495 22.0289 22.7139 22.4752C23.5841 21.9861 24.4167 20.2226 24.5889 19.3082C25.3686 19.6496 26.622 20.4404 27.6445 23.3775C28.1791 20.6252 27.4082 18.4543 24.8775 17.4903C25.9734 17.0166 30.7435 19.4136 31.3258 20.7495C31.8922 18.3405 27.8853 15.3928 24.5494 15.5494C25.1889 15.3825 25.8918 15.5775 26.5606 15.085C27.4581 14.4242 28.5047 13.855 29.48 13.2437C26.2 11.817 23.1732 12.5215 22.96 13.9981C22.7925 10.7208 20.2492 9.95732 17.9927 9.96689L17.9927 9.96684Z" fill="#688602"/>
</svg>
